<svg width="276" height="416" viewBox="0 0 276 416" fill="none" xmlns="http://www.w3.org/2000/svg">
<path d="M29.1875 38.2573C29.15 38.1636 29.1106 38.0698 29.0703 37.9761C28.4654 36.5811 27.4865 35.3806 26.2419 34.5073H28.25C28.4489 34.5073 28.6397 34.4283 28.7803 34.2877C28.921 34.147 29 33.9562 29 33.7573C29 33.5584 28.921 33.3676 28.7803 33.227C28.6397 33.0863 28.4489 33.0073 28.25 33.0073H18.5C16.4263 33.01 14.4295 33.7923 12.906 35.1991C11.3825 36.6059 10.4438 38.5342 10.2763 40.6011C9.6284 40.7621 9.05277 41.1346 8.64049 41.6597C8.2282 42.1847 8.00281 42.8323 8 43.4998C8 43.6987 8.07902 43.8895 8.21967 44.0302C8.36032 44.1708 8.55109 44.2498 8.75 44.2498C8.94891 44.2498 9.13968 44.1708 9.28033 44.0302C9.42098 43.8895 9.5 43.6987 9.5 43.4998C9.50017 43.2263 9.57512 42.9581 9.71673 42.7241C9.85834 42.4901 10.0612 42.2993 10.3034 42.1723C10.4901 43.855 11.1918 45.439 12.3125 46.7079L13.49 50.0042C13.5941 50.2958 13.7859 50.548 14.039 50.7262C14.2921 50.9045 14.5942 51 14.9037 50.9998H16.0963C16.4057 50.9999 16.7075 50.9042 16.9605 50.726C17.2134 50.5477 17.405 50.2956 17.5091 50.0042L17.6891 49.4998H23.0609L23.2409 50.0042C23.345 50.2956 23.5366 50.5477 23.7895 50.726C24.0425 50.9042 24.3443 50.9999 24.6537 50.9998H25.8463C26.1557 50.9999 26.4575 50.9042 26.7105 50.726C26.9634 50.5477 27.155 50.2956 27.2591 50.0042L28.7787 45.7498H29C29.5967 45.7498 30.169 45.5128 30.591 45.0908C31.0129 44.6689 31.25 44.0966 31.25 43.4998V40.4998C31.2501 39.9355 31.0381 39.3917 30.6561 38.9764C30.274 38.561 29.7499 38.3044 29.1875 38.2573ZM22.25 36.7498H18.5C18.3011 36.7498 18.1103 36.6708 17.9697 36.5302C17.829 36.3895 17.75 36.1987 17.75 35.9998C17.75 35.8009 17.829 35.6101 17.9697 35.4695C18.1103 35.3288 18.3011 35.2498 18.5 35.2498H22.25C22.4489 35.2498 22.6397 35.3288 22.7803 35.4695C22.921 35.6101 23 35.8009 23 35.9998C23 36.1987 22.921 36.3895 22.7803 36.5302C22.6397 36.6708 22.4489 36.7498 22.25 36.7498ZM24.875 41.9998C24.6525 41.9998 24.435 41.9338 24.25 41.8102C24.065 41.6866 23.9208 41.5109 23.8356 41.3053C23.7505 41.0998 23.7282 40.8736 23.7716 40.6553C23.815 40.4371 23.9222 40.2367 24.0795 40.0793C24.2368 39.922 24.4373 39.8148 24.6555 39.7714C24.8738 39.728 25.1 39.7503 25.3055 39.8355C25.5111 39.9206 25.6868 40.0648 25.8104 40.2498C25.934 40.4348 26 40.6523 26 40.8748C26 41.1732 25.8815 41.4593 25.6705 41.6703C25.4595 41.8813 25.1734 41.9998 24.875 41.9998Z" fill="#7C7C82"/>
<path d="M55.9766 41.9453C55.9766 43.112 55.75 44.1224 55.2969 44.9766C54.849 45.8307 54.2135 46.4922 53.3906 46.9609C52.5677 47.4245 51.5938 47.6562 50.4688 47.6562C49.3385 47.6562 48.362 47.4271 47.5391 46.9688C46.7214 46.5104 46.0911 45.8542 45.6484 45C45.2109 44.1458 44.9922 43.1276 44.9922 41.9453C44.9922 40.7682 45.2083 39.763 45.6406 38.9297C46.0781 38.0911 46.7057 37.4479 47.5234 37C48.3464 36.5521 49.3333 36.3281 50.4844 36.3281C51.625 36.3281 52.6042 36.5521 53.4219 37C54.2448 37.4427 54.875 38.0833 55.3125 38.9219C55.7552 39.7552 55.9766 40.763 55.9766 41.9453ZM54.1797 41.9453C54.1797 40.638 53.8568 39.612 53.2109 38.8672C52.5651 38.1172 51.6562 37.7422 50.4844 37.7422C49.3021 37.7422 48.388 38.112 47.7422 38.8516C47.0964 39.5859 46.7734 40.6172 46.7734 41.9453C46.7734 42.8255 46.9193 43.5885 47.2109 44.2344C47.5078 44.875 47.9323 45.3698 48.4844 45.7188C49.0417 46.0677 49.7031 46.2422 50.4688 46.2422C51.6615 46.2422 52.5781 45.8698 53.2188 45.125C53.8594 44.375 54.1797 43.3151 54.1797 41.9453ZM61.9453 39.4766C63.1536 39.4766 64.0417 39.8177 64.6094 40.5C65.1771 41.1771 65.4609 42.1979 65.4609 43.5625C65.4609 44.9427 65.1224 45.9714 64.4453 46.6484C63.7682 47.3203 62.7839 47.6562 61.4922 47.6562C60.1536 47.6562 59.1667 47.237 58.5312 46.3984C57.901 45.5599 57.5859 44.2708 57.5859 42.5312C57.5859 41.6458 57.6484 40.8698 57.7734 40.2031C57.8984 39.5312 58.0938 38.9531 58.3594 38.4688C58.6302 37.9844 58.9766 37.5807 59.3984 37.2578C59.8203 36.9349 60.3516 36.6745 60.9922 36.4766C61.3099 36.3776 61.8073 36.2682 62.4844 36.1484C63.1615 36.0286 64.0156 35.901 65.0469 35.7656V37.2188C64.3177 37.3021 63.6458 37.3906 63.0312 37.4844C62.4219 37.5781 61.8932 37.6771 61.4453 37.7812C60.9974 37.8802 60.651 37.9896 60.4062 38.1094C59.8229 38.3698 59.4115 38.7708 59.1719 39.3125C58.9323 39.849 58.8021 40.6354 58.7812 41.6719C59.0208 40.9688 59.4089 40.4271 59.9453 40.0469C60.487 39.6667 61.1536 39.4766 61.9453 39.4766ZM63.7109 43.5781C63.7109 42.5781 63.5469 41.8438 63.2188 41.375C62.8958 40.901 62.3646 40.6641 61.625 40.6641C60.8438 40.6641 60.2682 40.9036 59.8984 41.3828C59.5286 41.8568 59.3438 42.5885 59.3438 43.5781C59.3438 44.5417 59.5156 45.263 59.8594 45.7422C60.2083 46.2214 60.7474 46.4609 61.4766 46.4609C62.2786 46.4609 62.8516 46.2292 63.1953 45.7656C63.5391 45.3021 63.7109 44.5729 63.7109 43.5781ZM68.9062 43.7266V47.5H67.2344V39.0469H68.9062V42.5469H72.4531V39.0469H74.125V47.5H72.4531V43.7266H68.9062ZM83.7656 43.2656C83.7656 44.7083 83.4219 45.8021 82.7344 46.5469C82.0469 47.2865 81.0677 47.6562 79.7969 47.6562C78.5312 47.6562 77.5625 47.276 76.8906 46.5156C76.224 45.75 75.8906 44.6667 75.8906 43.2656C75.8906 41.8385 76.2266 40.7526 76.8984 40.0078C77.5703 39.263 78.5521 38.8906 79.8438 38.8906C81.1615 38.8906 82.1432 39.2526 82.7891 39.9766C83.4401 40.7005 83.7656 41.7969 83.7656 43.2656ZM82.0156 43.2656C82.0156 42.151 81.8464 41.3438 81.5078 40.8438C81.1693 40.3385 80.6224 40.0859 79.8672 40.0859C79.0964 40.0859 78.5312 40.3464 78.1719 40.8672C77.8177 41.3828 77.6406 42.1823 77.6406 43.2656C77.6406 44.3229 77.8151 45.1198 78.1641 45.6562C78.5182 46.1927 79.0547 46.4609 79.7734 46.4609C80.5651 46.4609 81.1354 46.2005 81.4844 45.6797C81.8385 45.1589 82.0156 44.3542 82.0156 43.2656ZM89.125 39.0469C90.2292 39.0469 91.0573 39.2266 91.6094 39.5859C92.1615 39.9453 92.4375 40.4714 92.4375 41.1641C92.4375 41.6484 92.2812 42.0521 91.9688 42.375C91.6615 42.6979 91.2188 42.9141 90.6406 43.0234V43.0781C92.0104 43.25 92.6953 43.9115 92.6953 45.0625C92.6953 45.8438 92.401 46.4453 91.8125 46.8672C91.224 47.2891 90.4062 47.5 89.3594 47.5H85.5312V39.0469H89.125ZM87.2031 42.5625H88.875C89.5312 42.5625 89.9974 42.474 90.2734 42.2969C90.5495 42.1198 90.6875 41.8125 90.6875 41.375C90.6875 40.974 90.5573 40.6823 90.2969 40.5C90.0365 40.3125 89.5964 40.2188 88.9766 40.2188H87.2031V42.5625ZM87.2031 46.3516H89.0234C89.7318 46.3516 90.2292 46.25 90.5156 46.0469C90.8073 45.8385 90.9531 45.5026 90.9531 45.0391C90.9531 44.5443 90.7995 44.1953 90.4922 43.9922C90.1901 43.7891 89.6719 43.6875 88.9375 43.6875H87.2031V46.3516ZM95.8984 46.4922C95.7057 46.8932 95.4661 47.1875 95.1797 47.375C94.8984 47.5625 94.526 47.6562 94.0625 47.6562C93.9167 47.6562 93.7604 47.6458 93.5938 47.625C93.4323 47.6094 93.2917 47.5859 93.1719 47.5547V46.3828C93.3073 46.4297 93.4844 46.4531 93.7031 46.4531C93.8021 46.4531 93.9167 46.4219 94.0469 46.3594C94.1771 46.2917 94.3125 46.1224 94.4531 45.8516C94.599 45.5807 94.737 45.1354 94.8672 44.5156C94.9089 44.3177 94.9505 44.0833 94.9922 43.8125C95.0391 43.5417 95.0911 43.2005 95.1484 42.7891C95.2109 42.3776 95.2839 41.8698 95.3672 41.2656C95.4505 40.6562 95.5521 39.9167 95.6719 39.0469H101.562V47.5H99.8828V40.2266H97.125C96.9792 41.3203 96.8464 42.2422 96.7266 42.9922C96.612 43.737 96.513 44.3047 96.4297 44.6953C96.2682 45.4818 96.0911 46.0807 95.8984 46.4922ZM105.008 43.6094C105.008 44.5312 105.193 45.237 105.562 45.7266C105.932 46.2161 106.466 46.4609 107.164 46.4609C107.701 46.4609 108.133 46.3516 108.461 46.1328C108.789 45.9141 109.013 45.625 109.133 45.2656L110.641 45.5547C110.104 46.9557 108.935 47.6562 107.133 47.6562C105.872 47.6562 104.911 47.2839 104.25 46.5391C103.589 45.7891 103.258 44.6849 103.258 43.2266C103.258 41.8307 103.591 40.7604 104.258 40.0156C104.924 39.2656 105.872 38.8906 107.102 38.8906C108.336 38.8906 109.266 39.276 109.891 40.0469C110.521 40.8125 110.836 41.9531 110.836 43.4688V43.6094H105.008ZM109.156 42.4375C109.094 41.6146 108.888 41.0104 108.539 40.625C108.195 40.2396 107.708 40.0469 107.078 40.0469C106.453 40.0469 105.961 40.2578 105.602 40.6797C105.242 41.1016 105.049 41.6875 105.023 42.4375H109.156ZM114.281 43.7266V47.5H112.609V39.0469H114.281V42.5469H117.828V39.0469H119.5V47.5H117.828V43.7266H114.281ZM127.266 40.9375L123.5 47.5H121.719V39.0469H123.305V43.3984C123.305 43.5964 123.297 43.8281 123.281 44.0938C123.271 44.3542 123.258 44.6172 123.242 44.8828C123.232 45.1484 123.219 45.3828 123.203 45.5859L126.969 39.0469H128.734V47.5H127.164V42.6328C127.164 42.487 127.169 42.3021 127.18 42.0781C127.19 41.8542 127.203 41.6354 127.219 41.4219C127.24 41.2031 127.255 41.0417 127.266 40.9375ZM134.133 43.9844L131.789 47.5H129.93L132.562 43.8203C131.932 43.6849 131.456 43.4141 131.133 43.0078C130.815 42.6016 130.656 42.0703 130.656 41.4141C130.656 40.6276 130.948 40.0365 131.531 39.6406C132.12 39.2448 132.977 39.0469 134.102 39.0469H137.617V47.5H135.945V43.9844H134.133ZM134.094 42.8828H135.953V40.1641H134.234C133.604 40.1641 133.141 40.276 132.844 40.5C132.547 40.724 132.398 41.0651 132.398 41.5234C132.398 41.9766 132.531 42.3177 132.797 42.5469C133.068 42.7708 133.5 42.8828 134.094 42.8828Z" fill="#5F5F64"/>
<path d="M263.531 42.5306L258.531 47.5306C258.39 47.6715 258.199 47.7506 257.999 47.7506C257.8 47.7506 257.609 47.6715 257.468 47.5306C257.327 47.3897 257.248 47.1986 257.248 46.9993C257.248 46.8001 257.327 46.609 257.468 46.4681L261.937 42L257.469 37.5306C257.4 37.4608 257.344 37.378 257.306 37.2869C257.269 37.1957 257.249 37.098 257.249 36.9993C257.249 36.9007 257.269 36.803 257.306 36.7118C257.344 36.6207 257.4 36.5379 257.469 36.4681C257.539 36.3983 257.622 36.343 257.713 36.3052C257.804 36.2675 257.902 36.248 258.001 36.248C258.099 36.248 258.197 36.2675 258.288 36.3052C258.379 36.343 258.462 36.3983 258.532 36.4681L263.532 41.4681C263.602 41.5379 263.657 41.6207 263.695 41.7119C263.733 41.8031 263.752 41.9009 263.752 41.9996C263.752 42.0983 263.732 42.196 263.694 42.2872C263.656 42.3783 263.601 42.461 263.531 42.5306Z" fill="#5F5F64"/>
<rect y="76" width="276" height="36" rx="8" fill="#EBEBEC"/>
<path d="M29.1875 90.2573C29.15 90.1636 29.1106 90.0698 29.0703 89.9761C28.4654 88.5811 27.4865 87.3806 26.2419 86.5073H28.25C28.4489 86.5073 28.6397 86.4283 28.7803 86.2877C28.921 86.147 29 85.9562 29 85.7573C29 85.5584 28.921 85.3676 28.7803 85.227C28.6397 85.0863 28.4489 85.0073 28.25 85.0073H18.5C16.4263 85.01 14.4295 85.7923 12.906 87.1991C11.3825 88.6059 10.4438 90.5342 10.2763 92.6011C9.6284 92.7621 9.05277 93.1346 8.64049 93.6597C8.2282 94.1847 8.00281 94.8323 8 95.4998C8 95.6987 8.07902 95.8895 8.21967 96.0302C8.36032 96.1708 8.55109 96.2498 8.75 96.2498C8.94891 96.2498 9.13968 96.1708 9.28033 96.0302C9.42098 95.8895 9.5 95.6987 9.5 95.4998C9.50017 95.2263 9.57512 94.9581 9.71673 94.7241C9.85834 94.4901 10.0612 94.2993 10.3034 94.1723C10.4901 95.855 11.1918 97.439 12.3125 98.7079L13.49 102.004C13.5941 102.296 13.7859 102.548 14.039 102.726C14.2921 102.904 14.5942 103 14.9037 103H16.0963C16.4057 103 16.7075 102.904 16.9605 102.726C17.2134 102.548 17.405 102.296 17.5091 102.004L17.6891 101.5H23.0609L23.2409 102.004C23.345 102.296 23.5366 102.548 23.7895 102.726C24.0425 102.904 24.3443 103 24.6537 103H25.8463C26.1557 103 26.4575 102.904 26.7105 102.726C26.9634 102.548 27.155 102.296 27.2591 102.004L28.7787 97.7498H29C29.5967 97.7498 30.169 97.5128 30.591 97.0908C31.0129 96.6689 31.25 96.0966 31.25 95.4998V92.4998C31.2501 91.9355 31.0381 91.3917 30.6561 90.9764C30.274 90.561 29.7499 90.3044 29.1875 90.2573ZM22.25 88.7498H18.5C18.3011 88.7498 18.1103 88.6708 17.9697 88.5302C17.829 88.3895 17.75 88.1987 17.75 87.9998C17.75 87.8009 17.829 87.6101 17.9697 87.4695C18.1103 87.3288 18.3011 87.2498 18.5 87.2498H22.25C22.4489 87.2498 22.6397 87.3288 22.7803 87.4695C22.921 87.6101 23 87.8009 23 87.9998C23 88.1987 22.921 88.3895 22.7803 88.5302C22.6397 88.6708 22.4489 88.7498 22.25 88.7498ZM24.875 93.9998C24.6525 93.9998 24.435 93.9338 24.25 93.8102C24.065 93.6866 23.9208 93.5109 23.8356 93.3053C23.7505 93.0998 23.7282 92.8736 23.7716 92.6553C23.815 92.4371 23.9222 92.2367 24.0795 92.0793C24.2368 91.922 24.4373 91.8148 24.6555 91.7714C24.8738 91.728 25.1 91.7503 25.3055 91.8355C25.5111 91.9206 25.6868 92.0648 25.8104 92.2498C25.934 92.4348 26 92.6523 26 92.8748C26 93.1732 25.8815 93.4593 25.6705 93.6703C25.4595 93.8813 25.1734 93.9998 24.875 93.9998Z" fill="#1B1B1D"/>
<path d="M56.2188 93.7578C56.2188 94.5651 56.0495 95.2812 55.7109 95.9062C55.3672 96.5312 54.8724 97.0182 54.2266 97.3672C53.5859 97.7109 52.8307 97.8828 51.9609 97.8828H51.5469V99.5859H49.8281V97.8828H49.4141C48.5495 97.8828 47.7943 97.7083 47.1484 97.3594C46.5026 97.0156 46.0078 96.5312 45.6641 95.9062C45.3255 95.276 45.1562 94.5599 45.1562 93.7578C45.1562 92.4922 45.5339 91.513 46.2891 90.8203C47.0443 90.1224 48.1172 89.7734 49.5078 89.7734H49.8281V88.4141H51.5469V89.7734H51.8672C53.263 89.7734 54.3359 90.1224 55.0859 90.8203C55.8411 91.5182 56.2188 92.4974 56.2188 93.7578ZM54.4453 93.7891C54.4453 92.8828 54.2161 92.1979 53.7578 91.7344C53.3047 91.2708 52.6146 91.0391 51.6875 91.0391H51.5469V96.625H51.75C52.6198 96.625 53.2865 96.3854 53.75 95.9062C54.2135 95.4219 54.4453 94.7161 54.4453 93.7891ZM46.9297 93.7891C46.9297 94.7161 47.1615 95.4219 47.625 95.9062C48.0938 96.3854 48.763 96.625 49.6328 96.625H49.8281V91.0391H49.6719C48.75 91.0391 48.0625 91.2682 47.6094 91.7266C47.1562 92.1849 46.9297 92.8724 46.9297 93.7891ZM58.7656 102.82C58.3333 102.82 57.9635 102.789 57.6562 102.727V101.508C57.8854 101.539 58.1146 101.555 58.3438 101.555C58.8073 101.555 59.2057 101.401 59.5391 101.094C59.8724 100.786 60.1745 100.237 60.4453 99.4453L57.1016 91.0469H58.875L60.5 95.4844C60.625 95.8021 60.7578 96.1745 60.8984 96.6016C61.0391 97.0234 61.1641 97.4401 61.2734 97.8516C61.4036 97.4453 61.5312 97.0547 61.6562 96.6797C61.7812 96.2995 61.9062 95.9167 62.0312 95.5312L63.5234 91.0469H65.2812L62 99.6484C61.8385 100.065 61.6771 100.432 61.5156 100.75C61.3594 101.068 61.2057 101.333 61.0547 101.547C60.7474 101.99 60.4089 102.312 60.0391 102.516C59.6693 102.719 59.2448 102.82 58.7656 102.82ZM68.1094 95.7266V99.5H66.4375V91.0469H68.1094V94.5469H71.6562V91.0469H73.3281V99.5H71.6562V95.7266H68.1094ZM77.1953 95.8516V99.5H75.5234V91.0469H77.1953V94.7266C77.3724 94.7214 77.5208 94.6927 77.6406 94.6406C77.7604 94.5885 77.8854 94.4922 78.0156 94.3516C78.0781 94.2786 78.1458 94.1953 78.2188 94.1016C78.2969 94.0026 78.375 93.8906 78.4531 93.7656C78.5365 93.6458 78.7109 93.3594 78.9766 92.9062C79.2474 92.4479 79.6094 91.8281 80.0625 91.0469H81.7578L80.0938 93.7344C79.6979 94.349 79.388 94.7474 79.1641 94.9297L81.8281 99.5H80.0391L77.9844 95.7188C77.8906 95.7552 77.7682 95.7865 77.6172 95.8125C77.4714 95.8385 77.3307 95.8516 77.1953 95.8516ZM82.8906 99.5V91.0469H84.5625V98.3203H88.0547V91.0469H89.7266V98.3203H90.875V102.688H89.3906V99.5H82.8906ZM97.8281 92.9375L94.0625 99.5H92.2812V91.0469H93.8672V95.3984C93.8672 95.5964 93.8594 95.8281 93.8438 96.0938C93.8333 96.3542 93.8203 96.6172 93.8047 96.8828C93.7943 97.1484 93.7812 97.3828 93.7656 97.5859L97.5312 91.0469H99.2969V99.5H97.7266V94.6328C97.7266 94.487 97.7318 94.3021 97.7422 94.0781C97.7526 93.8542 97.7656 93.6354 97.7812 93.4219C97.8021 93.2031 97.8177 93.0417 97.8281 92.9375ZM107.062 92.9375L103.297 99.5H101.516V91.0469H103.102V95.3984C103.102 95.5964 103.094 95.8281 103.078 96.0938C103.068 96.3542 103.055 96.6172 103.039 96.8828C103.029 97.1484 103.016 97.3828 103 97.5859L106.766 91.0469H108.531V99.5H106.961V94.6328C106.961 94.487 106.966 94.3021 106.977 94.0781C106.987 93.8542 107 93.6354 107.016 93.4219C107.036 93.2031 107.052 93.0417 107.062 92.9375Z" fill="#080809"/>
<path d="M265.531 92.5307L260.531 97.5307C260.461 97.6007 260.378 97.6561 260.287 97.694C260.196 97.7318 260.098 97.7513 259.999 97.7513C259.901 97.7513 259.803 97.7318 259.712 97.694C259.621 97.6561 259.538 97.6007 259.468 97.5307L254.468 92.5307C254.327 92.3898 254.248 92.1987 254.248 91.9995C254.248 91.8002 254.327 91.6091 254.468 91.4682C254.609 91.3273 254.8 91.2482 254.999 91.2482C255.199 91.2482 255.39 91.3273 255.531 91.4682L260 95.9376L264.469 91.4676C264.61 91.3267 264.801 91.2476 265.001 91.2476C265.2 91.2476 265.391 91.3267 265.532 91.4676C265.673 91.6085 265.752 91.7996 265.752 91.9989C265.752 92.1981 265.673 92.3892 265.532 92.5301L265.531 92.5307Z" fill="#1B1B1D"/>
<path d="M56.1016 129.945C56.1016 131.112 55.875 132.122 55.4219 132.977C54.974 133.831 54.3385 134.492 53.5156 134.961C52.6927 135.424 51.7188 135.656 50.5938 135.656C49.4635 135.656 48.487 135.427 47.6641 134.969C46.8464 134.51 46.2161 133.854 45.7734 133C45.3359 132.146 45.1172 131.128 45.1172 129.945C45.1172 128.768 45.3333 127.763 45.7656 126.93C46.2031 126.091 46.8307 125.448 47.6484 125C48.4714 124.552 49.4583 124.328 50.6094 124.328C51.75 124.328 52.7292 124.552 53.5469 125C54.3698 125.443 55 126.083 55.4375 126.922C55.8802 127.755 56.1016 128.763 56.1016 129.945ZM54.3047 129.945C54.3047 128.638 53.9818 127.612 53.3359 126.867C52.6901 126.117 51.7812 125.742 50.6094 125.742C49.4271 125.742 48.513 126.112 47.8672 126.852C47.2214 127.586 46.8984 128.617 46.8984 129.945C46.8984 130.826 47.0443 131.589 47.3359 132.234C47.6328 132.875 48.0573 133.37 48.6094 133.719C49.1667 134.068 49.8281 134.242 50.5938 134.242C51.7865 134.242 52.7031 133.87 53.3438 133.125C53.9844 132.375 54.3047 131.315 54.3047 129.945ZM62.0703 127.477C63.2786 127.477 64.1667 127.818 64.7344 128.5C65.3021 129.177 65.5859 130.198 65.5859 131.562C65.5859 132.943 65.2474 133.971 64.5703 134.648C63.8932 135.32 62.9089 135.656 61.6172 135.656C60.2786 135.656 59.2917 135.237 58.6562 134.398C58.026 133.56 57.7109 132.271 57.7109 130.531C57.7109 129.646 57.7734 128.87 57.8984 128.203C58.0234 127.531 58.2188 126.953 58.4844 126.469C58.7552 125.984 59.1016 125.581 59.5234 125.258C59.9453 124.935 60.4766 124.674 61.1172 124.477C61.4349 124.378 61.9323 124.268 62.6094 124.148C63.2865 124.029 64.1406 123.901 65.1719 123.766V125.219C64.4427 125.302 63.7708 125.391 63.1562 125.484C62.5469 125.578 62.0182 125.677 61.5703 125.781C61.1224 125.88 60.776 125.99 60.5312 126.109C59.9479 126.37 59.5365 126.771 59.2969 127.312C59.0573 127.849 58.9271 128.635 58.9062 129.672C59.1458 128.969 59.5339 128.427 60.0703 128.047C60.612 127.667 61.2786 127.477 62.0703 127.477ZM63.8359 131.578C63.8359 130.578 63.6719 129.844 63.3438 129.375C63.0208 128.901 62.4896 128.664 61.75 128.664C60.9688 128.664 60.3932 128.904 60.0234 129.383C59.6536 129.857 59.4688 130.589 59.4688 131.578C59.4688 132.542 59.6406 133.263 59.9844 133.742C60.3333 134.221 60.8724 134.461 61.6016 134.461C62.4036 134.461 62.9766 134.229 63.3203 133.766C63.6641 133.302 63.8359 132.573 63.8359 131.578ZM69.6094 135.656C68.7188 135.656 68.0052 135.479 67.4688 135.125C66.9375 134.766 66.5573 134.234 66.3281 133.531L67.7891 133.188C67.9089 133.599 68.125 133.917 68.4375 134.141C68.7552 134.359 69.151 134.469 69.625 134.469C70.0938 134.469 70.4635 134.354 70.7344 134.125C71.0104 133.891 71.1484 133.56 71.1484 133.133C71.1484 132.638 70.9479 132.271 70.5469 132.031C70.1458 131.792 69.5156 131.672 68.6562 131.672V130.5C69.4792 130.5 70.0781 130.396 70.4531 130.188C70.8333 129.979 71.0234 129.656 71.0234 129.219C71.0234 128.859 70.9036 128.576 70.6641 128.367C70.4245 128.159 70.0807 128.055 69.6328 128.055C69.1849 128.055 68.8203 128.154 68.5391 128.352C68.263 128.544 68.0964 128.82 68.0391 129.18L66.5781 129.016C66.7031 128.312 67.0286 127.784 67.5547 127.43C68.0807 127.07 68.7917 126.891 69.6875 126.891C70.5833 126.891 71.3047 127.096 71.8516 127.508C72.4036 127.919 72.6797 128.453 72.6797 129.109C72.6797 129.63 72.4974 130.065 72.1328 130.414C71.7734 130.763 71.3099 130.974 70.7422 131.047V131.062C71.3828 131.135 71.901 131.359 72.2969 131.734C72.6979 132.104 72.8984 132.568 72.8984 133.125C72.8984 133.917 72.6068 134.536 72.0234 134.984C71.4401 135.432 70.6354 135.656 69.6094 135.656ZM81.7656 131.266C81.7656 132.708 81.4219 133.802 80.7344 134.547C80.0469 135.286 79.0677 135.656 77.7969 135.656C76.5312 135.656 75.5625 135.276 74.8906 134.516C74.224 133.75 73.8906 132.667 73.8906 131.266C73.8906 129.839 74.2266 128.753 74.8984 128.008C75.5703 127.263 76.5521 126.891 77.8438 126.891C79.1615 126.891 80.1432 127.253 80.7891 127.977C81.4401 128.701 81.7656 129.797 81.7656 131.266ZM80.0156 131.266C80.0156 130.151 79.8464 129.344 79.5078 128.844C79.1693 128.339 78.6224 128.086 77.8672 128.086C77.0964 128.086 76.5312 128.346 76.1719 128.867C75.8177 129.383 75.6406 130.182 75.6406 131.266C75.6406 132.323 75.8151 133.12 76.1641 133.656C76.5182 134.193 77.0547 134.461 77.7734 134.461C78.5651 134.461 79.1354 134.201 79.4844 133.68C79.8385 133.159 80.0156 132.354 80.0156 131.266ZM90.9453 131.234C90.9453 132.688 90.6771 133.789 90.1406 134.539C89.6094 135.284 88.8255 135.656 87.7891 135.656C86.513 135.656 85.6458 135.164 85.1875 134.18H85.1484C85.1693 134.253 85.1797 134.706 85.1797 135.539V138.82H83.5156V128.844C83.5156 128.422 83.5104 128.062 83.5 127.766C83.4896 127.464 83.4766 127.224 83.4609 127.047H85.0781C85.0885 127.083 85.099 127.188 85.1094 127.359C85.125 127.526 85.138 127.711 85.1484 127.914C85.1589 128.117 85.1641 128.284 85.1641 128.414H85.1953C85.4401 127.893 85.776 127.51 86.2031 127.266C86.6302 127.016 87.1745 126.891 87.8359 126.891C88.862 126.891 89.6354 127.25 90.1562 127.969C90.6823 128.682 90.9453 129.771 90.9453 131.234ZM89.1953 131.258C89.1953 130.154 89.0417 129.354 88.7344 128.859C88.4271 128.365 87.9453 128.117 87.2891 128.117C86.5807 128.117 86.0495 128.38 85.6953 128.906C85.3464 129.432 85.1719 130.247 85.1719 131.352C85.1719 132.393 85.3411 133.172 85.6797 133.688C86.0182 134.203 86.5495 134.461 87.2734 134.461C87.9349 134.461 88.4193 134.211 88.7266 133.711C89.0391 133.206 89.1953 132.388 89.1953 131.258Z" fill="#080809"/>
<path d="M54.3281 163.859C54.3281 164.562 54.1693 165.177 53.8516 165.703C53.5391 166.224 53.0938 166.63 52.5156 166.922C51.9427 167.208 51.2578 167.352 50.4609 167.352H47.3906V171.5H45.6328V160.492H50.3672C51.6276 160.492 52.6016 160.786 53.2891 161.375C53.9818 161.964 54.3281 162.792 54.3281 163.859ZM52.5547 163.883C52.5547 162.549 51.7578 161.883 50.1641 161.883H47.3906V165.969H50.2266C50.9922 165.969 51.5703 165.794 51.9609 165.445C52.3568 165.096 52.5547 164.576 52.5547 163.883ZM57.8281 171.656C56.9896 171.656 56.3516 171.432 55.9141 170.984C55.4766 170.536 55.2578 169.919 55.2578 169.133C55.2578 168.258 55.5443 167.589 56.1172 167.125C56.6901 166.661 57.5859 166.414 58.8047 166.383L60.6719 166.352V165.906C60.6719 165.26 60.5417 164.794 60.2812 164.508C60.026 164.221 59.6172 164.078 59.0547 164.078C58.4974 164.078 58.0911 164.18 57.8359 164.383C57.5859 164.586 57.4323 164.917 57.375 165.375L55.6328 165.25C55.888 163.677 57.0469 162.891 59.1094 162.891C60.1719 162.891 60.9766 163.141 61.5234 163.641C62.0755 164.141 62.3516 164.859 62.3516 165.797V169.25C62.3516 169.688 62.4062 170.008 62.5156 170.211C62.625 170.409 62.8229 170.508 63.1094 170.508C63.2656 170.508 63.4219 170.49 63.5781 170.453V171.43C63.3698 171.482 63.1719 171.521 62.9844 171.547C62.8021 171.573 62.6042 171.586 62.3906 171.586C61.8594 171.586 61.4688 171.451 61.2188 171.18C60.974 170.904 60.8333 170.484 60.7969 169.922H60.75C60.4062 170.536 59.9974 170.979 59.5234 171.25C59.0547 171.521 58.4896 171.656 57.8281 171.656ZM60.6719 167.414L59.2734 167.438C58.6641 167.453 58.2109 167.518 57.9141 167.633C57.612 167.747 57.3802 167.922 57.2188 168.156C57.0625 168.391 56.9844 168.701 56.9844 169.086C56.9844 169.529 57.0964 169.867 57.3203 170.102C57.5495 170.331 57.8672 170.445 58.2734 170.445C58.737 170.445 59.1484 170.336 59.5078 170.117C59.8672 169.898 60.151 169.599 60.3594 169.219C60.5677 168.833 60.6719 168.435 60.6719 168.023V167.414ZM67.9844 171.656C66.7656 171.656 65.8333 171.281 65.1875 170.531C64.5417 169.776 64.2188 168.693 64.2188 167.281C64.2188 165.87 64.5443 164.786 65.1953 164.031C65.8464 163.271 66.776 162.891 67.9844 162.891C68.8906 162.891 69.6406 163.125 70.2344 163.594C70.8333 164.057 71.2109 164.698 71.3672 165.516L69.6641 165.625C69.5964 165.167 69.4219 164.802 69.1406 164.531C68.8594 164.26 68.4583 164.125 67.9375 164.125C67.2552 164.125 66.7552 164.37 66.4375 164.859C66.1198 165.344 65.9609 166.135 65.9609 167.234C65.9609 168.307 66.1276 169.107 66.4609 169.633C66.7943 170.154 67.2943 170.414 67.9609 170.414C68.4349 170.414 68.8307 170.281 69.1484 170.016C69.4661 169.745 69.6615 169.336 69.7344 168.789L71.4141 168.883C71.3411 169.445 71.151 169.935 70.8438 170.352C70.5365 170.763 70.138 171.083 69.6484 171.312C69.1641 171.542 68.6094 171.656 67.9844 171.656ZM74.6328 164.227V171.5H72.9609V163.047H79.7344V171.5H78.0625V164.227H74.6328ZM87.5078 164.938L83.7422 171.5H81.9609V163.047H83.5469V167.398C83.5469 167.596 83.5391 167.828 83.5234 168.094C83.513 168.354 83.5 168.617 83.4844 168.883C83.474 169.148 83.4609 169.383 83.4453 169.586L87.2109 163.047H88.9766V171.5H87.4062V166.633C87.4062 166.487 87.4115 166.302 87.4219 166.078C87.4323 165.854 87.4453 165.635 87.4609 165.422C87.4818 165.203 87.4974 165.042 87.5078 164.938ZM94.5156 171.656C93.2969 171.656 92.3646 171.281 91.7188 170.531C91.0729 169.776 90.75 168.693 90.75 167.281C90.75 165.87 91.0755 164.786 91.7266 164.031C92.3776 163.271 93.3073 162.891 94.5156 162.891C95.4219 162.891 96.1719 163.125 96.7656 163.594C97.3646 164.057 97.7422 164.698 97.8984 165.516L96.1953 165.625C96.1276 165.167 95.9531 164.802 95.6719 164.531C95.3906 164.26 94.9896 164.125 94.4688 164.125C93.7865 164.125 93.2865 164.37 92.9688 164.859C92.651 165.344 92.4922 166.135 92.4922 167.234C92.4922 168.307 92.6589 169.107 92.9922 169.633C93.3255 170.154 93.8255 170.414 94.4922 170.414C94.9661 170.414 95.362 170.281 95.6797 170.016C95.9974 169.745 96.1927 169.336 96.2656 168.789L97.9453 168.883C97.8724 169.445 97.6823 169.935 97.375 170.352C97.0677 170.763 96.6693 171.083 96.1797 171.312C95.6953 171.542 95.1406 171.656 94.5156 171.656ZM101.625 171.656C100.786 171.656 100.148 171.432 99.7109 170.984C99.2734 170.536 99.0547 169.919 99.0547 169.133C99.0547 168.258 99.3411 167.589 99.9141 167.125C100.487 166.661 101.383 166.414 102.602 166.383L104.469 166.352V165.906C104.469 165.26 104.339 164.794 104.078 164.508C103.823 164.221 103.414 164.078 102.852 164.078C102.294 164.078 101.888 164.18 101.633 164.383C101.383 164.586 101.229 164.917 101.172 165.375L99.4297 165.25C99.6849 163.677 100.844 162.891 102.906 162.891C103.969 162.891 104.773 163.141 105.32 163.641C105.872 164.141 106.148 164.859 106.148 165.797V169.25C106.148 169.688 106.203 170.008 106.312 170.211C106.422 170.409 106.62 170.508 106.906 170.508C107.062 170.508 107.219 170.49 107.375 170.453V171.43C107.167 171.482 106.969 171.521 106.781 171.547C106.599 171.573 106.401 171.586 106.188 171.586C105.656 171.586 105.266 171.451 105.016 171.18C104.771 170.904 104.63 170.484 104.594 169.922H104.547C104.203 170.536 103.794 170.979 103.32 171.25C102.852 171.521 102.286 171.656 101.625 171.656ZM104.469 167.414L103.07 167.438C102.461 167.453 102.008 167.518 101.711 167.633C101.409 167.747 101.177 167.922 101.016 168.156C100.859 168.391 100.781 168.701 100.781 169.086C100.781 169.529 100.893 169.867 101.117 170.102C101.346 170.331 101.664 170.445 102.07 170.445C102.534 170.445 102.945 170.336 103.305 170.117C103.664 169.898 103.948 169.599 104.156 169.219C104.365 168.833 104.469 168.435 104.469 168.023V167.414ZM110.133 167.727V171.5H108.461V163.047H110.133V166.547H113.68V163.047H115.352V171.5H113.68V167.727H110.133ZM123.117 164.938L119.352 171.5H117.57V163.047H119.156V167.398C119.156 167.596 119.148 167.828 119.133 168.094C119.122 168.354 119.109 168.617 119.094 168.883C119.083 169.148 119.07 169.383 119.055 169.586L122.82 163.047H124.586V171.5H123.016V166.633C123.016 166.487 123.021 166.302 123.031 166.078C123.042 165.854 123.055 165.635 123.07 165.422C123.091 165.203 123.107 165.042 123.117 164.938ZM128.109 167.609C128.109 168.531 128.294 169.237 128.664 169.727C129.034 170.216 129.568 170.461 130.266 170.461C130.802 170.461 131.234 170.352 131.562 170.133C131.891 169.914 132.115 169.625 132.234 169.266L133.742 169.555C133.206 170.956 132.036 171.656 130.234 171.656C128.974 171.656 128.013 171.284 127.352 170.539C126.69 169.789 126.359 168.685 126.359 167.227C126.359 165.831 126.693 164.76 127.359 164.016C128.026 163.266 128.974 162.891 130.203 162.891C131.438 162.891 132.367 163.276 132.992 164.047C133.622 164.812 133.938 165.953 133.938 167.469V167.609H128.109ZM132.258 166.438C132.195 165.615 131.99 165.01 131.641 164.625C131.297 164.24 130.81 164.047 130.18 164.047C129.555 164.047 129.062 164.258 128.703 164.68C128.344 165.102 128.151 165.688 128.125 166.438H132.258Z" fill="#5F5F64"/>
<path d="M54.3047 204.227C54.3047 204.878 54.1484 205.451 53.8359 205.945C53.5234 206.435 53.0781 206.818 52.5 207.094C51.9219 207.365 51.2292 207.5 50.4219 207.5H45.4453V196.492H53.0312V197.898H47.2031V201.055H50.4375C51.6667 201.055 52.6172 201.333 53.2891 201.891C53.9661 202.443 54.3047 203.221 54.3047 204.227ZM52.5234 204.25C52.5234 203.667 52.3203 203.219 51.9141 202.906C51.513 202.594 50.9062 202.438 50.0938 202.438H47.2031V206.117H50.1562C50.9583 206.117 51.5521 205.956 51.9375 205.633C52.3281 205.31 52.5234 204.849 52.5234 204.25ZM63.5859 203.266C63.5859 204.708 63.2422 205.802 62.5547 206.547C61.8672 207.286 60.888 207.656 59.6172 207.656C58.3516 207.656 57.3828 207.276 56.7109 206.516C56.0443 205.75 55.7109 204.667 55.7109 203.266C55.7109 201.839 56.0469 200.753 56.7188 200.008C57.3906 199.263 58.3724 198.891 59.6641 198.891C60.9818 198.891 61.9635 199.253 62.6094 199.977C63.2604 200.701 63.5859 201.797 63.5859 203.266ZM61.8359 203.266C61.8359 202.151 61.6667 201.344 61.3281 200.844C60.9896 200.339 60.4427 200.086 59.6875 200.086C58.9167 200.086 58.3516 200.346 57.9922 200.867C57.638 201.383 57.4609 202.182 57.4609 203.266C57.4609 204.323 57.6354 205.12 57.9844 205.656C58.3385 206.193 58.875 206.461 59.5938 206.461C60.3854 206.461 60.9557 206.201 61.3047 205.68C61.6589 205.159 61.8359 204.354 61.8359 203.266ZM67.0234 203.727V207.5H65.3516V199.047H67.0234V202.547H70.5703V199.047H72.2422V207.5H70.5703V203.727H67.0234ZM75.0859 210.82C74.6536 210.82 74.2839 210.789 73.9766 210.727V209.508C74.2057 209.539 74.4349 209.555 74.6641 209.555C75.1276 209.555 75.526 209.401 75.8594 209.094C76.1927 208.786 76.4948 208.237 76.7656 207.445L73.4219 199.047H75.1953L76.8203 203.484C76.9453 203.802 77.0781 204.174 77.2188 204.602C77.3594 205.023 77.4844 205.44 77.5938 205.852C77.724 205.445 77.8516 205.055 77.9766 204.68C78.1016 204.299 78.2266 203.917 78.3516 203.531L79.8438 199.047H81.6016L78.3203 207.648C78.1589 208.065 77.9974 208.432 77.8359 208.75C77.6797 209.068 77.526 209.333 77.375 209.547C77.0677 209.99 76.7292 210.312 76.3594 210.516C75.9896 210.719 75.5651 210.82 75.0859 210.82ZM85.8281 207.656C84.6094 207.656 83.6771 207.281 83.0312 206.531C82.3854 205.776 82.0625 204.693 82.0625 203.281C82.0625 201.87 82.388 200.786 83.0391 200.031C83.6901 199.271 84.6198 198.891 85.8281 198.891C86.7344 198.891 87.4844 199.125 88.0781 199.594C88.6771 200.057 89.0547 200.698 89.2109 201.516L87.5078 201.625C87.4401 201.167 87.2656 200.802 86.9844 200.531C86.7031 200.26 86.3021 200.125 85.7812 200.125C85.099 200.125 84.599 200.37 84.2812 200.859C83.9635 201.344 83.8047 202.135 83.8047 203.234C83.8047 204.307 83.9714 205.107 84.3047 205.633C84.638 206.154 85.138 206.414 85.8047 206.414C86.2786 206.414 86.6745 206.281 86.9922 206.016C87.3099 205.745 87.5052 205.336 87.5781 204.789L89.2578 204.883C89.1849 205.445 88.9948 205.935 88.6875 206.352C88.3802 206.763 87.9818 207.083 87.4922 207.312C87.0078 207.542 86.4531 207.656 85.8281 207.656ZM94.375 202.562C95.4948 202.562 96.3411 202.758 96.9141 203.148C97.4922 203.539 97.7812 204.151 97.7812 204.984C97.7812 205.797 97.4844 206.419 96.8906 206.852C96.3021 207.284 95.4661 207.5 94.3828 207.5H90.8047V199.047H92.4766V202.562H94.375ZM100.805 199.047V207.5H99.1328V199.047H100.805ZM92.4766 206.383H94.0859C94.763 206.383 95.2578 206.271 95.5703 206.047C95.8828 205.823 96.0391 205.469 96.0391 204.984C96.0391 204.526 95.888 204.193 95.5859 203.984C95.2839 203.771 94.7865 203.664 94.0938 203.664H92.4766V206.383ZM113.023 200.938L109.258 207.5H107.477V199.047H109.062V203.398C109.062 203.596 109.055 203.828 109.039 204.094C109.029 204.354 109.016 204.617 109 204.883C108.99 205.148 108.977 205.383 108.961 205.586L112.727 199.047H114.492V207.5H112.922V202.633C112.922 202.487 112.927 202.302 112.938 202.078C112.948 201.854 112.961 201.635 112.977 201.422C112.997 201.203 113.013 201.042 113.023 200.938ZM121.68 207.5V210.688H120.195V206.32H121.141C121.526 205.695 121.859 204.799 122.141 203.633C122.422 202.461 122.682 200.932 122.922 199.047H128.242V206.32H129.383V210.688H127.898V207.5H121.68ZM122.93 206.32H126.57V200.227H124.359C124.172 201.612 123.964 202.807 123.734 203.812C123.505 204.818 123.237 205.654 122.93 206.32ZM138.195 203.266C138.195 204.708 137.852 205.802 137.164 206.547C136.477 207.286 135.497 207.656 134.227 207.656C132.961 207.656 131.992 207.276 131.32 206.516C130.654 205.75 130.32 204.667 130.32 203.266C130.32 201.839 130.656 200.753 131.328 200.008C132 199.263 132.982 198.891 134.273 198.891C135.591 198.891 136.573 199.253 137.219 199.977C137.87 200.701 138.195 201.797 138.195 203.266ZM136.445 203.266C136.445 202.151 136.276 201.344 135.938 200.844C135.599 200.339 135.052 200.086 134.297 200.086C133.526 200.086 132.961 200.346 132.602 200.867C132.247 201.383 132.07 202.182 132.07 203.266C132.07 204.323 132.245 205.12 132.594 205.656C132.948 206.193 133.484 206.461 134.203 206.461C134.995 206.461 135.565 206.201 135.914 205.68C136.268 205.159 136.445 204.354 136.445 203.266ZM143.203 207.656C141.984 207.656 141.052 207.281 140.406 206.531C139.76 205.776 139.438 204.693 139.438 203.281C139.438 201.87 139.763 200.786 140.414 200.031C141.065 199.271 141.995 198.891 143.203 198.891C144.109 198.891 144.859 199.125 145.453 199.594C146.052 200.057 146.43 200.698 146.586 201.516L144.883 201.625C144.815 201.167 144.641 200.802 144.359 200.531C144.078 200.26 143.677 200.125 143.156 200.125C142.474 200.125 141.974 200.37 141.656 200.859C141.339 201.344 141.18 202.135 141.18 203.234C141.18 204.307 141.346 205.107 141.68 205.633C142.013 206.154 142.513 206.414 143.18 206.414C143.654 206.414 144.049 206.281 144.367 206.016C144.685 205.745 144.88 205.336 144.953 204.789L146.633 204.883C146.56 205.445 146.37 205.935 146.062 206.352C145.755 206.763 145.357 207.083 144.867 207.312C144.383 207.542 143.828 207.656 143.203 207.656ZM151.656 200.227V207.5H149.984V200.227H147.406V199.047H154.234V200.227H151.656ZM161.227 200.938L157.461 207.5H155.68V199.047H157.266V203.398C157.266 203.596 157.258 203.828 157.242 204.094C157.232 204.354 157.219 204.617 157.203 204.883C157.193 205.148 157.18 205.383 157.164 205.586L160.93 199.047H162.695V207.5H161.125V202.633C161.125 202.487 161.13 202.302 161.141 202.078C161.151 201.854 161.164 201.635 161.18 201.422C161.201 201.203 161.216 201.042 161.227 200.938ZM168.469 203.828C168.318 203.828 168.164 203.815 168.008 203.789C167.857 203.763 167.734 203.732 167.641 203.695L165.609 207.5H163.797L166.461 202.93C166.279 202.779 165.977 202.38 165.555 201.734L163.867 199.047H165.562L166.688 200.961C166.839 201.216 166.974 201.438 167.094 201.625C167.219 201.812 167.326 201.966 167.414 202.086C167.596 202.326 167.758 202.495 167.898 202.594C168.044 202.693 168.234 202.745 168.469 202.75V199.047H170.062V202.75C170.198 202.75 170.32 202.732 170.43 202.695C170.544 202.654 170.659 202.581 170.773 202.477C170.826 202.424 170.875 202.375 170.922 202.328C170.974 202.276 171.031 202.208 171.094 202.125C171.161 202.036 171.245 201.911 171.344 201.75C171.448 201.583 171.583 201.365 171.75 201.094L172.961 199.047H174.656L172.969 201.734C172.557 202.375 172.255 202.773 172.062 202.93L174.727 207.5H172.914L170.883 203.695C170.794 203.732 170.672 203.763 170.516 203.789C170.365 203.815 170.214 203.828 170.062 203.828V207.5H168.469V203.828ZM177.062 203.609C177.062 204.531 177.247 205.237 177.617 205.727C177.987 206.216 178.521 206.461 179.219 206.461C179.755 206.461 180.188 206.352 180.516 206.133C180.844 205.914 181.068 205.625 181.188 205.266L182.695 205.555C182.159 206.956 180.99 207.656 179.188 207.656C177.927 207.656 176.966 207.284 176.305 206.539C175.643 205.789 175.312 204.685 175.312 203.227C175.312 201.831 175.646 200.76 176.312 200.016C176.979 199.266 177.927 198.891 179.156 198.891C180.391 198.891 181.32 199.276 181.945 200.047C182.576 200.812 182.891 201.953 182.891 203.469V203.609H177.062ZM181.211 202.438C181.148 201.615 180.943 201.01 180.594 200.625C180.25 200.24 179.763 200.047 179.133 200.047C178.508 200.047 178.016 200.258 177.656 200.68C177.297 201.102 177.104 201.688 177.078 202.438H181.211ZM186.336 203.727V207.5H184.664V199.047H186.336V202.547H189.883V199.047H191.555V207.5H189.883V203.727H186.336ZM199.32 200.938L195.555 207.5H193.773V199.047H195.359V203.398C195.359 203.596 195.352 203.828 195.336 204.094C195.326 204.354 195.312 204.617 195.297 204.883C195.286 205.148 195.273 205.383 195.258 205.586L199.023 199.047H200.789V207.5H199.219V202.633C199.219 202.487 199.224 202.302 199.234 202.078C199.245 201.854 199.258 201.635 199.273 201.422C199.294 201.203 199.31 201.042 199.32 200.938ZM206.188 203.984L203.844 207.5H201.984L204.617 203.82C203.987 203.685 203.51 203.414 203.188 203.008C202.87 202.602 202.711 202.07 202.711 201.414C202.711 200.628 203.003 200.036 203.586 199.641C204.174 199.245 205.031 199.047 206.156 199.047H209.672V207.5H208V203.984H206.188ZM206.148 202.883H208.008V200.164H206.289C205.659 200.164 205.195 200.276 204.898 200.5C204.602 200.724 204.453 201.065 204.453 201.523C204.453 201.977 204.586 202.318 204.852 202.547C205.122 202.771 205.555 202.883 206.148 202.883Z" fill="#5F5F64"/>
<path d="M54.1641 240.227C54.1641 240.878 54.0078 241.451 53.6953 241.945C53.3828 242.435 52.9375 242.818 52.3594 243.094C51.7812 243.365 51.0885 243.5 50.2812 243.5H45.3047V232.492H52.8906V233.898H47.0625V237.055H50.2969C51.526 237.055 52.4766 237.333 53.1484 237.891C53.8255 238.443 54.1641 239.221 54.1641 240.227ZM52.3828 240.25C52.3828 239.667 52.1797 239.219 51.7734 238.906C51.3724 238.594 50.7656 238.438 49.9531 238.438H47.0625V242.117H50.0156C50.8177 242.117 51.4115 241.956 51.7969 241.633C52.1875 241.31 52.3828 240.849 52.3828 240.25ZM63.4375 239.234C63.4375 240.688 63.1693 241.789 62.6328 242.539C62.1016 243.284 61.3177 243.656 60.2812 243.656C59.0052 243.656 58.138 243.164 57.6797 242.18H57.6406C57.6615 242.253 57.6719 242.706 57.6719 243.539V246.82H56.0078V236.844C56.0078 236.422 56.0026 236.062 55.9922 235.766C55.9818 235.464 55.9688 235.224 55.9531 235.047H57.5703C57.5807 235.083 57.5911 235.188 57.6016 235.359C57.6172 235.526 57.6302 235.711 57.6406 235.914C57.651 236.117 57.6562 236.284 57.6562 236.414H57.6875C57.9323 235.893 58.2682 235.51 58.6953 235.266C59.1224 235.016 59.6667 234.891 60.3281 234.891C61.3542 234.891 62.1276 235.25 62.6484 235.969C63.1745 236.682 63.4375 237.771 63.4375 239.234ZM61.6875 239.258C61.6875 238.154 61.5339 237.354 61.2266 236.859C60.9193 236.365 60.4375 236.117 59.7812 236.117C59.0729 236.117 58.5417 236.38 58.1875 236.906C57.8385 237.432 57.6641 238.247 57.6641 239.352C57.6641 240.393 57.8333 241.172 58.1719 241.688C58.5104 242.203 59.0417 242.461 59.7656 242.461C60.4271 242.461 60.9115 242.211 61.2188 241.711C61.5312 241.206 61.6875 240.388 61.6875 239.258ZM72.6328 239.266C72.6328 240.708 72.2891 241.802 71.6016 242.547C70.9141 243.286 69.9349 243.656 68.6641 243.656C67.3984 243.656 66.4297 243.276 65.7578 242.516C65.0911 241.75 64.7578 240.667 64.7578 239.266C64.7578 237.839 65.0938 236.753 65.7656 236.008C66.4375 235.263 67.4193 234.891 68.7109 234.891C70.0286 234.891 71.0104 235.253 71.6562 235.977C72.3073 236.701 72.6328 237.797 72.6328 239.266ZM70.8828 239.266C70.8828 238.151 70.7135 237.344 70.375 236.844C70.0365 236.339 69.4896 236.086 68.7344 236.086C67.9635 236.086 67.3984 236.346 67.0391 236.867C66.6849 237.383 66.5078 238.182 66.5078 239.266C66.5078 240.323 66.6823 241.12 67.0312 241.656C67.3854 242.193 67.9219 242.461 68.6406 242.461C69.4323 242.461 70.0026 242.201 70.3516 241.68C70.7057 241.159 70.8828 240.354 70.8828 239.266ZM76.0703 239.727V243.5H74.3984V235.047H76.0703V238.547H79.6172V235.047H81.2891V243.5H79.6172V239.727H76.0703ZM89.0547 236.938L85.2891 243.5H83.5078V235.047H85.0938V239.398C85.0938 239.596 85.0859 239.828 85.0703 240.094C85.0599 240.354 85.0469 240.617 85.0312 240.883C85.0208 241.148 85.0078 241.383 84.9922 241.586L88.7578 235.047H90.5234V243.5H88.9531V238.633C88.9531 238.487 88.9583 238.302 88.9688 238.078C88.9792 237.854 88.9922 237.635 89.0078 237.422C89.0286 237.203 89.0443 237.042 89.0547 236.938ZM100.156 239.234C100.156 240.688 99.888 241.789 99.3516 242.539C98.8203 243.284 98.0365 243.656 97 243.656C95.724 243.656 94.8568 243.164 94.3984 242.18H94.3594C94.3802 242.253 94.3906 242.706 94.3906 243.539V246.82H92.7266V236.844C92.7266 236.422 92.7214 236.062 92.7109 235.766C92.7005 235.464 92.6875 235.224 92.6719 235.047H94.2891C94.2995 235.083 94.3099 235.188 94.3203 235.359C94.3359 235.526 94.349 235.711 94.3594 235.914C94.3698 236.117 94.375 236.284 94.375 236.414H94.4062C94.651 235.893 94.987 235.51 95.4141 235.266C95.8411 235.016 96.3854 234.891 97.0469 234.891C98.0729 234.891 98.8464 235.25 99.3672 235.969C99.8932 236.682 100.156 237.771 100.156 239.234ZM98.4062 239.258C98.4062 238.154 98.2526 237.354 97.9453 236.859C97.638 236.365 97.1562 236.117 96.5 236.117C95.7917 236.117 95.2604 236.38 94.9062 236.906C94.5573 237.432 94.3828 238.247 94.3828 239.352C94.3828 240.393 94.5521 241.172 94.8906 241.688C95.2292 242.203 95.7604 242.461 96.4844 242.461C97.1458 242.461 97.6302 242.211 97.9375 241.711C98.25 241.206 98.4062 240.388 98.4062 239.258ZM109.352 239.266C109.352 240.708 109.008 241.802 108.32 242.547C107.633 243.286 106.654 243.656 105.383 243.656C104.117 243.656 103.148 243.276 102.477 242.516C101.81 241.75 101.477 240.667 101.477 239.266C101.477 237.839 101.812 236.753 102.484 236.008C103.156 235.263 104.138 234.891 105.43 234.891C106.747 234.891 107.729 235.253 108.375 235.977C109.026 236.701 109.352 237.797 109.352 239.266ZM107.602 239.266C107.602 238.151 107.432 237.344 107.094 236.844C106.755 236.339 106.208 236.086 105.453 236.086C104.682 236.086 104.117 236.346 103.758 236.867C103.404 237.383 103.227 238.182 103.227 239.266C103.227 240.323 103.401 241.12 103.75 241.656C104.104 242.193 104.641 242.461 105.359 242.461C106.151 242.461 106.721 242.201 107.07 241.68C107.424 241.159 107.602 240.354 107.602 239.266ZM114.711 235.047C115.815 235.047 116.643 235.227 117.195 235.586C117.747 235.945 118.023 236.471 118.023 237.164C118.023 237.648 117.867 238.052 117.555 238.375C117.247 238.698 116.805 238.914 116.227 239.023V239.078C117.596 239.25 118.281 239.911 118.281 241.062C118.281 241.844 117.987 242.445 117.398 242.867C116.81 243.289 115.992 243.5 114.945 243.5H111.117V235.047H114.711ZM112.789 238.562H114.461C115.117 238.562 115.583 238.474 115.859 238.297C116.135 238.12 116.273 237.812 116.273 237.375C116.273 236.974 116.143 236.682 115.883 236.5C115.622 236.312 115.182 236.219 114.562 236.219H112.789V238.562ZM112.789 242.352H114.609C115.318 242.352 115.815 242.25 116.102 242.047C116.393 241.839 116.539 241.503 116.539 241.039C116.539 240.544 116.385 240.195 116.078 239.992C115.776 239.789 115.258 239.688 114.523 239.688H112.789V242.352ZM121.953 243.656C121.115 243.656 120.477 243.432 120.039 242.984C119.602 242.536 119.383 241.919 119.383 241.133C119.383 240.258 119.669 239.589 120.242 239.125C120.815 238.661 121.711 238.414 122.93 238.383L124.797 238.352V237.906C124.797 237.26 124.667 236.794 124.406 236.508C124.151 236.221 123.742 236.078 123.18 236.078C122.622 236.078 122.216 236.18 121.961 236.383C121.711 236.586 121.557 236.917 121.5 237.375L119.758 237.25C120.013 235.677 121.172 234.891 123.234 234.891C124.297 234.891 125.102 235.141 125.648 235.641C126.201 236.141 126.477 236.859 126.477 237.797V241.25C126.477 241.688 126.531 242.008 126.641 242.211C126.75 242.409 126.948 242.508 127.234 242.508C127.391 242.508 127.547 242.49 127.703 242.453V243.43C127.495 243.482 127.297 243.521 127.109 243.547C126.927 243.573 126.729 243.586 126.516 243.586C125.984 243.586 125.594 243.451 125.344 243.18C125.099 242.904 124.958 242.484 124.922 241.922H124.875C124.531 242.536 124.122 242.979 123.648 243.25C123.18 243.521 122.615 243.656 121.953 243.656ZM124.797 239.414L123.398 239.438C122.789 239.453 122.336 239.518 122.039 239.633C121.737 239.747 121.505 239.922 121.344 240.156C121.188 240.391 121.109 240.701 121.109 241.086C121.109 241.529 121.221 241.867 121.445 242.102C121.674 242.331 121.992 242.445 122.398 242.445C122.862 242.445 123.273 242.336 123.633 242.117C123.992 241.898 124.276 241.599 124.484 241.219C124.693 240.833 124.797 240.435 124.797 240.023V239.414ZM130.461 239.727V243.5H128.789V235.047H130.461V238.547H134.008V235.047H135.68V243.5H134.008V239.727H130.461ZM143.445 236.938L139.68 243.5H137.898V235.047H139.484V239.398C139.484 239.596 139.477 239.828 139.461 240.094C139.451 240.354 139.438 240.617 139.422 240.883C139.411 241.148 139.398 241.383 139.383 241.586L143.148 235.047H144.914V243.5H143.344V238.633C143.344 238.487 143.349 238.302 143.359 238.078C143.37 237.854 143.383 237.635 143.398 237.422C143.419 237.203 143.435 237.042 143.445 236.938ZM148.438 239.609C148.438 240.531 148.622 241.237 148.992 241.727C149.362 242.216 149.896 242.461 150.594 242.461C151.13 242.461 151.562 242.352 151.891 242.133C152.219 241.914 152.443 241.625 152.562 241.266L154.07 241.555C153.534 242.956 152.365 243.656 150.562 243.656C149.302 243.656 148.341 243.284 147.68 242.539C147.018 241.789 146.688 240.685 146.688 239.227C146.688 237.831 147.021 236.76 147.688 236.016C148.354 235.266 149.302 234.891 150.531 234.891C151.766 234.891 152.695 235.276 153.32 236.047C153.951 236.812 154.266 237.953 154.266 239.469V239.609H148.438ZM152.586 238.438C152.523 237.615 152.318 237.01 151.969 236.625C151.625 236.24 151.138 236.047 150.508 236.047C149.883 236.047 149.391 236.258 149.031 236.68C148.672 237.102 148.479 237.688 148.453 238.438H152.586Z" fill="#5F5F64"/>
<path d="M52.3516 279.5V275.43C51.6172 275.617 50.9974 275.75 50.4922 275.828C49.987 275.906 49.5208 275.945 49.0938 275.945C47.9062 275.945 47.026 275.69 46.4531 275.18C45.8854 274.669 45.6016 273.888 45.6016 272.836V268.492H47.3359V272.648C47.3359 273.352 47.5026 273.849 47.8359 274.141C48.1745 274.432 48.7057 274.578 49.4297 274.578C50.2266 274.578 51.2005 274.445 52.3516 274.18V268.492H54.1094V279.5H52.3516ZM58.5234 279.656C57.6849 279.656 57.0469 279.432 56.6094 278.984C56.1719 278.536 55.9531 277.919 55.9531 277.133C55.9531 276.258 56.2396 275.589 56.8125 275.125C57.3854 274.661 58.2812 274.414 59.5 274.383L61.3672 274.352V273.906C61.3672 273.26 61.237 272.794 60.9766 272.508C60.7214 272.221 60.3125 272.078 59.75 272.078C59.1927 272.078 58.7865 272.18 58.5312 272.383C58.2812 272.586 58.1276 272.917 58.0703 273.375L56.3281 273.25C56.5833 271.677 57.7422 270.891 59.8047 270.891C60.8672 270.891 61.6719 271.141 62.2188 271.641C62.7708 272.141 63.0469 272.859 63.0469 273.797V277.25C63.0469 277.688 63.1016 278.008 63.2109 278.211C63.3203 278.409 63.5182 278.508 63.8047 278.508C63.9609 278.508 64.1172 278.49 64.2734 278.453V279.43C64.0651 279.482 63.8672 279.521 63.6797 279.547C63.4974 279.573 63.2995 279.586 63.0859 279.586C62.5547 279.586 62.1641 279.451 61.9141 279.18C61.6693 278.904 61.5286 278.484 61.4922 277.922H61.4453C61.1016 278.536 60.6927 278.979 60.2188 279.25C59.75 279.521 59.1849 279.656 58.5234 279.656ZM61.3672 275.414L59.9688 275.438C59.3594 275.453 58.9062 275.518 58.6094 275.633C58.3073 275.747 58.0755 275.922 57.9141 276.156C57.7578 276.391 57.6797 276.701 57.6797 277.086C57.6797 277.529 57.7917 277.867 58.0156 278.102C58.2448 278.331 58.5625 278.445 58.9688 278.445C59.4323 278.445 59.8438 278.336 60.2031 278.117C60.5625 277.898 60.8464 277.599 61.0547 277.219C61.263 276.833 61.3672 276.435 61.3672 276.023V275.414ZM68.6016 272.227V279.5H66.9297V272.227H64.3516V271.047H71.1797V272.227H68.6016Z" fill="#5F5F64"/>
<path d="M45.9375 315.5V318.688H44.3516V314.031H45.5078C45.9036 313.469 46.2448 312.716 46.5312 311.773C46.8177 310.826 47.0495 309.669 47.2266 308.305L47.7344 304.492H53.5625V314.031H54.9531V318.688H53.3672V315.5H45.9375ZM47.4297 314.031H51.8516V305.961H49.2188L48.8828 308.484C48.763 309.354 48.6302 310.141 48.4844 310.844C48.3385 311.542 48.1771 312.156 48 312.688C47.8281 313.219 47.638 313.667 47.4297 314.031ZM57.7344 311.609C57.7344 312.531 57.9193 313.237 58.2891 313.727C58.6589 314.216 59.1927 314.461 59.8906 314.461C60.4271 314.461 60.8594 314.352 61.1875 314.133C61.5156 313.914 61.7396 313.625 61.8594 313.266L63.3672 313.555C62.8307 314.956 61.6615 315.656 59.8594 315.656C58.599 315.656 57.638 315.284 56.9766 314.539C56.3151 313.789 55.9844 312.685 55.9844 311.227C55.9844 309.831 56.3177 308.76 56.9844 308.016C57.651 307.266 58.599 306.891 59.8281 306.891C61.0625 306.891 61.9922 307.276 62.6172 308.047C63.2474 308.812 63.5625 309.953 63.5625 311.469V311.609H57.7344ZM61.8828 310.438C61.8203 309.615 61.6146 309.01 61.2656 308.625C60.9219 308.24 60.4349 308.047 59.8047 308.047C59.1797 308.047 58.6875 308.258 58.3281 308.68C57.9688 309.102 57.776 309.688 57.75 310.438H61.8828ZM67.0078 311.727V315.5H65.3359V307.047H67.0078V310.547H70.5547V307.047H72.2266V315.5H70.5547V311.727H67.0078ZM78.1094 310.562C79.2292 310.562 80.0755 310.758 80.6484 311.148C81.2266 311.539 81.5156 312.151 81.5156 312.984C81.5156 313.797 81.2188 314.419 80.625 314.852C80.0365 315.284 79.2005 315.5 78.1172 315.5H74.4453V307.047H76.1172V310.562H78.1094ZM76.1172 314.383H77.8203C78.4974 314.383 78.9922 314.271 79.3047 314.047C79.6172 313.823 79.7734 313.469 79.7734 312.984C79.7734 312.526 79.6224 312.193 79.3203 311.984C79.0182 311.771 78.5208 311.664 77.8281 311.664H76.1172V314.383ZM95.1641 311.266C95.1641 312.708 94.8203 313.802 94.1328 314.547C93.4453 315.286 92.4661 315.656 91.1953 315.656C89.9297 315.656 88.9609 315.276 88.2891 314.516C87.6224 313.75 87.2891 312.667 87.2891 311.266C87.2891 309.839 87.625 308.753 88.2969 308.008C88.9688 307.263 89.9505 306.891 91.2422 306.891C92.5599 306.891 93.5417 307.253 94.1875 307.977C94.8385 308.701 95.1641 309.797 95.1641 311.266ZM93.4141 311.266C93.4141 310.151 93.2448 309.344 92.9062 308.844C92.5677 308.339 92.0208 308.086 91.2656 308.086C90.4948 308.086 89.9297 308.346 89.5703 308.867C89.2161 309.383 89.0391 310.182 89.0391 311.266C89.0391 312.323 89.2135 313.12 89.5625 313.656C89.9167 314.193 90.4531 314.461 91.1719 314.461C91.9635 314.461 92.5339 314.201 92.8828 313.68C93.237 313.159 93.4141 312.354 93.4141 311.266ZM100.031 308.227V315.5H98.3594V308.227H95.7812V307.047H102.609V308.227H100.031ZM105.703 311.852V315.5H104.031V307.047H105.703V310.727C105.88 310.721 106.029 310.693 106.148 310.641C106.268 310.589 106.393 310.492 106.523 310.352C106.586 310.279 106.654 310.195 106.727 310.102C106.805 310.003 106.883 309.891 106.961 309.766C107.044 309.646 107.219 309.359 107.484 308.906C107.755 308.448 108.117 307.828 108.57 307.047H110.266L108.602 309.734C108.206 310.349 107.896 310.747 107.672 310.93L110.336 315.5H108.547L106.492 311.719C106.398 311.755 106.276 311.786 106.125 311.812C105.979 311.839 105.839 311.852 105.703 311.852ZM118.812 311.234C118.812 312.688 118.544 313.789 118.008 314.539C117.477 315.284 116.693 315.656 115.656 315.656C114.38 315.656 113.513 315.164 113.055 314.18H113.016C113.036 314.253 113.047 314.706 113.047 315.539V318.82H111.383V308.844C111.383 308.422 111.378 308.062 111.367 307.766C111.357 307.464 111.344 307.224 111.328 307.047H112.945C112.956 307.083 112.966 307.188 112.977 307.359C112.992 307.526 113.005 307.711 113.016 307.914C113.026 308.117 113.031 308.284 113.031 308.414H113.062C113.307 307.893 113.643 307.51 114.07 307.266C114.497 307.016 115.042 306.891 115.703 306.891C116.729 306.891 117.503 307.25 118.023 307.969C118.549 308.682 118.812 309.771 118.812 311.234ZM117.062 311.258C117.062 310.154 116.909 309.354 116.602 308.859C116.294 308.365 115.812 308.117 115.156 308.117C114.448 308.117 113.917 308.38 113.562 308.906C113.214 309.432 113.039 310.247 113.039 311.352C113.039 312.393 113.208 313.172 113.547 313.688C113.885 314.203 114.417 314.461 115.141 314.461C115.802 314.461 116.286 314.211 116.594 313.711C116.906 313.206 117.062 312.388 117.062 311.258ZM124.156 310.562C125.276 310.562 126.122 310.758 126.695 311.148C127.273 311.539 127.562 312.151 127.562 312.984C127.562 313.797 127.266 314.419 126.672 314.852C126.083 315.284 125.247 315.5 124.164 315.5H120.586V307.047H122.258V310.562H124.156ZM130.586 307.047V315.5H128.914V307.047H130.586ZM122.258 314.383H123.867C124.544 314.383 125.039 314.271 125.352 314.047C125.664 313.823 125.82 313.469 125.82 312.984C125.82 312.526 125.669 312.193 125.367 311.984C125.065 311.771 124.568 311.664 123.875 311.664H122.258V314.383ZM136.281 308.227V315.5H134.609V308.227H132.031V307.047H138.859V308.227H136.281ZM143.875 310.562C144.995 310.562 145.841 310.758 146.414 311.148C146.992 311.539 147.281 312.151 147.281 312.984C147.281 313.797 146.984 314.419 146.391 314.852C145.802 315.284 144.966 315.5 143.883 315.5H140.305V307.047H141.977V310.562H143.875ZM150.305 307.047V315.5H148.633V307.047H150.305ZM141.977 314.383H143.586C144.263 314.383 144.758 314.271 145.07 314.047C145.383 313.823 145.539 313.469 145.539 312.984C145.539 312.526 145.388 312.193 145.086 311.984C144.784 311.771 144.286 311.664 143.594 311.664H141.977V314.383ZM155.547 312.164L153.359 315.5H151.57L154.609 311.148L151.711 307.047H153.539L155.547 310.164L157.539 307.047H159.383L156.492 311.133L159.562 315.5H157.719L155.547 312.164ZM165.789 315.5V318.688H164.305V314.32H165.25C165.635 313.695 165.969 312.799 166.25 311.633C166.531 310.461 166.792 308.932 167.031 307.047H172.352V314.32H173.492V318.688H172.008V315.5H165.789ZM167.039 314.32H170.68V308.227H168.469C168.281 309.612 168.073 310.807 167.844 311.812C167.615 312.818 167.346 313.654 167.039 314.32ZM178.477 307.047C179.581 307.047 180.409 307.227 180.961 307.586C181.513 307.945 181.789 308.471 181.789 309.164C181.789 309.648 181.633 310.052 181.32 310.375C181.013 310.698 180.57 310.914 179.992 311.023V311.078C181.362 311.25 182.047 311.911 182.047 313.062C182.047 313.844 181.753 314.445 181.164 314.867C180.576 315.289 179.758 315.5 178.711 315.5H174.883V307.047H178.477ZM176.555 310.562H178.227C178.883 310.562 179.349 310.474 179.625 310.297C179.901 310.12 180.039 309.812 180.039 309.375C180.039 308.974 179.909 308.682 179.648 308.5C179.388 308.312 178.948 308.219 178.328 308.219H176.555V310.562ZM176.555 314.352H178.375C179.083 314.352 179.581 314.25 179.867 314.047C180.159 313.839 180.305 313.503 180.305 313.039C180.305 312.544 180.151 312.195 179.844 311.992C179.542 311.789 179.023 311.688 178.289 311.688H176.555V314.352ZM184.953 311.609C184.953 312.531 185.138 313.237 185.508 313.727C185.878 314.216 186.411 314.461 187.109 314.461C187.646 314.461 188.078 314.352 188.406 314.133C188.734 313.914 188.958 313.625 189.078 313.266L190.586 313.555C190.049 314.956 188.88 315.656 187.078 315.656C185.818 315.656 184.857 315.284 184.195 314.539C183.534 313.789 183.203 312.685 183.203 311.227C183.203 309.831 183.536 308.76 184.203 308.016C184.87 307.266 185.818 306.891 187.047 306.891C188.281 306.891 189.211 307.276 189.836 308.047C190.466 308.812 190.781 309.953 190.781 311.469V311.609H184.953ZM189.102 310.438C189.039 309.615 188.833 309.01 188.484 308.625C188.141 308.24 187.654 308.047 187.023 308.047C186.398 308.047 185.906 308.258 185.547 308.68C185.188 309.102 184.995 309.688 184.969 310.438H189.102ZM199.969 311.234C199.969 312.688 199.701 313.789 199.164 314.539C198.633 315.284 197.849 315.656 196.812 315.656C195.536 315.656 194.669 315.164 194.211 314.18H194.172C194.193 314.253 194.203 314.706 194.203 315.539V318.82H192.539V308.844C192.539 308.422 192.534 308.062 192.523 307.766C192.513 307.464 192.5 307.224 192.484 307.047H194.102C194.112 307.083 194.122 307.188 194.133 307.359C194.148 307.526 194.161 307.711 194.172 307.914C194.182 308.117 194.188 308.284 194.188 308.414H194.219C194.464 307.893 194.799 307.51 195.227 307.266C195.654 307.016 196.198 306.891 196.859 306.891C197.885 306.891 198.659 307.25 199.18 307.969C199.706 308.682 199.969 309.771 199.969 311.234ZM198.219 311.258C198.219 310.154 198.065 309.354 197.758 308.859C197.451 308.365 196.969 308.117 196.312 308.117C195.604 308.117 195.073 308.38 194.719 308.906C194.37 309.432 194.195 310.247 194.195 311.352C194.195 312.393 194.365 313.172 194.703 313.688C195.042 314.203 195.573 314.461 196.297 314.461C196.958 314.461 197.443 314.211 197.75 313.711C198.062 313.206 198.219 312.388 198.219 311.258ZM203.047 311.609C203.047 312.531 203.232 313.237 203.602 313.727C203.971 314.216 204.505 314.461 205.203 314.461C205.74 314.461 206.172 314.352 206.5 314.133C206.828 313.914 207.052 313.625 207.172 313.266L208.68 313.555C208.143 314.956 206.974 315.656 205.172 315.656C203.911 315.656 202.951 315.284 202.289 314.539C201.628 313.789 201.297 312.685 201.297 311.227C201.297 309.831 201.63 308.76 202.297 308.016C202.964 307.266 203.911 306.891 205.141 306.891C206.375 306.891 207.305 307.276 207.93 308.047C208.56 308.812 208.875 309.953 208.875 311.469V311.609H203.047ZM207.195 310.438C207.133 309.615 206.927 309.01 206.578 308.625C206.234 308.24 205.747 308.047 205.117 308.047C204.492 308.047 204 308.258 203.641 308.68C203.281 309.102 203.089 309.688 203.062 310.438H207.195ZM216.195 308.938L212.43 315.5H210.648V307.047H212.234V311.398C212.234 311.596 212.227 311.828 212.211 312.094C212.201 312.354 212.188 312.617 212.172 312.883C212.161 313.148 212.148 313.383 212.133 313.586L215.898 307.047H217.664V315.5H216.094V310.633C216.094 310.487 216.099 310.302 216.109 310.078C216.12 309.854 216.133 309.635 216.148 309.422C216.169 309.203 216.185 309.042 216.195 308.938ZM214.188 306.164C213.224 306.164 212.495 305.956 212 305.539C211.51 305.117 211.25 304.477 211.219 303.617H212.656C212.714 304.654 213.224 305.172 214.188 305.172C215.151 305.172 215.661 304.654 215.719 303.617H217.156C217.125 304.477 216.862 305.117 216.367 305.539C215.878 305.956 215.151 306.164 214.188 306.164Z" fill="#5F5F64"/>
<path d="M50.3047 350.234C51.7995 350.234 52.8958 349.492 53.5938 348.008L55.0703 348.672C54.6276 349.656 53.9922 350.401 53.1641 350.906C52.3411 351.406 51.3724 351.656 50.2578 351.656C49.1224 351.656 48.1484 351.427 47.3359 350.969C46.5286 350.51 45.9089 349.854 45.4766 349C45.0443 348.141 44.8281 347.122 44.8281 345.945C44.8281 344.763 45.0391 343.753 45.4609 342.914C45.888 342.076 46.5026 341.435 47.3047 340.992C48.112 340.549 49.0833 340.328 50.2188 340.328C51.4323 340.328 52.4349 340.568 53.2266 341.047C54.0234 341.526 54.6016 342.232 54.9609 343.164L53.3359 343.664C53.112 343.055 52.7266 342.583 52.1797 342.25C51.638 341.911 50.9948 341.742 50.25 341.742C49.0885 341.742 48.1927 342.112 47.5625 342.852C46.9323 343.591 46.6172 344.622 46.6172 345.945C46.6172 346.826 46.763 347.586 47.0547 348.227C47.3516 348.867 47.776 349.362 48.3281 349.711C48.8802 350.06 49.5391 350.234 50.3047 350.234ZM60.2188 344.227V351.5H58.5469V344.227H55.9688V343.047H62.7969V344.227H60.2188ZM66.1875 351.656C65.349 351.656 64.7109 351.432 64.2734 350.984C63.8359 350.536 63.6172 349.919 63.6172 349.133C63.6172 348.258 63.9036 347.589 64.4766 347.125C65.0495 346.661 65.9453 346.414 67.1641 346.383L69.0312 346.352V345.906C69.0312 345.26 68.901 344.794 68.6406 344.508C68.3854 344.221 67.9766 344.078 67.4141 344.078C66.8568 344.078 66.4505 344.18 66.1953 344.383C65.9453 344.586 65.7917 344.917 65.7344 345.375L63.9922 345.25C64.2474 343.677 65.4062 342.891 67.4688 342.891C68.5312 342.891 69.3359 343.141 69.8828 343.641C70.4349 344.141 70.7109 344.859 70.7109 345.797V349.25C70.7109 349.688 70.7656 350.008 70.875 350.211C70.9844 350.409 71.1823 350.508 71.4688 350.508C71.625 350.508 71.7812 350.49 71.9375 350.453V351.43C71.7292 351.482 71.5312 351.521 71.3438 351.547C71.1615 351.573 70.9635 351.586 70.75 351.586C70.2188 351.586 69.8281 351.451 69.5781 351.18C69.3333 350.904 69.1927 350.484 69.1562 349.922H69.1094C68.7656 350.536 68.3568 350.979 67.8828 351.25C67.4141 351.521 66.849 351.656 66.1875 351.656ZM69.0312 347.414L67.6328 347.438C67.0234 347.453 66.5703 347.518 66.2734 347.633C65.9714 347.747 65.7396 347.922 65.5781 348.156C65.4219 348.391 65.3438 348.701 65.3438 349.086C65.3438 349.529 65.4557 349.867 65.6797 350.102C65.9089 350.331 66.2266 350.445 66.6328 350.445C67.0964 350.445 67.5078 350.336 67.8672 350.117C68.2266 349.898 68.5104 349.599 68.7188 349.219C68.9271 348.833 69.0312 348.435 69.0312 348.023V347.414ZM76.2656 344.227V351.5H74.5938V344.227H72.0156V343.047H78.8438V344.227H76.2656ZM85.8359 344.938L82.0703 351.5H80.2891V343.047H81.875V347.398C81.875 347.596 81.8672 347.828 81.8516 348.094C81.8411 348.354 81.8281 348.617 81.8125 348.883C81.8021 349.148 81.7891 349.383 81.7734 349.586L85.5391 343.047H87.3047V351.5H85.7344V346.633C85.7344 346.487 85.7396 346.302 85.75 346.078C85.7604 345.854 85.7734 345.635 85.7891 345.422C85.8099 345.203 85.8255 345.042 85.8359 344.938ZM92.8438 351.656C91.625 351.656 90.6927 351.281 90.0469 350.531C89.401 349.776 89.0781 348.693 89.0781 347.281C89.0781 345.87 89.4036 344.786 90.0547 344.031C90.7057 343.271 91.6354 342.891 92.8438 342.891C93.75 342.891 94.5 343.125 95.0938 343.594C95.6927 344.057 96.0703 344.698 96.2266 345.516L94.5234 345.625C94.4557 345.167 94.2812 344.802 94 344.531C93.7188 344.26 93.3177 344.125 92.7969 344.125C92.1146 344.125 91.6146 344.37 91.2969 344.859C90.9792 345.344 90.8203 346.135 90.8203 347.234C90.8203 348.307 90.987 349.107 91.3203 349.633C91.6536 350.154 92.1536 350.414 92.8203 350.414C93.2943 350.414 93.6901 350.281 94.0078 350.016C94.3255 349.745 94.5208 349.336 94.5938 348.789L96.2734 348.883C96.2005 349.445 96.0104 349.935 95.7031 350.352C95.3958 350.763 94.9974 351.083 94.5078 351.312C94.0234 351.542 93.4688 351.656 92.8438 351.656ZM101.297 344.227V351.5H99.625V344.227H97.0469V343.047H103.875V344.227H101.297ZM110.867 344.938L107.102 351.5H105.32V343.047H106.906V347.398C106.906 347.596 106.898 347.828 106.883 348.094C106.872 348.354 106.859 348.617 106.844 348.883C106.833 349.148 106.82 349.383 106.805 349.586L110.57 343.047H112.336V351.5H110.766V346.633C110.766 346.487 110.771 346.302 110.781 346.078C110.792 345.854 110.805 345.635 110.82 345.422C110.841 345.203 110.857 345.042 110.867 344.938ZM116.203 347.852V351.5H114.531V343.047H116.203V346.727C116.38 346.721 116.529 346.693 116.648 346.641C116.768 346.589 116.893 346.492 117.023 346.352C117.086 346.279 117.154 346.195 117.227 346.102C117.305 346.003 117.383 345.891 117.461 345.766C117.544 345.646 117.719 345.359 117.984 344.906C118.255 344.448 118.617 343.828 119.07 343.047H120.766L119.102 345.734C118.706 346.349 118.396 346.747 118.172 346.93L120.836 351.5H119.047L116.992 347.719C116.898 347.755 116.776 347.786 116.625 347.812C116.479 347.839 116.339 347.852 116.203 347.852ZM124.203 351.656C123.365 351.656 122.727 351.432 122.289 350.984C121.852 350.536 121.633 349.919 121.633 349.133C121.633 348.258 121.919 347.589 122.492 347.125C123.065 346.661 123.961 346.414 125.18 346.383L127.047 346.352V345.906C127.047 345.26 126.917 344.794 126.656 344.508C126.401 344.221 125.992 344.078 125.43 344.078C124.872 344.078 124.466 344.18 124.211 344.383C123.961 344.586 123.807 344.917 123.75 345.375L122.008 345.25C122.263 343.677 123.422 342.891 125.484 342.891C126.547 342.891 127.352 343.141 127.898 343.641C128.451 344.141 128.727 344.859 128.727 345.797V349.25C128.727 349.688 128.781 350.008 128.891 350.211C129 350.409 129.198 350.508 129.484 350.508C129.641 350.508 129.797 350.49 129.953 350.453V351.43C129.745 351.482 129.547 351.521 129.359 351.547C129.177 351.573 128.979 351.586 128.766 351.586C128.234 351.586 127.844 351.451 127.594 351.18C127.349 350.904 127.208 350.484 127.172 349.922H127.125C126.781 350.536 126.372 350.979 125.898 351.25C125.43 351.521 124.865 351.656 124.203 351.656ZM127.047 347.414L125.648 347.438C125.039 347.453 124.586 347.518 124.289 347.633C123.987 347.747 123.755 347.922 123.594 348.156C123.438 348.391 123.359 348.701 123.359 349.086C123.359 349.529 123.471 349.867 123.695 350.102C123.924 350.331 124.242 350.445 124.648 350.445C125.112 350.445 125.523 350.336 125.883 350.117C126.242 349.898 126.526 349.599 126.734 349.219C126.943 348.833 127.047 348.435 127.047 348.023V347.414Z" fill="#5F5F64"/>
<path d="M29.1875 394.257C29.15 394.164 29.1106 394.07 29.0703 393.976C28.4654 392.581 27.4865 391.381 26.2419 390.507H28.25C28.4489 390.507 28.6397 390.428 28.7803 390.288C28.921 390.147 29 389.956 29 389.757C29 389.558 28.921 389.368 28.7803 389.227C28.6397 389.086 28.4489 389.007 28.25 389.007H18.5C16.4263 389.01 14.4295 389.792 12.906 391.199C11.3825 392.606 10.4438 394.534 10.2763 396.601C9.6284 396.762 9.05277 397.135 8.64049 397.66C8.2282 398.185 8.00281 398.832 8 399.5C8 399.699 8.07902 399.89 8.21967 400.03C8.36032 400.171 8.55109 400.25 8.75 400.25C8.94891 400.25 9.13968 400.171 9.28033 400.03C9.42098 399.89 9.5 399.699 9.5 399.5C9.50017 399.226 9.57512 398.958 9.71673 398.724C9.85834 398.49 10.0612 398.299 10.3034 398.172C10.4901 399.855 11.1918 401.439 12.3125 402.708L13.49 406.004C13.5941 406.296 13.7859 406.548 14.039 406.726C14.2921 406.904 14.5942 407 14.9037 407H16.0963C16.4057 407 16.7075 406.904 16.9605 406.726C17.2134 406.548 17.405 406.296 17.5091 406.004L17.6891 405.5H23.0609L23.2409 406.004C23.345 406.296 23.5366 406.548 23.7895 406.726C24.0425 406.904 24.3443 407 24.6537 407H25.8463C26.1557 407 26.4575 406.904 26.7105 406.726C26.9634 406.548 27.155 406.296 27.2591 406.004L28.7787 401.75H29C29.5967 401.75 30.169 401.513 30.591 401.091C31.0129 400.669 31.25 400.097 31.25 399.5V396.5C31.2501 395.935 31.0381 395.392 30.6561 394.976C30.274 394.561 29.7499 394.304 29.1875 394.257ZM22.25 392.75H18.5C18.3011 392.75 18.1103 392.671 17.9697 392.53C17.829 392.39 17.75 392.199 17.75 392C17.75 391.801 17.829 391.61 17.9697 391.469C18.1103 391.329 18.3011 391.25 18.5 391.25H22.25C22.4489 391.25 22.6397 391.329 22.7803 391.469C22.921 391.61 23 391.801 23 392C23 392.199 22.921 392.39 22.7803 392.53C22.6397 392.671 22.4489 392.75 22.25 392.75ZM24.875 398C24.6525 398 24.435 397.934 24.25 397.81C24.065 397.687 23.9208 397.511 23.8356 397.305C23.7505 397.1 23.7282 396.874 23.7716 396.655C23.815 396.437 23.9222 396.237 24.0795 396.079C24.2368 395.922 24.4373 395.815 24.6555 395.771C24.8738 395.728 25.1 395.75 25.3055 395.835C25.5111 395.921 25.6868 396.065 25.8104 396.25C25.934 396.435 26 396.652 26 396.875C26 397.173 25.8815 397.459 25.6705 397.67C25.4595 397.881 25.1734 398 24.875 398Z" fill="#7C7C82"/>
<path d="M50.5 402.234C51.9948 402.234 53.0911 401.492 53.7891 400.008L55.2656 400.672C54.8229 401.656 54.1875 402.401 53.3594 402.906C52.5365 403.406 51.5677 403.656 50.4531 403.656C49.3177 403.656 48.3438 403.427 47.5312 402.969C46.724 402.51 46.1042 401.854 45.6719 401C45.2396 400.141 45.0234 399.122 45.0234 397.945C45.0234 396.763 45.2344 395.753 45.6562 394.914C46.0833 394.076 46.6979 393.435 47.5 392.992C48.3073 392.549 49.2786 392.328 50.4141 392.328C51.6276 392.328 52.6302 392.568 53.4219 393.047C54.2188 393.526 54.7969 394.232 55.1562 395.164L53.5312 395.664C53.3073 395.055 52.9219 394.583 52.375 394.25C51.8333 393.911 51.1901 393.742 50.4453 393.742C49.2839 393.742 48.388 394.112 47.7578 394.852C47.1276 395.591 46.8125 396.622 46.8125 397.945C46.8125 398.826 46.9583 399.586 47.25 400.227C47.5469 400.867 47.9714 401.362 48.5234 401.711C49.0755 402.06 49.7344 402.234 50.5 402.234ZM58.5859 399.852V403.5H56.9141V395.047H58.5859V398.727C58.763 398.721 58.9115 398.693 59.0312 398.641C59.151 398.589 59.276 398.492 59.4062 398.352C59.4688 398.279 59.5365 398.195 59.6094 398.102C59.6875 398.003 59.7656 397.891 59.8438 397.766C59.9271 397.646 60.1016 397.359 60.3672 396.906C60.638 396.448 61 395.828 61.4531 395.047H63.1484L61.4844 397.734C61.0885 398.349 60.7786 398.747 60.5547 398.93L63.2188 403.5H61.4297L59.375 399.719C59.2812 399.755 59.1589 399.786 59.0078 399.812C58.862 399.839 58.7214 399.852 58.5859 399.852ZM71.75 399.266C71.75 400.708 71.4062 401.802 70.7188 402.547C70.0312 403.286 69.0521 403.656 67.7812 403.656C66.5156 403.656 65.5469 403.276 64.875 402.516C64.2083 401.75 63.875 400.667 63.875 399.266C63.875 397.839 64.2109 396.753 64.8828 396.008C65.5547 395.263 66.5365 394.891 67.8281 394.891C69.1458 394.891 70.1276 395.253 70.7734 395.977C71.4245 396.701 71.75 397.797 71.75 399.266ZM70 399.266C70 398.151 69.8307 397.344 69.4922 396.844C69.1536 396.339 68.6068 396.086 67.8516 396.086C67.0807 396.086 66.5156 396.346 66.1562 396.867C65.8021 397.383 65.625 398.182 65.625 399.266C65.625 400.323 65.7995 401.12 66.1484 401.656C66.5026 402.193 67.0391 402.461 67.7578 402.461C68.5495 402.461 69.1198 402.201 69.4688 401.68C69.8229 401.159 70 400.354 70 399.266ZM80.9297 399.234C80.9297 400.688 80.6615 401.789 80.125 402.539C79.5938 403.284 78.8099 403.656 77.7734 403.656C76.4974 403.656 75.6302 403.164 75.1719 402.18H75.1328C75.1536 402.253 75.1641 402.706 75.1641 403.539V406.82H73.5V396.844C73.5 396.422 73.4948 396.062 73.4844 395.766C73.474 395.464 73.4609 395.224 73.4453 395.047H75.0625C75.0729 395.083 75.0833 395.188 75.0938 395.359C75.1094 395.526 75.1224 395.711 75.1328 395.914C75.1432 396.117 75.1484 396.284 75.1484 396.414H75.1797C75.4245 395.893 75.7604 395.51 76.1875 395.266C76.6146 395.016 77.1589 394.891 77.8203 394.891C78.8464 394.891 79.6198 395.25 80.1406 395.969C80.6667 396.682 80.9297 397.771 80.9297 399.234ZM79.1797 399.258C79.1797 398.154 79.026 397.354 78.7188 396.859C78.4115 396.365 77.9297 396.117 77.2734 396.117C76.5651 396.117 76.0339 396.38 75.6797 396.906C75.3307 397.432 75.1562 398.247 75.1562 399.352C75.1562 400.393 75.3255 401.172 75.6641 401.688C76.0026 402.203 76.5339 402.461 77.2578 402.461C77.9193 402.461 78.4036 402.211 78.7109 401.711C79.0234 401.206 79.1797 400.388 79.1797 399.258ZM90.125 399.266C90.125 400.708 89.7812 401.802 89.0938 402.547C88.4062 403.286 87.4271 403.656 86.1562 403.656C84.8906 403.656 83.9219 403.276 83.25 402.516C82.5833 401.75 82.25 400.667 82.25 399.266C82.25 397.839 82.5859 396.753 83.2578 396.008C83.9297 395.263 84.9115 394.891 86.2031 394.891C87.5208 394.891 88.5026 395.253 89.1484 395.977C89.7995 396.701 90.125 397.797 90.125 399.266ZM88.375 399.266C88.375 398.151 88.2057 397.344 87.8672 396.844C87.5286 396.339 86.9818 396.086 86.2266 396.086C85.4557 396.086 84.8906 396.346 84.5312 396.867C84.1771 397.383 84 398.182 84 399.266C84 400.323 84.1745 401.12 84.5234 401.656C84.8776 402.193 85.4141 402.461 86.1328 402.461C86.9245 402.461 87.4948 402.201 87.8438 401.68C88.1979 401.159 88.375 400.354 88.375 399.266ZM100.461 395.477C101.669 395.477 102.557 395.818 103.125 396.5C103.693 397.177 103.977 398.198 103.977 399.562C103.977 400.943 103.638 401.971 102.961 402.648C102.284 403.32 101.299 403.656 100.008 403.656C98.6693 403.656 97.6823 403.237 97.0469 402.398C96.4167 401.56 96.1016 400.271 96.1016 398.531C96.1016 397.646 96.1641 396.87 96.2891 396.203C96.4141 395.531 96.6094 394.953 96.875 394.469C97.1458 393.984 97.4922 393.581 97.9141 393.258C98.3359 392.935 98.8672 392.674 99.5078 392.477C99.8255 392.378 100.323 392.268 101 392.148C101.677 392.029 102.531 391.901 103.562 391.766V393.219C102.833 393.302 102.161 393.391 101.547 393.484C100.938 393.578 100.409 393.677 99.9609 393.781C99.513 393.88 99.1667 393.99 98.9219 394.109C98.3385 394.37 97.9271 394.771 97.6875 395.312C97.4479 395.849 97.3177 396.635 97.2969 397.672C97.5365 396.969 97.9245 396.427 98.4609 396.047C99.0026 395.667 99.6693 395.477 100.461 395.477ZM102.227 399.578C102.227 398.578 102.062 397.844 101.734 397.375C101.411 396.901 100.88 396.664 100.141 396.664C99.3594 396.664 98.7839 396.904 98.4141 397.383C98.0443 397.857 97.8594 398.589 97.8594 399.578C97.8594 400.542 98.0312 401.263 98.375 401.742C98.724 402.221 99.263 402.461 99.9922 402.461C100.794 402.461 101.367 402.229 101.711 401.766C102.055 401.302 102.227 400.573 102.227 399.578ZM106.062 406.82C105.63 406.82 105.26 406.789 104.953 406.727V405.508C105.182 405.539 105.411 405.555 105.641 405.555C106.104 405.555 106.503 405.401 106.836 405.094C107.169 404.786 107.471 404.237 107.742 403.445L104.398 395.047H106.172L107.797 399.484C107.922 399.802 108.055 400.174 108.195 400.602C108.336 401.023 108.461 401.44 108.57 401.852C108.701 401.445 108.828 401.055 108.953 400.68C109.078 400.299 109.203 399.917 109.328 399.531L110.82 395.047H112.578L109.297 403.648C109.135 404.065 108.974 404.432 108.812 404.75C108.656 405.068 108.503 405.333 108.352 405.547C108.044 405.99 107.706 406.312 107.336 406.516C106.966 406.719 106.542 406.82 106.062 406.82ZM113.766 403.5V406.688H112.281V402.32H113.227C113.612 401.695 113.945 400.799 114.227 399.633C114.508 398.461 114.768 396.932 115.008 395.047H120.328V402.32H121.469V406.688H119.984V403.5H113.766ZM115.016 402.32H118.656V396.227H116.445C116.258 397.612 116.049 398.807 115.82 399.812C115.591 400.818 115.323 401.654 115.016 402.32ZM124.164 399.609C124.164 400.531 124.349 401.237 124.719 401.727C125.089 402.216 125.622 402.461 126.32 402.461C126.857 402.461 127.289 402.352 127.617 402.133C127.945 401.914 128.169 401.625 128.289 401.266L129.797 401.555C129.26 402.956 128.091 403.656 126.289 403.656C125.029 403.656 124.068 403.284 123.406 402.539C122.745 401.789 122.414 400.685 122.414 399.227C122.414 397.831 122.747 396.76 123.414 396.016C124.081 395.266 125.029 394.891 126.258 394.891C127.492 394.891 128.422 395.276 129.047 396.047C129.677 396.812 129.992 397.953 129.992 399.469V399.609H124.164ZM128.312 398.438C128.25 397.615 128.044 397.01 127.695 396.625C127.352 396.24 126.865 396.047 126.234 396.047C125.609 396.047 125.117 396.258 124.758 396.68C124.398 397.102 124.206 397.688 124.18 398.438H128.312ZM134.82 396.227V403.5H133.148V396.227H130.57V395.047H137.398V396.227H134.82Z" fill="#5F5F64"/>
<path d="M263.531 398.531L258.531 403.531C258.39 403.671 258.199 403.751 257.999 403.751C257.8 403.751 257.609 403.671 257.468 403.531C257.327 403.39 257.248 403.199 257.248 402.999C257.248 402.8 257.327 402.609 257.468 402.468L261.937 398L257.469 393.531C257.4 393.461 257.344 393.378 257.306 393.287C257.269 393.196 257.249 393.098 257.249 392.999C257.249 392.901 257.269 392.803 257.306 392.712C257.344 392.621 257.4 392.538 257.469 392.468C257.539 392.398 257.622 392.343 257.713 392.305C257.804 392.267 257.902 392.248 258.001 392.248C258.099 392.248 258.197 392.267 258.288 392.305C258.379 392.343 258.462 392.398 258.532 392.468L263.532 397.468C263.602 397.538 263.657 397.621 263.695 397.712C263.733 397.803 263.752 397.901 263.752 398C263.752 398.098 263.732 398.196 263.694 398.287C263.656 398.378 263.601 398.461 263.531 398.531Z" fill="#5F5F64"/>
</svg>
