<svg width="211" height="35" viewBox="0 0 211 35" fill="none" xmlns="http://www.w3.org/2000/svg">
<path d="M15.9363 0.407667L9.47266 0.447514L17.363 14.8444H19.3677L27.3242 0.337463L20.9363 0.376843L19.8259 2.40156H17.0299L15.9363 0.407667Z" fill="#13485d"/>
<path d="M0 16.977L3.21927 11.1118H5.49418L6.89215 8.56287L5.75564 6.49071L8.90219 0.757954L16.8825 15.1134L15.8604 16.977H0Z" fill="#13485d"/>
<path fill-rule="evenodd" clip-rule="evenodd" d="M80.7657 8.02648C82.7592 8.02648 84.5519 8.42716 86.1437 9.22852C87.7355 10.0142 88.9852 11.1062 89.8927 12.5047C90.8002 13.8874 91.2539 15.4508 91.2539 17.195C91.2539 18.9234 90.8002 20.479 89.8927 21.8617C88.9852 23.2445 87.7355 24.3365 86.1437 25.1379C84.5519 25.9235 82.7592 26.3163 80.7657 26.3163C78.8466 26.3163 77.0762 25.9235 75.4547 25.1379C73.848 24.3365 72.5686 23.2445 71.6164 21.8617C70.6643 20.4633 70.1883 18.9077 70.1883 17.195C70.1883 15.4666 70.6569 13.9031 71.5941 12.5047C72.5462 11.1062 73.8331 10.0142 75.4547 9.22852C77.0762 8.42716 78.8466 8.02648 80.7657 8.02648ZM80.7657 22.4745C81.7327 22.4745 82.6476 22.2703 83.5105 21.8617C84.3733 21.4375 85.0726 20.8325 85.6081 20.0469C86.1437 19.2455 86.4115 18.2949 86.4115 17.195C86.4115 16.1108 86.1437 15.168 85.6081 14.3666C85.0726 13.5496 84.3733 12.9289 83.5105 12.5047C82.6476 12.0804 81.7327 11.8683 80.7657 11.8683C79.769 11.8683 78.8317 12.0804 77.954 12.5047C77.0911 12.9132 76.3994 13.5181 75.8787 14.3195C75.358 15.1209 75.0976 16.0636 75.0976 17.1478C75.0976 18.2477 75.358 19.2062 75.8787 20.0233C76.4142 20.8247 77.1134 21.4375 77.9763 21.8617C78.854 22.2703 79.7838 22.4745 80.7657 22.4745Z" fill="white"/>
<path fill-rule="evenodd" clip-rule="evenodd" d="M142.308 20.1883L146.882 25.8214H152.417L147.619 19.929C149.077 19.599 150.215 18.947 151.033 17.9728C151.866 16.9986 152.283 15.7651 152.283 14.2724V14.1781C152.283 13.031 151.985 12.0254 151.39 11.1612C150.81 10.2813 149.984 9.59777 148.913 9.11067C147.857 8.62357 146.637 8.38002 145.253 8.38002H133.181V25.8214H137.644V20.1883H142.308ZM147.373 12.6696C147.656 13.0153 147.797 13.5653 147.797 14.3195C147.797 15.0266 147.656 15.5451 147.373 15.8751C147.091 16.2051 146.726 16.4093 146.28 16.4879C145.834 16.5507 145.201 16.5822 144.383 16.5822H137.644V11.9861C140.307 11.9861 142.248 11.9704 143.468 11.939C143.721 11.9233 144.026 11.9154 144.383 11.9154C145.201 11.9154 145.834 11.9547 146.28 12.0333C146.726 12.1118 147.091 12.324 147.373 12.6696Z" fill="white"/>
<path d="M158.432 18.727H169.233V15.0737H158.432V12.104H171.13L171.107 8.40359H153.813V25.8449H171.107V22.121L158.432 22.2153V18.727Z" fill="white"/>
<path d="M116.819 14.7438H126.638V8.40359H131.28V25.8449H126.638V18.727H116.819V25.8449H112.2V8.40359H116.819V14.7438Z" fill="white"/>
<path d="M110.417 8.40359V12.4575H103.232V25.8449H98.5901V12.4575H91.3153V8.40359H110.417Z" fill="white"/>
<path d="M48.2772 8.40359V25.8449H52.8965V14.2959L63.9426 25.8449H68.5842V8.40359H63.9426V19.929L52.8965 8.40359H48.2772Z" fill="white"/>
<path d="M210.583 12.4575V8.40359H191.482V12.4575H198.756V25.8449H203.398V12.4575H210.583Z" fill="white"/>
<path fill-rule="evenodd" clip-rule="evenodd" d="M191.278 25.8449H196.046L186.342 8.12067H181.823L172.119 25.8449H176.693L178.66 22.3634H189.311L191.278 25.8449ZM187.344 18.8818H180.627L183.846 13.1847H184.125L187.344 18.8818Z" fill="white"/>
<path d="M0 17.6979L15.7992 17.6979L16.8584 19.6293L9.01632 33.917L5.75681 28.0536L6.89217 25.9835L5.49419 23.4346H3.18908L0 17.6979Z" fill="#13485d"/>
<path d="M17.4347 19.9422L9.53936 34.3375L15.8484 34.2986L17.0297 32.1448H19.8256L20.9895 34.2669L27.3909 34.2274L19.5618 19.9422H17.4347Z" fill="#13485d"/>
<path d="M27.9615 33.917L20.008 19.6097L21.0565 17.6979L36.8637 17.6979L33.715 23.4345H31.3615L29.9635 25.9834L31.1393 28.1273L27.9615 33.917Z" fill="#13485d"/>
<path d="M19.9712 15.1088L27.8479 0.757954L31.0679 6.55022L29.9641 8.56284L31.362 11.1117H33.6037L36.8643 16.977H20.9958L19.9712 15.1088Z" fill="#13485d"/>
</svg>
