<svg width="1020" height="76" viewBox="0 0 1020 76" fill="none" xmlns="http://www.w3.org/2000/svg">
<rect width="1020" height="76" rx="16" fill="#4985BE" fill-opacity="0.2"/>
<path d="M32 19C29.4288 19 26.9154 19.7624 24.7776 21.1909C22.6398 22.6194 20.9735 24.6497 19.9896 27.0251C19.0056 29.4006 18.7482 32.0144 19.2498 34.5362C19.7514 37.0579 20.9895 39.3743 22.8076 41.1924C24.6257 43.0105 26.9421 44.2486 29.4638 44.7502C31.9856 45.2518 34.5995 44.9944 36.9749 44.0104C39.3503 43.0265 41.3807 41.3603 42.8091 39.2224C44.2376 37.0846 45 34.5712 45 32C44.9964 28.5533 43.6256 25.2488 41.1884 22.8116C38.7512 20.3744 35.4467 19.0036 32 19ZM31 26C31 25.7348 31.1054 25.4804 31.2929 25.2929C31.4804 25.1054 31.7348 25 32 25C32.2652 25 32.5196 25.1054 32.7071 25.2929C32.8946 25.4804 33 25.7348 33 26V33C33 33.2652 32.8946 33.5196 32.7071 33.7071C32.5196 33.8946 32.2652 34 32 34C31.7348 34 31.4804 33.8946 31.2929 33.7071C31.1054 33.5196 31 33.2652 31 33V26ZM32 39C31.7033 39 31.4133 38.912 31.1667 38.7472C30.92 38.5824 30.7277 38.3481 30.6142 38.074C30.5007 37.7999 30.471 37.4983 30.5288 37.2074C30.5867 36.9164 30.7296 36.6491 30.9393 36.4393C31.1491 36.2296 31.4164 36.0867 31.7074 36.0288C31.9983 35.9709 32.2999 36.0007 32.574 36.1142C32.8481 36.2277 33.0824 36.42 33.2472 36.6666C33.412 36.9133 33.5 37.2033 33.5 37.5C33.5 37.8978 33.342 38.2794 33.0607 38.5607C32.7794 38.842 32.3978 39 32 39Z" fill="#4985BE"/>
<path d="M61.7656 22.3984V32H60.0078V22.3984H56.2969V20.9922H65.4688V22.3984H61.7656ZM68.0391 20.4062V21.8438H66.3672V20.4062H68.0391ZM68.0391 23.5469V32H66.3672V23.5469H68.0391ZM77.6641 27.7344C77.6641 29.1875 77.3958 30.2891 76.8594 31.0391C76.3281 31.7839 75.5443 32.1562 74.5078 32.1562C73.2318 32.1562 72.3646 31.6641 71.9062 30.6797H71.8672C71.888 30.7526 71.8984 31.2057 71.8984 32.0391V35.3203H70.2344V25.3438C70.2344 24.9219 70.2292 24.5625 70.2188 24.2656C70.2083 23.9635 70.1953 23.724 70.1797 23.5469H71.7969C71.8073 23.5833 71.8177 23.6875 71.8281 23.8594C71.8438 24.026 71.8568 24.2109 71.8672 24.4141C71.8776 24.6172 71.8828 24.7839 71.8828 24.9141H71.9141C72.1589 24.3932 72.4948 24.0104 72.9219 23.7656C73.349 23.5156 73.8932 23.3906 74.5547 23.3906C75.5807 23.3906 76.3542 23.75 76.875 24.4688C77.401 25.1823 77.6641 26.2708 77.6641 27.7344ZM75.9141 27.7578C75.9141 26.6536 75.7604 25.8542 75.4531 25.3594C75.1458 24.8646 74.6641 24.6172 74.0078 24.6172C73.2995 24.6172 72.7682 24.8802 72.4141 25.4062C72.0651 25.9323 71.8906 26.7474 71.8906 27.8516C71.8906 28.8932 72.0599 29.6719 72.3984 30.1875C72.737 30.7031 73.2682 30.9609 73.9922 30.9609C74.6536 30.9609 75.138 30.7109 75.4453 30.2109C75.7578 29.7057 75.9141 28.888 75.9141 27.7578Z" fill="#4985BE"/>
<path d="M60.9219 47.4346V56H59.623V47.4346H56.3145V46.3682H64.2305V47.4346H60.9219ZM66.4456 49.8682C66.7099 49.3851 67.0266 49.0319 67.3958 48.8086C67.7695 48.5807 68.2412 48.4668 68.8108 48.4668C69.6129 48.4668 70.2031 48.6764 70.5813 49.0957C70.9641 49.5104 71.1555 50.1689 71.1555 51.0713V56H69.9182V51.3105C69.9182 50.6406 69.7998 50.1576 69.5628 49.8613C69.3304 49.5651 68.9407 49.417 68.3938 49.417C67.8151 49.417 67.3502 49.6175 66.9993 50.0186C66.6529 50.4196 66.4798 50.9596 66.4798 51.6387V56H65.2493V45.8555H66.4798V48.4941C66.4798 48.6764 66.4752 48.8701 66.4661 49.0752C66.457 49.2757 66.4479 49.4512 66.4388 49.6016C66.4342 49.7474 66.4296 49.8363 66.4251 49.8682H66.4456ZM73.9586 45.8555V47.0312H72.7281V45.8555H73.9586ZM73.9586 48.6035V56H72.7281V48.6035H73.9586ZM81.1229 53.9561C81.1229 54.6533 80.8586 55.1911 80.3299 55.5693C79.8058 55.9476 79.0698 56.1367 78.1219 56.1367C77.2013 56.1367 76.4904 55.9863 75.9891 55.6855C75.4924 55.3802 75.1688 54.9062 75.0184 54.2637L76.1053 54.0518C76.2101 54.4482 76.4266 54.7399 76.7547 54.9268C77.0829 55.109 77.5386 55.2002 78.1219 55.2002C78.7463 55.2002 79.202 55.1045 79.4891 54.9131C79.7808 54.7217 79.9266 54.4346 79.9266 54.0518C79.9266 53.7601 79.8263 53.5231 79.6258 53.3408C79.4253 53.1585 79.1017 53.0081 78.6551 52.8896C78.1265 52.7484 77.7049 52.6322 77.3905 52.541C77.0806 52.4499 76.8413 52.3724 76.6727 52.3086C76.5041 52.2402 76.3696 52.1764 76.2694 52.1172C75.9686 51.944 75.7339 51.7321 75.5653 51.4814C75.3967 51.2308 75.3123 50.9232 75.3123 50.5586C75.3123 49.8841 75.5516 49.3714 76.0301 49.0205C76.5132 48.665 77.215 48.4873 78.1356 48.4873C78.9513 48.4873 79.5985 48.6309 80.077 48.918C80.5601 49.2051 80.8654 49.6654 80.993 50.2988L79.8856 50.4355C79.8172 50.1074 79.6327 49.8568 79.3319 49.6836C79.0357 49.5059 78.6369 49.417 78.1356 49.417C77.5796 49.417 77.1694 49.5013 76.9051 49.6699C76.6408 49.8385 76.5086 50.0938 76.5086 50.4355C76.5086 50.6862 76.5838 50.8936 76.7342 51.0576C76.8846 51.2171 77.1717 51.3493 77.5955 51.4541C78.1652 51.5908 78.7075 51.7412 79.2225 51.9053C79.7375 52.0648 80.1066 52.2243 80.3299 52.3838C80.5897 52.5706 80.7857 52.7917 80.9178 53.0469C81.0545 53.2975 81.1229 53.6006 81.1229 53.9561ZM87.1322 45.8555V47.0312H85.9018V45.8555H87.1322ZM87.1322 48.6035V56H85.9018V48.6035H87.1322ZM94.2966 53.9561C94.2966 54.6533 94.0322 55.1911 93.5036 55.5693C92.9795 55.9476 92.2435 56.1367 91.2956 56.1367C90.375 56.1367 89.6641 55.9863 89.1628 55.6855C88.666 55.3802 88.3425 54.9062 88.1921 54.2637L89.279 54.0518C89.3838 54.4482 89.6003 54.7399 89.9284 54.9268C90.2565 55.109 90.7123 55.2002 91.2956 55.2002C91.9199 55.2002 92.3757 55.1045 92.6628 54.9131C92.9544 54.7217 93.1003 54.4346 93.1003 54.0518C93.1003 53.7601 93 53.5231 92.7995 53.3408C92.599 53.1585 92.2754 53.0081 91.8288 52.8896C91.3001 52.7484 90.8786 52.6322 90.5641 52.541C90.2542 52.4499 90.015 52.3724 89.8464 52.3086C89.6777 52.2402 89.5433 52.1764 89.443 52.1172C89.1423 51.944 88.9076 51.7321 88.7389 51.4814C88.5703 51.2308 88.486 50.9232 88.486 50.5586C88.486 49.8841 88.7253 49.3714 89.2038 49.0205C89.6869 48.665 90.3887 48.4873 91.3093 48.4873C92.125 48.4873 92.7721 48.6309 93.2507 48.918C93.7337 49.2051 94.0391 49.6654 94.1667 50.2988L93.0593 50.4355C92.9909 50.1074 92.8063 49.8568 92.5055 49.6836C92.2093 49.5059 91.8106 49.417 91.3093 49.417C90.7533 49.417 90.3431 49.5013 90.0788 49.6699C89.8145 49.8385 89.6823 50.0938 89.6823 50.4355C89.6823 50.6862 89.7575 50.8936 89.9079 51.0576C90.0583 51.2171 90.3454 51.3493 90.7692 51.4541C91.3389 51.5908 91.8812 51.7412 92.3962 51.9053C92.9111 52.0648 93.2803 52.2243 93.5036 52.3838C93.7634 52.5706 93.9593 52.7917 94.0915 53.0469C94.2282 53.2975 94.2966 53.6006 94.2966 53.9561ZM100.969 56.1367C100.226 56.1367 99.6679 55.9408 99.2942 55.5488C98.9205 55.1569 98.7336 54.6191 98.7336 53.9355C98.7336 53.1699 98.9843 52.582 99.4856 52.1719C99.9914 51.7617 100.805 51.543 101.926 51.5156L103.587 51.4883V51.085C103.587 50.4834 103.46 50.0527 103.204 49.793C102.949 49.5332 102.548 49.4033 102.001 49.4033C101.45 49.4033 101.049 49.4967 100.798 49.6836C100.547 49.8704 100.397 50.1689 100.347 50.5791L99.0618 50.4629C99.2714 49.1322 100.26 48.4668 102.029 48.4668C102.958 48.4668 103.658 48.681 104.127 49.1094C104.597 49.5332 104.831 50.1484 104.831 50.9551V54.1406C104.831 54.5052 104.879 54.7809 104.975 54.9678C105.071 55.1501 105.253 55.2412 105.522 55.2412C105.649 55.2412 105.784 55.2253 105.925 55.1934V55.959C105.77 55.9954 105.613 56.0228 105.453 56.041C105.294 56.0592 105.134 56.0684 104.975 56.0684C104.519 56.0684 104.186 55.9499 103.977 55.7129C103.772 55.4714 103.656 55.0954 103.628 54.585H103.587C103.273 55.1501 102.906 55.5511 102.487 55.7881C102.072 56.0205 101.566 56.1367 100.969 56.1367ZM103.587 52.3496L102.24 52.377C101.666 52.3815 101.229 52.4408 100.928 52.5547C100.627 52.6641 100.397 52.8327 100.238 53.0605C100.078 53.2884 99.9983 53.5869 99.9983 53.9561C99.9983 54.3571 100.105 54.667 100.32 54.8857C100.538 55.1045 100.848 55.2139 101.249 55.2139C101.705 55.2139 102.106 55.1113 102.452 54.9062C102.803 54.7012 103.079 54.4209 103.28 54.0654C103.485 53.7054 103.587 53.3363 103.587 52.958V52.3496ZM116.467 52.2676C116.467 53.5573 116.239 54.5257 115.783 55.1729C115.332 55.8154 114.653 56.1367 113.746 56.1367C112.607 56.1367 111.841 55.7083 111.449 54.8516H111.415C111.433 54.8835 111.442 55.2708 111.442 56.0137V58.9053H110.212V50.1143C110.212 49.736 110.207 49.4215 110.198 49.1709C110.193 48.9157 110.184 48.7266 110.171 48.6035H111.36C111.365 48.6217 111.372 48.7106 111.381 48.8701C111.394 49.0296 111.406 49.2028 111.415 49.3896C111.424 49.5719 111.429 49.7064 111.429 49.793H111.456C111.675 49.3372 111.964 49.0046 112.324 48.7949C112.684 48.5807 113.158 48.4736 113.746 48.4736C114.657 48.4736 115.339 48.779 115.79 49.3896C116.241 50.0003 116.467 50.9596 116.467 52.2676ZM115.175 52.2949C115.175 51.265 115.036 50.529 114.758 50.0869C114.48 49.6449 114.038 49.4238 113.431 49.4238C112.757 49.4238 112.256 49.6585 111.928 50.1279C111.604 50.5928 111.442 51.347 111.442 52.3906C111.442 53.3613 111.597 54.0768 111.907 54.5371C112.217 54.9974 112.721 55.2275 113.418 55.2275C114.028 55.2275 114.473 55.0042 114.751 54.5576C115.033 54.1064 115.175 53.3522 115.175 52.2949ZM118.955 45.8555V56H117.725V45.8555H118.955ZM122.449 56.1367C121.706 56.1367 121.147 55.9408 120.774 55.5488C120.4 55.1569 120.213 54.6191 120.213 53.9355C120.213 53.1699 120.464 52.582 120.965 52.1719C121.471 51.7617 122.285 51.543 123.406 51.5156L125.067 51.4883V51.085C125.067 50.4834 124.939 50.0527 124.684 49.793C124.429 49.5332 124.028 49.4033 123.481 49.4033C122.929 49.4033 122.528 49.4967 122.278 49.6836C122.027 49.8704 121.877 50.1689 121.827 50.5791L120.541 50.4629C120.751 49.1322 121.74 48.4668 123.508 48.4668C124.438 48.4668 125.137 48.681 125.607 49.1094C126.076 49.5332 126.311 50.1484 126.311 50.9551V54.1406C126.311 54.5052 126.359 54.7809 126.454 54.9678C126.55 55.1501 126.732 55.2412 127.001 55.2412C127.129 55.2412 127.263 55.2253 127.405 55.1934V55.959C127.25 55.9954 127.092 56.0228 126.933 56.041C126.773 56.0592 126.614 56.0684 126.454 56.0684C125.999 56.0684 125.666 55.9499 125.456 55.7129C125.251 55.4714 125.135 55.0954 125.108 54.585H125.067C124.752 55.1501 124.385 55.5511 123.966 55.7881C123.551 56.0205 123.046 56.1367 122.449 56.1367ZM125.067 52.3496L123.72 52.377C123.146 52.3815 122.708 52.4408 122.408 52.5547C122.107 52.6641 121.877 52.8327 121.717 53.0605C121.558 53.2884 121.478 53.5869 121.478 53.9561C121.478 54.3571 121.585 54.667 121.799 54.8857C122.018 55.1045 122.328 55.2139 122.729 55.2139C123.185 55.2139 123.586 55.1113 123.932 54.9062C124.283 54.7012 124.559 54.4209 124.759 54.0654C124.964 53.7054 125.067 53.3363 125.067 52.958V52.3496ZM130.912 56.1367C129.877 56.1367 129.087 55.8109 128.54 55.1592C127.997 54.5029 127.726 53.5482 127.726 52.2949C127.726 51.0508 128 50.1029 128.547 49.4512C129.093 48.7949 129.877 48.4668 130.898 48.4668C131.655 48.4668 132.281 48.6628 132.778 49.0547C133.279 49.4466 133.594 49.9867 133.721 50.6748L132.457 50.7705C132.393 50.3604 132.231 50.0345 131.971 49.793C131.712 49.5514 131.342 49.4307 130.864 49.4307C130.212 49.4307 129.741 49.6471 129.449 50.0801C129.157 50.513 129.011 51.2422 129.011 52.2676C129.011 53.252 129.166 53.9811 129.476 54.4551C129.786 54.929 130.253 55.166 130.878 55.166C131.315 55.166 131.68 55.0475 131.971 54.8105C132.268 54.5736 132.45 54.209 132.518 53.7168L133.762 53.7988C133.699 54.2728 133.539 54.6852 133.284 55.0361C133.033 55.387 132.705 55.6582 132.299 55.8496C131.898 56.041 131.436 56.1367 130.912 56.1367ZM135.738 52.5615C135.738 53.4092 135.914 54.0632 136.265 54.5234C136.615 54.9837 137.128 55.2139 137.803 55.2139C138.336 55.2139 138.762 55.1068 139.081 54.8926C139.405 54.6784 139.623 54.4072 139.737 54.0791L140.817 54.3867C140.375 55.5534 139.37 56.1367 137.803 56.1367C136.709 56.1367 135.875 55.8109 135.301 55.1592C134.731 54.5075 134.446 53.5391 134.446 52.2539C134.446 51.0326 134.731 50.096 135.301 49.4443C135.875 48.7926 136.693 48.4668 137.755 48.4668C138.844 48.4668 139.66 48.7949 140.202 49.4512C140.744 50.1074 141.016 51.0895 141.016 52.3975V52.5615H135.738ZM139.744 51.6182C139.676 50.8389 139.477 50.2715 139.149 49.916C138.821 49.556 138.35 49.376 137.734 49.376C137.137 49.376 136.663 49.5765 136.312 49.9775C135.966 50.374 135.779 50.9209 135.752 51.6182H139.744ZM143.531 49.8682C143.796 49.3851 144.113 49.0319 144.482 48.8086C144.855 48.5807 145.327 48.4668 145.897 48.4668C146.699 48.4668 147.289 48.6764 147.667 49.0957C148.05 49.5104 148.241 50.1689 148.241 51.0713V56H147.004V51.3105C147.004 50.6406 146.886 50.1576 146.649 49.8613C146.416 49.5651 146.027 49.417 145.48 49.417C144.901 49.417 144.436 49.6175 144.085 50.0186C143.739 50.4196 143.566 50.9596 143.566 51.6387V56H142.335V45.8555H143.566V48.4941C143.566 48.6764 143.561 48.8701 143.552 49.0752C143.543 49.2757 143.534 49.4512 143.525 49.6016C143.52 49.7474 143.515 49.8363 143.511 49.8682H143.531ZM156.076 52.2949C156.076 53.5892 155.791 54.5531 155.221 55.1865C154.652 55.82 153.824 56.1367 152.74 56.1367C151.66 56.1367 150.844 55.8086 150.292 55.1523C149.741 54.4915 149.465 53.5391 149.465 52.2949C149.465 51.0189 149.741 50.0618 150.292 49.4238C150.848 48.7858 151.678 48.4668 152.781 48.4668C153.911 48.4668 154.743 48.779 155.276 49.4033C155.809 50.0231 156.076 50.987 156.076 52.2949ZM154.784 52.2949C154.784 51.2741 154.631 50.5335 154.326 50.0732C154.025 49.6084 153.517 49.376 152.801 49.376C152.081 49.376 151.559 49.613 151.236 50.0869C150.917 50.5563 150.757 51.2923 150.757 52.2949C150.757 53.2702 150.915 54.0039 151.229 54.4961C151.548 54.9837 152.047 55.2275 152.726 55.2275C153.464 55.2275 153.991 54.9906 154.305 54.5166C154.624 54.0426 154.784 53.3021 154.784 52.2949ZM158.564 45.8555V56H157.334V45.8555H158.564ZM164.936 56C164.926 55.9499 164.915 55.8564 164.901 55.7197C164.892 55.5785 164.883 55.4235 164.874 55.2549C164.87 55.0863 164.867 54.9382 164.867 54.8105H164.84C164.612 55.2845 164.309 55.624 163.931 55.8291C163.557 56.0342 163.092 56.1367 162.536 56.1367C161.602 56.1367 160.914 55.8223 160.472 55.1934C160.034 54.5645 159.815 53.612 159.815 52.3359C159.815 51.0462 160.041 50.0801 160.492 49.4375C160.948 48.7904 161.629 48.4668 162.536 48.4668C163.097 48.4668 163.564 48.5693 163.938 48.7744C164.311 48.9795 164.612 49.3053 164.84 49.752H164.854L164.84 48.9248V45.8555H166.07V54.4756C166.07 54.863 166.073 55.1842 166.077 55.4395C166.086 55.6901 166.098 55.877 166.111 56H164.936ZM161.107 52.2949C161.107 53.3294 161.244 54.07 161.518 54.5166C161.791 54.9632 162.235 55.1865 162.851 55.1865C163.548 55.1865 164.054 54.945 164.368 54.4619C164.683 53.9788 164.84 53.2292 164.84 52.2129C164.84 51.2331 164.683 50.5153 164.368 50.0596C164.054 49.6038 163.552 49.376 162.864 49.376C162.245 49.376 161.796 49.6061 161.518 50.0664C161.244 50.5221 161.107 51.265 161.107 52.2949ZM168.627 52.5615C168.627 53.4092 168.803 54.0632 169.154 54.5234C169.505 54.9837 170.017 55.2139 170.692 55.2139C171.225 55.2139 171.651 55.1068 171.97 54.8926C172.294 54.6784 172.512 54.4072 172.626 54.0791L173.706 54.3867C173.264 55.5534 172.259 56.1367 170.692 56.1367C169.598 56.1367 168.764 55.8109 168.19 55.1592C167.62 54.5075 167.335 53.5391 167.335 52.2539C167.335 51.0326 167.62 50.096 168.19 49.4443C168.764 48.7926 169.582 48.4668 170.644 48.4668C171.733 48.4668 172.549 48.7949 173.091 49.4512C173.633 50.1074 173.905 51.0895 173.905 52.3975V52.5615H168.627ZM172.633 51.6182C172.565 50.8389 172.367 50.2715 172.038 49.916C171.71 49.556 171.239 49.376 170.623 49.376C170.026 49.376 169.552 49.5765 169.201 49.9775C168.855 50.374 168.668 50.9209 168.641 51.6182H172.633ZM176.455 52.1445V56H175.224V50.3262C175.224 50.0664 175.22 49.793 175.211 49.5059C175.206 49.2188 175.197 48.918 175.183 48.6035H176.345C176.354 48.8132 176.361 49.0023 176.366 49.1709C176.375 49.3395 176.382 49.4876 176.386 49.6152C176.391 49.7383 176.393 49.8431 176.393 49.9297C176.398 50.0117 176.4 50.0732 176.4 50.1143H176.427C176.564 49.6676 176.714 49.3213 176.879 49.0752C177.038 48.8473 177.22 48.6901 177.425 48.6035C177.63 48.5124 177.883 48.4668 178.184 48.4668C178.353 48.4668 178.519 48.4896 178.683 48.5352V49.6631C178.528 49.6175 178.31 49.5947 178.027 49.5947C177.517 49.5947 177.127 49.8158 176.858 50.2578C176.589 50.6953 176.455 51.3242 176.455 52.1445ZM185.082 56.1367C184.339 56.1367 183.781 55.9408 183.407 55.5488C183.034 55.1569 182.847 54.6191 182.847 53.9355C182.847 53.1699 183.097 52.582 183.599 52.1719C184.105 51.7617 184.918 51.543 186.039 51.5156L187.7 51.4883V51.085C187.7 50.4834 187.573 50.0527 187.318 49.793C187.062 49.5332 186.661 49.4033 186.114 49.4033C185.563 49.4033 185.162 49.4967 184.911 49.6836C184.661 49.8704 184.51 50.1689 184.46 50.5791L183.175 50.4629C183.385 49.1322 184.374 48.4668 186.142 48.4668C187.071 48.4668 187.771 48.681 188.24 49.1094C188.71 49.5332 188.944 50.1484 188.944 50.9551V54.1406C188.944 54.5052 188.992 54.7809 189.088 54.9678C189.184 55.1501 189.366 55.2412 189.635 55.2412C189.763 55.2412 189.897 55.2253 190.038 55.1934V55.959C189.883 55.9954 189.726 56.0228 189.567 56.041C189.407 56.0592 189.248 56.0684 189.088 56.0684C188.632 56.0684 188.3 55.9499 188.09 55.7129C187.885 55.4714 187.769 55.0954 187.741 54.585H187.7C187.386 55.1501 187.019 55.5511 186.6 55.7881C186.185 56.0205 185.679 56.1367 185.082 56.1367ZM187.7 52.3496L186.354 52.377C185.779 52.3815 185.342 52.4408 185.041 52.5547C184.74 52.6641 184.51 52.8327 184.351 53.0605C184.191 53.2884 184.111 53.5869 184.111 53.9561C184.111 54.3571 184.219 54.667 184.433 54.8857C184.652 55.1045 184.961 55.2139 185.362 55.2139C185.818 55.2139 186.219 55.1113 186.566 54.9062C186.916 54.7012 187.192 54.4209 187.393 54.0654C187.598 53.7054 187.7 53.3363 187.7 52.958V52.3496ZM191.939 45.8555V56H190.708V45.8555H191.939ZM194.489 52.5615C194.489 53.4092 194.664 54.0632 195.015 54.5234C195.366 54.9837 195.879 55.2139 196.553 55.2139C197.087 55.2139 197.513 55.1068 197.832 54.8926C198.155 54.6784 198.374 54.4072 198.488 54.0791L199.568 54.3867C199.126 55.5534 198.121 56.1367 196.553 56.1367C195.46 56.1367 194.626 55.8109 194.051 55.1592C193.482 54.5075 193.197 53.5391 193.197 52.2539C193.197 51.0326 193.482 50.096 194.051 49.4443C194.626 48.7926 195.444 48.4668 196.506 48.4668C197.595 48.4668 198.411 48.7949 198.953 49.4512C199.495 50.1074 199.766 51.0895 199.766 52.3975V52.5615H194.489ZM198.495 51.6182C198.426 50.8389 198.228 50.2715 197.9 49.916C197.572 49.556 197.1 49.376 196.485 49.376C195.888 49.376 195.414 49.5765 195.063 49.9775C194.717 50.374 194.53 50.9209 194.503 51.6182H198.495ZM202.316 52.1445V56H201.086V50.3262C201.086 50.0664 201.081 49.793 201.072 49.5059C201.068 49.2188 201.059 48.918 201.045 48.6035H202.207C202.216 48.8132 202.223 49.0023 202.228 49.1709C202.237 49.3395 202.243 49.4876 202.248 49.6152C202.253 49.7383 202.255 49.8431 202.255 49.9297C202.259 50.0117 202.262 50.0732 202.262 50.1143H202.289C202.426 49.6676 202.576 49.3213 202.74 49.0752C202.9 48.8473 203.082 48.6901 203.287 48.6035C203.492 48.5124 203.745 48.4668 204.046 48.4668C204.215 48.4668 204.381 48.4896 204.545 48.5352V49.6631C204.39 49.6175 204.171 49.5947 203.889 49.5947C203.378 49.5947 202.989 49.8158 202.72 50.2578C202.451 50.6953 202.316 51.3242 202.316 52.1445ZM208.284 55.9453C207.883 56.0547 207.469 56.1094 207.04 56.1094C206.548 56.1094 206.179 55.9704 205.933 55.6924C205.687 55.4098 205.564 54.9906 205.564 54.4346V49.499H204.709V48.6035H205.612L205.974 46.9492H206.794V48.6035H208.161V49.499H206.794V54.168C206.794 54.5234 206.851 54.7741 206.965 54.9199C207.084 55.0612 207.286 55.1318 207.574 55.1318C207.728 55.1318 207.965 55.0999 208.284 55.0361V55.9453ZM213.925 51.7139V56H212.701V50.1826C212.701 49.7497 212.696 49.4033 212.687 49.1436C212.683 48.8792 212.674 48.6992 212.66 48.6035H213.822C213.831 48.7038 213.84 48.8268 213.849 48.9727C213.859 49.1185 213.865 49.2712 213.87 49.4307C213.875 49.5856 213.877 49.7314 213.877 49.8682H213.897C214.162 49.3441 214.465 48.9795 214.806 48.7744C215.148 48.5693 215.565 48.4668 216.057 48.4668C216.618 48.4668 217.06 48.5785 217.384 48.8018C217.712 49.0251 217.94 49.3805 218.067 49.8682H218.088C218.343 49.3714 218.651 49.0137 219.011 48.7949C219.375 48.5762 219.815 48.4668 220.33 48.4668C221.077 48.4668 221.62 48.6696 221.957 49.0752C222.299 49.4808 222.47 50.1462 222.47 51.0713V56H221.253V51.3105C221.253 50.5951 221.155 50.1006 220.959 49.8271C220.763 49.5537 220.41 49.417 219.899 49.417C219.362 49.417 218.942 49.6175 218.641 50.0186C218.345 50.415 218.197 50.9801 218.197 51.7139V56H216.98V51.3105C216.98 50.5951 216.882 50.1006 216.686 49.8271C216.49 49.5537 216.137 49.417 215.627 49.417C215.103 49.417 214.688 49.6175 214.383 50.0186C214.077 50.4196 213.925 50.9847 213.925 51.7139ZM224.999 52.5615C224.999 53.4092 225.175 54.0632 225.526 54.5234C225.876 54.9837 226.389 55.2139 227.064 55.2139C227.597 55.2139 228.023 55.1068 228.342 54.8926C228.665 54.6784 228.884 54.4072 228.998 54.0791L230.078 54.3867C229.636 55.5534 228.631 56.1367 227.064 56.1367C225.97 56.1367 225.136 55.8109 224.562 55.1592C223.992 54.5075 223.707 53.5391 223.707 52.2539C223.707 51.0326 223.992 50.096 224.562 49.4443C225.136 48.7926 225.954 48.4668 227.016 48.4668C228.105 48.4668 228.921 48.7949 229.463 49.4512C230.005 50.1074 230.276 51.0895 230.276 52.3975V52.5615H224.999ZM229.005 51.6182C228.937 50.8389 228.738 50.2715 228.41 49.916C228.082 49.556 227.61 49.376 226.995 49.376C226.398 49.376 225.924 49.5765 225.573 49.9775C225.227 50.374 225.04 50.9209 225.013 51.6182H229.005ZM237.12 53.9561C237.12 54.6533 236.855 55.1911 236.327 55.5693C235.802 55.9476 235.066 56.1367 234.119 56.1367C233.198 56.1367 232.487 55.9863 231.986 55.6855C231.489 55.3802 231.165 54.9062 231.015 54.2637L232.102 54.0518C232.207 54.4482 232.423 54.7399 232.751 54.9268C233.079 55.109 233.535 55.2002 234.119 55.2002C234.743 55.2002 235.199 55.1045 235.486 54.9131C235.777 54.7217 235.923 54.4346 235.923 54.0518C235.923 53.7601 235.823 53.5231 235.622 53.3408C235.422 53.1585 235.098 53.0081 234.652 52.8896C234.123 52.7484 233.702 52.6322 233.387 52.541C233.077 52.4499 232.838 52.3724 232.669 52.3086C232.501 52.2402 232.366 52.1764 232.266 52.1172C231.965 51.944 231.731 51.7321 231.562 51.4814C231.393 51.2308 231.309 50.9232 231.309 50.5586C231.309 49.8841 231.548 49.3714 232.027 49.0205C232.51 48.665 233.212 48.4873 234.132 48.4873C234.948 48.4873 235.595 48.6309 236.074 48.918C236.557 49.2051 236.862 49.6654 236.99 50.2988L235.882 50.4355C235.814 50.1074 235.629 49.8568 235.329 49.6836C235.032 49.5059 234.634 49.417 234.132 49.417C233.576 49.417 233.166 49.5013 232.902 49.6699C232.637 49.8385 232.505 50.0938 232.505 50.4355C232.505 50.6862 232.58 50.8936 232.731 51.0576C232.881 51.2171 233.168 51.3493 233.592 51.4541C234.162 51.5908 234.704 51.7412 235.219 51.9053C235.734 52.0648 236.103 52.2243 236.327 52.3838C236.586 52.5706 236.782 52.7917 236.914 53.0469C237.051 53.2975 237.12 53.6006 237.12 53.9561ZM243.84 53.9561C243.84 54.6533 243.575 55.1911 243.047 55.5693C242.522 55.9476 241.786 56.1367 240.839 56.1367C239.918 56.1367 239.207 55.9863 238.706 55.6855C238.209 55.3802 237.885 54.9062 237.735 54.2637L238.822 54.0518C238.927 54.4482 239.143 54.7399 239.471 54.9268C239.799 55.109 240.255 55.2002 240.839 55.2002C241.463 55.2002 241.919 55.1045 242.206 54.9131C242.497 54.7217 242.643 54.4346 242.643 54.0518C242.643 53.7601 242.543 53.5231 242.342 53.3408C242.142 53.1585 241.818 53.0081 241.372 52.8896C240.843 52.7484 240.422 52.6322 240.107 52.541C239.797 52.4499 239.558 52.3724 239.389 52.3086C239.221 52.2402 239.086 52.1764 238.986 52.1172C238.685 51.944 238.451 51.7321 238.282 51.4814C238.113 51.2308 238.029 50.9232 238.029 50.5586C238.029 49.8841 238.268 49.3714 238.747 49.0205C239.23 48.665 239.932 48.4873 240.852 48.4873C241.668 48.4873 242.315 48.6309 242.794 48.918C243.277 49.2051 243.582 49.6654 243.71 50.2988L242.602 50.4355C242.534 50.1074 242.349 49.8568 242.049 49.6836C241.752 49.5059 241.354 49.417 240.852 49.417C240.296 49.417 239.886 49.5013 239.622 49.6699C239.357 49.8385 239.225 50.0938 239.225 50.4355C239.225 50.6862 239.3 50.8936 239.451 51.0576C239.601 51.2171 239.888 51.3493 240.312 51.4541C240.882 51.5908 241.424 51.7412 241.939 51.9053C242.454 52.0648 242.823 52.2243 243.047 52.3838C243.306 52.5706 243.502 52.7917 243.634 53.0469C243.771 53.2975 243.84 53.6006 243.84 53.9561ZM246.895 56.1367C246.153 56.1367 245.594 55.9408 245.221 55.5488C244.847 55.1569 244.66 54.6191 244.66 53.9355C244.66 53.1699 244.911 52.582 245.412 52.1719C245.918 51.7617 246.731 51.543 247.852 51.5156L249.514 51.4883V51.085C249.514 50.4834 249.386 50.0527 249.131 49.793C248.876 49.5332 248.475 49.4033 247.928 49.4033C247.376 49.4033 246.975 49.4967 246.725 49.6836C246.474 49.8704 246.324 50.1689 246.273 50.5791L244.988 50.4629C245.198 49.1322 246.187 48.4668 247.955 48.4668C248.885 48.4668 249.584 48.681 250.054 49.1094C250.523 49.5332 250.758 50.1484 250.758 50.9551V54.1406C250.758 54.5052 250.806 54.7809 250.901 54.9678C250.997 55.1501 251.179 55.2412 251.448 55.2412C251.576 55.2412 251.71 55.2253 251.852 55.1934V55.959C251.697 55.9954 251.539 56.0228 251.38 56.041C251.22 56.0592 251.061 56.0684 250.901 56.0684C250.446 56.0684 250.113 55.9499 249.903 55.7129C249.698 55.4714 249.582 55.0954 249.555 54.585H249.514C249.199 55.1501 248.832 55.5511 248.413 55.7881C247.998 56.0205 247.492 56.1367 246.895 56.1367ZM249.514 52.3496L248.167 52.377C247.593 52.3815 247.155 52.4408 246.854 52.5547C246.554 52.6641 246.324 52.8327 246.164 53.0605C246.005 53.2884 245.925 53.5869 245.925 53.9561C245.925 54.3571 246.032 54.667 246.246 54.8857C246.465 55.1045 246.775 55.2139 247.176 55.2139C247.631 55.2139 248.033 55.1113 248.379 54.9062C248.73 54.7012 249.005 54.4209 249.206 54.0654C249.411 53.7054 249.514 53.3363 249.514 52.958V52.3496ZM255.324 58.9053C254.518 58.9053 253.875 58.7458 253.397 58.4268C252.918 58.1123 252.611 57.6634 252.474 57.0801L253.711 56.9023C253.793 57.2441 253.973 57.5062 254.251 57.6885C254.534 57.8753 254.903 57.9688 255.359 57.9688C255.969 57.9688 256.427 57.7887 256.733 57.4287C257.043 57.0687 257.197 56.5309 257.197 55.8154V54.626H257.184C256.951 55.0999 256.632 55.4577 256.227 55.6992C255.821 55.9362 255.347 56.0547 254.805 56.0547C253.898 56.0547 253.23 55.7539 252.802 55.1523C252.378 54.5508 252.166 53.6051 252.166 52.3154C252.166 51.0075 252.394 50.0436 252.85 49.4238C253.31 48.7995 254.007 48.4873 254.942 48.4873C255.466 48.4873 255.919 48.6081 256.302 48.8496C256.689 49.0866 256.988 49.4261 257.197 49.8682H257.211C257.211 49.777 257.216 49.6357 257.225 49.4443C257.234 49.2484 257.245 49.0638 257.259 48.8906C257.273 48.7174 257.284 48.6217 257.293 48.6035H258.462C258.435 48.8496 258.421 49.36 258.421 50.1348V55.7881C258.421 56.8271 258.164 57.6064 257.649 58.126C257.134 58.6455 256.359 58.9053 255.324 58.9053ZM257.197 52.3018C257.197 51.404 257.013 50.6976 256.644 50.1826C256.279 49.6631 255.812 49.4033 255.242 49.4033C254.614 49.4033 254.156 49.6312 253.868 50.0869C253.581 50.5426 253.438 51.2809 253.438 52.3018C253.438 53.3135 253.572 54.0404 253.841 54.4824C254.11 54.9245 254.57 55.1455 255.222 55.1455C255.805 55.1455 256.279 54.8926 256.644 54.3867C257.013 53.8763 257.197 53.1813 257.197 52.3018ZM260.978 52.5615C260.978 53.4092 261.153 54.0632 261.504 54.5234C261.855 54.9837 262.368 55.2139 263.042 55.2139C263.576 55.2139 264.002 55.1068 264.321 54.8926C264.644 54.6784 264.863 54.4072 264.977 54.0791L266.057 54.3867C265.615 55.5534 264.61 56.1367 263.042 56.1367C261.949 56.1367 261.115 55.8109 260.541 55.1592C259.971 54.5075 259.686 53.5391 259.686 52.2539C259.686 51.0326 259.971 50.096 260.541 49.4443C261.115 48.7926 261.933 48.4668 262.995 48.4668C264.084 48.4668 264.9 48.7949 265.442 49.4512C265.984 50.1074 266.255 51.0895 266.255 52.3975V52.5615H260.978ZM264.984 51.6182C264.916 50.8389 264.717 50.2715 264.389 49.916C264.061 49.556 263.589 49.376 262.974 49.376C262.377 49.376 261.903 49.5765 261.552 49.9775C261.206 50.374 261.019 50.9209 260.992 51.6182H264.984ZM269.216 54.5029V56H267.883V54.5029H269.216ZM278.834 56.1367C278.046 56.1367 277.358 55.9909 276.77 55.6992C276.182 55.4076 275.726 54.9906 275.403 54.4482C275.079 53.9059 274.917 53.2565 274.917 52.5V46.3682H276.223V52.3906C276.223 53.2702 276.446 53.9378 276.893 54.3936C277.34 54.8493 277.984 55.0771 278.827 55.0771C279.693 55.0771 280.366 54.8424 280.844 54.373C281.327 53.8991 281.569 53.2087 281.569 52.3018V46.3682H282.868V52.377C282.868 53.1562 282.701 53.8262 282.369 54.3867C282.04 54.9473 281.573 55.3802 280.967 55.6855C280.366 55.9863 279.655 56.1367 278.834 56.1367ZM290.169 53.9561C290.169 54.6533 289.904 55.1911 289.376 55.5693C288.852 55.9476 288.116 56.1367 287.168 56.1367C286.247 56.1367 285.536 55.9863 285.035 55.6855C284.538 55.3802 284.214 54.9062 284.064 54.2637L285.151 54.0518C285.256 54.4482 285.472 54.7399 285.8 54.9268C286.129 55.109 286.584 55.2002 287.168 55.2002C287.792 55.2002 288.248 55.1045 288.535 54.9131C288.826 54.7217 288.972 54.4346 288.972 54.0518C288.972 53.7601 288.872 53.5231 288.672 53.3408C288.471 53.1585 288.147 53.0081 287.701 52.8896C287.172 52.7484 286.751 52.6322 286.436 52.541C286.126 52.4499 285.887 52.3724 285.718 52.3086C285.55 52.2402 285.415 52.1764 285.315 52.1172C285.014 51.944 284.78 51.7321 284.611 51.4814C284.442 51.2308 284.358 50.9232 284.358 50.5586C284.358 49.8841 284.597 49.3714 285.076 49.0205C285.559 48.665 286.261 48.4873 287.181 48.4873C287.997 48.4873 288.644 48.6309 289.123 48.918C289.606 49.2051 289.911 49.6654 290.039 50.2988L288.931 50.4355C288.863 50.1074 288.678 49.8568 288.378 49.6836C288.081 49.5059 287.683 49.417 287.181 49.417C286.625 49.417 286.215 49.5013 285.951 49.6699C285.686 49.8385 285.554 50.0938 285.554 50.4355C285.554 50.6862 285.63 50.8936 285.78 51.0576C285.93 51.2171 286.217 51.3493 286.641 51.4541C287.211 51.5908 287.753 51.7412 288.268 51.9053C288.783 52.0648 289.152 52.2243 289.376 52.3838C289.635 52.5706 289.831 52.7917 289.964 53.0469C290.1 53.2975 290.169 53.6006 290.169 53.9561ZM292.281 52.5615C292.281 53.4092 292.457 54.0632 292.808 54.5234C293.158 54.9837 293.671 55.2139 294.346 55.2139C294.879 55.2139 295.305 55.1068 295.624 54.8926C295.948 54.6784 296.166 54.4072 296.28 54.0791L297.36 54.3867C296.918 55.5534 295.913 56.1367 294.346 56.1367C293.252 56.1367 292.418 55.8109 291.844 55.1592C291.274 54.5075 290.989 53.5391 290.989 52.2539C290.989 51.0326 291.274 50.096 291.844 49.4443C292.418 48.7926 293.236 48.4668 294.298 48.4668C295.387 48.4668 296.203 48.7949 296.745 49.4512C297.287 50.1074 297.559 51.0895 297.559 52.3975V52.5615H292.281ZM296.287 51.6182C296.219 50.8389 296.02 50.2715 295.692 49.916C295.364 49.556 294.893 49.376 294.277 49.376C293.68 49.376 293.206 49.5765 292.855 49.9775C292.509 50.374 292.322 50.9209 292.295 51.6182H296.287ZM303.691 45.8555V47.0312H302.46V45.8555H303.691ZM303.691 48.6035V56H302.46V48.6035H303.691ZM308.148 55.9453C307.747 56.0547 307.332 56.1094 306.904 56.1094C306.412 56.1094 306.043 55.9704 305.797 55.6924C305.551 55.4098 305.428 54.9906 305.428 54.4346V49.499H304.573V48.6035H305.475L305.838 46.9492H306.658V48.6035H308.025V49.499H306.658V54.168C306.658 54.5234 306.715 54.7741 306.829 54.9199C306.947 55.0612 307.15 55.1318 307.437 55.1318C307.592 55.1318 307.829 55.0999 308.148 55.0361V55.9453ZM315.381 55.9453C314.98 56.0547 314.565 56.1094 314.137 56.1094C313.645 56.1094 313.276 55.9704 313.03 55.6924C312.784 55.4098 312.66 54.9906 312.66 54.4346V49.499H311.806V48.6035H312.708L313.071 46.9492H313.891V48.6035H315.258V49.499H313.891V54.168C313.891 54.5234 313.948 54.7741 314.062 54.9199C314.18 55.0612 314.383 55.1318 314.67 55.1318C314.825 55.1318 315.062 55.0999 315.381 55.0361V55.9453ZM322.409 52.2949C322.409 53.5892 322.124 54.5531 321.554 55.1865C320.985 55.82 320.157 56.1367 319.073 56.1367C317.993 56.1367 317.177 55.8086 316.626 55.1523C316.074 54.4915 315.798 53.5391 315.798 52.2949C315.798 51.0189 316.074 50.0618 316.626 49.4238C317.182 48.7858 318.011 48.4668 319.114 48.4668C320.244 48.4668 321.076 48.779 321.609 49.4033C322.142 50.0231 322.409 50.987 322.409 52.2949ZM321.117 52.2949C321.117 51.2741 320.964 50.5335 320.659 50.0732C320.358 49.6084 319.85 49.376 319.134 49.376C318.414 49.376 317.893 49.613 317.569 50.0869C317.25 50.5563 317.09 51.2923 317.09 52.2949C317.09 53.2702 317.248 54.0039 317.562 54.4961C317.881 54.9837 318.38 55.2275 319.059 55.2275C319.797 55.2275 320.324 54.9906 320.638 54.5166C320.957 54.0426 321.117 53.3021 321.117 52.2949ZM332.048 56C332.039 55.9499 332.027 55.8564 332.014 55.7197C332.005 55.5785 331.996 55.4235 331.986 55.2549C331.982 55.0863 331.98 54.9382 331.98 54.8105H331.952C331.724 55.2845 331.421 55.624 331.043 55.8291C330.669 56.0342 330.205 56.1367 329.649 56.1367C328.714 56.1367 328.026 55.8223 327.584 55.1934C327.147 54.5645 326.928 53.612 326.928 52.3359C326.928 51.0462 327.153 50.0801 327.605 49.4375C328.06 48.7904 328.742 48.4668 329.649 48.4668C330.209 48.4668 330.676 48.5693 331.05 48.7744C331.424 48.9795 331.724 49.3053 331.952 49.752H331.966L331.952 48.9248V45.8555H333.183V54.4756C333.183 54.863 333.185 55.1842 333.19 55.4395C333.199 55.6901 333.21 55.877 333.224 56H332.048ZM328.22 52.2949C328.22 53.3294 328.357 54.07 328.63 54.5166C328.903 54.9632 329.348 55.1865 329.963 55.1865C330.66 55.1865 331.166 54.945 331.481 54.4619C331.795 53.9788 331.952 53.2292 331.952 52.2129C331.952 51.2331 331.795 50.5153 331.481 50.0596C331.166 49.6038 330.665 49.376 329.977 49.376C329.357 49.376 328.908 49.6061 328.63 50.0664C328.357 50.5221 328.22 51.265 328.22 52.2949ZM336.02 45.8555V47.0312H334.789V45.8555H336.02ZM336.02 48.6035V56H334.789V48.6035H336.02ZM343.184 53.9561C343.184 54.6533 342.92 55.1911 342.391 55.5693C341.867 55.9476 341.131 56.1367 340.183 56.1367C339.263 56.1367 338.552 55.9863 338.051 55.6855C337.554 55.3802 337.23 54.9062 337.08 54.2637L338.167 54.0518C338.272 54.4482 338.488 54.7399 338.816 54.9268C339.144 55.109 339.6 55.2002 340.183 55.2002C340.808 55.2002 341.263 55.1045 341.551 54.9131C341.842 54.7217 341.988 54.4346 341.988 54.0518C341.988 53.7601 341.888 53.5231 341.687 53.3408C341.487 53.1585 341.163 53.0081 340.717 52.8896C340.188 52.7484 339.766 52.6322 339.452 52.541C339.142 52.4499 338.903 52.3724 338.734 52.3086C338.565 52.2402 338.431 52.1764 338.331 52.1172C338.03 51.944 337.795 51.7321 337.627 51.4814C337.458 51.2308 337.374 50.9232 337.374 50.5586C337.374 49.8841 337.613 49.3714 338.092 49.0205C338.575 48.665 339.276 48.4873 340.197 48.4873C341.013 48.4873 341.66 48.6309 342.138 48.918C342.621 49.2051 342.927 49.6654 343.054 50.2988L341.947 50.4355C341.879 50.1074 341.694 49.8568 341.393 49.6836C341.097 49.5059 340.698 49.417 340.197 49.417C339.641 49.417 339.231 49.5013 338.967 49.6699C338.702 49.8385 338.57 50.0938 338.57 50.4355C338.57 50.6862 338.645 50.8936 338.796 51.0576C338.946 51.2171 339.233 51.3493 339.657 51.4541C340.227 51.5908 340.769 51.7412 341.284 51.9053C341.799 52.0648 342.168 52.2243 342.391 52.3838C342.651 52.5706 342.847 52.7917 342.979 53.0469C343.116 53.2975 343.184 53.6006 343.184 53.9561ZM350.608 52.2676C350.608 53.5573 350.381 54.5257 349.925 55.1729C349.474 55.8154 348.795 56.1367 347.888 56.1367C346.748 56.1367 345.983 55.7083 345.591 54.8516H345.557C345.575 54.8835 345.584 55.2708 345.584 56.0137V58.9053H344.354V50.1143C344.354 49.736 344.349 49.4215 344.34 49.1709C344.335 48.9157 344.326 48.7266 344.312 48.6035H345.502C345.507 48.6217 345.513 48.7106 345.522 48.8701C345.536 49.0296 345.548 49.2028 345.557 49.3896C345.566 49.5719 345.57 49.7064 345.57 49.793H345.598C345.816 49.3372 346.106 49.0046 346.466 48.7949C346.826 48.5807 347.3 48.4736 347.888 48.4736C348.799 48.4736 349.48 48.779 349.932 49.3896C350.383 50.0003 350.608 50.9596 350.608 52.2676ZM349.316 52.2949C349.316 51.265 349.177 50.529 348.899 50.0869C348.621 49.6449 348.179 49.4238 347.573 49.4238C346.899 49.4238 346.397 49.6585 346.069 50.1279C345.746 50.5928 345.584 51.347 345.584 52.3906C345.584 53.3613 345.739 54.0768 346.049 54.5371C346.359 54.9974 346.862 55.2275 347.56 55.2275C348.17 55.2275 348.615 55.0042 348.893 54.5576C349.175 54.1064 349.316 53.3522 349.316 52.2949ZM353.097 45.8555V56H351.866V45.8555H353.097ZM356.59 56.1367C355.848 56.1367 355.289 55.9408 354.916 55.5488C354.542 55.1569 354.355 54.6191 354.355 53.9355C354.355 53.1699 354.606 52.582 355.107 52.1719C355.613 51.7617 356.426 51.543 357.547 51.5156L359.209 51.4883V51.085C359.209 50.4834 359.081 50.0527 358.826 49.793C358.571 49.5332 358.169 49.4033 357.623 49.4033C357.071 49.4033 356.67 49.4967 356.419 49.6836C356.169 49.8704 356.018 50.1689 355.968 50.5791L354.683 50.4629C354.893 49.1322 355.882 48.4668 357.65 48.4668C358.58 48.4668 359.279 48.681 359.749 49.1094C360.218 49.5332 360.453 50.1484 360.453 50.9551V54.1406C360.453 54.5052 360.501 54.7809 360.596 54.9678C360.692 55.1501 360.874 55.2412 361.143 55.2412C361.271 55.2412 361.405 55.2253 361.546 55.1934V55.959C361.391 55.9954 361.234 56.0228 361.075 56.041C360.915 56.0592 360.756 56.0684 360.596 56.0684C360.141 56.0684 359.808 55.9499 359.598 55.7129C359.393 55.4714 359.277 55.0954 359.25 54.585H359.209C358.894 55.1501 358.527 55.5511 358.108 55.7881C357.693 56.0205 357.187 56.1367 356.59 56.1367ZM359.209 52.3496L357.862 52.377C357.288 52.3815 356.85 52.4408 356.549 52.5547C356.249 52.6641 356.018 52.8327 355.859 53.0605C355.699 53.2884 355.62 53.5869 355.62 53.9561C355.62 54.3571 355.727 54.667 355.941 54.8857C356.16 55.1045 356.47 55.2139 356.871 55.2139C357.326 55.2139 357.727 55.1113 358.074 54.9062C358.425 54.7012 358.7 54.4209 358.901 54.0654C359.106 53.7054 359.209 53.3363 359.209 52.958V52.3496ZM362.579 58.9053C362.251 58.9053 361.968 58.8802 361.731 58.8301V57.9072C361.904 57.9346 362.096 57.9482 362.306 57.9482C362.688 57.9482 363.042 57.8047 363.365 57.5176C363.693 57.235 363.985 56.7178 364.24 55.9658L361.307 48.6035H362.62L364.179 52.6914C364.292 52.9831 364.413 53.3135 364.541 53.6826C364.673 54.0518 364.776 54.3776 364.848 54.6602C364.962 54.3366 365.076 54.0153 365.19 53.6963C365.309 53.3773 365.423 53.0583 365.532 52.7393L366.947 48.6035H368.246L365.402 56C365.247 56.3919 365.099 56.7337 364.958 57.0254C364.817 57.3216 364.68 57.5654 364.548 57.7568C364.283 58.1442 363.989 58.4313 363.666 58.6182C363.347 58.8096 362.985 58.9053 362.579 58.9053ZM373.777 45.8555V47.0312H372.546V45.8555H373.777ZM373.777 48.6035V56H372.546V48.6035H373.777ZM376.641 51.7139V56H375.418V50.1826C375.418 49.7497 375.413 49.4033 375.404 49.1436C375.399 48.8792 375.39 48.6992 375.377 48.6035H376.539C376.548 48.7038 376.557 48.8268 376.566 48.9727C376.575 49.1185 376.582 49.2712 376.587 49.4307C376.591 49.5856 376.593 49.7314 376.593 49.8682H376.614C376.878 49.3441 377.181 48.9795 377.523 48.7744C377.865 48.5693 378.282 48.4668 378.774 48.4668C379.335 48.4668 379.777 48.5785 380.1 48.8018C380.428 49.0251 380.656 49.3805 380.784 49.8682H380.804C381.06 49.3714 381.367 49.0137 381.727 48.7949C382.092 48.5762 382.532 48.4668 383.047 48.4668C383.794 48.4668 384.336 48.6696 384.674 49.0752C385.015 49.4808 385.186 50.1462 385.186 51.0713V56H383.969V51.3105C383.969 50.5951 383.871 50.1006 383.675 49.8271C383.48 49.5537 383.126 49.417 382.616 49.417C382.078 49.417 381.659 49.6175 381.358 50.0186C381.062 50.415 380.914 50.9801 380.914 51.7139V56H379.697V51.3105C379.697 50.5951 379.599 50.1006 379.403 49.8271C379.207 49.5537 378.854 49.417 378.343 49.417C377.819 49.417 377.405 49.6175 377.099 50.0186C376.794 50.4196 376.641 50.9847 376.641 51.7139ZM393.027 52.2676C393.027 53.5573 392.799 54.5257 392.344 55.1729C391.893 55.8154 391.214 56.1367 390.307 56.1367C389.167 56.1367 388.402 55.7083 388.01 54.8516H387.976C387.994 54.8835 388.003 55.2708 388.003 56.0137V58.9053H386.772V50.1143C386.772 49.736 386.768 49.4215 386.759 49.1709C386.754 48.9157 386.745 48.7266 386.731 48.6035H387.921C387.925 48.6217 387.932 48.7106 387.941 48.8701C387.955 49.0296 387.966 49.2028 387.976 49.3896C387.985 49.5719 387.989 49.7064 387.989 49.793H388.017C388.235 49.3372 388.525 49.0046 388.885 48.7949C389.245 48.5807 389.719 48.4736 390.307 48.4736C391.218 48.4736 391.899 48.779 392.351 49.3896C392.802 50.0003 393.027 50.9596 393.027 52.2676ZM391.735 52.2949C391.735 51.265 391.596 50.529 391.318 50.0869C391.04 49.6449 390.598 49.4238 389.992 49.4238C389.318 49.4238 388.816 49.6585 388.488 50.1279C388.165 50.5928 388.003 51.347 388.003 52.3906C388.003 53.3613 388.158 54.0768 388.468 54.5371C388.778 54.9974 389.281 55.2275 389.978 55.2275C390.589 55.2275 391.033 55.0042 391.311 54.5576C391.594 54.1064 391.735 53.3522 391.735 52.2949ZM400.54 52.2949C400.54 53.5892 400.255 54.5531 399.686 55.1865C399.116 55.82 398.289 56.1367 397.204 56.1367C396.124 56.1367 395.309 55.8086 394.757 55.1523C394.206 54.4915 393.93 53.5391 393.93 52.2949C393.93 51.0189 394.206 50.0618 394.757 49.4238C395.313 48.7858 396.142 48.4668 397.245 48.4668C398.376 48.4668 399.207 48.779 399.74 49.4033C400.274 50.0231 400.54 50.987 400.54 52.2949ZM399.248 52.2949C399.248 51.2741 399.096 50.5335 398.79 50.0732C398.49 49.6084 397.981 49.376 397.266 49.376C396.546 49.376 396.024 49.613 395.7 50.0869C395.381 50.5563 395.222 51.2923 395.222 52.2949C395.222 53.2702 395.379 54.0039 395.694 54.4961C396.013 54.9837 396.512 55.2275 397.191 55.2275C397.929 55.2275 398.455 54.9906 398.77 54.5166C399.089 54.0426 399.248 53.3021 399.248 52.2949ZM403.056 52.1445V56H401.826V50.3262C401.826 50.0664 401.821 49.793 401.812 49.5059C401.807 49.2188 401.798 48.918 401.785 48.6035H402.947C402.956 48.8132 402.963 49.0023 402.967 49.1709C402.976 49.3395 402.983 49.4876 402.988 49.6152C402.992 49.7383 402.995 49.8431 402.995 49.9297C402.999 50.0117 403.001 50.0732 403.001 50.1143H403.029C403.166 49.6676 403.316 49.3213 403.48 49.0752C403.64 48.8473 403.822 48.6901 404.027 48.6035C404.232 48.5124 404.485 48.4668 404.786 48.4668C404.954 48.4668 405.121 48.4896 405.285 48.5352V49.6631C405.13 49.6175 404.911 49.5947 404.628 49.5947C404.118 49.5947 403.728 49.8158 403.46 50.2578C403.191 50.6953 403.056 51.3242 403.056 52.1445ZM409.024 55.9453C408.623 56.0547 408.208 56.1094 407.78 56.1094C407.288 56.1094 406.919 55.9704 406.673 55.6924C406.427 55.4098 406.304 54.9906 406.304 54.4346V49.499H405.449V48.6035H406.351L406.714 46.9492H407.534V48.6035H408.901V49.499H407.534V54.168C407.534 54.5234 407.591 54.7741 407.705 54.9199C407.823 55.0612 408.026 55.1318 408.313 55.1318C408.468 55.1318 408.705 55.0999 409.024 55.0361V55.9453ZM411.684 56.1367C410.941 56.1367 410.383 55.9408 410.009 55.5488C409.635 55.1569 409.448 54.6191 409.448 53.9355C409.448 53.1699 409.699 52.582 410.2 52.1719C410.706 51.7617 411.52 51.543 412.641 51.5156L414.302 51.4883V51.085C414.302 50.4834 414.174 50.0527 413.919 49.793C413.664 49.5332 413.263 49.4033 412.716 49.4033C412.164 49.4033 411.763 49.4967 411.513 49.6836C411.262 49.8704 411.112 50.1689 411.062 50.5791L409.776 50.4629C409.986 49.1322 410.975 48.4668 412.743 48.4668C413.673 48.4668 414.372 48.681 414.842 49.1094C415.311 49.5332 415.546 50.1484 415.546 50.9551V54.1406C415.546 54.5052 415.594 54.7809 415.69 54.9678C415.785 55.1501 415.968 55.2412 416.236 55.2412C416.364 55.2412 416.498 55.2253 416.64 55.1934V55.959C416.485 55.9954 416.328 56.0228 416.168 56.041C416.009 56.0592 415.849 56.0684 415.69 56.0684C415.234 56.0684 414.901 55.9499 414.691 55.7129C414.486 55.4714 414.37 55.0954 414.343 54.585H414.302C413.987 55.1501 413.621 55.5511 413.201 55.7881C412.787 56.0205 412.281 56.1367 411.684 56.1367ZM414.302 52.3496L412.955 52.377C412.381 52.3815 411.943 52.4408 411.643 52.5547C411.342 52.6641 411.112 52.8327 410.952 53.0605C410.793 53.2884 410.713 53.5869 410.713 53.9561C410.713 54.3571 410.82 54.667 411.034 54.8857C411.253 55.1045 411.563 55.2139 411.964 55.2139C412.42 55.2139 412.821 55.1113 413.167 54.9062C413.518 54.7012 413.794 54.4209 413.994 54.0654C414.199 53.7054 414.302 53.3363 414.302 52.958V52.3496ZM418.568 51.7139V56H417.337V50.1826C417.337 49.7497 417.333 49.4033 417.324 49.1436C417.319 48.8792 417.31 48.6992 417.296 48.6035H418.458C418.467 48.6901 418.474 48.7995 418.479 48.9316C418.488 49.0638 418.495 49.2096 418.499 49.3691C418.504 49.5286 418.509 49.695 418.513 49.8682H418.534C418.816 49.3577 419.142 48.9977 419.511 48.7881C419.885 48.5739 420.347 48.4668 420.899 48.4668C421.71 48.4668 422.302 48.6742 422.676 49.0889C423.054 49.5036 423.244 50.1644 423.244 51.0713V56H422.006V51.3105C422.006 50.6042 421.892 50.112 421.664 49.834C421.437 49.556 421.042 49.417 420.482 49.417C419.889 49.417 419.422 49.6198 419.08 50.0254C418.739 50.431 418.568 50.9938 418.568 51.7139ZM427.667 55.9453C427.266 56.0547 426.851 56.1094 426.422 56.1094C425.93 56.1094 425.561 55.9704 425.315 55.6924C425.069 55.4098 424.946 54.9906 424.946 54.4346V49.499H424.091V48.6035H424.994L425.356 46.9492H426.176V48.6035H427.544V49.499H426.176V54.168C426.176 54.5234 426.233 54.7741 426.347 54.9199C426.466 55.0612 426.669 55.1318 426.956 55.1318C427.111 55.1318 427.348 55.0999 427.667 55.0361V55.9453ZM433.279 45.8555V47.0312H432.049V45.8555H433.279ZM433.279 48.6035V56H432.049V48.6035H433.279ZM436.151 51.7139V56H434.92V50.1826C434.92 49.7497 434.916 49.4033 434.907 49.1436C434.902 48.8792 434.893 48.6992 434.879 48.6035H436.041C436.051 48.6901 436.057 48.7995 436.062 48.9316C436.071 49.0638 436.078 49.2096 436.082 49.3691C436.087 49.5286 436.092 49.695 436.096 49.8682H436.117C436.399 49.3577 436.725 48.9977 437.094 48.7881C437.468 48.5739 437.93 48.4668 438.482 48.4668C439.293 48.4668 439.886 48.6742 440.259 49.0889C440.638 49.5036 440.827 50.1644 440.827 51.0713V56H439.589V51.3105C439.589 50.6042 439.475 50.112 439.248 49.834C439.02 49.556 438.625 49.417 438.065 49.417C437.472 49.417 437.005 49.6198 436.664 50.0254C436.322 50.431 436.151 50.9938 436.151 51.7139ZM443.93 49.499V56H442.7V49.499H441.661V48.6035H442.7V47.7695C442.7 47.0951 442.848 46.6097 443.144 46.3135C443.441 46.0173 443.894 45.8691 444.505 45.8691C444.846 45.8691 445.136 45.8965 445.373 45.9512V46.8877C445.154 46.8512 444.972 46.833 444.826 46.833C444.511 46.833 444.284 46.9128 444.142 47.0723C444.001 47.2318 443.93 47.5212 443.93 47.9404V48.6035H445.373V49.499H443.93ZM452.277 52.2949C452.277 53.5892 451.993 54.5531 451.423 55.1865C450.853 55.82 450.026 56.1367 448.941 56.1367C447.861 56.1367 447.046 55.8086 446.494 55.1523C445.943 54.4915 445.667 53.5391 445.667 52.2949C445.667 51.0189 445.943 50.0618 446.494 49.4238C447.05 48.7858 447.88 48.4668 448.982 48.4668C450.113 48.4668 450.944 48.779 451.478 49.4033C452.011 50.0231 452.277 50.987 452.277 52.2949ZM450.985 52.2949C450.985 51.2741 450.833 50.5335 450.527 50.0732C450.227 49.6084 449.718 49.376 449.003 49.376C448.283 49.376 447.761 49.613 447.438 50.0869C447.119 50.5563 446.959 51.2923 446.959 52.2949C446.959 53.2702 447.116 54.0039 447.431 54.4961C447.75 54.9837 448.249 55.2275 448.928 55.2275C449.666 55.2275 450.192 54.9906 450.507 54.5166C450.826 54.0426 450.985 53.3021 450.985 52.2949ZM454.793 52.1445V56H453.563V50.3262C453.563 50.0664 453.558 49.793 453.549 49.5059C453.545 49.2188 453.535 48.918 453.522 48.6035H454.684C454.693 48.8132 454.7 49.0023 454.704 49.1709C454.714 49.3395 454.72 49.4876 454.725 49.6152C454.729 49.7383 454.732 49.8431 454.732 49.9297C454.736 50.0117 454.739 50.0732 454.739 50.1143H454.766C454.903 49.6676 455.053 49.3213 455.217 49.0752C455.377 48.8473 455.559 48.6901 455.764 48.6035C455.969 48.5124 456.222 48.4668 456.523 48.4668C456.691 48.4668 456.858 48.4896 457.022 48.5352V49.6631C456.867 49.6175 456.648 49.5947 456.366 49.5947C455.855 49.5947 455.465 49.8158 455.197 50.2578C454.928 50.6953 454.793 51.3242 454.793 52.1445ZM459.169 51.7139V56H457.945V50.1826C457.945 49.7497 457.94 49.4033 457.931 49.1436C457.927 48.8792 457.918 48.6992 457.904 48.6035H459.066C459.075 48.7038 459.084 48.8268 459.093 48.9727C459.102 49.1185 459.109 49.2712 459.114 49.4307C459.118 49.5856 459.121 49.7314 459.121 49.8682H459.141C459.406 49.3441 459.709 48.9795 460.05 48.7744C460.392 48.5693 460.809 48.4668 461.301 48.4668C461.862 48.4668 462.304 48.5785 462.628 48.8018C462.956 49.0251 463.184 49.3805 463.311 49.8682H463.332C463.587 49.3714 463.894 49.0137 464.254 48.7949C464.619 48.5762 465.059 48.4668 465.574 48.4668C466.321 48.4668 466.864 48.6696 467.201 49.0752C467.543 49.4808 467.713 50.1462 467.713 51.0713V56H466.497V51.3105C466.497 50.5951 466.399 50.1006 466.203 49.8271C466.007 49.5537 465.654 49.417 465.143 49.417C464.605 49.417 464.186 49.6175 463.885 50.0186C463.589 50.415 463.441 50.9801 463.441 51.7139V56H462.224V51.3105C462.224 50.5951 462.126 50.1006 461.93 49.8271C461.734 49.5537 461.381 49.417 460.871 49.417C460.347 49.417 459.932 49.6175 459.627 50.0186C459.321 50.4196 459.169 50.9847 459.169 51.7139ZM471.186 56.1367C470.444 56.1367 469.885 55.9408 469.512 55.5488C469.138 55.1569 468.951 54.6191 468.951 53.9355C468.951 53.1699 469.202 52.582 469.703 52.1719C470.209 51.7617 471.022 51.543 472.143 51.5156L473.805 51.4883V51.085C473.805 50.4834 473.677 50.0527 473.422 49.793C473.167 49.5332 472.766 49.4033 472.219 49.4033C471.667 49.4033 471.266 49.4967 471.016 49.6836C470.765 49.8704 470.614 50.1689 470.564 50.5791L469.279 50.4629C469.489 49.1322 470.478 48.4668 472.246 48.4668C473.176 48.4668 473.875 48.681 474.345 49.1094C474.814 49.5332 475.049 50.1484 475.049 50.9551V54.1406C475.049 54.5052 475.097 54.7809 475.192 54.9678C475.288 55.1501 475.47 55.2412 475.739 55.2412C475.867 55.2412 476.001 55.2253 476.142 55.1934V55.959C475.988 55.9954 475.83 56.0228 475.671 56.041C475.511 56.0592 475.352 56.0684 475.192 56.0684C474.737 56.0684 474.404 55.9499 474.194 55.7129C473.989 55.4714 473.873 55.0954 473.846 54.585H473.805C473.49 55.1501 473.123 55.5511 472.704 55.7881C472.289 56.0205 471.783 56.1367 471.186 56.1367ZM473.805 52.3496L472.458 52.377C471.884 52.3815 471.446 52.4408 471.145 52.5547C470.845 52.6641 470.614 52.8327 470.455 53.0605C470.295 53.2884 470.216 53.5869 470.216 53.9561C470.216 54.3571 470.323 54.667 470.537 54.8857C470.756 55.1045 471.066 55.2139 471.467 55.2139C471.922 55.2139 472.323 55.1113 472.67 54.9062C473.021 54.7012 473.296 54.4209 473.497 54.0654C473.702 53.7054 473.805 53.3363 473.805 52.958V52.3496ZM479.656 55.9453C479.255 56.0547 478.841 56.1094 478.412 56.1094C477.92 56.1094 477.551 55.9704 477.305 55.6924C477.059 55.4098 476.936 54.9906 476.936 54.4346V49.499H476.081V48.6035H476.984L477.346 46.9492H478.166V48.6035H479.533V49.499H478.166V54.168C478.166 54.5234 478.223 54.7741 478.337 54.9199C478.456 55.0612 478.658 55.1318 478.945 55.1318C479.1 55.1318 479.337 55.0999 479.656 55.0361V55.9453ZM481.653 45.8555V47.0312H480.422V45.8555H481.653ZM481.653 48.6035V56H480.422V48.6035H481.653ZM489.521 52.2949C489.521 53.5892 489.236 54.5531 488.667 55.1865C488.097 55.82 487.27 56.1367 486.185 56.1367C485.105 56.1367 484.289 55.8086 483.738 55.1523C483.187 54.4915 482.911 53.5391 482.911 52.2949C482.911 51.0189 483.187 50.0618 483.738 49.4238C484.294 48.7858 485.123 48.4668 486.226 48.4668C487.356 48.4668 488.188 48.779 488.721 49.4033C489.255 50.0231 489.521 50.987 489.521 52.2949ZM488.229 52.2949C488.229 51.2741 488.077 50.5335 487.771 50.0732C487.47 49.6084 486.962 49.376 486.247 49.376C485.527 49.376 485.005 49.613 484.681 50.0869C484.362 50.5563 484.203 51.2923 484.203 52.2949C484.203 53.2702 484.36 54.0039 484.675 54.4961C484.994 54.9837 485.493 55.2275 486.172 55.2275C486.91 55.2275 487.436 54.9906 487.751 54.5166C488.07 54.0426 488.229 53.3021 488.229 52.2949ZM492.037 51.7139V56H490.807V50.1826C490.807 49.7497 490.802 49.4033 490.793 49.1436C490.788 48.8792 490.779 48.6992 490.766 48.6035H491.928C491.937 48.6901 491.944 48.7995 491.948 48.9316C491.957 49.0638 491.964 49.2096 491.969 49.3691C491.973 49.5286 491.978 49.695 491.982 49.8682H492.003C492.285 49.3577 492.611 48.9977 492.98 48.7881C493.354 48.5739 493.817 48.4668 494.368 48.4668C495.179 48.4668 495.772 48.6742 496.146 49.0889C496.524 49.5036 496.713 50.1644 496.713 51.0713V56H495.476V51.3105C495.476 50.6042 495.362 50.112 495.134 49.834C494.906 49.556 494.512 49.417 493.951 49.417C493.359 49.417 492.892 49.6198 492.55 50.0254C492.208 50.431 492.037 50.9938 492.037 51.7139ZM499.981 55.6514C499.981 56.1344 499.937 56.5378 499.851 56.8613C499.764 57.1849 499.63 57.4948 499.448 57.791H498.607C498.821 57.4811 498.98 57.1758 499.085 56.875C499.195 56.5788 499.249 56.2871 499.249 56H498.648V54.5029H499.981V55.6514ZM509.394 50.7705L508.055 56H506.633L504.561 48.6035H505.778L507.05 53.7236C507.086 53.8695 507.129 54.054 507.18 54.2773C507.23 54.5007 507.278 54.7354 507.323 54.9814C507.373 54.7673 507.423 54.5531 507.473 54.3389C507.528 54.1247 507.583 53.9128 507.638 53.7031L508.984 48.6035H510.304L511.596 53.6826C511.65 53.8968 511.703 54.1133 511.753 54.332C511.807 54.5508 511.86 54.7673 511.91 54.9814C511.96 54.7627 512.01 54.5348 512.06 54.2979C512.115 54.0563 512.165 53.8444 512.211 53.6621L513.523 48.6035H514.726L512.607 56H511.179L509.887 50.7705C509.841 50.5791 509.798 50.3877 509.757 50.1963C509.72 50.0003 509.681 49.8066 509.64 49.6152C509.622 49.7155 509.588 49.8864 509.538 50.1279C509.492 50.3649 509.445 50.5791 509.394 50.7705ZM517.249 56.1367C516.506 56.1367 515.948 55.9408 515.574 55.5488C515.201 55.1569 515.014 54.6191 515.014 53.9355C515.014 53.1699 515.264 52.582 515.766 52.1719C516.272 51.7617 517.085 51.543 518.206 51.5156L519.867 51.4883V51.085C519.867 50.4834 519.74 50.0527 519.484 49.793C519.229 49.5332 518.828 49.4033 518.281 49.4033C517.73 49.4033 517.329 49.4967 517.078 49.6836C516.828 49.8704 516.677 50.1689 516.627 50.5791L515.342 50.4629C515.552 49.1322 516.54 48.4668 518.309 48.4668C519.238 48.4668 519.938 48.681 520.407 49.1094C520.877 49.5332 521.111 50.1484 521.111 50.9551V54.1406C521.111 54.5052 521.159 54.7809 521.255 54.9678C521.351 55.1501 521.533 55.2412 521.802 55.2412C521.929 55.2412 522.064 55.2253 522.205 55.1934V55.959C522.05 55.9954 521.893 56.0228 521.734 56.041C521.574 56.0592 521.415 56.0684 521.255 56.0684C520.799 56.0684 520.467 55.9499 520.257 55.7129C520.052 55.4714 519.936 55.0954 519.908 54.585H519.867C519.553 55.1501 519.186 55.5511 518.767 55.7881C518.352 56.0205 517.846 56.1367 517.249 56.1367ZM519.867 52.3496L518.521 52.377C517.946 52.3815 517.509 52.4408 517.208 52.5547C516.907 52.6641 516.677 52.8327 516.518 53.0605C516.358 53.2884 516.278 53.5869 516.278 53.9561C516.278 54.3571 516.386 54.667 516.6 54.8857C516.818 55.1045 517.128 55.2139 517.529 55.2139C517.985 55.2139 518.386 55.1113 518.733 54.9062C519.083 54.7012 519.359 54.4209 519.56 54.0654C519.765 53.7054 519.867 53.3363 519.867 52.958V52.3496ZM524.133 52.1445V56H522.903V50.3262C522.903 50.0664 522.898 49.793 522.889 49.5059C522.885 49.2188 522.875 48.918 522.862 48.6035H524.024C524.033 48.8132 524.04 49.0023 524.044 49.1709C524.053 49.3395 524.06 49.4876 524.065 49.6152C524.069 49.7383 524.072 49.8431 524.072 49.9297C524.076 50.0117 524.079 50.0732 524.079 50.1143H524.106C524.243 49.6676 524.393 49.3213 524.557 49.0752C524.717 48.8473 524.899 48.6901 525.104 48.6035C525.309 48.5124 525.562 48.4668 525.863 48.4668C526.031 48.4668 526.198 48.4896 526.362 48.5352V49.6631C526.207 49.6175 525.988 49.5947 525.705 49.5947C525.195 49.5947 524.805 49.8158 524.537 50.2578C524.268 50.6953 524.133 51.3242 524.133 52.1445ZM528.515 51.7139V56H527.285V50.1826C527.285 49.7497 527.28 49.4033 527.271 49.1436C527.267 48.8792 527.258 48.6992 527.244 48.6035H528.406C528.415 48.6901 528.422 48.7995 528.426 48.9316C528.436 49.0638 528.442 49.2096 528.447 49.3691C528.452 49.5286 528.456 49.695 528.461 49.8682H528.481C528.764 49.3577 529.09 48.9977 529.459 48.7881C529.832 48.5739 530.295 48.4668 530.846 48.4668C531.658 48.4668 532.25 48.6742 532.624 49.0889C533.002 49.5036 533.191 50.1644 533.191 51.0713V56H531.954V51.3105C531.954 50.6042 531.84 50.112 531.612 49.834C531.384 49.556 530.99 49.417 530.429 49.417C529.837 49.417 529.37 49.6198 529.028 50.0254C528.686 50.431 528.515 50.9938 528.515 51.7139ZM535.994 45.8555V47.0312H534.764V45.8555H535.994ZM535.994 48.6035V56H534.764V48.6035H535.994ZM538.865 51.7139V56H537.635V50.1826C537.635 49.7497 537.63 49.4033 537.621 49.1436C537.617 48.8792 537.608 48.6992 537.594 48.6035H538.756C538.765 48.6901 538.772 48.7995 538.777 48.9316C538.786 49.0638 538.793 49.2096 538.797 49.3691C538.802 49.5286 538.806 49.695 538.811 49.8682H538.831C539.114 49.3577 539.44 48.9977 539.809 48.7881C540.183 48.5739 540.645 48.4668 541.197 48.4668C542.008 48.4668 542.6 48.6742 542.974 49.0889C543.352 49.5036 543.541 50.1644 543.541 51.0713V56H542.304V51.3105C542.304 50.6042 542.19 50.112 541.962 49.834C541.734 49.556 541.34 49.417 540.78 49.417C540.187 49.417 539.72 49.6198 539.378 50.0254C539.036 50.431 538.865 50.9938 538.865 51.7139ZM547.923 58.9053C547.117 58.9053 546.474 58.7458 545.996 58.4268C545.517 58.1123 545.21 57.6634 545.073 57.0801L546.31 56.9023C546.392 57.2441 546.572 57.5062 546.85 57.6885C547.133 57.8753 547.502 57.9688 547.958 57.9688C548.568 57.9688 549.026 57.7887 549.332 57.4287C549.641 57.0687 549.796 56.5309 549.796 55.8154V54.626H549.783C549.55 55.0999 549.231 55.4577 548.826 55.6992C548.42 55.9362 547.946 56.0547 547.404 56.0547C546.497 56.0547 545.829 55.7539 545.401 55.1523C544.977 54.5508 544.765 53.6051 544.765 52.3154C544.765 51.0075 544.993 50.0436 545.449 49.4238C545.909 48.7995 546.606 48.4873 547.541 48.4873C548.065 48.4873 548.518 48.6081 548.901 48.8496C549.288 49.0866 549.587 49.4261 549.796 49.8682H549.81C549.81 49.777 549.815 49.6357 549.824 49.4443C549.833 49.2484 549.844 49.0638 549.858 48.8906C549.872 48.7174 549.883 48.6217 549.892 48.6035H551.061C551.034 48.8496 551.02 49.36 551.02 50.1348V55.7881C551.02 56.8271 550.763 57.6064 550.248 58.126C549.733 58.6455 548.958 58.9053 547.923 58.9053ZM549.796 52.3018C549.796 51.404 549.612 50.6976 549.243 50.1826C548.878 49.6631 548.411 49.4033 547.841 49.4033C547.212 49.4033 546.754 49.6312 546.467 50.0869C546.18 50.5426 546.037 51.2809 546.037 52.3018C546.037 53.3135 546.171 54.0404 546.44 54.4824C546.709 54.9245 547.169 55.1455 547.821 55.1455C548.404 55.1455 548.878 54.8926 549.243 54.3867C549.612 53.8763 549.796 53.1813 549.796 52.3018ZM558.184 53.9561C558.184 54.6533 557.92 55.1911 557.391 55.5693C556.867 55.9476 556.131 56.1367 555.183 56.1367C554.263 56.1367 553.552 55.9863 553.051 55.6855C552.554 55.3802 552.23 54.9062 552.08 54.2637L553.167 54.0518C553.272 54.4482 553.488 54.7399 553.816 54.9268C554.144 55.109 554.6 55.2002 555.183 55.2002C555.808 55.2002 556.263 55.1045 556.551 54.9131C556.842 54.7217 556.988 54.4346 556.988 54.0518C556.988 53.7601 556.888 53.5231 556.687 53.3408C556.487 53.1585 556.163 53.0081 555.717 52.8896C555.188 52.7484 554.766 52.6322 554.452 52.541C554.142 52.4499 553.903 52.3724 553.734 52.3086C553.566 52.2402 553.431 52.1764 553.331 52.1172C553.03 51.944 552.795 51.7321 552.627 51.4814C552.458 51.2308 552.374 50.9232 552.374 50.5586C552.374 49.8841 552.613 49.3714 553.092 49.0205C553.575 48.665 554.277 48.4873 555.197 48.4873C556.013 48.4873 556.66 48.6309 557.138 48.918C557.622 49.2051 557.927 49.6654 558.055 50.2988L556.947 50.4355C556.879 50.1074 556.694 49.8568 556.393 49.6836C556.097 49.5059 555.698 49.417 555.197 49.417C554.641 49.417 554.231 49.5013 553.967 49.6699C553.702 49.8385 553.57 50.0938 553.57 50.4355C553.57 50.6862 553.645 50.8936 553.796 51.0576C553.946 51.2171 554.233 51.3493 554.657 51.4541C555.227 51.5908 555.769 51.7412 556.284 51.9053C556.799 52.0648 557.168 52.2243 557.391 52.3838C557.651 52.5706 557.847 52.7917 557.979 53.0469C558.116 53.2975 558.184 53.6006 558.184 53.9561ZM561.042 55.6514C561.042 56.1344 560.999 56.5378 560.912 56.8613C560.826 57.1849 560.691 57.4948 560.509 57.791H559.668C559.882 57.4811 560.042 57.1758 560.147 56.875C560.256 56.5788 560.311 56.2871 560.311 56H559.709V54.5029H561.042V55.6514ZM572.841 52.2949C572.841 53.5892 572.557 54.5531 571.987 55.1865C571.417 55.82 570.59 56.1367 569.505 56.1367C568.425 56.1367 567.61 55.8086 567.058 55.1523C566.507 54.4915 566.231 53.5391 566.231 52.2949C566.231 51.0189 566.507 50.0618 567.058 49.4238C567.614 48.7858 568.444 48.4668 569.547 48.4668C570.677 48.4668 571.508 48.779 572.042 49.4033C572.575 50.0231 572.841 50.987 572.841 52.2949ZM571.549 52.2949C571.549 51.2741 571.397 50.5335 571.091 50.0732C570.791 49.6084 570.283 49.376 569.567 49.376C568.847 49.376 568.325 49.613 568.002 50.0869C567.683 50.5563 567.523 51.2923 567.523 52.2949C567.523 53.2702 567.68 54.0039 567.995 54.4961C568.314 54.9837 568.813 55.2275 569.492 55.2275C570.23 55.2275 570.756 54.9906 571.071 54.5166C571.39 54.0426 571.549 53.3021 571.549 52.2949ZM575.357 52.1445V56H574.127V50.3262C574.127 50.0664 574.122 49.793 574.113 49.5059C574.109 49.2188 574.1 48.918 574.086 48.6035H575.248C575.257 48.8132 575.264 49.0023 575.268 49.1709C575.278 49.3395 575.284 49.4876 575.289 49.6152C575.294 49.7383 575.296 49.8431 575.296 49.9297C575.3 50.0117 575.303 50.0732 575.303 50.1143H575.33C575.467 49.6676 575.617 49.3213 575.781 49.0752C575.941 48.8473 576.123 48.6901 576.328 48.6035C576.533 48.5124 576.786 48.4668 577.087 48.4668C577.255 48.4668 577.422 48.4896 577.586 48.5352V49.6631C577.431 49.6175 577.212 49.5947 576.93 49.5947C576.419 49.5947 576.03 49.8158 575.761 50.2578C575.492 50.6953 575.357 51.3242 575.357 52.1445ZM587.649 53.9561C587.649 54.6533 587.385 55.1911 586.856 55.5693C586.332 55.9476 585.596 56.1367 584.648 56.1367C583.727 56.1367 583.016 55.9863 582.515 55.6855C582.018 55.3802 581.695 54.9062 581.544 54.2637L582.631 54.0518C582.736 54.4482 582.953 54.7399 583.281 54.9268C583.609 55.109 584.065 55.2002 584.648 55.2002C585.272 55.2002 585.728 55.1045 586.015 54.9131C586.307 54.7217 586.453 54.4346 586.453 54.0518C586.453 53.7601 586.352 53.5231 586.152 53.3408C585.951 53.1585 585.628 53.0081 585.181 52.8896C584.653 52.7484 584.231 52.6322 583.917 52.541C583.607 52.4499 583.367 52.3724 583.199 52.3086C583.03 52.2402 582.896 52.1764 582.795 52.1172C582.495 51.944 582.26 51.7321 582.091 51.4814C581.923 51.2308 581.838 50.9232 581.838 50.5586C581.838 49.8841 582.078 49.3714 582.556 49.0205C583.039 48.665 583.741 48.4873 584.662 48.4873C585.477 48.4873 586.125 48.6309 586.603 48.918C587.086 49.2051 587.391 49.6654 587.519 50.2988L586.412 50.4355C586.343 50.1074 586.159 49.8568 585.858 49.6836C585.562 49.5059 585.163 49.417 584.662 49.417C584.106 49.417 583.695 49.5013 583.431 49.6699C583.167 49.8385 583.035 50.0938 583.035 50.4355C583.035 50.6862 583.11 50.8936 583.26 51.0576C583.411 51.2171 583.698 51.3493 584.122 51.4541C584.691 51.5908 585.234 51.7412 585.749 51.9053C586.264 52.0648 586.633 52.2243 586.856 52.3838C587.116 52.5706 587.312 52.7917 587.444 53.0469C587.581 53.2975 587.649 53.6006 587.649 53.9561ZM593.494 54.7354C593.211 55.2458 592.883 55.6081 592.51 55.8223C592.14 56.0319 591.68 56.1367 591.129 56.1367C590.317 56.1367 589.723 55.9362 589.344 55.5352C588.971 55.1296 588.784 54.4619 588.784 53.5322V48.6035H590.021V53.293C590.021 54.0312 590.135 54.5326 590.363 54.7969C590.595 55.0566 590.99 55.1865 591.546 55.1865C592.138 55.1865 592.605 54.9837 592.947 54.5781C593.289 54.1725 593.46 53.6097 593.46 52.8896V48.6035H594.69V54.4209C594.69 54.8493 594.692 55.1956 594.697 55.46C594.706 55.7243 594.718 55.9043 594.731 56H593.569C593.565 55.9772 593.555 55.8701 593.542 55.6787C593.533 55.4873 593.524 55.1729 593.514 54.7354H593.494ZM599.168 56.1367C598.134 56.1367 597.343 55.8109 596.796 55.1592C596.254 54.5029 595.982 53.5482 595.982 52.2949C595.982 51.0508 596.256 50.1029 596.803 49.4512C597.35 48.7949 598.134 48.4668 599.154 48.4668C599.911 48.4668 600.537 48.6628 601.034 49.0547C601.536 49.4466 601.85 49.9867 601.978 50.6748L600.713 50.7705C600.649 50.3604 600.487 50.0345 600.228 49.793C599.968 49.5514 599.599 49.4307 599.12 49.4307C598.468 49.4307 597.997 49.6471 597.705 50.0801C597.413 50.513 597.268 51.2422 597.268 52.2676C597.268 53.252 597.423 53.9811 597.732 54.4551C598.042 54.929 598.51 55.166 599.134 55.166C599.571 55.166 599.936 55.0475 600.228 54.8105C600.524 54.5736 600.706 54.209 600.774 53.7168L602.019 53.7988C601.955 54.2728 601.795 54.6852 601.54 55.0361C601.289 55.387 600.961 55.6582 600.556 55.8496C600.155 56.041 599.692 56.1367 599.168 56.1367ZM605.888 56.1367C604.853 56.1367 604.063 55.8109 603.516 55.1592C602.974 54.5029 602.702 53.5482 602.702 52.2949C602.702 51.0508 602.976 50.1029 603.523 49.4512C604.07 48.7949 604.853 48.4668 605.874 48.4668C606.631 48.4668 607.257 48.6628 607.754 49.0547C608.256 49.4466 608.57 49.9867 608.698 50.6748L607.433 50.7705C607.369 50.3604 607.207 50.0345 606.948 49.793C606.688 49.5514 606.319 49.4307 605.84 49.4307C605.188 49.4307 604.717 49.6471 604.425 50.0801C604.133 50.513 603.988 51.2422 603.988 52.2676C603.988 53.252 604.143 53.9811 604.452 54.4551C604.762 54.929 605.229 55.166 605.854 55.166C606.291 55.166 606.656 55.0475 606.948 54.8105C607.244 54.5736 607.426 54.209 607.494 53.7168L608.739 53.7988C608.675 54.2728 608.515 54.6852 608.26 55.0361C608.009 55.387 607.681 55.6582 607.276 55.8496C606.875 56.041 606.412 56.1367 605.888 56.1367ZM610.714 52.5615C610.714 53.4092 610.89 54.0632 611.241 54.5234C611.592 54.9837 612.104 55.2139 612.779 55.2139C613.312 55.2139 613.738 55.1068 614.057 54.8926C614.381 54.6784 614.6 54.4072 614.714 54.0791L615.794 54.3867C615.352 55.5534 614.347 56.1367 612.779 56.1367C611.685 56.1367 610.851 55.8109 610.277 55.1592C609.707 54.5075 609.422 53.5391 609.422 52.2539C609.422 51.0326 609.707 50.096 610.277 49.4443C610.851 48.7926 611.669 48.4668 612.731 48.4668C613.82 48.4668 614.636 48.7949 615.178 49.4512C615.721 50.1074 615.992 51.0895 615.992 52.3975V52.5615H610.714ZM614.72 51.6182C614.652 50.8389 614.454 50.2715 614.126 49.916C613.797 49.556 613.326 49.376 612.711 49.376C612.114 49.376 611.64 49.5765 611.289 49.9775C610.942 50.374 610.755 50.9209 610.728 51.6182H614.72ZM622.835 53.9561C622.835 54.6533 622.571 55.1911 622.042 55.5693C621.518 55.9476 620.782 56.1367 619.834 56.1367C618.913 56.1367 618.202 55.9863 617.701 55.6855C617.204 55.3802 616.881 54.9062 616.73 54.2637L617.817 54.0518C617.922 54.4482 618.139 54.7399 618.467 54.9268C618.795 55.109 619.251 55.2002 619.834 55.2002C620.458 55.2002 620.914 55.1045 621.201 54.9131C621.493 54.7217 621.639 54.4346 621.639 54.0518C621.639 53.7601 621.538 53.5231 621.338 53.3408C621.137 53.1585 620.814 53.0081 620.367 52.8896C619.838 52.7484 619.417 52.6322 619.102 52.541C618.793 52.4499 618.553 52.3724 618.385 52.3086C618.216 52.2402 618.082 52.1764 617.981 52.1172C617.681 51.944 617.446 51.7321 617.277 51.4814C617.109 51.2308 617.024 50.9232 617.024 50.5586C617.024 49.8841 617.264 49.3714 617.742 49.0205C618.225 48.665 618.927 48.4873 619.848 48.4873C620.663 48.4873 621.31 48.6309 621.789 48.918C622.272 49.2051 622.577 49.6654 622.705 50.2988L621.598 50.4355C621.529 50.1074 621.345 49.8568 621.044 49.6836C620.748 49.5059 620.349 49.417 619.848 49.417C619.292 49.417 618.881 49.5013 618.617 49.6699C618.353 49.8385 618.221 50.0938 618.221 50.4355C618.221 50.6862 618.296 50.8936 618.446 51.0576C618.597 51.2171 618.884 51.3493 619.307 51.4541C619.877 51.5908 620.419 51.7412 620.934 51.9053C621.449 52.0648 621.819 52.2243 622.042 52.3838C622.302 52.5706 622.498 52.7917 622.63 53.0469C622.766 53.2975 622.835 53.6006 622.835 53.9561ZM629.555 53.9561C629.555 54.6533 629.291 55.1911 628.762 55.5693C628.238 55.9476 627.502 56.1367 626.554 56.1367C625.633 56.1367 624.922 55.9863 624.421 55.6855C623.924 55.3802 623.601 54.9062 623.45 54.2637L624.537 54.0518C624.642 54.4482 624.859 54.7399 625.187 54.9268C625.515 55.109 625.971 55.2002 626.554 55.2002C627.178 55.2002 627.634 55.1045 627.921 54.9131C628.213 54.7217 628.359 54.4346 628.359 54.0518C628.359 53.7601 628.258 53.5231 628.058 53.3408C627.857 53.1585 627.534 53.0081 627.087 52.8896C626.558 52.7484 626.137 52.6322 625.822 52.541C625.513 52.4499 625.273 52.3724 625.105 52.3086C624.936 52.2402 624.802 52.1764 624.701 52.1172C624.401 51.944 624.166 51.7321 623.997 51.4814C623.829 51.2308 623.744 50.9232 623.744 50.5586C623.744 49.8841 623.984 49.3714 624.462 49.0205C624.945 48.665 625.647 48.4873 626.568 48.4873C627.383 48.4873 628.03 48.6309 628.509 48.918C628.992 49.2051 629.297 49.6654 629.425 50.2988L628.318 50.4355C628.249 50.1074 628.065 49.8568 627.764 49.6836C627.468 49.5059 627.069 49.417 626.568 49.417C626.012 49.417 625.601 49.5013 625.337 49.6699C625.073 49.8385 624.941 50.0938 624.941 50.4355C624.941 50.6862 625.016 50.8936 625.166 51.0576C625.317 51.2171 625.604 51.3493 626.028 51.4541C626.597 51.5908 627.14 51.7412 627.654 51.9053C628.169 52.0648 628.539 52.2243 628.762 52.3838C629.022 52.5706 629.218 52.7917 629.35 53.0469C629.487 53.2975 629.555 53.6006 629.555 53.9561ZM635.598 51.7139V56H634.368V50.1826C634.368 49.7497 634.363 49.4033 634.354 49.1436C634.35 48.8792 634.341 48.6992 634.327 48.6035H635.489C635.498 48.6901 635.505 48.7995 635.51 48.9316C635.519 49.0638 635.525 49.2096 635.53 49.3691C635.535 49.5286 635.539 49.695 635.544 49.8682H635.564C635.847 49.3577 636.173 48.9977 636.542 48.7881C636.915 48.5739 637.378 48.4668 637.929 48.4668C638.741 48.4668 639.333 48.6742 639.707 49.0889C640.085 49.5036 640.274 50.1644 640.274 51.0713V56H639.037V51.3105C639.037 50.6042 638.923 50.112 638.695 49.834C638.467 49.556 638.073 49.417 637.512 49.417C636.92 49.417 636.453 49.6198 636.111 50.0254C635.769 50.431 635.598 50.9938 635.598 51.7139ZM648.108 52.2949C648.108 53.5892 647.824 54.5531 647.254 55.1865C646.684 55.82 645.857 56.1367 644.772 56.1367C643.692 56.1367 642.877 55.8086 642.325 55.1523C641.774 54.4915 641.498 53.5391 641.498 52.2949C641.498 51.0189 641.774 50.0618 642.325 49.4238C642.881 48.7858 643.711 48.4668 644.813 48.4668C645.944 48.4668 646.775 48.779 647.309 49.4033C647.842 50.0231 648.108 50.987 648.108 52.2949ZM646.816 52.2949C646.816 51.2741 646.664 50.5335 646.358 50.0732C646.058 49.6084 645.549 49.376 644.834 49.376C644.114 49.376 643.592 49.613 643.269 50.0869C642.95 50.5563 642.79 51.2923 642.79 52.2949C642.79 53.2702 642.947 54.0039 643.262 54.4961C643.581 54.9837 644.08 55.2275 644.759 55.2275C645.497 55.2275 646.023 54.9906 646.338 54.5166C646.657 54.0426 646.816 53.3021 646.816 52.2949ZM652.21 55.9453C651.809 56.0547 651.394 56.1094 650.966 56.1094C650.474 56.1094 650.105 55.9704 649.859 55.6924C649.613 55.4098 649.49 54.9906 649.49 54.4346V49.499H648.635V48.6035H649.537L649.9 46.9492H650.72V48.6035H652.087V49.499H650.72V54.168C650.72 54.5234 650.777 54.7741 650.891 54.9199C651.009 55.0612 651.212 55.1318 651.499 55.1318C651.654 55.1318 651.891 55.0999 652.21 55.0361V55.9453ZM654.207 45.8555V47.0312H652.976V45.8555H654.207ZM654.207 48.6035V56H652.976V48.6035H654.207ZM657.345 49.499V56H656.114V49.499H655.075V48.6035H656.114V47.7695C656.114 47.0951 656.262 46.6097 656.558 46.3135C656.855 46.0173 657.308 45.8691 657.919 45.8691C658.261 45.8691 658.55 45.8965 658.787 45.9512V46.8877C658.568 46.8512 658.386 46.833 658.24 46.833C657.926 46.833 657.698 46.9128 657.556 47.0723C657.415 47.2318 657.345 47.5212 657.345 47.9404V48.6035H658.787V49.499H657.345ZM660.66 45.8555V47.0312H659.43V45.8555H660.66ZM660.66 48.6035V56H659.43V48.6035H660.66ZM665.111 56.1367C664.076 56.1367 663.286 55.8109 662.739 55.1592C662.196 54.5029 661.925 53.5482 661.925 52.2949C661.925 51.0508 662.199 50.1029 662.745 49.4512C663.292 48.7949 664.076 48.4668 665.097 48.4668C665.854 48.4668 666.48 48.6628 666.977 49.0547C667.478 49.4466 667.793 49.9867 667.92 50.6748L666.656 50.7705C666.592 50.3604 666.43 50.0345 666.17 49.793C665.911 49.5514 665.541 49.4307 665.063 49.4307C664.411 49.4307 663.939 49.6471 663.648 50.0801C663.356 50.513 663.21 51.2422 663.21 52.2676C663.21 53.252 663.365 53.9811 663.675 54.4551C663.985 54.929 664.452 55.166 665.077 55.166C665.514 55.166 665.879 55.0475 666.17 54.8105C666.467 54.5736 666.649 54.209 666.717 53.7168L667.961 53.7988C667.898 54.2728 667.738 54.6852 667.483 55.0361C667.232 55.387 666.904 55.6582 666.498 55.8496C666.097 56.041 665.635 56.1367 665.111 56.1367ZM670.881 56.1367C670.138 56.1367 669.579 55.9408 669.206 55.5488C668.832 55.1569 668.645 54.6191 668.645 53.9355C668.645 53.1699 668.896 52.582 669.397 52.1719C669.903 51.7617 670.716 51.543 671.838 51.5156L673.499 51.4883V51.085C673.499 50.4834 673.371 50.0527 673.116 49.793C672.861 49.5332 672.46 49.4033 671.913 49.4033C671.361 49.4033 670.96 49.4967 670.71 49.6836C670.459 49.8704 670.309 50.1689 670.258 50.5791L668.973 50.4629C669.183 49.1322 670.172 48.4668 671.94 48.4668C672.87 48.4668 673.569 48.681 674.039 49.1094C674.508 49.5332 674.743 50.1484 674.743 50.9551V54.1406C674.743 54.5052 674.791 54.7809 674.886 54.9678C674.982 55.1501 675.164 55.2412 675.433 55.2412C675.561 55.2412 675.695 55.2253 675.837 55.1934V55.959C675.682 55.9954 675.524 56.0228 675.365 56.041C675.205 56.0592 675.046 56.0684 674.886 56.0684C674.431 56.0684 674.098 55.9499 673.888 55.7129C673.683 55.4714 673.567 55.0954 673.54 54.585H673.499C673.184 55.1501 672.817 55.5511 672.398 55.7881C671.983 56.0205 671.478 56.1367 670.881 56.1367ZM673.499 52.3496L672.152 52.377C671.578 52.3815 671.14 52.4408 670.84 52.5547C670.539 52.6641 670.309 52.8327 670.149 53.0605C669.99 53.2884 669.91 53.5869 669.91 53.9561C669.91 54.3571 670.017 54.667 670.231 54.8857C670.45 55.1045 670.76 55.2139 671.161 55.2139C671.617 55.2139 672.018 55.1113 672.364 54.9062C672.715 54.7012 672.991 54.4209 673.191 54.0654C673.396 53.7054 673.499 53.3363 673.499 52.958V52.3496ZM679.351 55.9453C678.949 56.0547 678.535 56.1094 678.106 56.1094C677.614 56.1094 677.245 55.9704 676.999 55.6924C676.753 55.4098 676.63 54.9906 676.63 54.4346V49.499H675.775V48.6035H676.678L677.04 46.9492H677.86V48.6035H679.227V49.499H677.86V54.168C677.86 54.5234 677.917 54.7741 678.031 54.9199C678.15 55.0612 678.352 55.1318 678.64 55.1318C678.795 55.1318 679.032 55.0999 679.351 55.0361V55.9453ZM681.347 45.8555V47.0312H680.116V45.8555H681.347ZM681.347 48.6035V56H680.116V48.6035H681.347ZM689.215 52.2949C689.215 53.5892 688.931 54.5531 688.361 55.1865C687.791 55.82 686.964 56.1367 685.879 56.1367C684.799 56.1367 683.984 55.8086 683.432 55.1523C682.881 54.4915 682.605 53.5391 682.605 52.2949C682.605 51.0189 682.881 50.0618 683.432 49.4238C683.988 48.7858 684.818 48.4668 685.92 48.4668C687.051 48.4668 687.882 48.779 688.416 49.4033C688.949 50.0231 689.215 50.987 689.215 52.2949ZM687.923 52.2949C687.923 51.2741 687.771 50.5335 687.465 50.0732C687.165 49.6084 686.656 49.376 685.941 49.376C685.221 49.376 684.699 49.613 684.375 50.0869C684.056 50.5563 683.897 51.2923 683.897 52.2949C683.897 53.2702 684.054 54.0039 684.369 54.4961C684.688 54.9837 685.187 55.2275 685.866 55.2275C686.604 55.2275 687.13 54.9906 687.445 54.5166C687.764 54.0426 687.923 53.3021 687.923 52.2949ZM691.731 51.7139V56H690.501V50.1826C690.501 49.7497 690.496 49.4033 690.487 49.1436C690.483 48.8792 690.473 48.6992 690.46 48.6035H691.622C691.631 48.6901 691.638 48.7995 691.642 48.9316C691.652 49.0638 691.658 49.2096 691.663 49.3691C691.667 49.5286 691.672 49.695 691.677 49.8682H691.697C691.98 49.3577 692.305 48.9977 692.675 48.7881C693.048 48.5739 693.511 48.4668 694.062 48.4668C694.874 48.4668 695.466 48.6742 695.84 49.0889C696.218 49.5036 696.407 50.1644 696.407 51.0713V56H695.17V51.3105C695.17 50.6042 695.056 50.112 694.828 49.834C694.6 49.556 694.206 49.417 693.645 49.417C693.053 49.417 692.586 49.6198 692.244 50.0254C691.902 50.431 691.731 50.9938 691.731 51.7139ZM703.537 53.9561C703.537 54.6533 703.273 55.1911 702.744 55.5693C702.22 55.9476 701.484 56.1367 700.536 56.1367C699.616 56.1367 698.905 55.9863 698.403 55.6855C697.907 55.3802 697.583 54.9062 697.433 54.2637L698.52 54.0518C698.624 54.4482 698.841 54.7399 699.169 54.9268C699.497 55.109 699.953 55.2002 700.536 55.2002C701.161 55.2002 701.616 55.1045 701.903 54.9131C702.195 54.7217 702.341 54.4346 702.341 54.0518C702.341 53.7601 702.241 53.5231 702.04 53.3408C701.84 53.1585 701.516 53.0081 701.069 52.8896C700.541 52.7484 700.119 52.6322 699.805 52.541C699.495 52.4499 699.256 52.3724 699.087 52.3086C698.918 52.2402 698.784 52.1764 698.684 52.1172C698.383 51.944 698.148 51.7321 697.98 51.4814C697.811 51.2308 697.727 50.9232 697.727 50.5586C697.727 49.8841 697.966 49.3714 698.444 49.0205C698.927 48.665 699.629 48.4873 700.55 48.4873C701.366 48.4873 702.013 48.6309 702.491 48.918C702.974 49.2051 703.28 49.6654 703.407 50.2988L702.3 50.4355C702.232 50.1074 702.047 49.8568 701.746 49.6836C701.45 49.5059 701.051 49.417 700.55 49.417C699.994 49.417 699.584 49.5013 699.319 49.6699C699.055 49.8385 698.923 50.0938 698.923 50.4355C698.923 50.6862 698.998 50.8936 699.148 51.0576C699.299 51.2171 699.586 51.3493 700.01 51.4541C700.579 51.5908 701.122 51.7412 701.637 51.9053C702.152 52.0648 702.521 52.2243 702.744 52.3838C703.004 52.5706 703.2 52.7917 703.332 53.0469C703.469 53.2975 703.537 53.6006 703.537 53.9561ZM711.167 55.9453C710.766 56.0547 710.351 56.1094 709.922 56.1094C709.43 56.1094 709.061 55.9704 708.815 55.6924C708.569 55.4098 708.446 54.9906 708.446 54.4346V49.499H707.591V48.6035H708.494L708.856 46.9492H709.676V48.6035H711.044V49.499H709.676V54.168C709.676 54.5234 709.733 54.7741 709.847 54.9199C709.966 55.0612 710.169 55.1318 710.456 55.1318C710.611 55.1318 710.848 55.0999 711.167 55.0361V55.9453ZM718.194 52.2949C718.194 53.5892 717.909 54.5531 717.34 55.1865C716.77 55.82 715.943 56.1367 714.858 56.1367C713.778 56.1367 712.963 55.8086 712.411 55.1523C711.86 54.4915 711.584 53.5391 711.584 52.2949C711.584 51.0189 711.86 50.0618 712.411 49.4238C712.967 48.7858 713.796 48.4668 714.899 48.4668C716.03 48.4668 716.861 48.779 717.394 49.4033C717.928 50.0231 718.194 50.987 718.194 52.2949ZM716.902 52.2949C716.902 51.2741 716.75 50.5335 716.444 50.0732C716.143 49.6084 715.635 49.376 714.92 49.376C714.2 49.376 713.678 49.613 713.354 50.0869C713.035 50.5563 712.876 51.2923 712.876 52.2949C712.876 53.2702 713.033 54.0039 713.348 54.4961C713.667 54.9837 714.166 55.2275 714.845 55.2275C715.583 55.2275 716.109 54.9906 716.424 54.5166C716.743 54.0426 716.902 53.3021 716.902 52.2949ZM725.913 55.9453C725.512 56.0547 725.097 56.1094 724.668 56.1094C724.176 56.1094 723.807 55.9704 723.561 55.6924C723.315 55.4098 723.192 54.9906 723.192 54.4346V49.499H722.337V48.6035H723.24L723.602 46.9492H724.422V48.6035H725.79V49.499H724.422V54.168C724.422 54.5234 724.479 54.7741 724.593 54.9199C724.712 55.0612 724.915 55.1318 725.202 55.1318C725.357 55.1318 725.594 55.0999 725.913 55.0361V55.9453ZM727.909 49.8682C728.173 49.3851 728.49 49.0319 728.859 48.8086C729.233 48.5807 729.705 48.4668 730.274 48.4668C731.076 48.4668 731.666 48.6764 732.045 49.0957C732.427 49.5104 732.619 50.1689 732.619 51.0713V56H731.382V51.3105C731.382 50.6406 731.263 50.1576 731.026 49.8613C730.794 49.5651 730.404 49.417 729.857 49.417C729.278 49.417 728.814 49.6175 728.463 50.0186C728.116 50.4196 727.943 50.9596 727.943 51.6387V56H726.713V45.8555H727.943V48.4941C727.943 48.6764 727.939 48.8701 727.929 49.0752C727.92 49.2757 727.911 49.4512 727.902 49.6016C727.898 49.7474 727.893 49.8363 727.888 49.8682H727.909ZM735.142 52.5615C735.142 53.4092 735.317 54.0632 735.668 54.5234C736.019 54.9837 736.532 55.2139 737.206 55.2139C737.739 55.2139 738.165 55.1068 738.484 54.8926C738.808 54.6784 739.027 54.4072 739.141 54.0791L740.221 54.3867C739.779 55.5534 738.774 56.1367 737.206 56.1367C736.112 56.1367 735.278 55.8109 734.704 55.1592C734.135 54.5075 733.85 53.5391 733.85 52.2539C733.85 51.0326 734.135 50.096 734.704 49.4443C735.278 48.7926 736.096 48.4668 737.158 48.4668C738.247 48.4668 739.063 48.7949 739.606 49.4512C740.148 50.1074 740.419 51.0895 740.419 52.3975V52.5615H735.142ZM739.148 51.6182C739.079 50.8389 738.881 50.2715 738.553 49.916C738.225 49.556 737.753 49.376 737.138 49.376C736.541 49.376 736.067 49.5765 735.716 49.9775C735.37 50.374 735.183 50.9209 735.155 51.6182H739.148ZM750.004 54.7354C749.721 55.2458 749.393 55.6081 749.019 55.8223C748.65 56.0319 748.19 56.1367 747.638 56.1367C746.827 56.1367 746.232 55.9362 745.854 55.5352C745.48 55.1296 745.294 54.4619 745.294 53.5322V48.6035H746.531V53.293C746.531 54.0312 746.645 54.5326 746.873 54.7969C747.105 55.0566 747.499 55.1865 748.055 55.1865C748.648 55.1865 749.115 54.9837 749.457 54.5781C749.798 54.1725 749.969 53.6097 749.969 52.8896V48.6035H751.2V54.4209C751.2 54.8493 751.202 55.1956 751.207 55.46C751.216 55.7243 751.227 55.9043 751.241 56H750.079C750.074 55.9772 750.065 55.8701 750.051 55.6787C750.042 55.4873 750.033 55.1729 750.024 54.7354H750.004ZM758.391 53.9561C758.391 54.6533 758.127 55.1911 757.599 55.5693C757.074 55.9476 756.338 56.1367 755.391 56.1367C754.47 56.1367 753.759 55.9863 753.258 55.6855C752.761 55.3802 752.437 54.9062 752.287 54.2637L753.374 54.0518C753.479 54.4482 753.695 54.7399 754.023 54.9268C754.351 55.109 754.807 55.2002 755.391 55.2002C756.015 55.2002 756.471 55.1045 756.758 54.9131C757.049 54.7217 757.195 54.4346 757.195 54.0518C757.195 53.7601 757.095 53.5231 756.894 53.3408C756.694 53.1585 756.37 53.0081 755.924 52.8896C755.395 52.7484 754.974 52.6322 754.659 52.541C754.349 52.4499 754.11 52.3724 753.941 52.3086C753.773 52.2402 753.638 52.1764 753.538 52.1172C753.237 51.944 753.002 51.7321 752.834 51.4814C752.665 51.2308 752.581 50.9232 752.581 50.5586C752.581 49.8841 752.82 49.3714 753.299 49.0205C753.782 48.665 754.484 48.4873 755.404 48.4873C756.22 48.4873 756.867 48.6309 757.346 48.918C757.829 49.2051 758.134 49.6654 758.262 50.2988L757.154 50.4355C757.086 50.1074 756.901 49.8568 756.6 49.6836C756.304 49.5059 755.905 49.417 755.404 49.417C754.848 49.417 754.438 49.5013 754.174 49.6699C753.909 49.8385 753.777 50.0938 753.777 50.4355C753.777 50.6862 753.852 50.8936 754.003 51.0576C754.153 51.2171 754.44 51.3493 754.864 51.4541C755.434 51.5908 755.976 51.7412 756.491 51.9053C757.006 52.0648 757.375 52.2243 757.599 52.3838C757.858 52.5706 758.054 52.7917 758.186 53.0469C758.323 53.2975 758.391 53.6006 758.391 53.9561ZM760.504 52.5615C760.504 53.4092 760.68 54.0632 761.03 54.5234C761.381 54.9837 761.894 55.2139 762.569 55.2139C763.102 55.2139 763.528 55.1068 763.847 54.8926C764.17 54.6784 764.389 54.4072 764.503 54.0791L765.583 54.3867C765.141 55.5534 764.136 56.1367 762.569 56.1367C761.475 56.1367 760.641 55.8109 760.067 55.1592C759.497 54.5075 759.212 53.5391 759.212 52.2539C759.212 51.0326 759.497 50.096 760.067 49.4443C760.641 48.7926 761.459 48.4668 762.521 48.4668C763.61 48.4668 764.426 48.7949 764.968 49.4512C765.51 50.1074 765.781 51.0895 765.781 52.3975V52.5615H760.504ZM764.51 51.6182C764.442 50.8389 764.243 50.2715 763.915 49.916C763.587 49.556 763.115 49.376 762.5 49.376C761.903 49.376 761.429 49.5765 761.078 49.9775C760.732 50.374 760.545 50.9209 760.518 51.6182H764.51ZM768.331 52.1445V56H767.101V50.3262C767.101 50.0664 767.096 49.793 767.087 49.5059C767.083 49.2188 767.074 48.918 767.06 48.6035H768.222C768.231 48.8132 768.238 49.0023 768.243 49.1709C768.252 49.3395 768.259 49.4876 768.263 49.6152C768.268 49.7383 768.27 49.8431 768.27 49.9297C768.275 50.0117 768.277 50.0732 768.277 50.1143H768.304C768.441 49.6676 768.591 49.3213 768.755 49.0752C768.915 48.8473 769.097 48.6901 769.302 48.6035C769.507 48.5124 769.76 48.4668 770.061 48.4668C770.23 48.4668 770.396 48.4896 770.56 48.5352V49.6631C770.405 49.6175 770.186 49.5947 769.904 49.5947C769.393 49.5947 769.004 49.8158 768.735 50.2578C768.466 50.6953 768.331 51.3242 768.331 52.1445Z" fill="#252527"/>
</svg>
