<svg width="1020" height="76" viewBox="0 0 1020 76" fill="none" xmlns="http://www.w3.org/2000/svg">
<rect width="1020" height="76" rx="16" fill="#EBEBEC"/>
<path d="M32 19C29.4288 19 26.9154 19.7624 24.7776 21.1909C22.6398 22.6194 20.9735 24.6497 19.9896 27.0251C19.0056 29.4006 18.7482 32.0144 19.2498 34.5362C19.7514 37.0579 20.9895 39.3743 22.8076 41.1924C24.6257 43.0105 26.9421 44.2486 29.4638 44.7502C31.9856 45.2518 34.5995 44.9944 36.9749 44.0104C39.3503 43.0265 41.3807 41.3603 42.8091 39.2224C44.2376 37.0846 45 34.5712 45 32C44.9964 28.5533 43.6256 25.2488 41.1884 22.8116C38.7512 20.3744 35.4467 19.0036 32 19ZM31 26C31 25.7348 31.1054 25.4804 31.2929 25.2929C31.4804 25.1054 31.7348 25 32 25C32.2652 25 32.5196 25.1054 32.7071 25.2929C32.8946 25.4804 33 25.7348 33 26V33C33 33.2652 32.8946 33.5196 32.7071 33.7071C32.5196 33.8946 32.2652 34 32 34C31.7348 34 31.4804 33.8946 31.2929 33.7071C31.1054 33.5196 31 33.2652 31 33V26ZM32 39C31.7033 39 31.4133 38.912 31.1667 38.7472C30.92 38.5824 30.7277 38.3481 30.6142 38.074C30.5007 37.7999 30.471 37.4983 30.5288 37.2074C30.5867 36.9164 30.7296 36.6491 30.9393 36.4393C31.1491 36.2296 31.4164 36.0867 31.7074 36.0288C31.9983 35.9709 32.2999 36.0007 32.574 36.1142C32.8481 36.2277 33.0824 36.42 33.2472 36.6666C33.412 36.9133 33.5 37.2033 33.5 37.5C33.5 37.8978 33.342 38.2794 33.0607 38.5607C32.7794 38.842 32.3978 39 32 39Z" fill="#9999A0"/>
<path d="M58.7969 24.9609V32H57.2344V20.9922H59.2656L64.8594 30.1328C64.7865 29.1849 64.75 28.4531 64.75 27.9375V20.9922H66.3281V32H64.2266L58.7031 22.9219C58.724 23.2917 58.7448 23.6458 58.7656 23.9844C58.7865 24.3229 58.7969 24.6484 58.7969 24.9609ZM76.0938 27.7656C76.0938 29.2083 75.75 30.3021 75.0625 31.0469C74.375 31.7865 73.3958 32.1562 72.125 32.1562C70.8594 32.1562 69.8906 31.776 69.2188 31.0156C68.5521 30.25 68.2188 29.1667 68.2188 27.7656C68.2188 26.3385 68.5547 25.2526 69.2266 24.5078C69.8984 23.763 70.8802 23.3906 72.1719 23.3906C73.4896 23.3906 74.4714 23.7526 75.1172 24.4766C75.7682 25.2005 76.0938 26.2969 76.0938 27.7656ZM74.3438 27.7656C74.3438 26.651 74.1745 25.8438 73.8359 25.3438C73.4974 24.8385 72.9505 24.5859 72.1953 24.5859C71.4245 24.5859 70.8594 24.8464 70.5 25.3672C70.1458 25.8828 69.9688 26.6823 69.9688 27.7656C69.9688 28.8229 70.1432 29.6198 70.4922 30.1562C70.8464 30.6927 71.3828 30.9609 72.1016 30.9609C72.8932 30.9609 73.4635 30.7005 73.8125 30.1797C74.1667 29.6589 74.3438 28.8542 74.3438 27.7656ZM81.3438 31.9141C80.8646 32.0599 80.3438 32.1328 79.7812 32.1328C79.1927 32.1328 78.7448 31.9688 78.4375 31.6406C78.1354 31.3073 77.9844 30.8099 77.9844 30.1484V24.7266H76.9766V23.5469H78.0547L78.5625 21.625H79.6484V23.5469H81.2188V24.7266H79.6484V29.7422C79.6484 30.1536 79.7188 30.4479 79.8594 30.625C80 30.7969 80.2344 30.8828 80.5625 30.8828C80.7292 30.8828 80.9896 30.8464 81.3438 30.7734V31.9141ZM83.9141 28.1094C83.9141 29.0312 84.099 29.737 84.4688 30.2266C84.8385 30.7161 85.3724 30.9609 86.0703 30.9609C86.6068 30.9609 87.0391 30.8516 87.3672 30.6328C87.6953 30.4141 87.9193 30.125 88.0391 29.7656L89.5469 30.0547C89.0104 31.4557 87.8411 32.1562 86.0391 32.1562C84.7786 32.1562 83.8177 31.7839 83.1562 31.0391C82.4948 30.2891 82.1641 29.1849 82.1641 27.7266C82.1641 26.3307 82.4974 25.2604 83.1641 24.5156C83.8307 23.7656 84.7786 23.3906 86.0078 23.3906C87.2422 23.3906 88.1719 23.776 88.7969 24.5469C89.4271 25.3125 89.7422 26.4531 89.7422 27.9688V28.1094H83.9141ZM88.0625 26.9375C88 26.1146 87.7943 25.5104 87.4453 25.125C87.1016 24.7396 86.6146 24.5469 85.9844 24.5469C85.3594 24.5469 84.8672 24.7578 84.5078 25.1797C84.1484 25.6016 83.9557 26.1875 83.9297 26.9375H88.0625Z" fill="#252527"/>
<path d="M58.5977 46.3682V56H57.292V46.3682H58.5977ZM61.8177 51.7139V56H60.5872V50.1826C60.5872 49.7497 60.5826 49.4033 60.5735 49.1436C60.569 48.8792 60.5598 48.6992 60.5462 48.6035H61.7083C61.7174 48.6901 61.7242 48.7995 61.7288 48.9316C61.7379 49.0638 61.7447 49.2096 61.7493 49.3691C61.7539 49.5286 61.7584 49.695 61.763 49.8682H61.7835C62.066 49.3577 62.3919 48.9977 62.761 48.7881C63.1347 48.5739 63.5973 48.4668 64.1487 48.4668C64.9599 48.4668 65.5524 48.6742 65.9261 49.0889C66.3043 49.5036 66.4934 50.1644 66.4934 51.0713V56H65.2561V51.3105C65.2561 50.6042 65.1422 50.112 64.9143 49.834C64.6865 49.556 64.2923 49.417 63.7317 49.417C63.1393 49.417 62.6721 49.6198 62.3304 50.0254C61.9886 50.431 61.8177 50.9938 61.8177 51.7139ZM77.9442 52.2676C77.9442 53.5573 77.7163 54.5257 77.2606 55.1729C76.8094 55.8154 76.1304 56.1367 75.2235 56.1367C74.0842 56.1367 73.3185 55.7083 72.9266 54.8516H72.8924C72.9107 54.8835 72.9198 55.2708 72.9198 56.0137V58.9053H71.6893V50.1143C71.6893 49.736 71.6847 49.4215 71.6756 49.1709C71.6711 48.9157 71.662 48.7266 71.6483 48.6035H72.8377C72.8423 48.6217 72.8491 48.7106 72.8582 48.8701C72.8719 49.0296 72.8833 49.2028 72.8924 49.3896C72.9015 49.5719 72.9061 49.7064 72.9061 49.793H72.9334C73.1522 49.3372 73.4416 49.0046 73.8016 48.7949C74.1616 48.5807 74.6356 48.4736 75.2235 48.4736C76.1349 48.4736 76.8162 48.779 77.2674 49.3896C77.7186 50.0003 77.9442 50.9596 77.9442 52.2676ZM76.6522 52.2949C76.6522 51.265 76.5132 50.529 76.2352 50.0869C75.9572 49.6449 75.5151 49.4238 74.909 49.4238C74.2345 49.4238 73.7332 49.6585 73.4051 50.1279C73.0815 50.5928 72.9198 51.347 72.9198 52.3906C72.9198 53.3613 73.0747 54.0768 73.3846 54.5371C73.6945 54.9974 74.1981 55.2275 74.8954 55.2275C75.506 55.2275 75.9504 55.0042 76.2284 54.5576C76.5109 54.1064 76.6522 53.3522 76.6522 52.2949ZM80.4327 45.8555V56H79.2023V45.8555H80.4327ZM83.9262 56.1367C83.1833 56.1367 82.6251 55.9408 82.2514 55.5488C81.8777 55.1569 81.6908 54.6191 81.6908 53.9355C81.6908 53.1699 81.9415 52.582 82.4428 52.1719C82.9486 51.7617 83.7621 51.543 84.8832 51.5156L86.5443 51.4883V51.085C86.5443 50.4834 86.4167 50.0527 86.1615 49.793C85.9063 49.5332 85.5053 49.4033 84.9584 49.4033C84.407 49.4033 84.0059 49.4967 83.7553 49.6836C83.5046 49.8704 83.3542 50.1689 83.3041 50.5791L82.0189 50.4629C82.2286 49.1322 83.2175 48.4668 84.9857 48.4668C85.9154 48.4668 86.615 48.681 87.0844 49.1094C87.5538 49.5332 87.7885 50.1484 87.7885 50.9551V54.1406C87.7885 54.5052 87.8363 54.7809 87.932 54.9678C88.0277 55.1501 88.21 55.2412 88.4789 55.2412C88.6065 55.2412 88.741 55.2253 88.8822 55.1934V55.959C88.7273 55.9954 88.5701 56.0228 88.4105 56.041C88.251 56.0592 88.0915 56.0684 87.932 56.0684C87.4763 56.0684 87.1436 55.9499 86.934 55.7129C86.7289 55.4714 86.6127 55.0954 86.5854 54.585H86.5443C86.2299 55.1501 85.863 55.5511 85.4438 55.7881C85.029 56.0205 84.5232 56.1367 83.9262 56.1367ZM86.5443 52.3496L85.1977 52.377C84.6234 52.3815 84.1859 52.4408 83.8852 52.5547C83.5844 52.6641 83.3542 52.8327 83.1947 53.0605C83.0352 53.2884 82.9555 53.5869 82.9555 53.9561C82.9555 54.3571 83.0626 54.667 83.2768 54.8857C83.4955 55.1045 83.8054 55.2139 84.2064 55.2139C84.6622 55.2139 85.0632 55.1113 85.4096 54.9062C85.7605 54.7012 86.0362 54.4209 86.2367 54.0654C86.4418 53.7054 86.5443 53.3363 86.5443 52.958V52.3496ZM92.3962 55.9453C91.9951 56.0547 91.5804 56.1094 91.152 56.1094C90.6598 56.1094 90.2907 55.9704 90.0446 55.6924C89.7985 55.4098 89.6755 54.9906 89.6755 54.4346V49.499H88.821V48.6035H89.7233L90.0856 46.9492H90.9059V48.6035H92.2731V49.499H90.9059V54.168C90.9059 54.5234 90.9629 54.7741 91.0768 54.9199C91.1953 55.0612 91.3981 55.1318 91.6852 55.1318C91.8402 55.1318 92.0772 55.0999 92.3962 55.0361V55.9453ZM94.6933 49.499V56H93.4629V49.499H92.4238V48.6035H93.4629V47.7695C93.4629 47.0951 93.611 46.6097 93.9072 46.3135C94.2034 46.0173 94.6569 45.8691 95.2675 45.8691C95.6093 45.8691 95.8987 45.8965 96.1357 45.9512V46.8877C95.917 46.8512 95.7347 46.833 95.5888 46.833C95.2744 46.833 95.0465 46.9128 94.9052 47.0723C94.764 47.2318 94.6933 47.5212 94.6933 47.9404V48.6035H96.1357V49.499H94.6933ZM103.04 52.2949C103.04 53.5892 102.755 54.5531 102.186 55.1865C101.616 55.82 100.789 56.1367 99.7043 56.1367C98.6243 56.1367 97.8085 55.8086 97.2571 55.1523C96.7056 54.4915 96.4299 53.5391 96.4299 52.2949C96.4299 51.0189 96.7056 50.0618 97.2571 49.4238C97.8131 48.7858 98.6425 48.4668 99.7453 48.4668C100.876 48.4668 101.707 48.779 102.24 49.4033C102.774 50.0231 103.04 50.987 103.04 52.2949ZM101.748 52.2949C101.748 51.2741 101.596 50.5335 101.29 50.0732C100.989 49.6084 100.481 49.376 99.7659 49.376C99.0458 49.376 98.524 49.613 98.2004 50.0869C97.8814 50.5563 97.7219 51.2923 97.7219 52.2949C97.7219 53.2702 97.8791 54.0039 98.1936 54.4961C98.5126 54.9837 99.0116 55.2275 99.6907 55.2275C100.429 55.2275 100.955 54.9906 101.27 54.5166C101.589 54.0426 101.748 53.3021 101.748 52.2949ZM105.556 52.1445V56H104.326V50.3262C104.326 50.0664 104.321 49.793 104.312 49.5059C104.307 49.2188 104.298 48.918 104.285 48.6035H105.447C105.456 48.8132 105.463 49.0023 105.467 49.1709C105.476 49.3395 105.483 49.4876 105.488 49.6152C105.492 49.7383 105.495 49.8431 105.495 49.9297C105.499 50.0117 105.501 50.0732 105.501 50.1143H105.529C105.666 49.6676 105.816 49.3213 105.98 49.0752C106.14 48.8473 106.322 48.6901 106.527 48.6035C106.732 48.5124 106.985 48.4668 107.286 48.4668C107.454 48.4668 107.621 48.4896 107.785 48.5352V49.6631C107.63 49.6175 107.411 49.5947 107.128 49.5947C106.618 49.5947 106.228 49.8158 105.959 50.2578C105.691 50.6953 105.556 51.3242 105.556 52.1445ZM109.931 51.7139V56H108.708V50.1826C108.708 49.7497 108.703 49.4033 108.694 49.1436C108.69 48.8792 108.68 48.6992 108.667 48.6035H109.829C109.838 48.7038 109.847 48.8268 109.856 48.9727C109.865 49.1185 109.872 49.2712 109.877 49.4307C109.881 49.5856 109.884 49.7314 109.884 49.8682H109.904C110.168 49.3441 110.471 48.9795 110.813 48.7744C111.155 48.5693 111.572 48.4668 112.064 48.4668C112.625 48.4668 113.067 48.5785 113.39 48.8018C113.719 49.0251 113.946 49.3805 114.074 49.8682H114.095C114.35 49.3714 114.657 49.0137 115.017 48.7949C115.382 48.5762 115.822 48.4668 116.337 48.4668C117.084 48.4668 117.626 48.6696 117.964 49.0752C118.305 49.4808 118.476 50.1462 118.476 51.0713V56H117.26V51.3105C117.26 50.5951 117.162 50.1006 116.966 49.8271C116.77 49.5537 116.416 49.417 115.906 49.417C115.368 49.417 114.949 49.6175 114.648 50.0186C114.352 50.415 114.204 50.9801 114.204 51.7139V56H112.987V51.3105C112.987 50.5951 112.889 50.1006 112.693 49.8271C112.497 49.5537 112.144 49.417 111.634 49.417C111.11 49.417 110.695 49.6175 110.389 50.0186C110.084 50.4196 109.931 50.9847 109.931 51.7139ZM125.613 53.9561C125.613 54.6533 125.349 55.1911 124.82 55.5693C124.296 55.9476 123.56 56.1367 122.612 56.1367C121.692 56.1367 120.981 55.9863 120.48 55.6855C119.983 55.3802 119.659 54.9062 119.509 54.2637L120.596 54.0518C120.701 54.4482 120.917 54.7399 121.245 54.9268C121.573 55.109 122.029 55.2002 122.612 55.2002C123.237 55.2002 123.692 55.1045 123.98 54.9131C124.271 54.7217 124.417 54.4346 124.417 54.0518C124.417 53.7601 124.317 53.5231 124.116 53.3408C123.916 53.1585 123.592 53.0081 123.146 52.8896C122.617 52.7484 122.195 52.6322 121.881 52.541C121.571 52.4499 121.332 52.3724 121.163 52.3086C120.995 52.2402 120.86 52.1764 120.76 52.1172C120.459 51.944 120.224 51.7321 120.056 51.4814C119.887 51.2308 119.803 50.9232 119.803 50.5586C119.803 49.8841 120.042 49.3714 120.521 49.0205C121.004 48.665 121.705 48.4873 122.626 48.4873C123.442 48.4873 124.089 48.6309 124.567 48.918C125.051 49.2051 125.356 49.6654 125.483 50.2988L124.376 50.4355C124.308 50.1074 124.123 49.8568 123.822 49.6836C123.526 49.5059 123.127 49.417 122.626 49.417C122.07 49.417 121.66 49.5013 121.396 49.6699C121.131 49.8385 120.999 50.0938 120.999 50.4355C120.999 50.6862 121.074 50.8936 121.225 51.0576C121.375 51.2171 121.662 51.3493 122.086 51.4541C122.656 51.5908 123.198 51.7412 123.713 51.9053C124.228 52.0648 124.597 52.2243 124.82 52.3838C125.08 52.5706 125.276 52.7917 125.408 53.0469C125.545 53.2975 125.613 53.6006 125.613 53.9561ZM133.243 55.9453C132.842 56.0547 132.427 56.1094 131.999 56.1094C131.506 56.1094 131.137 55.9704 130.891 55.6924C130.645 55.4098 130.522 54.9906 130.522 54.4346V49.499H129.668V48.6035H130.57L130.932 46.9492H131.753V48.6035H133.12V49.499H131.753V54.168C131.753 54.5234 131.81 54.7741 131.923 54.9199C132.042 55.0612 132.245 55.1318 132.532 55.1318C132.687 55.1318 132.924 55.0999 133.243 55.0361V55.9453ZM135.239 49.8682C135.504 49.3851 135.82 49.0319 136.189 48.8086C136.563 48.5807 137.035 48.4668 137.604 48.4668C138.406 48.4668 138.997 48.6764 139.375 49.0957C139.758 49.5104 139.949 50.1689 139.949 51.0713V56H138.712V51.3105C138.712 50.6406 138.593 50.1576 138.356 49.8613C138.124 49.5651 137.734 49.417 137.187 49.417C136.609 49.417 136.144 49.6175 135.793 50.0186C135.447 50.4196 135.273 50.9596 135.273 51.6387V56H134.043V45.8555H135.273V48.4941C135.273 48.6764 135.269 48.8701 135.26 49.0752C135.251 49.2757 135.241 49.4512 135.232 49.6016C135.228 49.7474 135.223 49.8363 135.219 49.8682H135.239ZM143.415 56.1367C142.672 56.1367 142.114 55.9408 141.74 55.5488C141.367 55.1569 141.18 54.6191 141.18 53.9355C141.18 53.1699 141.431 52.582 141.932 52.1719C142.438 51.7617 143.251 51.543 144.372 51.5156L146.033 51.4883V51.085C146.033 50.4834 145.906 50.0527 145.651 49.793C145.395 49.5332 144.994 49.4033 144.447 49.4033C143.896 49.4033 143.495 49.4967 143.244 49.6836C142.994 49.8704 142.843 50.1689 142.793 50.5791L141.508 50.4629C141.718 49.1322 142.707 48.4668 144.475 48.4668C145.404 48.4668 146.104 48.681 146.573 49.1094C147.043 49.5332 147.278 50.1484 147.278 50.9551V54.1406C147.278 54.5052 147.325 54.7809 147.421 54.9678C147.517 55.1501 147.699 55.2412 147.968 55.2412C148.096 55.2412 148.23 55.2253 148.371 55.1934V55.959C148.216 55.9954 148.059 56.0228 147.9 56.041C147.74 56.0592 147.581 56.0684 147.421 56.0684C146.965 56.0684 146.633 55.9499 146.423 55.7129C146.218 55.4714 146.102 55.0954 146.074 54.585H146.033C145.719 55.1501 145.352 55.5511 144.933 55.7881C144.518 56.0205 144.012 56.1367 143.415 56.1367ZM146.033 52.3496L144.687 52.377C144.113 52.3815 143.675 52.4408 143.374 52.5547C143.073 52.6641 142.843 52.8327 142.684 53.0605C142.524 53.2884 142.445 53.5869 142.445 53.9561C142.445 54.3571 142.552 54.667 142.766 54.8857C142.985 55.1045 143.294 55.2139 143.696 55.2139C144.151 55.2139 144.552 55.1113 144.899 54.9062C145.25 54.7012 145.525 54.4209 145.726 54.0654C145.931 53.7054 146.033 53.3363 146.033 52.958V52.3496ZM151.885 55.9453C151.484 56.0547 151.069 56.1094 150.641 56.1094C150.149 56.1094 149.78 55.9704 149.534 55.6924C149.288 55.4098 149.165 54.9906 149.165 54.4346V49.499H148.31V48.6035H149.212L149.575 46.9492H150.395V48.6035H151.762V49.499H150.395V54.168C150.395 54.5234 150.452 54.7741 150.566 54.9199C150.684 55.0612 150.887 55.1318 151.174 55.1318C151.329 55.1318 151.566 55.0999 151.885 55.0361V55.9453ZM161.039 56C161.03 55.9499 161.019 55.8564 161.005 55.7197C160.996 55.5785 160.987 55.4235 160.978 55.2549C160.973 55.0863 160.971 54.9382 160.971 54.8105H160.943C160.716 55.2845 160.412 55.624 160.034 55.8291C159.661 56.0342 159.196 56.1367 158.64 56.1367C157.705 56.1367 157.017 55.8223 156.575 55.1934C156.138 54.5645 155.919 53.612 155.919 52.3359C155.919 51.0462 156.145 50.0801 156.596 49.4375C157.051 48.7904 157.733 48.4668 158.64 48.4668C159.2 48.4668 159.667 48.5693 160.041 48.7744C160.415 48.9795 160.716 49.3053 160.943 49.752H160.957L160.943 48.9248V45.8555H162.174V54.4756C162.174 54.863 162.176 55.1842 162.181 55.4395C162.19 55.6901 162.201 55.877 162.215 56H161.039ZM157.211 52.2949C157.211 53.3294 157.348 54.07 157.621 54.5166C157.895 54.9632 158.339 55.1865 158.954 55.1865C159.651 55.1865 160.157 54.945 160.472 54.4619C160.786 53.9788 160.943 53.2292 160.943 52.2129C160.943 51.2331 160.786 50.5153 160.472 50.0596C160.157 49.6038 159.656 49.376 158.968 49.376C158.348 49.376 157.899 49.6061 157.621 50.0664C157.348 50.5221 157.211 51.265 157.211 52.2949ZM170.042 52.2949C170.042 53.5892 169.757 54.5531 169.188 55.1865C168.618 55.82 167.791 56.1367 166.706 56.1367C165.626 56.1367 164.811 55.8086 164.259 55.1523C163.708 54.4915 163.432 53.5391 163.432 52.2949C163.432 51.0189 163.708 50.0618 164.259 49.4238C164.815 48.7858 165.645 48.4668 166.747 48.4668C167.878 48.4668 168.709 48.779 169.243 49.4033C169.776 50.0231 170.042 50.987 170.042 52.2949ZM168.75 52.2949C168.75 51.2741 168.598 50.5335 168.292 50.0732C167.992 49.6084 167.483 49.376 166.768 49.376C166.048 49.376 165.526 49.613 165.202 50.0869C164.883 50.5563 164.724 51.2923 164.724 52.2949C164.724 53.2702 164.881 54.0039 165.196 54.4961C165.515 54.9837 166.014 55.2275 166.693 55.2275C167.431 55.2275 167.957 54.9906 168.272 54.5166C168.591 54.0426 168.75 53.3021 168.75 52.2949ZM172.558 51.7139V56H171.328V50.1826C171.328 49.7497 171.323 49.4033 171.314 49.1436C171.31 48.8792 171.3 48.6992 171.287 48.6035H172.449C172.458 48.6901 172.465 48.7995 172.469 48.9316C172.478 49.0638 172.485 49.2096 172.49 49.3691C172.494 49.5286 172.499 49.695 172.504 49.8682H172.524C172.807 49.3577 173.132 48.9977 173.502 48.7881C173.875 48.5739 174.338 48.4668 174.889 48.4668C175.7 48.4668 176.293 48.6742 176.667 49.0889C177.045 49.5036 177.234 50.1644 177.234 51.0713V56H175.997V51.3105C175.997 50.6042 175.883 50.112 175.655 49.834C175.427 49.556 175.033 49.417 174.472 49.417C173.88 49.417 173.413 49.6198 173.071 50.0254C172.729 50.431 172.558 50.9938 172.558 51.7139ZM180.112 47.3594C180.112 47.8379 180.069 48.2412 179.982 48.5693C179.896 48.8929 179.761 49.2005 179.579 49.4922H178.738C179.167 48.8724 179.381 48.2799 179.381 47.7148H178.779V46.3682H180.112V47.3594ZM184.494 55.9453C184.093 56.0547 183.679 56.1094 183.25 56.1094C182.758 56.1094 182.389 55.9704 182.143 55.6924C181.897 55.4098 181.774 54.9906 181.774 54.4346V49.499H180.919V48.6035H181.821L182.184 46.9492H183.004V48.6035H184.371V49.499H183.004V54.168C183.004 54.5234 183.061 54.7741 183.175 54.9199C183.293 55.0612 183.496 55.1318 183.783 55.1318C183.938 55.1318 184.175 55.0999 184.494 55.0361V55.9453ZM195.138 52.2676C195.138 53.5573 194.911 54.5257 194.455 55.1729C194.004 55.8154 193.325 56.1367 192.418 56.1367C191.278 56.1367 190.513 55.7083 190.121 54.8516H190.087C190.105 54.8835 190.114 55.2708 190.114 56.0137V58.9053H188.884V50.1143C188.884 49.736 188.879 49.4215 188.87 49.1709C188.865 48.9157 188.856 48.7266 188.842 48.6035H190.032C190.037 48.6217 190.043 48.7106 190.052 48.8701C190.066 49.0296 190.078 49.2028 190.087 49.3896C190.096 49.5719 190.1 49.7064 190.1 49.793H190.128C190.346 49.3372 190.636 49.0046 190.996 48.7949C191.356 48.5807 191.83 48.4736 192.418 48.4736C193.329 48.4736 194.01 48.779 194.462 49.3896C194.913 50.0003 195.138 50.9596 195.138 52.2676ZM193.846 52.2949C193.846 51.265 193.707 50.529 193.429 50.0869C193.151 49.6449 192.709 49.4238 192.103 49.4238C191.429 49.4238 190.927 49.6585 190.599 50.1279C190.276 50.5928 190.114 51.347 190.114 52.3906C190.114 53.3613 190.269 54.0768 190.579 54.5371C190.889 54.9974 191.392 55.2275 192.09 55.2275C192.7 55.2275 193.145 55.0042 193.423 54.5576C193.705 54.1064 193.846 53.3522 193.846 52.2949ZM197.627 45.8555V56H196.396V45.8555H197.627ZM201.12 56.1367C200.378 56.1367 199.819 55.9408 199.446 55.5488C199.072 55.1569 198.885 54.6191 198.885 53.9355C198.885 53.1699 199.136 52.582 199.637 52.1719C200.143 51.7617 200.956 51.543 202.077 51.5156L203.739 51.4883V51.085C203.739 50.4834 203.611 50.0527 203.356 49.793C203.101 49.5332 202.699 49.4033 202.153 49.4033C201.601 49.4033 201.2 49.4967 200.949 49.6836C200.699 49.8704 200.548 50.1689 200.498 50.5791L199.213 50.4629C199.423 49.1322 200.412 48.4668 202.18 48.4668C203.11 48.4668 203.809 48.681 204.279 49.1094C204.748 49.5332 204.983 50.1484 204.983 50.9551V54.1406C204.983 54.5052 205.031 54.7809 205.126 54.9678C205.222 55.1501 205.404 55.2412 205.673 55.2412C205.801 55.2412 205.935 55.2253 206.076 55.1934V55.959C205.921 55.9954 205.764 56.0228 205.605 56.041C205.445 56.0592 205.286 56.0684 205.126 56.0684C204.671 56.0684 204.338 55.9499 204.128 55.7129C203.923 55.4714 203.807 55.0954 203.78 54.585H203.739C203.424 55.1501 203.057 55.5511 202.638 55.7881C202.223 56.0205 201.717 56.1367 201.12 56.1367ZM203.739 52.3496L202.392 52.377C201.818 52.3815 201.38 52.4408 201.079 52.5547C200.779 52.6641 200.548 52.8327 200.389 53.0605C200.229 53.2884 200.15 53.5869 200.15 53.9561C200.15 54.3571 200.257 54.667 200.471 54.8857C200.69 55.1045 201 55.2139 201.401 55.2139C201.856 55.2139 202.257 55.1113 202.604 54.9062C202.955 54.7012 203.23 54.4209 203.431 54.0654C203.636 53.7054 203.739 53.3363 203.739 52.958V52.3496ZM207.109 58.9053C206.781 58.9053 206.498 58.8802 206.261 58.8301V57.9072C206.434 57.9346 206.626 57.9482 206.836 57.9482C207.218 57.9482 207.572 57.8047 207.895 57.5176C208.223 57.235 208.515 56.7178 208.77 55.9658L205.837 48.6035H207.15L208.709 52.6914C208.822 52.9831 208.943 53.3135 209.071 53.6826C209.203 54.0518 209.306 54.3776 209.378 54.6602C209.492 54.3366 209.606 54.0153 209.72 53.6963C209.839 53.3773 209.953 53.0583 210.062 52.7393L211.477 48.6035H212.776L209.932 56C209.777 56.3919 209.629 56.7337 209.488 57.0254C209.347 57.3216 209.21 57.5654 209.078 57.7568C208.813 58.1442 208.519 58.4313 208.196 58.6182C207.877 58.8096 207.515 58.9053 207.109 58.9053ZM218.307 49.8682C218.571 49.3851 218.888 49.0319 219.257 48.8086C219.631 48.5807 220.102 48.4668 220.672 48.4668C221.474 48.4668 222.064 48.6764 222.443 49.0957C222.825 49.5104 223.017 50.1689 223.017 51.0713V56H221.779V51.3105C221.779 50.6406 221.661 50.1576 221.424 49.8613C221.192 49.5651 220.802 49.417 220.255 49.417C219.676 49.417 219.211 49.6175 218.86 50.0186C218.514 50.4196 218.341 50.9596 218.341 51.6387V56H217.11V45.8555H218.341V48.4941C218.341 48.6764 218.336 48.8701 218.327 49.0752C218.318 49.2757 218.309 49.4512 218.3 49.6016C218.295 49.7474 218.291 49.8363 218.286 49.8682H218.307ZM226.483 56.1367C225.74 56.1367 225.182 55.9408 224.808 55.5488C224.434 55.1569 224.247 54.6191 224.247 53.9355C224.247 53.1699 224.498 52.582 224.999 52.1719C225.505 51.7617 226.319 51.543 227.44 51.5156L229.101 51.4883V51.085C229.101 50.4834 228.973 50.0527 228.718 49.793C228.463 49.5332 228.062 49.4033 227.515 49.4033C226.964 49.4033 226.563 49.4967 226.312 49.6836C226.061 49.8704 225.911 50.1689 225.861 50.5791L224.576 50.4629C224.785 49.1322 225.774 48.4668 227.542 48.4668C228.472 48.4668 229.172 48.681 229.641 49.1094C230.11 49.5332 230.345 50.1484 230.345 50.9551V54.1406C230.345 54.5052 230.393 54.7809 230.489 54.9678C230.584 55.1501 230.767 55.2412 231.036 55.2412C231.163 55.2412 231.298 55.2253 231.439 55.1934V55.959C231.284 55.9954 231.127 56.0228 230.967 56.041C230.808 56.0592 230.648 56.0684 230.489 56.0684C230.033 56.0684 229.7 55.9499 229.491 55.7129C229.286 55.4714 229.169 55.0954 229.142 54.585H229.101C228.787 55.1501 228.42 55.5511 228 55.7881C227.586 56.0205 227.08 56.1367 226.483 56.1367ZM229.101 52.3496L227.754 52.377C227.18 52.3815 226.743 52.4408 226.442 52.5547C226.141 52.6641 225.911 52.8327 225.751 53.0605C225.592 53.2884 225.512 53.5869 225.512 53.9561C225.512 54.3571 225.619 54.667 225.833 54.8857C226.052 55.1045 226.362 55.2139 226.763 55.2139C227.219 55.2139 227.62 55.1113 227.966 54.9062C228.317 54.7012 228.593 54.4209 228.793 54.0654C228.998 53.7054 229.101 53.3363 229.101 52.958V52.3496ZM238.364 52.2676C238.364 53.5573 238.136 54.5257 237.68 55.1729C237.229 55.8154 236.55 56.1367 235.643 56.1367C234.504 56.1367 233.738 55.7083 233.346 54.8516H233.312C233.33 54.8835 233.34 55.2708 233.34 56.0137V58.9053H232.109V50.1143C232.109 49.736 232.105 49.4215 232.095 49.1709C232.091 48.9157 232.082 48.7266 232.068 48.6035H233.258C233.262 48.6217 233.269 48.7106 233.278 48.8701C233.292 49.0296 233.303 49.2028 233.312 49.3896C233.321 49.5719 233.326 49.7064 233.326 49.793H233.353C233.572 49.3372 233.861 49.0046 234.221 48.7949C234.581 48.5807 235.055 48.4736 235.643 48.4736C236.555 48.4736 237.236 48.779 237.687 49.3896C238.138 50.0003 238.364 50.9596 238.364 52.2676ZM237.072 52.2949C237.072 51.265 236.933 50.529 236.655 50.0869C236.377 49.6449 235.935 49.4238 235.329 49.4238C234.654 49.4238 234.153 49.6585 233.825 50.1279C233.501 50.5928 233.34 51.347 233.34 52.3906C233.34 53.3613 233.494 54.0768 233.804 54.5371C234.114 54.9974 234.618 55.2275 235.315 55.2275C235.926 55.2275 236.37 55.0042 236.648 54.5576C236.931 54.1064 237.072 53.3522 237.072 52.2949ZM242.466 55.9453C242.065 56.0547 241.65 56.1094 241.222 56.1094C240.729 56.1094 240.36 55.9704 240.114 55.6924C239.868 55.4098 239.745 54.9906 239.745 54.4346V49.499H238.891V48.6035H239.793L240.155 46.9492H240.976V48.6035H242.343V49.499H240.976V54.168C240.976 54.5234 241.033 54.7741 241.146 54.9199C241.265 55.0612 241.468 55.1318 241.755 55.1318C241.91 55.1318 242.147 55.0999 242.466 55.0361V55.9453ZM244.462 45.8555V47.0312H243.232V45.8555H244.462ZM244.462 48.6035V56H243.232V48.6035H244.462ZM248.913 56.1367C247.878 56.1367 247.087 55.8109 246.541 55.1592C245.998 54.5029 245.727 53.5482 245.727 52.2949C245.727 51.0508 246.001 50.1029 246.547 49.4512C247.094 48.7949 247.878 48.4668 248.899 48.4668C249.655 48.4668 250.282 48.6628 250.779 49.0547C251.28 49.4466 251.595 49.9867 251.722 50.6748L250.458 50.7705C250.394 50.3604 250.232 50.0345 249.972 49.793C249.712 49.5514 249.343 49.4307 248.865 49.4307C248.213 49.4307 247.741 49.6471 247.45 50.0801C247.158 50.513 247.012 51.2422 247.012 52.2676C247.012 53.252 247.167 53.9811 247.477 54.4551C247.787 54.929 248.254 55.166 248.878 55.166C249.316 55.166 249.681 55.0475 249.972 54.8105C250.268 54.5736 250.451 54.209 250.519 53.7168L251.763 53.7988C251.699 54.2728 251.54 54.6852 251.285 55.0361C251.034 55.387 250.706 55.6582 250.3 55.8496C249.899 56.041 249.437 56.1367 248.913 56.1367ZM258.346 53.9561C258.346 54.6533 258.082 55.1911 257.554 55.5693C257.029 55.9476 256.293 56.1367 255.346 56.1367C254.425 56.1367 253.714 55.9863 253.213 55.6855C252.716 55.3802 252.392 54.9062 252.242 54.2637L253.329 54.0518C253.434 54.4482 253.65 54.7399 253.978 54.9268C254.306 55.109 254.762 55.2002 255.346 55.2002C255.97 55.2002 256.426 55.1045 256.713 54.9131C257.004 54.7217 257.15 54.4346 257.15 54.0518C257.15 53.7601 257.05 53.5231 256.849 53.3408C256.649 53.1585 256.325 53.0081 255.879 52.8896C255.35 52.7484 254.929 52.6322 254.614 52.541C254.304 52.4499 254.065 52.3724 253.896 52.3086C253.728 52.2402 253.593 52.1764 253.493 52.1172C253.192 51.944 252.957 51.7321 252.789 51.4814C252.62 51.2308 252.536 50.9232 252.536 50.5586C252.536 49.8841 252.775 49.3714 253.254 49.0205C253.737 48.665 254.439 48.4873 255.359 48.4873C256.175 48.4873 256.822 48.6309 257.301 48.918C257.784 49.2051 258.089 49.6654 258.217 50.2988L257.109 50.4355C257.041 50.1074 256.856 49.8568 256.555 49.6836C256.259 49.5059 255.86 49.417 255.359 49.417C254.803 49.417 254.393 49.5013 254.129 49.6699C253.864 49.8385 253.732 50.0938 253.732 50.4355C253.732 50.6862 253.807 50.8936 253.958 51.0576C254.108 51.2171 254.395 51.3493 254.819 51.4541C255.389 51.5908 255.931 51.7412 256.446 51.9053C256.961 52.0648 257.33 52.2243 257.554 52.3838C257.813 52.5706 258.009 52.7917 258.141 53.0469C258.278 53.2975 258.346 53.6006 258.346 53.9561ZM261.204 55.6514C261.204 56.1344 261.161 56.5378 261.074 56.8613C260.988 57.1849 260.853 57.4948 260.671 57.791H259.83C260.044 57.4811 260.204 57.1758 260.309 56.875C260.418 56.5788 260.473 56.2871 260.473 56H259.871V54.5029H261.204V55.6514ZM271.424 54.7354C271.142 55.2458 270.814 55.6081 270.44 55.8223C270.071 56.0319 269.611 56.1367 269.059 56.1367C268.248 56.1367 267.653 55.9362 267.275 55.5352C266.901 55.1296 266.714 54.4619 266.714 53.5322V48.6035H267.952V53.293C267.952 54.0312 268.066 54.5326 268.294 54.7969C268.526 55.0566 268.92 55.1865 269.476 55.1865C270.069 55.1865 270.536 54.9837 270.878 54.5781C271.219 54.1725 271.39 53.6097 271.39 52.8896V48.6035H272.621V54.4209C272.621 54.8493 272.623 55.1956 272.628 55.46C272.637 55.7243 272.648 55.9043 272.662 56H271.5C271.495 55.9772 271.486 55.8701 271.472 55.6787C271.463 55.4873 271.454 55.1729 271.445 54.7354H271.424ZM279.812 53.9561C279.812 54.6533 279.548 55.1911 279.019 55.5693C278.495 55.9476 277.759 56.1367 276.811 56.1367C275.891 56.1367 275.18 55.9863 274.679 55.6855C274.182 55.3802 273.858 54.9062 273.708 54.2637L274.795 54.0518C274.9 54.4482 275.116 54.7399 275.444 54.9268C275.772 55.109 276.228 55.2002 276.811 55.2002C277.436 55.2002 277.892 55.1045 278.179 54.9131C278.47 54.7217 278.616 54.4346 278.616 54.0518C278.616 53.7601 278.516 53.5231 278.315 53.3408C278.115 53.1585 277.791 53.0081 277.345 52.8896C276.816 52.7484 276.394 52.6322 276.08 52.541C275.77 52.4499 275.531 52.3724 275.362 52.3086C275.194 52.2402 275.059 52.1764 274.959 52.1172C274.658 51.944 274.423 51.7321 274.255 51.4814C274.086 51.2308 274.002 50.9232 274.002 50.5586C274.002 49.8841 274.241 49.3714 274.72 49.0205C275.203 48.665 275.905 48.4873 276.825 48.4873C277.641 48.4873 278.288 48.6309 278.767 48.918C279.25 49.2051 279.555 49.6654 279.683 50.2988L278.575 50.4355C278.507 50.1074 278.322 49.8568 278.021 49.6836C277.725 49.5059 277.326 49.417 276.825 49.417C276.269 49.417 275.859 49.5013 275.595 49.6699C275.33 49.8385 275.198 50.0938 275.198 50.4355C275.198 50.6862 275.273 50.8936 275.424 51.0576C275.574 51.2171 275.861 51.3493 276.285 51.4541C276.855 51.5908 277.397 51.7412 277.912 51.9053C278.427 52.0648 278.796 52.2243 279.019 52.3838C279.279 52.5706 279.475 52.7917 279.607 53.0469C279.744 53.2975 279.812 53.6006 279.812 53.9561ZM281.925 52.5615C281.925 53.4092 282.1 54.0632 282.451 54.5234C282.802 54.9837 283.315 55.2139 283.989 55.2139C284.523 55.2139 284.949 55.1068 285.268 54.8926C285.591 54.6784 285.81 54.4072 285.924 54.0791L287.004 54.3867C286.562 55.5534 285.557 56.1367 283.989 56.1367C282.896 56.1367 282.062 55.8109 281.488 55.1592C280.918 54.5075 280.633 53.5391 280.633 52.2539C280.633 51.0326 280.918 50.096 281.488 49.4443C282.062 48.7926 282.88 48.4668 283.942 48.4668C285.031 48.4668 285.847 48.7949 286.389 49.4512C286.931 50.1074 287.202 51.0895 287.202 52.3975V52.5615H281.925ZM285.931 51.6182C285.863 50.8389 285.664 50.2715 285.336 49.916C285.008 49.556 284.536 49.376 283.921 49.376C283.324 49.376 282.85 49.5765 282.499 49.9775C282.153 50.374 281.966 50.9209 281.939 51.6182H285.931ZM298.366 52.2949C298.366 53.5892 298.081 54.5531 297.511 55.1865C296.942 55.82 296.115 56.1367 295.03 56.1367C293.95 56.1367 293.134 55.8086 292.583 55.1523C292.031 54.4915 291.756 53.5391 291.756 52.2949C291.756 51.0189 292.031 50.0618 292.583 49.4238C293.139 48.7858 293.968 48.4668 295.071 48.4668C296.201 48.4668 297.033 48.779 297.566 49.4033C298.099 50.0231 298.366 50.987 298.366 52.2949ZM297.074 52.2949C297.074 51.2741 296.921 50.5335 296.616 50.0732C296.315 49.6084 295.807 49.376 295.092 49.376C294.372 49.376 293.85 49.613 293.526 50.0869C293.207 50.5563 293.048 51.2923 293.048 52.2949C293.048 53.2702 293.205 54.0039 293.519 54.4961C293.838 54.9837 294.337 55.2275 295.016 55.2275C295.755 55.2275 296.281 54.9906 296.595 54.5166C296.914 54.0426 297.074 53.3021 297.074 52.2949ZM302.468 55.9453C302.067 56.0547 301.652 56.1094 301.224 56.1094C300.731 56.1094 300.362 55.9704 300.116 55.6924C299.87 55.4098 299.747 54.9906 299.747 54.4346V49.499H298.893V48.6035H299.795L300.157 46.9492H300.978V48.6035H302.345V49.499H300.978V54.168C300.978 54.5234 301.035 54.7741 301.148 54.9199C301.267 55.0612 301.47 55.1318 301.757 55.1318C301.912 55.1318 302.149 55.0999 302.468 55.0361V55.9453ZM304.464 49.8682C304.728 49.3851 305.045 49.0319 305.414 48.8086C305.788 48.5807 306.26 48.4668 306.829 48.4668C307.631 48.4668 308.222 48.6764 308.6 49.0957C308.983 49.5104 309.174 50.1689 309.174 51.0713V56H307.937V51.3105C307.937 50.6406 307.818 50.1576 307.581 49.8613C307.349 49.5651 306.959 49.417 306.412 49.417C305.834 49.417 305.369 49.6175 305.018 50.0186C304.672 50.4196 304.498 50.9596 304.498 51.6387V56H303.268V45.8555H304.498V48.4941C304.498 48.6764 304.494 48.8701 304.485 49.0752C304.476 49.2757 304.466 49.4512 304.457 49.6016C304.453 49.7474 304.448 49.8363 304.444 49.8682H304.464ZM311.697 52.5615C311.697 53.4092 311.872 54.0632 312.223 54.5234C312.574 54.9837 313.087 55.2139 313.761 55.2139C314.295 55.2139 314.721 55.1068 315.04 54.8926C315.363 54.6784 315.582 54.4072 315.696 54.0791L316.776 54.3867C316.334 55.5534 315.329 56.1367 313.761 56.1367C312.668 56.1367 311.834 55.8109 311.259 55.1592C310.69 54.5075 310.405 53.5391 310.405 52.2539C310.405 51.0326 310.69 50.096 311.259 49.4443C311.834 48.7926 312.652 48.4668 313.713 48.4668C314.803 48.4668 315.618 48.7949 316.161 49.4512C316.703 50.1074 316.974 51.0895 316.974 52.3975V52.5615H311.697ZM315.703 51.6182C315.634 50.8389 315.436 50.2715 315.108 49.916C314.78 49.556 314.308 49.376 313.693 49.376C313.096 49.376 312.622 49.5765 312.271 49.9775C311.925 50.374 311.738 50.9209 311.711 51.6182H315.703ZM319.524 52.1445V56H318.294V50.3262C318.294 50.0664 318.289 49.793 318.28 49.5059C318.276 49.2188 318.266 48.918 318.253 48.6035H319.415C319.424 48.8132 319.431 49.0023 319.435 49.1709C319.445 49.3395 319.451 49.4876 319.456 49.6152C319.46 49.7383 319.463 49.8431 319.463 49.9297C319.467 50.0117 319.47 50.0732 319.47 50.1143H319.497C319.634 49.6676 319.784 49.3213 319.948 49.0752C320.108 48.8473 320.29 48.6901 320.495 48.6035C320.7 48.5124 320.953 48.4668 321.254 48.4668C321.422 48.4668 321.589 48.4896 321.753 48.5352V49.6631C321.598 49.6175 321.379 49.5947 321.097 49.5947C320.586 49.5947 320.196 49.8158 319.928 50.2578C319.659 50.6953 319.524 51.3242 319.524 52.1445ZM330.134 50.7705L328.794 56H327.372L325.301 48.6035H326.518L327.789 53.7236C327.826 53.8695 327.869 54.054 327.919 54.2773C327.97 54.5007 328.017 54.7354 328.063 54.9814C328.113 54.7673 328.163 54.5531 328.213 54.3389C328.268 54.1247 328.323 53.9128 328.377 53.7031L329.724 48.6035H331.043L332.335 53.6826C332.39 53.8968 332.442 54.1133 332.493 54.332C332.547 54.5508 332.6 54.7673 332.65 54.9814C332.7 54.7627 332.75 54.5348 332.8 54.2979C332.855 54.0563 332.905 53.8444 332.951 53.6621L334.263 48.6035H335.466L333.347 56H331.918L330.626 50.7705C330.581 50.5791 330.538 50.3877 330.497 50.1963C330.46 50.0003 330.421 49.8066 330.38 49.6152C330.362 49.7155 330.328 49.8864 330.278 50.1279C330.232 50.3649 330.184 50.5791 330.134 50.7705ZM337.989 56.1367C337.246 56.1367 336.688 55.9408 336.314 55.5488C335.94 55.1569 335.754 54.6191 335.754 53.9355C335.754 53.1699 336.004 52.582 336.506 52.1719C337.011 51.7617 337.825 51.543 338.946 51.5156L340.607 51.4883V51.085C340.607 50.4834 340.48 50.0527 340.224 49.793C339.969 49.5332 339.568 49.4033 339.021 49.4033C338.47 49.4033 338.069 49.4967 337.818 49.6836C337.567 49.8704 337.417 50.1689 337.367 50.5791L336.082 50.4629C336.291 49.1322 337.28 48.4668 339.049 48.4668C339.978 48.4668 340.678 48.681 341.147 49.1094C341.617 49.5332 341.851 50.1484 341.851 50.9551V54.1406C341.851 54.5052 341.899 54.7809 341.995 54.9678C342.091 55.1501 342.273 55.2412 342.542 55.2412C342.669 55.2412 342.804 55.2253 342.945 55.1934V55.959C342.79 55.9954 342.633 56.0228 342.473 56.041C342.314 56.0592 342.154 56.0684 341.995 56.0684C341.539 56.0684 341.206 55.9499 340.997 55.7129C340.792 55.4714 340.676 55.0954 340.648 54.585H340.607C340.293 55.1501 339.926 55.5511 339.507 55.7881C339.092 56.0205 338.586 56.1367 337.989 56.1367ZM340.607 52.3496L339.26 52.377C338.686 52.3815 338.249 52.4408 337.948 52.5547C337.647 52.6641 337.417 52.8327 337.258 53.0605C337.098 53.2884 337.018 53.5869 337.018 53.9561C337.018 54.3571 337.125 54.667 337.34 54.8857C337.558 55.1045 337.868 55.2139 338.269 55.2139C338.725 55.2139 339.126 55.1113 339.472 54.9062C339.823 54.7012 340.099 54.4209 340.3 54.0654C340.505 53.7054 340.607 53.3363 340.607 52.958V52.3496ZM343.978 58.9053C343.649 58.9053 343.367 58.8802 343.13 58.8301V57.9072C343.303 57.9346 343.494 57.9482 343.704 57.9482C344.087 57.9482 344.44 57.8047 344.764 57.5176C345.092 57.235 345.383 56.7178 345.639 55.9658L342.706 48.6035H344.019L345.577 52.6914C345.691 52.9831 345.812 53.3135 345.939 53.6826C346.072 54.0518 346.174 54.3776 346.247 54.6602C346.361 54.3366 346.475 54.0153 346.589 53.6963C346.707 53.3773 346.821 53.0583 346.931 52.7393L348.346 48.6035H349.645L346.801 56C346.646 56.3919 346.498 56.7337 346.356 57.0254C346.215 57.3216 346.078 57.5654 345.946 57.7568C345.682 58.1442 345.388 58.4313 345.064 58.6182C344.745 58.8096 344.383 58.9053 343.978 58.9053ZM355.886 53.9561C355.886 54.6533 355.622 55.1911 355.093 55.5693C354.569 55.9476 353.833 56.1367 352.885 56.1367C351.964 56.1367 351.254 55.9863 350.752 55.6855C350.255 55.3802 349.932 54.9062 349.782 54.2637L350.868 54.0518C350.973 54.4482 351.19 54.7399 351.518 54.9268C351.846 55.109 352.302 55.2002 352.885 55.2002C353.509 55.2002 353.965 55.1045 354.252 54.9131C354.544 54.7217 354.69 54.4346 354.69 54.0518C354.69 53.7601 354.589 53.5231 354.389 53.3408C354.188 53.1585 353.865 53.0081 353.418 52.8896C352.89 52.7484 352.468 52.6322 352.154 52.541C351.844 52.4499 351.604 52.3724 351.436 52.3086C351.267 52.2402 351.133 52.1764 351.033 52.1172C350.732 51.944 350.497 51.7321 350.328 51.4814C350.16 51.2308 350.075 50.9232 350.075 50.5586C350.075 49.8841 350.315 49.3714 350.793 49.0205C351.276 48.665 351.978 48.4873 352.899 48.4873C353.714 48.4873 354.362 48.6309 354.84 48.918C355.323 49.2051 355.629 49.6654 355.756 50.2988L354.649 50.4355C354.58 50.1074 354.396 49.8568 354.095 49.6836C353.799 49.5059 353.4 49.417 352.899 49.417C352.343 49.417 351.933 49.5013 351.668 49.6699C351.404 49.8385 351.272 50.0938 351.272 50.4355C351.272 50.6862 351.347 50.8936 351.497 51.0576C351.648 51.2171 351.935 51.3493 352.359 51.4541C352.928 51.5908 353.471 51.7412 353.986 51.9053C354.501 52.0648 354.87 52.2243 355.093 52.3838C355.353 52.5706 355.549 52.7917 355.681 53.0469C355.818 53.2975 355.886 53.6006 355.886 53.9561ZM363.515 55.9453C363.114 56.0547 362.7 56.1094 362.271 56.1094C361.779 56.1094 361.41 55.9704 361.164 55.6924C360.918 55.4098 360.795 54.9906 360.795 54.4346V49.499H359.94V48.6035H360.843L361.205 46.9492H362.025V48.6035H363.392V49.499H362.025V54.168C362.025 54.5234 362.082 54.7741 362.196 54.9199C362.315 55.0612 362.517 55.1318 362.805 55.1318C362.959 55.1318 363.196 55.0999 363.515 55.0361V55.9453ZM370.543 52.2949C370.543 53.5892 370.258 54.5531 369.689 55.1865C369.119 55.82 368.292 56.1367 367.207 56.1367C366.127 56.1367 365.311 55.8086 364.76 55.1523C364.208 54.4915 363.933 53.5391 363.933 52.2949C363.933 51.0189 364.208 50.0618 364.76 49.4238C365.316 48.7858 366.145 48.4668 367.248 48.4668C368.378 48.4668 369.21 48.779 369.743 49.4033C370.276 50.0231 370.543 50.987 370.543 52.2949ZM369.251 52.2949C369.251 51.2741 369.098 50.5335 368.793 50.0732C368.492 49.6084 367.984 49.376 367.269 49.376C366.549 49.376 366.027 49.613 365.703 50.0869C365.384 50.5563 365.225 51.2923 365.225 52.2949C365.225 53.2702 365.382 54.0039 365.696 54.4961C366.015 54.9837 366.514 55.2275 367.193 55.2275C367.932 55.2275 368.458 54.9906 368.773 54.5166C369.092 54.0426 369.251 53.3021 369.251 52.2949ZM381.673 52.2676C381.673 53.5573 381.445 54.5257 380.989 55.1729C380.538 55.8154 379.859 56.1367 378.952 56.1367C377.813 56.1367 377.047 55.7083 376.655 54.8516H376.621C376.639 54.8835 376.648 55.2708 376.648 56.0137V58.9053H375.418V50.1143C375.418 49.736 375.413 49.4215 375.404 49.1709C375.399 48.9157 375.39 48.7266 375.377 48.6035H376.566C376.571 48.6217 376.577 48.7106 376.587 48.8701C376.6 49.0296 376.612 49.2028 376.621 49.3896C376.63 49.5719 376.634 49.7064 376.634 49.793H376.662C376.881 49.3372 377.17 49.0046 377.53 48.7949C377.89 48.5807 378.364 48.4736 378.952 48.4736C379.863 48.4736 380.545 48.779 380.996 49.3896C381.447 50.0003 381.673 50.9596 381.673 52.2676ZM380.381 52.2949C380.381 51.265 380.242 50.529 379.964 50.0869C379.686 49.6449 379.244 49.4238 378.637 49.4238C377.963 49.4238 377.462 49.6585 377.133 50.1279C376.81 50.5928 376.648 51.347 376.648 52.3906C376.648 53.3613 376.803 54.0768 377.113 54.5371C377.423 54.9974 377.926 55.2275 378.624 55.2275C379.234 55.2275 379.679 55.0042 379.957 54.5576C380.239 54.1064 380.381 53.3522 380.381 52.2949ZM384.188 52.1445V56H382.958V50.3262C382.958 50.0664 382.953 49.793 382.944 49.5059C382.94 49.2188 382.931 48.918 382.917 48.6035H384.079C384.088 48.8132 384.095 49.0023 384.1 49.1709C384.109 49.3395 384.116 49.4876 384.12 49.6152C384.125 49.7383 384.127 49.8431 384.127 49.9297C384.131 50.0117 384.134 50.0732 384.134 50.1143H384.161C384.298 49.6676 384.448 49.3213 384.612 49.0752C384.772 48.8473 384.954 48.6901 385.159 48.6035C385.364 48.5124 385.617 48.4668 385.918 48.4668C386.087 48.4668 386.253 48.4896 386.417 48.5352V49.6631C386.262 49.6175 386.043 49.5947 385.761 49.5947C385.25 49.5947 384.861 49.8158 384.592 50.2578C384.323 50.6953 384.188 51.3242 384.188 52.1445ZM393.568 52.2949C393.568 53.5892 393.283 54.5531 392.713 55.1865C392.143 55.82 391.316 56.1367 390.232 56.1367C389.152 56.1367 388.336 55.8086 387.784 55.1523C387.233 54.4915 386.957 53.5391 386.957 52.2949C386.957 51.0189 387.233 50.0618 387.784 49.4238C388.34 48.7858 389.17 48.4668 390.273 48.4668C391.403 48.4668 392.235 48.779 392.768 49.4033C393.301 50.0231 393.568 50.987 393.568 52.2949ZM392.276 52.2949C392.276 51.2741 392.123 50.5335 391.818 50.0732C391.517 49.6084 391.009 49.376 390.293 49.376C389.573 49.376 389.051 49.613 388.728 50.0869C388.409 50.5563 388.249 51.2923 388.249 52.2949C388.249 53.2702 388.406 54.0039 388.721 54.4961C389.04 54.9837 389.539 55.2275 390.218 55.2275C390.956 55.2275 391.483 54.9906 391.797 54.5166C392.116 54.0426 392.276 53.3021 392.276 52.2949ZM400.835 48.6035L398.073 56H396.617L393.93 48.6035H395.243L396.87 53.416C396.902 53.5072 396.956 53.6895 397.034 53.9629C397.111 54.2318 397.214 54.5895 397.341 55.0361C397.401 54.8584 397.458 54.6738 397.512 54.4824C397.571 54.2865 397.628 54.0973 397.683 53.915C397.742 53.7327 397.797 53.571 397.847 53.4297L399.529 48.6035H400.835ZM402.769 45.8555V47.0312H401.539V45.8555H402.769ZM402.769 48.6035V56H401.539V48.6035H402.769ZM409.148 56C409.138 55.9499 409.127 55.8564 409.113 55.7197C409.104 55.5785 409.095 55.4235 409.086 55.2549C409.081 55.0863 409.079 54.9382 409.079 54.8105H409.052C408.824 55.2845 408.521 55.624 408.143 55.8291C407.769 56.0342 407.304 56.1367 406.748 56.1367C405.814 56.1367 405.126 55.8223 404.684 55.1934C404.246 54.5645 404.027 53.612 404.027 52.3359C404.027 51.0462 404.253 50.0801 404.704 49.4375C405.16 48.7904 405.841 48.4668 406.748 48.4668C407.309 48.4668 407.776 48.5693 408.15 48.7744C408.523 48.9795 408.824 49.3053 409.052 49.752H409.066L409.052 48.9248V45.8555H410.282V54.4756C410.282 54.863 410.285 55.1842 410.289 55.4395C410.298 55.6901 410.31 55.877 410.323 56H409.148ZM405.319 52.2949C405.319 53.3294 405.456 54.07 405.73 54.5166C406.003 54.9632 406.447 55.1865 407.063 55.1865C407.76 55.1865 408.266 54.945 408.58 54.4619C408.895 53.9788 409.052 53.2292 409.052 52.2129C409.052 51.2331 408.895 50.5153 408.58 50.0596C408.266 49.6038 407.764 49.376 407.076 49.376C406.456 49.376 406.008 49.6061 405.73 50.0664C405.456 50.5221 405.319 51.265 405.319 52.2949ZM412.839 52.5615C412.839 53.4092 413.015 54.0632 413.366 54.5234C413.717 54.9837 414.229 55.2139 414.904 55.2139C415.437 55.2139 415.863 55.1068 416.182 54.8926C416.506 54.6784 416.724 54.4072 416.838 54.0791L417.918 54.3867C417.476 55.5534 416.471 56.1367 414.904 56.1367C413.81 56.1367 412.976 55.8109 412.402 55.1592C411.832 54.5075 411.547 53.5391 411.547 52.2539C411.547 51.0326 411.832 50.096 412.402 49.4443C412.976 48.7926 413.794 48.4668 414.856 48.4668C415.945 48.4668 416.761 48.7949 417.303 49.4512C417.845 50.1074 418.117 51.0895 418.117 52.3975V52.5615H412.839ZM416.845 51.6182C416.777 50.8389 416.578 50.2715 416.25 49.916C415.922 49.556 415.451 49.376 414.835 49.376C414.238 49.376 413.764 49.5765 413.413 49.9775C413.067 50.374 412.88 50.9209 412.853 51.6182H416.845ZM424.55 49.499V56H423.319V49.499H422.28V48.6035H423.319V47.7695C423.319 47.0951 423.467 46.6097 423.764 46.3135C424.06 46.0173 424.513 45.8691 425.124 45.8691C425.466 45.8691 425.755 45.8965 425.992 45.9512V46.8877C425.773 46.8512 425.591 46.833 425.445 46.833C425.131 46.833 424.903 46.9128 424.762 47.0723C424.62 47.2318 424.55 47.5212 424.55 47.9404V48.6035H425.992V49.499H424.55ZM427.585 52.5615C427.585 53.4092 427.761 54.0632 428.112 54.5234C428.462 54.9837 428.975 55.2139 429.65 55.2139C430.183 55.2139 430.609 55.1068 430.928 54.8926C431.251 54.6784 431.47 54.4072 431.584 54.0791L432.664 54.3867C432.222 55.5534 431.217 56.1367 429.65 56.1367C428.556 56.1367 427.722 55.8109 427.148 55.1592C426.578 54.5075 426.293 53.5391 426.293 52.2539C426.293 51.0326 426.578 50.096 427.148 49.4443C427.722 48.7926 428.54 48.4668 429.602 48.4668C430.691 48.4668 431.507 48.7949 432.049 49.4512C432.591 50.1074 432.862 51.0895 432.862 52.3975V52.5615H427.585ZM431.591 51.6182C431.523 50.8389 431.324 50.2715 430.996 49.916C430.668 49.556 430.196 49.376 429.581 49.376C428.984 49.376 428.51 49.5765 428.159 49.9775C427.813 50.374 427.626 50.9209 427.599 51.6182H431.591ZM435.098 52.5615C435.098 53.4092 435.274 54.0632 435.624 54.5234C435.975 54.9837 436.488 55.2139 437.163 55.2139C437.696 55.2139 438.122 55.1068 438.441 54.8926C438.764 54.6784 438.983 54.4072 439.097 54.0791L440.177 54.3867C439.735 55.5534 438.73 56.1367 437.163 56.1367C436.069 56.1367 435.235 55.8109 434.661 55.1592C434.091 54.5075 433.806 53.5391 433.806 52.2539C433.806 51.0326 434.091 50.096 434.661 49.4443C435.235 48.7926 436.053 48.4668 437.115 48.4668C438.204 48.4668 439.02 48.7949 439.562 49.4512C440.104 50.1074 440.375 51.0895 440.375 52.3975V52.5615H435.098ZM439.104 51.6182C439.036 50.8389 438.837 50.2715 438.509 49.916C438.181 49.556 437.709 49.376 437.094 49.376C436.497 49.376 436.023 49.5765 435.672 49.9775C435.326 50.374 435.139 50.9209 435.112 51.6182H439.104ZM446.432 56C446.423 55.9499 446.412 55.8564 446.398 55.7197C446.389 55.5785 446.38 55.4235 446.371 55.2549C446.366 55.0863 446.364 54.9382 446.364 54.8105H446.337C446.109 55.2845 445.806 55.624 445.427 55.8291C445.054 56.0342 444.589 56.1367 444.033 56.1367C443.099 56.1367 442.411 55.8223 441.969 55.1934C441.531 54.5645 441.312 53.612 441.312 52.3359C441.312 51.0462 441.538 50.0801 441.989 49.4375C442.445 48.7904 443.126 48.4668 444.033 48.4668C444.594 48.4668 445.061 48.5693 445.434 48.7744C445.808 48.9795 446.109 49.3053 446.337 49.752H446.35L446.337 48.9248V45.8555H447.567V54.4756C447.567 54.863 447.569 55.1842 447.574 55.4395C447.583 55.6901 447.594 55.877 447.608 56H446.432ZM442.604 52.2949C442.604 53.3294 442.741 54.07 443.014 54.5166C443.288 54.9632 443.732 55.1865 444.347 55.1865C445.045 55.1865 445.551 54.945 445.865 54.4619C446.179 53.9788 446.337 53.2292 446.337 52.2129C446.337 51.2331 446.179 50.5153 445.865 50.0596C445.551 49.6038 445.049 49.376 444.361 49.376C443.741 49.376 443.292 49.6061 443.014 50.0664C442.741 50.5221 442.604 51.265 442.604 52.2949ZM455.436 52.2676C455.436 53.5573 455.208 54.5257 454.752 55.1729C454.301 55.8154 453.622 56.1367 452.715 56.1367C452.154 56.1367 451.687 56.0365 451.314 55.8359C450.944 55.6309 450.644 55.3027 450.411 54.8516H450.397C450.397 54.9427 450.393 55.0749 450.384 55.248C450.375 55.4212 450.366 55.583 450.356 55.7334C450.347 55.8792 450.338 55.9681 450.329 56H449.14C449.153 55.877 449.162 55.6901 449.167 55.4395C449.176 55.1842 449.181 54.863 449.181 54.4756V45.8555H450.411V48.7471C450.411 48.8929 450.409 49.0547 450.404 49.2324C450.4 49.4056 450.393 49.5924 450.384 49.793H450.411C450.639 49.319 450.94 48.9795 451.314 48.7744C451.692 48.5693 452.159 48.4668 452.715 48.4668C453.649 48.4668 454.335 48.7812 454.772 49.4102C455.215 50.0391 455.436 50.9915 455.436 52.2676ZM454.144 52.3086C454.144 51.2741 454.007 50.5335 453.733 50.0869C453.46 49.6403 453.016 49.417 452.4 49.417C451.708 49.417 451.202 49.654 450.883 50.1279C450.568 50.6019 450.411 51.3538 450.411 52.3838C450.411 53.3545 450.566 54.0723 450.876 54.5371C451.186 54.9974 451.689 55.2275 452.387 55.2275C453.007 55.2275 453.453 54.9997 453.727 54.5439C454.005 54.0837 454.144 53.3385 454.144 52.3086ZM458.58 56.1367C457.838 56.1367 457.279 55.9408 456.906 55.5488C456.532 55.1569 456.345 54.6191 456.345 53.9355C456.345 53.1699 456.596 52.582 457.097 52.1719C457.603 51.7617 458.416 51.543 459.537 51.5156L461.199 51.4883V51.085C461.199 50.4834 461.071 50.0527 460.816 49.793C460.561 49.5332 460.159 49.4033 459.613 49.4033C459.061 49.4033 458.66 49.4967 458.409 49.6836C458.159 49.8704 458.008 50.1689 457.958 50.5791L456.673 50.4629C456.883 49.1322 457.872 48.4668 459.64 48.4668C460.57 48.4668 461.269 48.681 461.739 49.1094C462.208 49.5332 462.443 50.1484 462.443 50.9551V54.1406C462.443 54.5052 462.491 54.7809 462.586 54.9678C462.682 55.1501 462.864 55.2412 463.133 55.2412C463.261 55.2412 463.395 55.2253 463.536 55.1934V55.959C463.381 55.9954 463.224 56.0228 463.065 56.041C462.905 56.0592 462.746 56.0684 462.586 56.0684C462.131 56.0684 461.798 55.9499 461.588 55.7129C461.383 55.4714 461.267 55.0954 461.24 54.585H461.199C460.884 55.1501 460.517 55.5511 460.098 55.7881C459.683 56.0205 459.177 56.1367 458.58 56.1367ZM461.199 52.3496L459.852 52.377C459.278 52.3815 458.84 52.4408 458.539 52.5547C458.239 52.6641 458.008 52.8327 457.849 53.0605C457.689 53.2884 457.61 53.5869 457.61 53.9561C457.61 54.3571 457.717 54.667 457.931 54.8857C458.15 55.1045 458.46 55.2139 458.861 55.2139C459.316 55.2139 459.717 55.1113 460.064 54.9062C460.415 54.7012 460.69 54.4209 460.891 54.0654C461.096 53.7054 461.199 53.3363 461.199 52.958V52.3496ZM467.044 56.1367C466.009 56.1367 465.218 55.8109 464.671 55.1592C464.129 54.5029 463.858 53.5482 463.858 52.2949C463.858 51.0508 464.131 50.1029 464.678 49.4512C465.225 48.7949 466.009 48.4668 467.03 48.4668C467.786 48.4668 468.413 48.6628 468.91 49.0547C469.411 49.4466 469.726 49.9867 469.853 50.6748L468.588 50.7705C468.525 50.3604 468.363 50.0345 468.103 49.793C467.843 49.5514 467.474 49.4307 466.996 49.4307C466.344 49.4307 465.872 49.6471 465.581 50.0801C465.289 50.513 465.143 51.2422 465.143 52.2676C465.143 53.252 465.298 53.9811 465.608 54.4551C465.918 54.929 466.385 55.166 467.009 55.166C467.447 55.166 467.811 55.0475 468.103 54.8105C468.399 54.5736 468.582 54.209 468.65 53.7168L469.894 53.7988C469.83 54.2728 469.671 54.6852 469.416 55.0361C469.165 55.387 468.837 55.6582 468.431 55.8496C468.03 56.041 467.568 56.1367 467.044 56.1367ZM472.157 53.3682V56H470.927V45.8555H472.157V52.1924L475.404 48.6035H476.847L473.846 51.7822L477.004 56H475.561L473.059 52.623L472.157 53.3682ZM485.132 50.7705L483.792 56H482.371L480.299 48.6035H481.516L482.788 53.7236C482.824 53.8695 482.867 54.054 482.917 54.2773C482.968 54.5007 483.015 54.7354 483.061 54.9814C483.111 54.7673 483.161 54.5531 483.211 54.3389C483.266 54.1247 483.321 53.9128 483.375 53.7031L484.722 48.6035H486.041L487.333 53.6826C487.388 53.8968 487.441 54.1133 487.491 54.332C487.545 54.5508 487.598 54.7673 487.648 54.9814C487.698 54.7627 487.748 54.5348 487.798 54.2979C487.853 54.0563 487.903 53.8444 487.949 53.6621L489.261 48.6035H490.464L488.345 56H486.916L485.624 50.7705C485.579 50.5791 485.536 50.3877 485.495 50.1963C485.458 50.0003 485.419 49.8066 485.378 49.6152C485.36 49.7155 485.326 49.8864 485.276 50.1279C485.23 50.3649 485.182 50.5791 485.132 50.7705ZM492.324 49.8682C492.588 49.3851 492.905 49.0319 493.274 48.8086C493.648 48.5807 494.12 48.4668 494.689 48.4668C495.491 48.4668 496.081 48.6764 496.46 49.0957C496.842 49.5104 497.034 50.1689 497.034 51.0713V56H495.797V51.3105C495.797 50.6406 495.678 50.1576 495.441 49.8613C495.209 49.5651 494.819 49.417 494.272 49.417C493.693 49.417 493.229 49.6175 492.878 50.0186C492.531 50.4196 492.358 50.9596 492.358 51.6387V56H491.128V45.8555H492.358V48.4941C492.358 48.6764 492.354 48.8701 492.344 49.0752C492.335 49.2757 492.326 49.4512 492.317 49.6016C492.313 49.7474 492.308 49.8363 492.303 49.8682H492.324ZM499.557 52.5615C499.557 53.4092 499.732 54.0632 500.083 54.5234C500.434 54.9837 500.947 55.2139 501.621 55.2139C502.154 55.2139 502.58 55.1068 502.899 54.8926C503.223 54.6784 503.442 54.4072 503.556 54.0791L504.636 54.3867C504.194 55.5534 503.189 56.1367 501.621 56.1367C500.527 56.1367 499.693 55.8109 499.119 55.1592C498.549 54.5075 498.265 53.5391 498.265 52.2539C498.265 51.0326 498.549 50.096 499.119 49.4443C499.693 48.7926 500.511 48.4668 501.573 48.4668C502.662 48.4668 503.478 48.7949 504.021 49.4512C504.563 50.1074 504.834 51.0895 504.834 52.3975V52.5615H499.557ZM503.562 51.6182C503.494 50.8389 503.296 50.2715 502.968 49.916C502.64 49.556 502.168 49.376 501.553 49.376C500.956 49.376 500.482 49.5765 500.131 49.9775C499.785 50.374 499.598 50.9209 499.57 51.6182H503.562ZM507.384 51.7139V56H506.154V50.1826C506.154 49.7497 506.149 49.4033 506.14 49.1436C506.135 48.8792 506.126 48.6992 506.113 48.6035H507.275C507.284 48.6901 507.291 48.7995 507.295 48.9316C507.304 49.0638 507.311 49.2096 507.316 49.3691C507.32 49.5286 507.325 49.695 507.329 49.8682H507.35C507.632 49.3577 507.958 48.9977 508.327 48.7881C508.701 48.5739 509.164 48.4668 509.715 48.4668C510.526 48.4668 511.119 48.6742 511.492 49.0889C511.871 49.5036 512.06 50.1644 512.06 51.0713V56H510.823V51.3105C510.823 50.6042 510.709 50.112 510.481 49.834C510.253 49.556 509.859 49.417 509.298 49.417C508.706 49.417 508.239 49.6198 507.897 50.0254C507.555 50.431 507.384 50.9938 507.384 51.7139ZM523.511 52.2676C523.511 53.5573 523.283 54.5257 522.827 55.1729C522.376 55.8154 521.697 56.1367 520.79 56.1367C519.651 56.1367 518.885 55.7083 518.493 54.8516H518.459C518.477 54.8835 518.486 55.2708 518.486 56.0137V58.9053H517.256V50.1143C517.256 49.736 517.251 49.4215 517.242 49.1709C517.237 48.9157 517.228 48.7266 517.215 48.6035H518.404C518.409 48.6217 518.416 48.7106 518.425 48.8701C518.438 49.0296 518.45 49.2028 518.459 49.3896C518.468 49.5719 518.473 49.7064 518.473 49.793H518.5C518.719 49.3372 519.008 49.0046 519.368 48.7949C519.728 48.5807 520.202 48.4736 520.79 48.4736C521.701 48.4736 522.383 48.779 522.834 49.3896C523.285 50.0003 523.511 50.9596 523.511 52.2676ZM522.219 52.2949C522.219 51.265 522.08 50.529 521.802 50.0869C521.524 49.6449 521.082 49.4238 520.475 49.4238C519.801 49.4238 519.3 49.6585 518.972 50.1279C518.648 50.5928 518.486 51.347 518.486 52.3906C518.486 53.3613 518.641 54.0768 518.951 54.5371C519.261 54.9974 519.764 55.2275 520.462 55.2275C521.072 55.2275 521.517 55.0042 521.795 54.5576C522.077 54.1064 522.219 53.3522 522.219 52.2949ZM525.712 52.5615C525.712 53.4092 525.887 54.0632 526.238 54.5234C526.589 54.9837 527.102 55.2139 527.776 55.2139C528.31 55.2139 528.736 55.1068 529.055 54.8926C529.378 54.6784 529.597 54.4072 529.711 54.0791L530.791 54.3867C530.349 55.5534 529.344 56.1367 527.776 56.1367C526.683 56.1367 525.849 55.8109 525.275 55.1592C524.705 54.5075 524.42 53.5391 524.42 52.2539C524.42 51.0326 524.705 50.096 525.275 49.4443C525.849 48.7926 526.667 48.4668 527.729 48.4668C528.818 48.4668 529.634 48.7949 530.176 49.4512C530.718 50.1074 530.989 51.0895 530.989 52.3975V52.5615H525.712ZM529.718 51.6182C529.65 50.8389 529.451 50.2715 529.123 49.916C528.795 49.556 528.323 49.376 527.708 49.376C527.111 49.376 526.637 49.5765 526.286 49.9775C525.94 50.374 525.753 50.9209 525.726 51.6182H529.718ZM538.537 52.2949C538.537 53.5892 538.252 54.5531 537.682 55.1865C537.112 55.82 536.285 56.1367 535.201 56.1367C534.121 56.1367 533.305 55.8086 532.753 55.1523C532.202 54.4915 531.926 53.5391 531.926 52.2949C531.926 51.0189 532.202 50.0618 532.753 49.4238C533.309 48.7858 534.139 48.4668 535.242 48.4668C536.372 48.4668 537.204 48.779 537.737 49.4033C538.27 50.0231 538.537 50.987 538.537 52.2949ZM537.245 52.2949C537.245 51.2741 537.092 50.5335 536.787 50.0732C536.486 49.6084 535.978 49.376 535.262 49.376C534.542 49.376 534.02 49.613 533.697 50.0869C533.378 50.5563 533.218 51.2923 533.218 52.2949C533.218 53.2702 533.375 54.0039 533.69 54.4961C534.009 54.9837 534.508 55.2275 535.187 55.2275C535.925 55.2275 536.452 54.9906 536.766 54.5166C537.085 54.0426 537.245 53.3021 537.245 52.2949ZM546.049 52.2676C546.049 53.5573 545.822 54.5257 545.366 55.1729C544.915 55.8154 544.236 56.1367 543.329 56.1367C542.189 56.1367 541.424 55.7083 541.032 54.8516H540.998C541.016 54.8835 541.025 55.2708 541.025 56.0137V58.9053H539.795V50.1143C539.795 49.736 539.79 49.4215 539.781 49.1709C539.776 48.9157 539.767 48.7266 539.754 48.6035H540.943C540.948 48.6217 540.954 48.7106 540.964 48.8701C540.977 49.0296 540.989 49.2028 540.998 49.3896C541.007 49.5719 541.011 49.7064 541.011 49.793H541.039C541.258 49.3372 541.547 49.0046 541.907 48.7949C542.267 48.5807 542.741 48.4736 543.329 48.4736C544.24 48.4736 544.922 48.779 545.373 49.3896C545.824 50.0003 546.049 50.9596 546.049 52.2676ZM544.758 52.2949C544.758 51.265 544.619 50.529 544.341 50.0869C544.063 49.6449 543.62 49.4238 543.014 49.4238C542.34 49.4238 541.839 49.6585 541.51 50.1279C541.187 50.5928 541.025 51.347 541.025 52.3906C541.025 53.3613 541.18 54.0768 541.49 54.5371C541.8 54.9974 542.303 55.2275 543.001 55.2275C543.611 55.2275 544.056 55.0042 544.334 54.5576C544.616 54.1064 544.758 53.3522 544.758 52.2949ZM548.538 45.8555V56H547.308V45.8555H548.538ZM551.088 52.5615C551.088 53.4092 551.264 54.0632 551.615 54.5234C551.965 54.9837 552.478 55.2139 553.153 55.2139C553.686 55.2139 554.112 55.1068 554.431 54.8926C554.754 54.6784 554.973 54.4072 555.087 54.0791L556.167 54.3867C555.725 55.5534 554.72 56.1367 553.153 56.1367C552.059 56.1367 551.225 55.8109 550.651 55.1592C550.081 54.5075 549.796 53.5391 549.796 52.2539C549.796 51.0326 550.081 50.096 550.651 49.4443C551.225 48.7926 552.043 48.4668 553.105 48.4668C554.194 48.4668 555.01 48.7949 555.552 49.4512C556.094 50.1074 556.365 51.0895 556.365 52.3975V52.5615H551.088ZM555.094 51.6182C555.026 50.8389 554.827 50.2715 554.499 49.916C554.171 49.556 553.699 49.376 553.084 49.376C552.487 49.376 552.013 49.5765 551.662 49.9775C551.316 50.374 551.129 50.9209 551.102 51.6182H555.094ZM562.498 45.8555V47.0312H561.267V45.8555H562.498ZM562.498 48.6035V56H561.267V48.6035H562.498ZM565.369 51.7139V56H564.139V50.1826C564.139 49.7497 564.134 49.4033 564.125 49.1436C564.121 48.8792 564.111 48.6992 564.098 48.6035H565.26C565.269 48.6901 565.276 48.7995 565.28 48.9316C565.289 49.0638 565.296 49.2096 565.301 49.3691C565.305 49.5286 565.31 49.695 565.315 49.8682H565.335C565.618 49.3577 565.943 48.9977 566.313 48.7881C566.686 48.5739 567.149 48.4668 567.7 48.4668C568.511 48.4668 569.104 48.6742 569.478 49.0889C569.856 49.5036 570.045 50.1644 570.045 51.0713V56H568.808V51.3105C568.808 50.6042 568.694 50.112 568.466 49.834C568.238 49.556 567.844 49.417 567.283 49.417C566.691 49.417 566.224 49.6198 565.882 50.0254C565.54 50.431 565.369 50.9938 565.369 51.7139ZM574.468 55.9453C574.067 56.0547 573.652 56.1094 573.224 56.1094C572.732 56.1094 572.363 55.9704 572.117 55.6924C571.87 55.4098 571.747 54.9906 571.747 54.4346V49.499H570.893V48.6035H571.795L572.158 46.9492H572.978V48.6035H574.345V49.499H572.978V54.168C572.978 54.5234 573.035 54.7741 573.149 54.9199C573.267 55.0612 573.47 55.1318 573.757 55.1318C573.912 55.1318 574.149 55.0999 574.468 55.0361V55.9453ZM576.184 52.5615C576.184 53.4092 576.36 54.0632 576.711 54.5234C577.061 54.9837 577.574 55.2139 578.249 55.2139C578.782 55.2139 579.208 55.1068 579.527 54.8926C579.851 54.6784 580.069 54.4072 580.183 54.0791L581.263 54.3867C580.821 55.5534 579.816 56.1367 578.249 56.1367C577.155 56.1367 576.321 55.8109 575.747 55.1592C575.177 54.5075 574.892 53.5391 574.892 52.2539C574.892 51.0326 575.177 50.096 575.747 49.4443C576.321 48.7926 577.139 48.4668 578.201 48.4668C579.29 48.4668 580.106 48.7949 580.648 49.4512C581.19 50.1074 581.462 51.0895 581.462 52.3975V52.5615H576.184ZM580.19 51.6182C580.122 50.8389 579.923 50.2715 579.595 49.916C579.267 49.556 578.796 49.376 578.18 49.376C577.583 49.376 577.109 49.5765 576.758 49.9775C576.412 50.374 576.225 50.9209 576.198 51.6182H580.19ZM584.012 52.1445V56H582.781V50.3262C582.781 50.0664 582.777 49.793 582.768 49.5059C582.763 49.2188 582.754 48.918 582.74 48.6035H583.902C583.911 48.8132 583.918 49.0023 583.923 49.1709C583.932 49.3395 583.939 49.4876 583.943 49.6152C583.948 49.7383 583.95 49.8431 583.95 49.9297C583.955 50.0117 583.957 50.0732 583.957 50.1143H583.984C584.121 49.6676 584.271 49.3213 584.435 49.0752C584.595 48.8473 584.777 48.6901 584.982 48.6035C585.187 48.5124 585.44 48.4668 585.741 48.4668C585.91 48.4668 586.076 48.4896 586.24 48.5352V49.6631C586.085 49.6175 585.866 49.5947 585.584 49.5947C585.074 49.5947 584.684 49.8158 584.415 50.2578C584.146 50.6953 584.012 51.3242 584.012 52.1445ZM589.023 56.1367C588.28 56.1367 587.722 55.9408 587.348 55.5488C586.974 55.1569 586.787 54.6191 586.787 53.9355C586.787 53.1699 587.038 52.582 587.539 52.1719C588.045 51.7617 588.859 51.543 589.98 51.5156L591.641 51.4883V51.085C591.641 50.4834 591.513 50.0527 591.258 49.793C591.003 49.5332 590.602 49.4033 590.055 49.4033C589.503 49.4033 589.102 49.4967 588.852 49.6836C588.601 49.8704 588.451 50.1689 588.401 50.5791L587.115 50.4629C587.325 49.1322 588.314 48.4668 590.082 48.4668C591.012 48.4668 591.711 48.681 592.181 49.1094C592.65 49.5332 592.885 50.1484 592.885 50.9551V54.1406C592.885 54.5052 592.933 54.7809 593.029 54.9678C593.124 55.1501 593.306 55.2412 593.575 55.2412C593.703 55.2412 593.837 55.2253 593.979 55.1934V55.959C593.824 55.9954 593.667 56.0228 593.507 56.041C593.348 56.0592 593.188 56.0684 593.029 56.0684C592.573 56.0684 592.24 55.9499 592.03 55.7129C591.825 55.4714 591.709 55.0954 591.682 54.585H591.641C591.326 55.1501 590.959 55.5511 590.54 55.7881C590.126 56.0205 589.62 56.1367 589.023 56.1367ZM591.641 52.3496L590.294 52.377C589.72 52.3815 589.282 52.4408 588.982 52.5547C588.681 52.6641 588.451 52.8327 588.291 53.0605C588.132 53.2884 588.052 53.5869 588.052 53.9561C588.052 54.3571 588.159 54.667 588.373 54.8857C588.592 55.1045 588.902 55.2139 589.303 55.2139C589.759 55.2139 590.16 55.1113 590.506 54.9062C590.857 54.7012 591.133 54.4209 591.333 54.0654C591.538 53.7054 591.641 53.3363 591.641 52.958V52.3496ZM597.486 56.1367C596.451 56.1367 595.661 55.8109 595.114 55.1592C594.571 54.5029 594.3 53.5482 594.3 52.2949C594.3 51.0508 594.574 50.1029 595.121 49.4512C595.667 48.7949 596.451 48.4668 597.472 48.4668C598.229 48.4668 598.855 48.6628 599.352 49.0547C599.853 49.4466 600.168 49.9867 600.295 50.6748L599.031 50.7705C598.967 50.3604 598.805 50.0345 598.545 49.793C598.286 49.5514 597.917 49.4307 597.438 49.4307C596.786 49.4307 596.315 49.6471 596.023 50.0801C595.731 50.513 595.585 51.2422 595.585 52.2676C595.585 53.252 595.74 53.9811 596.05 54.4551C596.36 54.929 596.827 55.166 597.452 55.166C597.889 55.166 598.254 55.0475 598.545 54.8105C598.842 54.5736 599.024 54.209 599.092 53.7168L600.336 53.7988C600.273 54.2728 600.113 54.6852 599.858 55.0361C599.607 55.387 599.279 55.6582 598.874 55.8496C598.472 56.041 598.01 56.1367 597.486 56.1367ZM604.213 55.9453C603.812 56.0547 603.397 56.1094 602.969 56.1094C602.476 56.1094 602.107 55.9704 601.861 55.6924C601.615 55.4098 601.492 54.9906 601.492 54.4346V49.499H600.637V48.6035H601.54L601.902 46.9492H602.722V48.6035H604.09V49.499H602.722V54.168C602.722 54.5234 602.779 54.7741 602.893 54.9199C603.012 55.0612 603.215 55.1318 603.502 55.1318C603.657 55.1318 603.894 55.0999 604.213 55.0361V55.9453ZM612.471 50.7705L611.131 56H609.709L607.638 48.6035H608.855L610.126 53.7236C610.163 53.8695 610.206 54.054 610.256 54.2773C610.306 54.5007 610.354 54.7354 610.4 54.9814C610.45 54.7673 610.5 54.5531 610.55 54.3389C610.605 54.1247 610.659 53.9128 610.714 53.7031L612.061 48.6035H613.38L614.672 53.6826C614.727 53.8968 614.779 54.1133 614.829 54.332C614.884 54.5508 614.937 54.7673 614.987 54.9814C615.037 54.7627 615.087 54.5348 615.137 54.2979C615.192 54.0563 615.242 53.8444 615.287 53.6621L616.6 48.6035H617.803L615.684 56H614.255L612.963 50.7705C612.918 50.5791 612.874 50.3877 612.833 50.1963C612.797 50.0003 612.758 49.8066 612.717 49.6152C612.699 49.7155 612.665 49.8864 612.615 50.1279C612.569 50.3649 612.521 50.5791 612.471 50.7705ZM619.663 45.8555V47.0312H618.432V45.8555H619.663ZM619.663 48.6035V56H618.432V48.6035H619.663ZM624.12 55.9453C623.719 56.0547 623.304 56.1094 622.876 56.1094C622.384 56.1094 622.015 55.9704 621.768 55.6924C621.522 55.4098 621.399 54.9906 621.399 54.4346V49.499H620.545V48.6035H621.447L621.809 46.9492H622.63V48.6035H623.997V49.499H622.63V54.168C622.63 54.5234 622.687 54.7741 622.801 54.9199C622.919 55.0612 623.122 55.1318 623.409 55.1318C623.564 55.1318 623.801 55.0999 624.12 55.0361V55.9453ZM626.116 49.8682C626.381 49.3851 626.697 49.0319 627.067 48.8086C627.44 48.5807 627.912 48.4668 628.482 48.4668C629.284 48.4668 629.874 48.6764 630.252 49.0957C630.635 49.5104 630.826 50.1689 630.826 51.0713V56H629.589V51.3105C629.589 50.6406 629.471 50.1576 629.234 49.8613C629.001 49.5651 628.612 49.417 628.065 49.417C627.486 49.417 627.021 49.6175 626.67 50.0186C626.324 50.4196 626.151 50.9596 626.151 51.6387V56H624.92V45.8555H626.151V48.4941C626.151 48.6764 626.146 48.8701 626.137 49.0752C626.128 49.2757 626.119 49.4512 626.11 49.6016C626.105 49.7474 626.1 49.8363 626.096 49.8682H626.116ZM638.859 56.1367C637.825 56.1367 637.034 55.8109 636.487 55.1592C635.945 54.5029 635.674 53.5482 635.674 52.2949C635.674 51.0508 635.947 50.1029 636.494 49.4512C637.041 48.7949 637.825 48.4668 638.845 48.4668C639.602 48.4668 640.229 48.6628 640.725 49.0547C641.227 49.4466 641.541 49.9867 641.669 50.6748L640.404 50.7705C640.34 50.3604 640.178 50.0345 639.919 49.793C639.659 49.5514 639.29 49.4307 638.811 49.4307C638.16 49.4307 637.688 49.6471 637.396 50.0801C637.105 50.513 636.959 51.2422 636.959 52.2676C636.959 53.252 637.114 53.9811 637.424 54.4551C637.733 54.929 638.201 55.166 638.825 55.166C639.262 55.166 639.627 55.0475 639.919 54.8105C640.215 54.5736 640.397 54.209 640.466 53.7168L641.71 53.7988C641.646 54.2728 641.486 54.6852 641.231 55.0361C640.981 55.387 640.652 55.6582 640.247 55.8496C639.846 56.041 639.383 56.1367 638.859 56.1367ZM647.418 54.7354C647.135 55.2458 646.807 55.6081 646.434 55.8223C646.064 56.0319 645.604 56.1367 645.053 56.1367C644.242 56.1367 643.647 55.9362 643.269 55.5352C642.895 55.1296 642.708 54.4619 642.708 53.5322V48.6035H643.945V53.293C643.945 54.0312 644.059 54.5326 644.287 54.7969C644.52 55.0566 644.914 55.1865 645.47 55.1865C646.062 55.1865 646.529 54.9837 646.871 54.5781C647.213 54.1725 647.384 53.6097 647.384 52.8896V48.6035H648.614V54.4209C648.614 54.8493 648.617 55.1956 648.621 55.46C648.63 55.7243 648.642 55.9043 648.655 56H647.493C647.489 55.9772 647.479 55.8701 647.466 55.6787C647.457 55.4873 647.448 55.1729 647.438 54.7354H647.418ZM655.806 53.9561C655.806 54.6533 655.542 55.1911 655.013 55.5693C654.489 55.9476 653.753 56.1367 652.805 56.1367C651.884 56.1367 651.173 55.9863 650.672 55.6855C650.175 55.3802 649.852 54.9062 649.701 54.2637L650.788 54.0518C650.893 54.4482 651.11 54.7399 651.438 54.9268C651.766 55.109 652.222 55.2002 652.805 55.2002C653.429 55.2002 653.885 55.1045 654.172 54.9131C654.464 54.7217 654.61 54.4346 654.61 54.0518C654.61 53.7601 654.509 53.5231 654.309 53.3408C654.108 53.1585 653.785 53.0081 653.338 52.8896C652.809 52.7484 652.388 52.6322 652.073 52.541C651.764 52.4499 651.524 52.3724 651.356 52.3086C651.187 52.2402 651.053 52.1764 650.952 52.1172C650.652 51.944 650.417 51.7321 650.248 51.4814C650.08 51.2308 649.995 50.9232 649.995 50.5586C649.995 49.8841 650.235 49.3714 650.713 49.0205C651.196 48.665 651.898 48.4873 652.819 48.4873C653.634 48.4873 654.281 48.6309 654.76 48.918C655.243 49.2051 655.548 49.6654 655.676 50.2988L654.569 50.4355C654.5 50.1074 654.316 49.8568 654.015 49.6836C653.719 49.5059 653.32 49.417 652.819 49.417C652.263 49.417 651.852 49.5013 651.588 49.6699C651.324 49.8385 651.192 50.0938 651.192 50.4355C651.192 50.6862 651.267 50.8936 651.417 51.0576C651.568 51.2171 651.855 51.3493 652.279 51.4541C652.848 51.5908 653.391 51.7412 653.906 51.9053C654.42 52.0648 654.79 52.2243 655.013 52.3838C655.273 52.5706 655.469 52.7917 655.601 53.0469C655.738 53.2975 655.806 53.6006 655.806 53.9561ZM659.819 55.9453C659.418 56.0547 659.003 56.1094 658.575 56.1094C658.083 56.1094 657.713 55.9704 657.467 55.6924C657.221 55.4098 657.098 54.9906 657.098 54.4346V49.499H656.244V48.6035H657.146L657.508 46.9492H658.329V48.6035H659.696V49.499H658.329V54.168C658.329 54.5234 658.386 54.7741 658.5 54.9199C658.618 55.0612 658.821 55.1318 659.108 55.1318C659.263 55.1318 659.5 55.0999 659.819 55.0361V55.9453ZM666.846 52.2949C666.846 53.5892 666.562 54.5531 665.992 55.1865C665.422 55.82 664.595 56.1367 663.511 56.1367C662.43 56.1367 661.615 55.8086 661.063 55.1523C660.512 54.4915 660.236 53.5391 660.236 52.2949C660.236 51.0189 660.512 50.0618 661.063 49.4238C661.619 48.7858 662.449 48.4668 663.552 48.4668C664.682 48.4668 665.513 48.779 666.047 49.4033C666.58 50.0231 666.846 50.987 666.846 52.2949ZM665.555 52.2949C665.555 51.2741 665.402 50.5335 665.096 50.0732C664.796 49.6084 664.288 49.376 663.572 49.376C662.852 49.376 662.33 49.613 662.007 50.0869C661.688 50.5563 661.528 51.2923 661.528 52.2949C661.528 53.2702 661.685 54.0039 662 54.4961C662.319 54.9837 662.818 55.2275 663.497 55.2275C664.235 55.2275 664.762 54.9906 665.076 54.5166C665.395 54.0426 665.555 53.3021 665.555 52.2949ZM669.356 51.7139V56H668.132V50.1826C668.132 49.7497 668.127 49.4033 668.118 49.1436C668.114 48.8792 668.105 48.6992 668.091 48.6035H669.253C669.262 48.7038 669.271 48.8268 669.28 48.9727C669.29 49.1185 669.296 49.2712 669.301 49.4307C669.305 49.5856 669.308 49.7314 669.308 49.8682H669.328C669.593 49.3441 669.896 48.9795 670.237 48.7744C670.579 48.5693 670.996 48.4668 671.488 48.4668C672.049 48.4668 672.491 48.5785 672.815 48.8018C673.143 49.0251 673.371 49.3805 673.498 49.8682H673.519C673.774 49.3714 674.082 49.0137 674.442 48.7949C674.806 48.5762 675.246 48.4668 675.761 48.4668C676.508 48.4668 677.051 48.6696 677.388 49.0752C677.73 49.4808 677.901 50.1462 677.901 51.0713V56H676.684V51.3105C676.684 50.5951 676.586 50.1006 676.39 49.8271C676.194 49.5537 675.841 49.417 675.33 49.417C674.792 49.417 674.373 49.6175 674.072 50.0186C673.776 50.415 673.628 50.9801 673.628 51.7139V56H672.411V51.3105C672.411 50.5951 672.313 50.1006 672.117 49.8271C671.921 49.5537 671.568 49.417 671.058 49.417C670.534 49.417 670.119 49.6175 669.814 50.0186C669.508 50.4196 669.356 50.9847 669.356 51.7139ZM689.358 52.2949C689.358 53.5892 689.073 54.5531 688.504 55.1865C687.934 55.82 687.107 56.1367 686.022 56.1367C684.942 56.1367 684.126 55.8086 683.575 55.1523C683.023 54.4915 682.748 53.5391 682.748 52.2949C682.748 51.0189 683.023 50.0618 683.575 49.4238C684.131 48.7858 684.96 48.4668 686.063 48.4668C687.193 48.4668 688.025 48.779 688.558 49.4033C689.091 50.0231 689.358 50.987 689.358 52.2949ZM688.066 52.2949C688.066 51.2741 687.913 50.5335 687.608 50.0732C687.307 49.6084 686.799 49.376 686.084 49.376C685.364 49.376 684.842 49.613 684.518 50.0869C684.199 50.5563 684.04 51.2923 684.04 52.2949C684.04 53.2702 684.197 54.0039 684.511 54.4961C684.83 54.9837 685.329 55.2275 686.008 55.2275C686.747 55.2275 687.273 54.9906 687.588 54.5166C687.907 54.0426 688.066 53.3021 688.066 52.2949ZM696.871 52.2676C696.871 53.5573 696.643 54.5257 696.187 55.1729C695.736 55.8154 695.057 56.1367 694.15 56.1367C693.59 56.1367 693.123 56.0365 692.749 55.8359C692.38 55.6309 692.079 55.3027 691.847 54.8516H691.833C691.833 54.9427 691.828 55.0749 691.819 55.248C691.81 55.4212 691.801 55.583 691.792 55.7334C691.783 55.8792 691.774 55.9681 691.765 56H690.575C690.589 55.877 690.598 55.6901 690.602 55.4395C690.612 55.1842 690.616 54.863 690.616 54.4756V45.8555H691.847V48.7471C691.847 48.8929 691.844 49.0547 691.84 49.2324C691.835 49.4056 691.828 49.5924 691.819 49.793H691.847C692.074 49.319 692.375 48.9795 692.749 48.7744C693.127 48.5693 693.594 48.4668 694.15 48.4668C695.085 48.4668 695.77 48.7812 696.208 49.4102C696.65 50.0391 696.871 50.9915 696.871 52.2676ZM695.579 52.3086C695.579 51.2741 695.442 50.5335 695.169 50.0869C694.895 49.6403 694.451 49.417 693.836 49.417C693.143 49.417 692.637 49.654 692.318 50.1279C692.004 50.6019 691.847 51.3538 691.847 52.3838C691.847 53.3545 692.002 54.0723 692.311 54.5371C692.621 54.9974 693.125 55.2275 693.822 55.2275C694.442 55.2275 694.889 54.9997 695.162 54.5439C695.44 54.0837 695.579 53.3385 695.579 52.3086ZM699.353 45.8555V47.0312H698.122V45.8555H699.353ZM697.712 58.9053C697.357 58.9053 697.067 58.8848 696.844 58.8438V57.8936C696.917 57.9027 696.988 57.9118 697.056 57.9209C697.124 57.93 697.195 57.9346 697.268 57.9346C697.582 57.9346 697.803 57.8525 697.931 57.6885C698.059 57.5244 698.122 57.2054 698.122 56.7314V48.6035H699.353V56.916C699.353 57.6133 699.216 58.1191 698.943 58.4336C698.669 58.748 698.259 58.9053 697.712 58.9053ZM701.91 52.5615C701.91 53.4092 702.085 54.0632 702.436 54.5234C702.787 54.9837 703.3 55.2139 703.974 55.2139C704.507 55.2139 704.933 55.1068 705.252 54.8926C705.576 54.6784 705.795 54.4072 705.909 54.0791L706.989 54.3867C706.547 55.5534 705.542 56.1367 703.974 56.1367C702.88 56.1367 702.046 55.8109 701.472 55.1592C700.903 54.5075 700.618 53.5391 700.618 52.2539C700.618 51.0326 700.903 50.096 701.472 49.4443C702.046 48.7926 702.864 48.4668 703.926 48.4668C705.015 48.4668 705.831 48.7949 706.374 49.4512C706.916 50.1074 707.187 51.0895 707.187 52.3975V52.5615H701.91ZM705.916 51.6182C705.847 50.8389 705.649 50.2715 705.321 49.916C704.993 49.556 704.521 49.376 703.906 49.376C703.309 49.376 702.835 49.5765 702.484 49.9775C702.138 50.374 701.951 50.9209 701.923 51.6182H705.916ZM711.316 56.1367C710.282 56.1367 709.491 55.8109 708.944 55.1592C708.402 54.5029 708.131 53.5482 708.131 52.2949C708.131 51.0508 708.404 50.1029 708.951 49.4512C709.498 48.7949 710.282 48.4668 711.303 48.4668C712.059 48.4668 712.686 48.6628 713.182 49.0547C713.684 49.4466 713.998 49.9867 714.126 50.6748L712.861 50.7705C712.797 50.3604 712.636 50.0345 712.376 49.793C712.116 49.5514 711.747 49.4307 711.268 49.4307C710.617 49.4307 710.145 49.6471 709.853 50.0801C709.562 50.513 709.416 51.2422 709.416 52.2676C709.416 53.252 709.571 53.9811 709.881 54.4551C710.191 54.929 710.658 55.166 711.282 55.166C711.72 55.166 712.084 55.0475 712.376 54.8105C712.672 54.5736 712.854 54.209 712.923 53.7168L714.167 53.7988C714.103 54.2728 713.944 54.6852 713.688 55.0361C713.438 55.387 713.11 55.6582 712.704 55.8496C712.303 56.041 711.84 56.1367 711.316 56.1367ZM718.043 55.9453C717.642 56.0547 717.227 56.1094 716.799 56.1094C716.307 56.1094 715.938 55.9704 715.691 55.6924C715.445 55.4098 715.322 54.9906 715.322 54.4346V49.499H714.468V48.6035H715.37L715.732 46.9492H716.553V48.6035H717.92V49.499H716.553V54.168C716.553 54.5234 716.61 54.7741 716.724 54.9199C716.842 55.0612 717.045 55.1318 717.332 55.1318C717.487 55.1318 717.724 55.0999 718.043 55.0361V55.9453ZM724.367 53.9561C724.367 54.6533 724.102 55.1911 723.574 55.5693C723.05 55.9476 722.314 56.1367 721.366 56.1367C720.445 56.1367 719.734 55.9863 719.233 55.6855C718.736 55.3802 718.412 54.9062 718.262 54.2637L719.349 54.0518C719.454 54.4482 719.67 54.7399 719.998 54.9268C720.327 55.109 720.782 55.2002 721.366 55.2002C721.99 55.2002 722.446 55.1045 722.733 54.9131C723.024 54.7217 723.17 54.4346 723.17 54.0518C723.17 53.7601 723.07 53.5231 722.87 53.3408C722.669 53.1585 722.345 53.0081 721.899 52.8896C721.37 52.7484 720.949 52.6322 720.634 52.541C720.324 52.4499 720.085 52.3724 719.916 52.3086C719.748 52.2402 719.613 52.1764 719.513 52.1172C719.212 51.944 718.978 51.7321 718.809 51.4814C718.64 51.2308 718.556 50.9232 718.556 50.5586C718.556 49.8841 718.795 49.3714 719.274 49.0205C719.757 48.665 720.459 48.4873 721.379 48.4873C722.195 48.4873 722.842 48.6309 723.321 48.918C723.804 49.2051 724.109 49.6654 724.237 50.2988L723.129 50.4355C723.061 50.1074 722.876 49.8568 722.576 49.6836C722.279 49.5059 721.881 49.417 721.379 49.417C720.823 49.417 720.413 49.5013 720.149 49.6699C719.884 49.8385 719.752 50.0938 719.752 50.4355C719.752 50.6862 719.828 50.8936 719.978 51.0576C720.128 51.2171 720.415 51.3493 720.839 51.4541C721.409 51.5908 721.951 51.7412 722.466 51.9053C722.981 52.0648 723.35 52.2243 723.574 52.3838C723.833 52.5706 724.029 52.7917 724.161 53.0469C724.298 53.2975 724.367 53.6006 724.367 53.9561ZM727.224 55.6514C727.224 56.1344 727.181 56.5378 727.094 56.8613C727.008 57.1849 726.873 57.4948 726.691 57.791H725.85C726.064 57.4811 726.224 57.1758 726.329 56.875C726.438 56.5788 726.493 56.2871 726.493 56H725.891V54.5029H727.224V55.6514ZM738.32 53.9561C738.32 54.6533 738.055 55.1911 737.527 55.5693C737.002 55.9476 736.266 56.1367 735.319 56.1367C734.398 56.1367 733.687 55.9863 733.186 55.6855C732.689 55.3802 732.365 54.9062 732.215 54.2637L733.302 54.0518C733.407 54.4482 733.623 54.7399 733.951 54.9268C734.279 55.109 734.735 55.2002 735.319 55.2002C735.943 55.2002 736.399 55.1045 736.686 54.9131C736.977 54.7217 737.123 54.4346 737.123 54.0518C737.123 53.7601 737.023 53.5231 736.822 53.3408C736.622 53.1585 736.298 53.0081 735.852 52.8896C735.323 52.7484 734.902 52.6322 734.587 52.541C734.277 52.4499 734.038 52.3724 733.869 52.3086C733.701 52.2402 733.566 52.1764 733.466 52.1172C733.165 51.944 732.931 51.7321 732.762 51.4814C732.593 51.2308 732.509 50.9232 732.509 50.5586C732.509 49.8841 732.748 49.3714 733.227 49.0205C733.71 48.665 734.412 48.4873 735.332 48.4873C736.148 48.4873 736.795 48.6309 737.274 48.918C737.757 49.2051 738.062 49.6654 738.19 50.2988L737.082 50.4355C737.014 50.1074 736.829 49.8568 736.529 49.6836C736.232 49.5059 735.834 49.417 735.332 49.417C734.776 49.417 734.366 49.5013 734.102 49.6699C733.837 49.8385 733.705 50.0938 733.705 50.4355C733.705 50.6862 733.78 50.8936 733.931 51.0576C734.081 51.2171 734.368 51.3493 734.792 51.4541C735.362 51.5908 735.904 51.7412 736.419 51.9053C736.934 52.0648 737.303 52.2243 737.527 52.3838C737.786 52.5706 737.982 52.7917 738.114 53.0469C738.251 53.2975 738.32 53.6006 738.32 53.9561ZM744.165 54.7354C743.882 55.2458 743.554 55.6081 743.18 55.8223C742.811 56.0319 742.351 56.1367 741.799 56.1367C740.988 56.1367 740.393 55.9362 740.015 55.5352C739.641 55.1296 739.455 54.4619 739.455 53.5322V48.6035H740.692V53.293C740.692 54.0312 740.806 54.5326 741.034 54.7969C741.266 55.0566 741.66 55.1865 742.216 55.1865C742.809 55.1865 743.276 54.9837 743.618 54.5781C743.959 54.1725 744.13 53.6097 744.13 52.8896V48.6035H745.361V54.4209C745.361 54.8493 745.363 55.1956 745.368 55.46C745.377 55.7243 745.388 55.9043 745.402 56H744.24C744.235 55.9772 744.226 55.8701 744.212 55.6787C744.203 55.4873 744.194 55.1729 744.185 54.7354H744.165ZM749.839 56.1367C748.804 56.1367 748.013 55.8109 747.467 55.1592C746.924 54.5029 746.653 53.5482 746.653 52.2949C746.653 51.0508 746.927 50.1029 747.473 49.4512C748.02 48.7949 748.804 48.4668 749.825 48.4668C750.581 48.4668 751.208 48.6628 751.705 49.0547C752.206 49.4466 752.521 49.9867 752.648 50.6748L751.384 50.7705C751.32 50.3604 751.158 50.0345 750.898 49.793C750.638 49.5514 750.269 49.4307 749.791 49.4307C749.139 49.4307 748.667 49.6471 748.376 50.0801C748.084 50.513 747.938 51.2422 747.938 52.2676C747.938 53.252 748.093 53.9811 748.403 54.4551C748.713 54.929 749.18 55.166 749.804 55.166C750.242 55.166 750.607 55.0475 750.898 54.8105C751.194 54.5736 751.377 54.209 751.445 53.7168L752.689 53.7988C752.625 54.2728 752.466 54.6852 752.211 55.0361C751.96 55.387 751.632 55.6582 751.226 55.8496C750.825 56.041 750.363 56.1367 749.839 56.1367ZM754.945 49.8682C755.21 49.3851 755.526 49.0319 755.896 48.8086C756.269 48.5807 756.741 48.4668 757.311 48.4668C758.113 48.4668 758.703 48.6764 759.081 49.0957C759.464 49.5104 759.655 50.1689 759.655 51.0713V56H758.418V51.3105C758.418 50.6406 758.3 50.1576 758.063 49.8613C757.83 49.5651 757.44 49.417 756.894 49.417C756.315 49.417 755.85 49.6175 755.499 50.0186C755.153 50.4196 754.98 50.9596 754.98 51.6387V56H753.749V45.8555H754.98V48.4941C754.98 48.6764 754.975 48.8701 754.966 49.0752C754.957 49.2757 754.948 49.4512 754.939 49.6016C754.934 49.7474 754.929 49.8363 754.925 49.8682H754.945ZM766.738 56.1367C765.995 56.1367 765.437 55.9408 765.063 55.5488C764.689 55.1569 764.503 54.6191 764.503 53.9355C764.503 53.1699 764.753 52.582 765.255 52.1719C765.76 51.7617 766.574 51.543 767.695 51.5156L769.356 51.4883V51.085C769.356 50.4834 769.228 50.0527 768.973 49.793C768.718 49.5332 768.317 49.4033 767.77 49.4033C767.219 49.4033 766.818 49.4967 766.567 49.6836C766.316 49.8704 766.166 50.1689 766.116 50.5791L764.831 50.4629C765.04 49.1322 766.029 48.4668 767.797 48.4668C768.727 48.4668 769.427 48.681 769.896 49.1094C770.366 49.5332 770.6 50.1484 770.6 50.9551V54.1406C770.6 54.5052 770.648 54.7809 770.744 54.9678C770.839 55.1501 771.022 55.2412 771.291 55.2412C771.418 55.2412 771.553 55.2253 771.694 55.1934V55.959C771.539 55.9954 771.382 56.0228 771.222 56.041C771.063 56.0592 770.903 56.0684 770.744 56.0684C770.288 56.0684 769.955 55.9499 769.746 55.7129C769.541 55.4714 769.424 55.0954 769.397 54.585H769.356C769.042 55.1501 768.675 55.5511 768.255 55.7881C767.841 56.0205 767.335 56.1367 766.738 56.1367ZM769.356 52.3496L768.009 52.377C767.435 52.3815 766.998 52.4408 766.697 52.5547C766.396 52.6641 766.166 52.8327 766.006 53.0605C765.847 53.2884 765.767 53.5869 765.767 53.9561C765.767 54.3571 765.874 54.667 766.089 54.8857C766.307 55.1045 766.617 55.2139 767.018 55.2139C767.474 55.2139 767.875 55.1113 768.221 54.9062C768.572 54.7012 768.848 54.4209 769.048 54.0654C769.254 53.7054 769.356 53.3363 769.356 52.958V52.3496ZM777.915 53.9561C777.915 54.6533 777.651 55.1911 777.122 55.5693C776.598 55.9476 775.862 56.1367 774.914 56.1367C773.993 56.1367 773.282 55.9863 772.781 55.6855C772.284 55.3802 771.961 54.9062 771.81 54.2637L772.897 54.0518C773.002 54.4482 773.219 54.7399 773.547 54.9268C773.875 55.109 774.331 55.2002 774.914 55.2002C775.538 55.2002 775.994 55.1045 776.281 54.9131C776.573 54.7217 776.719 54.4346 776.719 54.0518C776.719 53.7601 776.618 53.5231 776.418 53.3408C776.217 53.1585 775.894 53.0081 775.447 52.8896C774.918 52.7484 774.497 52.6322 774.182 52.541C773.873 52.4499 773.633 52.3724 773.465 52.3086C773.296 52.2402 773.162 52.1764 773.061 52.1172C772.761 51.944 772.526 51.7321 772.357 51.4814C772.189 51.2308 772.104 50.9232 772.104 50.5586C772.104 49.8841 772.344 49.3714 772.822 49.0205C773.305 48.665 774.007 48.4873 774.928 48.4873C775.743 48.4873 776.391 48.6309 776.869 48.918C777.352 49.2051 777.657 49.6654 777.785 50.2988L776.678 50.4355C776.609 50.1074 776.425 49.8568 776.124 49.6836C775.828 49.5059 775.429 49.417 774.928 49.417C774.372 49.417 773.961 49.5013 773.697 49.6699C773.433 49.8385 773.301 50.0938 773.301 50.4355C773.301 50.6862 773.376 50.8936 773.526 51.0576C773.677 51.2171 773.964 51.3493 774.388 51.4541C774.957 51.5908 775.5 51.7412 776.015 51.9053C776.53 52.0648 776.899 52.2243 777.122 52.3838C777.382 52.5706 777.578 52.7917 777.71 53.0469C777.847 53.2975 777.915 53.6006 777.915 53.9561ZM788.251 53.9561C788.251 54.6533 787.987 55.1911 787.458 55.5693C786.934 55.9476 786.198 56.1367 785.25 56.1367C784.33 56.1367 783.619 55.9863 783.118 55.6855C782.621 55.3802 782.297 54.9062 782.147 54.2637L783.234 54.0518C783.339 54.4482 783.555 54.7399 783.883 54.9268C784.211 55.109 784.667 55.2002 785.25 55.2002C785.875 55.2002 786.331 55.1045 786.618 54.9131C786.909 54.7217 787.055 54.4346 787.055 54.0518C787.055 53.7601 786.955 53.5231 786.754 53.3408C786.554 53.1585 786.23 53.0081 785.784 52.8896C785.255 52.7484 784.833 52.6322 784.519 52.541C784.209 52.4499 783.97 52.3724 783.801 52.3086C783.633 52.2402 783.498 52.1764 783.398 52.1172C783.097 51.944 782.862 51.7321 782.694 51.4814C782.525 51.2308 782.441 50.9232 782.441 50.5586C782.441 49.8841 782.68 49.3714 783.159 49.0205C783.642 48.665 784.344 48.4873 785.264 48.4873C786.08 48.4873 786.727 48.6309 787.206 48.918C787.689 49.2051 787.994 49.6654 788.122 50.2988L787.014 50.4355C786.946 50.1074 786.761 49.8568 786.46 49.6836C786.164 49.5059 785.765 49.417 785.264 49.417C784.708 49.417 784.298 49.5013 784.034 49.6699C783.769 49.8385 783.637 50.0938 783.637 50.4355C783.637 50.6862 783.712 50.8936 783.863 51.0576C784.013 51.2171 784.3 51.3493 784.724 51.4541C785.294 51.5908 785.836 51.7412 786.351 51.9053C786.866 52.0648 787.235 52.2243 787.458 52.3838C787.718 52.5706 787.914 52.7917 788.046 53.0469C788.183 53.2975 788.251 53.6006 788.251 53.9561ZM795.676 52.2949C795.676 53.5892 795.391 54.5531 794.821 55.1865C794.251 55.82 793.424 56.1367 792.34 56.1367C791.26 56.1367 790.444 55.8086 789.892 55.1523C789.341 54.4915 789.065 53.5391 789.065 52.2949C789.065 51.0189 789.341 50.0618 789.892 49.4238C790.448 48.7858 791.278 48.4668 792.381 48.4668C793.511 48.4668 794.343 48.779 794.876 49.4033C795.409 50.0231 795.676 50.987 795.676 52.2949ZM794.384 52.2949C794.384 51.2741 794.231 50.5335 793.926 50.0732C793.625 49.6084 793.117 49.376 792.401 49.376C791.681 49.376 791.159 49.613 790.836 50.0869C790.517 50.5563 790.357 51.2923 790.357 52.2949C790.357 53.2702 790.514 54.0039 790.829 54.4961C791.148 54.9837 791.647 55.2275 792.326 55.2275C793.064 55.2275 793.591 54.9906 793.905 54.5166C794.224 54.0426 794.384 53.3021 794.384 52.2949ZM801.609 54.7354C801.327 55.2458 800.999 55.6081 800.625 55.8223C800.256 56.0319 799.796 56.1367 799.244 56.1367C798.433 56.1367 797.838 55.9362 797.46 55.5352C797.086 55.1296 796.899 54.4619 796.899 53.5322V48.6035H798.137V53.293C798.137 54.0312 798.251 54.5326 798.479 54.7969C798.711 55.0566 799.105 55.1865 799.661 55.1865C800.254 55.1865 800.721 54.9837 801.062 54.5781C801.404 54.1725 801.575 53.6097 801.575 52.8896V48.6035H802.806V54.4209C802.806 54.8493 802.808 55.1956 802.812 55.46C802.822 55.7243 802.833 55.9043 802.847 56H801.685C801.68 55.9772 801.671 55.8701 801.657 55.6787C801.648 55.4873 801.639 55.1729 801.63 54.7354H801.609ZM805.704 51.7139V56H804.474V50.1826C804.474 49.7497 804.469 49.4033 804.46 49.1436C804.456 48.8792 804.447 48.6992 804.433 48.6035H805.595C805.604 48.6901 805.611 48.7995 805.615 48.9316C805.625 49.0638 805.631 49.2096 805.636 49.3691C805.641 49.5286 805.645 49.695 805.65 49.8682H805.67C805.953 49.3577 806.279 48.9977 806.648 48.7881C807.021 48.5739 807.484 48.4668 808.035 48.4668C808.847 48.4668 809.439 48.6742 809.813 49.0889C810.191 49.5036 810.38 50.1644 810.38 51.0713V56H809.143V51.3105C809.143 50.6042 809.029 50.112 808.801 49.834C808.573 49.556 808.179 49.417 807.618 49.417C807.026 49.417 806.559 49.6198 806.217 50.0254C805.875 50.431 805.704 50.9938 805.704 51.7139ZM816.724 56C816.715 55.9499 816.704 55.8564 816.69 55.7197C816.681 55.5785 816.672 55.4235 816.663 55.2549C816.658 55.0863 816.656 54.9382 816.656 54.8105H816.628C816.401 55.2845 816.098 55.624 815.719 55.8291C815.346 56.0342 814.881 56.1367 814.325 56.1367C813.391 56.1367 812.702 55.8223 812.26 55.1934C811.823 54.5645 811.604 53.612 811.604 52.3359C811.604 51.0462 811.83 50.0801 812.281 49.4375C812.737 48.7904 813.418 48.4668 814.325 48.4668C814.885 48.4668 815.352 48.5693 815.726 48.7744C816.1 48.9795 816.401 49.3053 816.628 49.752H816.642L816.628 48.9248V45.8555H817.859V54.4756C817.859 54.863 817.861 55.1842 817.866 55.4395C817.875 55.6901 817.886 55.877 817.9 56H816.724ZM812.896 52.2949C812.896 53.3294 813.033 54.07 813.306 54.5166C813.58 54.9632 814.024 55.1865 814.639 55.1865C815.336 55.1865 815.842 54.945 816.157 54.4619C816.471 53.9788 816.628 53.2292 816.628 52.2129C816.628 51.2331 816.471 50.5153 816.157 50.0596C815.842 49.6038 815.341 49.376 814.653 49.376C814.033 49.376 813.584 49.6061 813.306 50.0664C813.033 50.5221 812.896 51.265 812.896 52.2949ZM821.14 54.5029V56H819.807V54.5029H821.14Z" fill="#252527"/>
</svg>
