<svg width="432" height="50" viewBox="0 0 432 50" fill="none" xmlns="http://www.w3.org/2000/svg">
<path d="M14.4922 11.0625V16H12.7344V4.99219H14.4922V9.77344C14.7995 9.77344 15.0547 9.72396 15.2578 9.625C15.4661 9.52604 15.6797 9.35417 15.8984 9.10938C16.1849 8.79688 16.5911 8.23438 17.1172 7.42188L18.7188 4.99219H20.5391L18.375 8.17969C17.7031 9.16927 17.2448 9.7526 17 9.92969L20.9141 16H18.9219L15.7266 10.7734C15.6016 10.8411 15.4115 10.9062 15.1562 10.9688C14.901 11.0312 14.6797 11.0625 14.4922 11.0625ZM24.2109 16.1562C23.3724 16.1562 22.7344 15.9323 22.2969 15.4844C21.8594 15.0365 21.6406 14.4193 21.6406 13.6328C21.6406 12.7578 21.9271 12.0885 22.5 11.625C23.0729 11.1615 23.9688 10.9141 25.1875 10.8828L27.0547 10.8516V10.4062C27.0547 9.76042 26.9245 9.29427 26.6641 9.00781C26.4089 8.72135 26 8.57812 25.4375 8.57812C24.8802 8.57812 24.474 8.67969 24.2188 8.88281C23.9688 9.08594 23.8151 9.41667 23.7578 9.875L22.0156 9.75C22.2708 8.17708 23.4297 7.39062 25.4922 7.39062C26.5547 7.39062 27.3594 7.64062 27.9062 8.14062C28.4583 8.64062 28.7344 9.35938 28.7344 10.2969V13.75C28.7344 14.1875 28.7891 14.5078 28.8984 14.7109C29.0078 14.9089 29.2057 15.0078 29.4922 15.0078C29.6484 15.0078 29.8047 14.9896 29.9609 14.9531V15.9297C29.7526 15.9818 29.5547 16.0208 29.3672 16.0469C29.1849 16.0729 28.987 16.0859 28.7734 16.0859C28.2422 16.0859 27.8516 15.9505 27.6016 15.6797C27.3568 15.4036 27.2161 14.9844 27.1797 14.4219H27.1328C26.7891 15.0365 26.3802 15.4792 25.9062 15.75C25.4375 16.0208 24.8724 16.1562 24.2109 16.1562ZM27.0547 11.9141L25.6562 11.9375C25.0469 11.9531 24.5938 12.0182 24.2969 12.1328C23.9948 12.2474 23.763 12.4219 23.6016 12.6562C23.4453 12.8906 23.3672 13.2005 23.3672 13.5859C23.3672 14.0286 23.4792 14.3672 23.7031 14.6016C23.9323 14.8307 24.25 14.9453 24.6562 14.9453C25.1198 14.9453 25.5312 14.8359 25.8906 14.6172C26.25 14.3984 26.5339 14.099 26.7422 13.7188C26.9505 13.3333 27.0547 12.9349 27.0547 12.5234V11.9141ZM33.5469 16.1562C32.6562 16.1562 31.9427 15.9792 31.4062 15.625C30.875 15.2656 30.4948 14.7344 30.2656 14.0312L31.7266 13.6875C31.8464 14.099 32.0625 14.4167 32.375 14.6406C32.6927 14.8594 33.0885 14.9688 33.5625 14.9688C34.0312 14.9688 34.401 14.8542 34.6719 14.625C34.9479 14.3906 35.0859 14.0599 35.0859 13.6328C35.0859 13.138 34.8854 12.7708 34.4844 12.5312C34.0833 12.2917 33.4531 12.1719 32.5938 12.1719V11C33.4167 11 34.0156 10.8958 34.3906 10.6875C34.7708 10.4792 34.9609 10.1562 34.9609 9.71875C34.9609 9.35938 34.8411 9.07552 34.6016 8.86719C34.362 8.65885 34.0182 8.55469 33.5703 8.55469C33.1224 8.55469 32.7578 8.65365 32.4766 8.85156C32.2005 9.04427 32.0339 9.32031 31.9766 9.67969L30.5156 9.51562C30.6406 8.8125 30.9661 8.28385 31.4922 7.92969C32.0182 7.57031 32.7292 7.39062 33.625 7.39062C34.5208 7.39062 35.2422 7.59635 35.7891 8.00781C36.3411 8.41927 36.6172 8.95312 36.6172 9.60938C36.6172 10.1302 36.4349 10.5651 36.0703 10.9141C35.7109 11.263 35.2474 11.474 34.6797 11.5469V11.5625C35.3203 11.6354 35.8385 11.8594 36.2344 12.2344C36.6354 12.6042 36.8359 13.0677 36.8359 13.625C36.8359 14.4167 36.5443 15.0365 35.9609 15.4844C35.3776 15.9323 34.5729 16.1562 33.5469 16.1562ZM40.5234 16.1562C39.6849 16.1562 39.0469 15.9323 38.6094 15.4844C38.1719 15.0365 37.9531 14.4193 37.9531 13.6328C37.9531 12.7578 38.2396 12.0885 38.8125 11.625C39.3854 11.1615 40.2812 10.9141 41.5 10.8828L43.3672 10.8516V10.4062C43.3672 9.76042 43.237 9.29427 42.9766 9.00781C42.7214 8.72135 42.3125 8.57812 41.75 8.57812C41.1927 8.57812 40.7865 8.67969 40.5312 8.88281C40.2812 9.08594 40.1276 9.41667 40.0703 9.875L38.3281 9.75C38.5833 8.17708 39.7422 7.39062 41.8047 7.39062C42.8672 7.39062 43.6719 7.64062 44.2188 8.14062C44.7708 8.64062 45.0469 9.35938 45.0469 10.2969V13.75C45.0469 14.1875 45.1016 14.5078 45.2109 14.7109C45.3203 14.9089 45.5182 15.0078 45.8047 15.0078C45.9609 15.0078 46.1172 14.9896 46.2734 14.9531V15.9297C46.0651 15.9818 45.8672 16.0208 45.6797 16.0469C45.4974 16.0729 45.2995 16.0859 45.0859 16.0859C44.5547 16.0859 44.1641 15.9505 43.9141 15.6797C43.6693 15.4036 43.5286 14.9844 43.4922 14.4219H43.4453C43.1016 15.0365 42.6927 15.4792 42.2188 15.75C41.75 16.0208 41.1849 16.1562 40.5234 16.1562ZM43.3672 11.9141L41.9688 11.9375C41.3594 11.9531 40.9062 12.0182 40.6094 12.1328C40.3073 12.2474 40.0755 12.4219 39.9141 12.6562C39.7578 12.8906 39.6797 13.2005 39.6797 13.5859C39.6797 14.0286 39.7917 14.3672 40.0156 14.6016C40.2448 14.8307 40.5625 14.9453 40.9688 14.9453C41.4323 14.9453 41.8438 14.8359 42.2031 14.6172C42.5625 14.3984 42.8464 14.099 43.0547 13.7188C43.263 13.3333 43.3672 12.9349 43.3672 12.5234V11.9141ZM50.3828 12.6641L48.1953 16H46.4062L49.4453 11.6484L46.5469 7.54688H48.375L50.3828 10.6641L52.375 7.54688H54.2188L51.3281 11.6328L54.3984 16H52.5547L50.3828 12.6641ZM58.7266 16.1562C57.5078 16.1562 56.5755 15.7812 55.9297 15.0312C55.2839 14.276 54.9609 13.1927 54.9609 11.7812C54.9609 10.3698 55.2865 9.28646 55.9375 8.53125C56.5885 7.77083 57.5182 7.39062 58.7266 7.39062C59.6328 7.39062 60.3828 7.625 60.9766 8.09375C61.5755 8.55729 61.9531 9.19792 62.1094 10.0156L60.4062 10.125C60.3385 9.66667 60.1641 9.30208 59.8828 9.03125C59.6016 8.76042 59.2005 8.625 58.6797 8.625C57.9974 8.625 57.4974 8.86979 57.1797 9.35938C56.862 9.84375 56.7031 10.6354 56.7031 11.7344C56.7031 12.8073 56.8698 13.6068 57.2031 14.1328C57.5365 14.6536 58.0365 14.9141 58.7031 14.9141C59.1771 14.9141 59.5729 14.7812 59.8906 14.5156C60.2083 14.2448 60.4036 13.8359 60.4766 13.2891L62.1562 13.3828C62.0833 13.9453 61.8932 14.4349 61.5859 14.8516C61.2786 15.263 60.8802 15.5833 60.3906 15.8125C59.9062 16.0417 59.3516 16.1562 58.7266 16.1562ZM67.1797 8.72656V16H65.5078V8.72656H62.9297V7.54688H69.7578V8.72656H67.1797ZM73.1484 16.1562C72.3099 16.1562 71.6719 15.9323 71.2344 15.4844C70.7969 15.0365 70.5781 14.4193 70.5781 13.6328C70.5781 12.7578 70.8646 12.0885 71.4375 11.625C72.0104 11.1615 72.9062 10.9141 74.125 10.8828L75.9922 10.8516V10.4062C75.9922 9.76042 75.862 9.29427 75.6016 9.00781C75.3464 8.72135 74.9375 8.57812 74.375 8.57812C73.8177 8.57812 73.4115 8.67969 73.1562 8.88281C72.9062 9.08594 72.7526 9.41667 72.6953 9.875L70.9531 9.75C71.2083 8.17708 72.3672 7.39062 74.4297 7.39062C75.4922 7.39062 76.2969 7.64062 76.8438 8.14062C77.3958 8.64062 77.6719 9.35938 77.6719 10.2969V13.75C77.6719 14.1875 77.7266 14.5078 77.8359 14.7109C77.9453 14.9089 78.1432 15.0078 78.4297 15.0078C78.5859 15.0078 78.7422 14.9896 78.8984 14.9531V15.9297C78.6901 15.9818 78.4922 16.0208 78.3047 16.0469C78.1224 16.0729 77.9245 16.0859 77.7109 16.0859C77.1797 16.0859 76.7891 15.9505 76.5391 15.6797C76.2943 15.4036 76.1536 14.9844 76.1172 14.4219H76.0703C75.7266 15.0365 75.3177 15.4792 74.8438 15.75C74.375 16.0208 73.8099 16.1562 73.1484 16.1562ZM75.9922 11.9141L74.5938 11.9375C73.9844 11.9531 73.5312 12.0182 73.2344 12.1328C72.9323 12.2474 72.7005 12.4219 72.5391 12.6562C72.3828 12.8906 72.3047 13.2005 72.3047 13.5859C72.3047 14.0286 72.4167 14.3672 72.6406 14.6016C72.8698 14.8307 73.1875 14.9453 73.5938 14.9453C74.0573 14.9453 74.4688 14.8359 74.8281 14.6172C75.1875 14.3984 75.4714 14.099 75.6797 13.7188C75.888 13.3333 75.9922 12.9349 75.9922 12.5234V11.9141ZM81.6562 12.2266V16H79.9844V7.54688H81.6562V11.0469H85.2031V7.54688H86.875V16H85.2031V12.2266H81.6562Z" fill="#9999A0"/>
<path d="M99.8984 9.35156V11.2969H98.1328V9.35156H99.8984Z" fill="#9999A0"/>
<path d="M113.906 13.6641C113.651 14.5495 113.331 15.1823 112.945 15.5625C112.56 15.9375 112.018 16.125 111.32 16.125C110.997 16.125 110.763 16.0938 110.617 16.0312V14.5938C110.701 14.6302 110.833 14.6484 111.016 14.6484C111.25 14.6484 111.445 14.5781 111.602 14.4375C111.758 14.2917 111.904 14.0573 112.039 13.7344C112.117 13.5469 112.195 13.3151 112.273 13.0391C112.352 12.7578 112.43 12.4297 112.508 12.0547C112.576 11.7266 112.641 11.3568 112.703 10.9453C112.771 10.5339 112.844 10.0547 112.922 9.50781C113 8.95573 113.089 8.3125 113.188 7.57812C113.292 6.83854 113.409 5.97656 113.539 4.99219H120.016V16H118.305V6.46094H115.07L114.688 9.28125C114.417 11.3021 114.156 12.763 113.906 13.6641ZM127.906 9.4375L124.141 16H122.359V7.54688H123.945V11.8984C123.945 12.0964 123.938 12.3281 123.922 12.5938C123.911 12.8542 123.898 13.1172 123.883 13.3828C123.872 13.6484 123.859 13.8828 123.844 14.0859L127.609 7.54688H129.375V16H127.805V11.1328C127.805 10.987 127.81 10.8021 127.82 10.5781C127.831 10.3542 127.844 10.1354 127.859 9.92188C127.88 9.70312 127.896 9.54167 127.906 9.4375ZM135.07 8.72656V16H133.398V8.72656H130.82V7.54688H137.648V8.72656H135.07ZM142.688 7.54688C143.792 7.54688 144.62 7.72656 145.172 8.08594C145.724 8.44531 146 8.97135 146 9.66406C146 10.1484 145.844 10.5521 145.531 10.875C145.224 11.1979 144.781 11.4141 144.203 11.5234V11.5781C145.573 11.75 146.258 12.4115 146.258 13.5625C146.258 14.3438 145.964 14.9453 145.375 15.3672C144.786 15.7891 143.969 16 142.922 16H139.094V7.54688H142.688ZM140.766 11.0625H142.438C143.094 11.0625 143.56 10.974 143.836 10.7969C144.112 10.6198 144.25 10.3125 144.25 9.875C144.25 9.47396 144.12 9.18229 143.859 9C143.599 8.8125 143.159 8.71875 142.539 8.71875H140.766V11.0625ZM140.766 14.8516H142.586C143.294 14.8516 143.792 14.75 144.078 14.5469C144.37 14.3385 144.516 14.0026 144.516 13.5391C144.516 13.0443 144.362 12.6953 144.055 12.4922C143.753 12.2891 143.234 12.1875 142.5 12.1875H140.766V14.8516ZM149.93 16.1562C149.091 16.1562 148.453 15.9323 148.016 15.4844C147.578 15.0365 147.359 14.4193 147.359 13.6328C147.359 12.7578 147.646 12.0885 148.219 11.625C148.792 11.1615 149.688 10.9141 150.906 10.8828L152.773 10.8516V10.4062C152.773 9.76042 152.643 9.29427 152.383 9.00781C152.128 8.72135 151.719 8.57812 151.156 8.57812C150.599 8.57812 150.193 8.67969 149.938 8.88281C149.688 9.08594 149.534 9.41667 149.477 9.875L147.734 9.75C147.99 8.17708 149.148 7.39062 151.211 7.39062C152.273 7.39062 153.078 7.64062 153.625 8.14062C154.177 8.64062 154.453 9.35938 154.453 10.2969V13.75C154.453 14.1875 154.508 14.5078 154.617 14.7109C154.727 14.9089 154.924 15.0078 155.211 15.0078C155.367 15.0078 155.523 14.9896 155.68 14.9531V15.9297C155.471 15.9818 155.273 16.0208 155.086 16.0469C154.904 16.0729 154.706 16.0859 154.492 16.0859C153.961 16.0859 153.57 15.9505 153.32 15.6797C153.076 15.4036 152.935 14.9844 152.898 14.4219H152.852C152.508 15.0365 152.099 15.4792 151.625 15.75C151.156 16.0208 150.591 16.1562 149.93 16.1562ZM152.773 11.9141L151.375 11.9375C150.766 11.9531 150.312 12.0182 150.016 12.1328C149.714 12.2474 149.482 12.4219 149.32 12.6562C149.164 12.8906 149.086 13.2005 149.086 13.5859C149.086 14.0286 149.198 14.3672 149.422 14.6016C149.651 14.8307 149.969 14.9453 150.375 14.9453C150.839 14.9453 151.25 14.8359 151.609 14.6172C151.969 14.3984 152.253 14.099 152.461 13.7188C152.669 13.3333 152.773 12.9349 152.773 12.5234V11.9141Z" fill="#343436"/>
<path d="M167.898 9.35156V11.2969H166.133V9.35156H167.898Z" fill="#9999A0"/>
<path d="M181.906 13.6641C181.651 14.5495 181.331 15.1823 180.945 15.5625C180.56 15.9375 180.018 16.125 179.32 16.125C178.997 16.125 178.763 16.0938 178.617 16.0312V14.5938C178.701 14.6302 178.833 14.6484 179.016 14.6484C179.25 14.6484 179.445 14.5781 179.602 14.4375C179.758 14.2917 179.904 14.0573 180.039 13.7344C180.117 13.5469 180.195 13.3151 180.273 13.0391C180.352 12.7578 180.43 12.4297 180.508 12.0547C180.576 11.7266 180.641 11.3568 180.703 10.9453C180.771 10.5339 180.844 10.0547 180.922 9.50781C181 8.95573 181.089 8.3125 181.188 7.57812C181.292 6.83854 181.409 5.97656 181.539 4.99219H188.016V16H186.305V6.46094H183.07L182.688 9.28125C182.417 11.3021 182.156 12.763 181.906 13.6641ZM192.57 16.1562C191.732 16.1562 191.094 15.9323 190.656 15.4844C190.219 15.0365 190 14.4193 190 13.6328C190 12.7578 190.286 12.0885 190.859 11.625C191.432 11.1615 192.328 10.9141 193.547 10.8828L195.414 10.8516V10.4062C195.414 9.76042 195.284 9.29427 195.023 9.00781C194.768 8.72135 194.359 8.57812 193.797 8.57812C193.24 8.57812 192.833 8.67969 192.578 8.88281C192.328 9.08594 192.174 9.41667 192.117 9.875L190.375 9.75C190.63 8.17708 191.789 7.39062 193.852 7.39062C194.914 7.39062 195.719 7.64062 196.266 8.14062C196.818 8.64062 197.094 9.35938 197.094 10.2969V13.75C197.094 14.1875 197.148 14.5078 197.258 14.7109C197.367 14.9089 197.565 15.0078 197.852 15.0078C198.008 15.0078 198.164 14.9896 198.32 14.9531V15.9297C198.112 15.9818 197.914 16.0208 197.727 16.0469C197.544 16.0729 197.346 16.0859 197.133 16.0859C196.602 16.0859 196.211 15.9505 195.961 15.6797C195.716 15.4036 195.576 14.9844 195.539 14.4219H195.492C195.148 15.0365 194.74 15.4792 194.266 15.75C193.797 16.0208 193.232 16.1562 192.57 16.1562ZM195.414 11.9141L194.016 11.9375C193.406 11.9531 192.953 12.0182 192.656 12.1328C192.354 12.2474 192.122 12.4219 191.961 12.6562C191.805 12.8906 191.727 13.2005 191.727 13.5859C191.727 14.0286 191.839 14.3672 192.062 14.6016C192.292 14.8307 192.609 14.9453 193.016 14.9453C193.479 14.9453 193.891 14.8359 194.25 14.6172C194.609 14.3984 194.893 14.099 195.102 13.7188C195.31 13.3333 195.414 12.9349 195.414 12.5234V11.9141ZM202.648 8.72656V16H200.977V8.72656H198.398V7.54688H205.227V8.72656H202.648ZM210.266 7.54688C211.37 7.54688 212.198 7.72656 212.75 8.08594C213.302 8.44531 213.578 8.97135 213.578 9.66406C213.578 10.1484 213.422 10.5521 213.109 10.875C212.802 11.1979 212.359 11.4141 211.781 11.5234V11.5781C213.151 11.75 213.836 12.4115 213.836 13.5625C213.836 14.3438 213.542 14.9453 212.953 15.3672C212.365 15.7891 211.547 16 210.5 16H206.672V7.54688H210.266ZM208.344 11.0625H210.016C210.672 11.0625 211.138 10.974 211.414 10.7969C211.69 10.6198 211.828 10.3125 211.828 9.875C211.828 9.47396 211.698 9.18229 211.438 9C211.177 8.8125 210.737 8.71875 210.117 8.71875H208.344V11.0625ZM208.344 14.8516H210.164C210.872 14.8516 211.37 14.75 211.656 14.5469C211.948 14.3385 212.094 14.0026 212.094 13.5391C212.094 13.0443 211.94 12.6953 211.633 12.4922C211.331 12.2891 210.812 12.1875 210.078 12.1875H208.344V14.8516ZM221.172 9.4375L217.406 16H215.625V7.54688H217.211V11.8984C217.211 12.0964 217.203 12.3281 217.188 12.5938C217.177 12.8542 217.164 13.1172 217.148 13.3828C217.138 13.6484 217.125 13.8828 217.109 14.0859L220.875 7.54688H222.641V16H221.07V11.1328C221.07 10.987 221.076 10.8021 221.086 10.5781C221.096 10.3542 221.109 10.1354 221.125 9.92188C221.146 9.70312 221.161 9.54167 221.172 9.4375ZM228.039 12.4844L225.695 16H223.836L226.469 12.3203C225.839 12.1849 225.362 11.9141 225.039 11.5078C224.721 11.1016 224.562 10.5703 224.562 9.91406C224.562 9.1276 224.854 8.53646 225.438 8.14062C226.026 7.74479 226.883 7.54688 228.008 7.54688H231.523V16H229.852V12.4844H228.039ZM228 11.3828H229.859V8.66406H228.141C227.51 8.66406 227.047 8.77604 226.75 9C226.453 9.22396 226.305 9.5651 226.305 10.0234C226.305 10.4766 226.438 10.8177 226.703 11.0469C226.974 11.2708 227.406 11.3828 228 11.3828Z" fill="#343436"/>
<path d="M244.898 9.35156V11.2969H243.133V9.35156H244.898Z" fill="#9999A0"/>
<path d="M260.914 14.7344C261.966 14.7344 262.815 14.4115 263.461 13.7656C264.107 13.1198 264.474 12.2344 264.562 11.1094H259.727V9.71875H264.555C264.466 8.61458 264.109 7.76042 263.484 7.15625C262.865 6.54688 262.029 6.24219 260.977 6.24219C260.227 6.24219 259.581 6.41406 259.039 6.75781C258.497 7.10156 258.12 7.57031 257.906 8.16406L256.297 7.66406C257.021 5.77344 258.591 4.82812 261.008 4.82812C262.143 4.82812 263.109 5.04948 263.906 5.49219C264.708 5.9349 265.32 6.57552 265.742 7.41406C266.164 8.2474 266.375 9.25781 266.375 10.4453C266.375 11.6172 266.161 12.6302 265.734 13.4844C265.307 14.3385 264.69 14.9974 263.883 15.4609C263.081 15.9245 262.112 16.1562 260.977 16.1562C258.711 16.1562 257.115 15.1615 256.188 13.1719L257.656 12.5078C257.984 13.2266 258.427 13.7786 258.984 14.1641C259.542 14.5443 260.185 14.7344 260.914 14.7344ZM271.398 16.1562C270.18 16.1562 269.247 15.7812 268.602 15.0312C267.956 14.276 267.633 13.1927 267.633 11.7812C267.633 10.3698 267.958 9.28646 268.609 8.53125C269.26 7.77083 270.19 7.39062 271.398 7.39062C272.305 7.39062 273.055 7.625 273.648 8.09375C274.247 8.55729 274.625 9.19792 274.781 10.0156L273.078 10.125C273.01 9.66667 272.836 9.30208 272.555 9.03125C272.273 8.76042 271.872 8.625 271.352 8.625C270.669 8.625 270.169 8.86979 269.852 9.35938C269.534 9.84375 269.375 10.6354 269.375 11.7344C269.375 12.8073 269.542 13.6068 269.875 14.1328C270.208 14.6536 270.708 14.9141 271.375 14.9141C271.849 14.9141 272.245 14.7812 272.562 14.5156C272.88 14.2448 273.076 13.8359 273.148 13.2891L274.828 13.3828C274.755 13.9453 274.565 14.4349 274.258 14.8516C273.951 15.263 273.552 15.5833 273.062 15.8125C272.578 16.0417 272.023 16.1562 271.398 16.1562ZM279.852 8.72656V16H278.18V8.72656H275.602V7.54688H282.43V8.72656H279.852ZM291.109 11.7656C291.109 13.2083 290.766 14.3021 290.078 15.0469C289.391 15.7865 288.411 16.1562 287.141 16.1562C285.875 16.1562 284.906 15.776 284.234 15.0156C283.568 14.25 283.234 13.1667 283.234 11.7656C283.234 10.3385 283.57 9.2526 284.242 8.50781C284.914 7.76302 285.896 7.39062 287.188 7.39062C288.505 7.39062 289.487 7.7526 290.133 8.47656C290.784 9.20052 291.109 10.2969 291.109 11.7656ZM289.359 11.7656C289.359 10.651 289.19 9.84375 288.852 9.34375C288.513 8.83854 287.966 8.58594 287.211 8.58594C286.44 8.58594 285.875 8.84635 285.516 9.36719C285.161 9.88281 284.984 10.6823 284.984 11.7656C284.984 12.8229 285.159 13.6198 285.508 14.1562C285.862 14.6927 286.398 14.9609 287.117 14.9609C287.909 14.9609 288.479 14.7005 288.828 14.1797C289.182 13.6589 289.359 12.8542 289.359 11.7656ZM294.547 12.2266V16H292.875V7.54688H294.547V11.0469H298.094V7.54688H299.766V16H298.094V12.2266H294.547ZM307.531 9.4375L303.766 16H301.984V7.54688H303.57V11.8984C303.57 12.0964 303.562 12.3281 303.547 12.5938C303.536 12.8542 303.523 13.1172 303.508 13.3828C303.497 13.6484 303.484 13.8828 303.469 14.0859L307.234 7.54688H309V16H307.43V11.1328C307.43 10.987 307.435 10.8021 307.445 10.5781C307.456 10.3542 307.469 10.1354 307.484 9.92188C307.505 9.70312 307.521 9.54167 307.531 9.4375ZM314.398 12.4844L312.055 16H310.195L312.828 12.3203C312.198 12.1849 311.721 11.9141 311.398 11.5078C311.081 11.1016 310.922 10.5703 310.922 9.91406C310.922 9.1276 311.214 8.53646 311.797 8.14062C312.385 7.74479 313.242 7.54688 314.367 7.54688H317.883V16H316.211V12.4844H314.398ZM314.359 11.3828H316.219V8.66406H314.5C313.87 8.66406 313.406 8.77604 313.109 9C312.812 9.22396 312.664 9.5651 312.664 10.0234C312.664 10.4766 312.797 10.8177 313.062 11.0469C313.333 11.2708 313.766 11.3828 314.359 11.3828Z" fill="#343436"/>
<path d="M350.25 6.97656L344.805 16H342.727V4.99219H344.305V11.9375C344.305 12.2292 344.299 12.5547 344.289 12.9141C344.279 13.2682 344.263 13.6562 344.242 14.0781L349.75 4.99219H351.766V16H350.203V8.96094C350.203 8.67969 350.206 8.375 350.211 8.04688C350.221 7.71354 350.234 7.35677 350.25 6.97656ZM357.43 16.1562C356.211 16.1562 355.279 15.7812 354.633 15.0312C353.987 14.276 353.664 13.1927 353.664 11.7812C353.664 10.3698 353.99 9.28646 354.641 8.53125C355.292 7.77083 356.221 7.39062 357.43 7.39062C358.336 7.39062 359.086 7.625 359.68 8.09375C360.279 8.55729 360.656 9.19792 360.812 10.0156L359.109 10.125C359.042 9.66667 358.867 9.30208 358.586 9.03125C358.305 8.76042 357.904 8.625 357.383 8.625C356.701 8.625 356.201 8.86979 355.883 9.35938C355.565 9.84375 355.406 10.6354 355.406 11.7344C355.406 12.8073 355.573 13.6068 355.906 14.1328C356.24 14.6536 356.74 14.9141 357.406 14.9141C357.88 14.9141 358.276 14.7812 358.594 14.5156C358.911 14.2448 359.107 13.8359 359.18 13.2891L360.859 13.3828C360.786 13.9453 360.596 14.4349 360.289 14.8516C359.982 15.263 359.583 15.5833 359.094 15.8125C358.609 16.0417 358.055 16.1562 357.43 16.1562ZM364.078 8.72656V16H362.406V7.54688H369.18V16H367.508V8.72656H364.078ZM373.477 16.1562C372.638 16.1562 372 15.9323 371.562 15.4844C371.125 15.0365 370.906 14.4193 370.906 13.6328C370.906 12.7578 371.193 12.0885 371.766 11.625C372.339 11.1615 373.234 10.9141 374.453 10.8828L376.32 10.8516V10.4062C376.32 9.76042 376.19 9.29427 375.93 9.00781C375.674 8.72135 375.266 8.57812 374.703 8.57812C374.146 8.57812 373.74 8.67969 373.484 8.88281C373.234 9.08594 373.081 9.41667 373.023 9.875L371.281 9.75C371.536 8.17708 372.695 7.39062 374.758 7.39062C375.82 7.39062 376.625 7.64062 377.172 8.14062C377.724 8.64062 378 9.35938 378 10.2969V13.75C378 14.1875 378.055 14.5078 378.164 14.7109C378.273 14.9089 378.471 15.0078 378.758 15.0078C378.914 15.0078 379.07 14.9896 379.227 14.9531V15.9297C379.018 15.9818 378.82 16.0208 378.633 16.0469C378.451 16.0729 378.253 16.0859 378.039 16.0859C377.508 16.0859 377.117 15.9505 376.867 15.6797C376.622 15.4036 376.482 14.9844 376.445 14.4219H376.398C376.055 15.0365 375.646 15.4792 375.172 15.75C374.703 16.0208 374.138 16.1562 373.477 16.1562ZM376.32 11.9141L374.922 11.9375C374.312 11.9531 373.859 12.0182 373.562 12.1328C373.26 12.2474 373.029 12.4219 372.867 12.6562C372.711 12.8906 372.633 13.2005 372.633 13.5859C372.633 14.0286 372.745 14.3672 372.969 14.6016C373.198 14.8307 373.516 14.9453 373.922 14.9453C374.385 14.9453 374.797 14.8359 375.156 14.6172C375.516 14.3984 375.799 14.099 376.008 13.7188C376.216 13.3333 376.32 12.9349 376.32 12.5234V11.9141ZM381.984 12.2266V16H380.312V7.54688H381.984V11.0469H385.531V7.54688H387.203V16H385.531V12.2266H381.984ZM394.969 9.4375L391.203 16H389.422V7.54688H391.008V11.8984C391.008 12.0964 391 12.3281 390.984 12.5938C390.974 12.8542 390.961 13.1172 390.945 13.3828C390.935 13.6484 390.922 13.8828 390.906 14.0859L394.672 7.54688H396.438V16H394.867V11.1328C394.867 10.987 394.872 10.8021 394.883 10.5781C394.893 10.3542 394.906 10.1354 394.922 9.92188C394.943 9.70312 394.958 9.54167 394.969 9.4375ZM401.836 12.4844L399.492 16H397.633L400.266 12.3203C399.635 12.1849 399.159 11.9141 398.836 11.5078C398.518 11.1016 398.359 10.5703 398.359 9.91406C398.359 9.1276 398.651 8.53646 399.234 8.14062C399.823 7.74479 400.68 7.54688 401.805 7.54688H405.32V16H403.648V12.4844H401.836ZM401.797 11.3828H403.656V8.66406H401.938C401.307 8.66406 400.844 8.77604 400.547 9C400.25 9.22396 400.102 9.5651 400.102 10.0234C400.102 10.4766 400.234 10.8177 400.5 11.0469C400.771 11.2708 401.203 11.3828 401.797 11.3828Z" fill="#343436"/>
<path d="M417.898 9.35156V11.2969H416.133V9.35156H417.898Z" fill="#9999A0"/>
<path d="M44.8672 45V40.9297C44.1328 41.1172 43.513 41.25 43.0078 41.3281C42.5026 41.4062 42.0365 41.4453 41.6094 41.4453C40.4219 41.4453 39.5417 41.1901 38.9688 40.6797C38.401 40.1693 38.1172 39.388 38.1172 38.3359V33.9922H39.8516V38.1484C39.8516 38.8516 40.0182 39.349 40.3516 39.6406C40.6901 39.9323 41.2214 40.0781 41.9453 40.0781C42.7422 40.0781 43.7161 39.9453 44.8672 39.6797V33.9922H46.625V45H44.8672ZM50.2734 41.1094C50.2734 42.0312 50.4583 42.737 50.8281 43.2266C51.1979 43.7161 51.7318 43.9609 52.4297 43.9609C52.9661 43.9609 53.3984 43.8516 53.7266 43.6328C54.0547 43.4141 54.2786 43.125 54.3984 42.7656L55.9062 43.0547C55.3698 44.4557 54.2005 45.1562 52.3984 45.1562C51.138 45.1562 50.1771 44.7839 49.5156 44.0391C48.8542 43.2891 48.5234 42.1849 48.5234 40.7266C48.5234 39.3307 48.8568 38.2604 49.5234 37.5156C50.1901 36.7656 51.138 36.3906 52.3672 36.3906C53.6016 36.3906 54.5312 36.776 55.1562 37.5469C55.7865 38.3125 56.1016 39.4531 56.1016 40.9688V41.1094H50.2734ZM54.4219 39.9375C54.3594 39.1146 54.1536 38.5104 53.8047 38.125C53.4609 37.7396 52.974 37.5469 52.3438 37.5469C51.7188 37.5469 51.2266 37.7578 50.8672 38.1797C50.5078 38.6016 50.3151 39.1875 50.2891 39.9375H54.4219ZM57.875 45V36.5469H59.5V43.8203H62.4531V36.5469H64.0781V43.8203H67.0234V36.5469H68.6484V45H57.875ZM74.1953 45.1562C72.9766 45.1562 72.0443 44.7812 71.3984 44.0312C70.7526 43.276 70.4297 42.1927 70.4297 40.7812C70.4297 39.3698 70.7552 38.2865 71.4062 37.5312C72.0573 36.7708 72.987 36.3906 74.1953 36.3906C75.1016 36.3906 75.8516 36.625 76.4453 37.0938C77.0443 37.5573 77.4219 38.1979 77.5781 39.0156L75.875 39.125C75.8073 38.6667 75.6328 38.3021 75.3516 38.0312C75.0703 37.7604 74.6693 37.625 74.1484 37.625C73.4661 37.625 72.9661 37.8698 72.6484 38.3594C72.3307 38.8438 72.1719 39.6354 72.1719 40.7344C72.1719 41.8073 72.3385 42.6068 72.6719 43.1328C73.0052 43.6536 73.5052 43.9141 74.1719 43.9141C74.6458 43.9141 75.0417 43.7812 75.3594 43.5156C75.6771 43.2448 75.8724 42.8359 75.9453 42.2891L77.625 42.3828C77.5521 42.9453 77.362 43.4349 77.0547 43.8516C76.7474 44.263 76.349 44.5833 75.8594 44.8125C75.375 45.0417 74.8203 45.1562 74.1953 45.1562ZM80.8203 41.3516V45H79.1484V36.5469H80.8203V40.2266C80.9974 40.2214 81.1458 40.1927 81.2656 40.1406C81.3854 40.0885 81.5104 39.9922 81.6406 39.8516C81.7031 39.7786 81.7708 39.6953 81.8438 39.6016C81.9219 39.5026 82 39.3906 82.0781 39.2656C82.1615 39.1458 82.3359 38.8594 82.6016 38.4062C82.8724 37.9479 83.2344 37.3281 83.6875 36.5469H85.3828L83.7188 39.2344C83.3229 39.849 83.013 40.2474 82.7891 40.4297L85.4531 45H83.6641L81.6094 41.2188C81.5156 41.2552 81.3932 41.2865 81.2422 41.3125C81.0964 41.3385 80.9557 41.3516 80.8203 41.3516ZM88.8203 45.1562C87.9818 45.1562 87.3438 44.9323 86.9062 44.4844C86.4688 44.0365 86.25 43.4193 86.25 42.6328C86.25 41.7578 86.5365 41.0885 87.1094 40.625C87.6823 40.1615 88.5781 39.9141 89.7969 39.8828L91.6641 39.8516V39.4062C91.6641 38.7604 91.5339 38.2943 91.2734 38.0078C91.0182 37.7214 90.6094 37.5781 90.0469 37.5781C89.4896 37.5781 89.0833 37.6797 88.8281 37.8828C88.5781 38.0859 88.4245 38.4167 88.3672 38.875L86.625 38.75C86.8802 37.1771 88.0391 36.3906 90.1016 36.3906C91.1641 36.3906 91.9688 36.6406 92.5156 37.1406C93.0677 37.6406 93.3438 38.3594 93.3438 39.2969V42.75C93.3438 43.1875 93.3984 43.5078 93.5078 43.7109C93.6172 43.9089 93.8151 44.0078 94.1016 44.0078C94.2578 44.0078 94.4141 43.9896 94.5703 43.9531V44.9297C94.362 44.9818 94.1641 45.0208 93.9766 45.0469C93.7943 45.0729 93.5964 45.0859 93.3828 45.0859C92.8516 45.0859 92.4609 44.9505 92.2109 44.6797C91.9661 44.4036 91.8255 43.9844 91.7891 43.4219H91.7422C91.3984 44.0365 90.9896 44.4792 90.5156 44.75C90.0469 45.0208 89.4818 45.1562 88.8203 45.1562ZM91.6641 40.9141L90.2656 40.9375C89.6562 40.9531 89.2031 41.0182 88.9062 41.1328C88.6042 41.2474 88.3724 41.4219 88.2109 41.6562C88.0547 41.8906 87.9766 42.2005 87.9766 42.5859C87.9766 43.0286 88.0885 43.3672 88.3125 43.6016C88.5417 43.8307 88.8594 43.9453 89.2656 43.9453C89.7292 43.9453 90.1406 43.8359 90.5 43.6172C90.8594 43.3984 91.1432 43.099 91.3516 42.7188C91.5599 42.3333 91.6641 41.9349 91.6641 41.5234V40.9141ZM98.8359 41.4844L96.4922 45H94.6328L97.2656 41.3203C96.6354 41.1849 96.1589 40.9141 95.8359 40.5078C95.5182 40.1016 95.3594 39.5703 95.3594 38.9141C95.3594 38.1276 95.651 37.5365 96.2344 37.1406C96.8229 36.7448 97.6797 36.5469 98.8047 36.5469H102.32V45H100.648V41.4844H98.8359ZM98.7969 40.3828H100.656V37.6641H98.9375C98.3073 37.6641 97.8438 37.776 97.5469 38C97.25 38.224 97.1016 38.5651 97.1016 39.0234C97.1016 39.4766 97.2344 39.8177 97.5 40.0469C97.7708 40.2708 98.2031 40.3828 98.7969 40.3828ZM117.82 37.3594C117.82 38.0625 117.661 38.6771 117.344 39.2031C117.031 39.724 116.586 40.1302 116.008 40.4219C115.435 40.7083 114.75 40.8516 113.953 40.8516H110.883V45H109.125V33.9922H113.859C115.12 33.9922 116.094 34.2865 116.781 34.875C117.474 35.4635 117.82 36.2917 117.82 37.3594ZM116.047 37.3828C116.047 36.0495 115.25 35.3828 113.656 35.3828H110.883V39.4688H113.719C114.484 39.4688 115.062 39.2943 115.453 38.9453C115.849 38.5964 116.047 38.0755 116.047 37.3828ZM120.367 41.1094C120.367 42.0312 120.552 42.737 120.922 43.2266C121.292 43.7161 121.826 43.9609 122.523 43.9609C123.06 43.9609 123.492 43.8516 123.82 43.6328C124.148 43.4141 124.372 43.125 124.492 42.7656L126 43.0547C125.464 44.4557 124.294 45.1562 122.492 45.1562C121.232 45.1562 120.271 44.7839 119.609 44.0391C118.948 43.2891 118.617 42.1849 118.617 40.7266C118.617 39.3307 118.951 38.2604 119.617 37.5156C120.284 36.7656 121.232 36.3906 122.461 36.3906C123.695 36.3906 124.625 36.776 125.25 37.5469C125.88 38.3125 126.195 39.4531 126.195 40.9688V41.1094H120.367ZM124.516 39.9375C124.453 39.1146 124.247 38.5104 123.898 38.125C123.555 37.7396 123.068 37.5469 122.438 37.5469C121.812 37.5469 121.32 37.7578 120.961 38.1797C120.602 38.6016 120.409 39.1875 120.383 39.9375H124.516ZM131.211 45.1562C129.992 45.1562 129.06 44.7812 128.414 44.0312C127.768 43.276 127.445 42.1927 127.445 40.7812C127.445 39.3698 127.771 38.2865 128.422 37.5312C129.073 36.7708 130.003 36.3906 131.211 36.3906C132.117 36.3906 132.867 36.625 133.461 37.0938C134.06 37.5573 134.438 38.1979 134.594 39.0156L132.891 39.125C132.823 38.6667 132.648 38.3021 132.367 38.0312C132.086 37.7604 131.685 37.625 131.164 37.625C130.482 37.625 129.982 37.8698 129.664 38.3594C129.346 38.8438 129.188 39.6354 129.188 40.7344C129.188 41.8073 129.354 42.6068 129.688 43.1328C130.021 43.6536 130.521 43.9141 131.188 43.9141C131.661 43.9141 132.057 43.7812 132.375 43.5156C132.693 43.2448 132.888 42.8359 132.961 42.2891L134.641 42.3828C134.568 42.9453 134.378 43.4349 134.07 43.8516C133.763 44.263 133.365 44.5833 132.875 44.8125C132.391 45.0417 131.836 45.1562 131.211 45.1562ZM137.859 37.7266V45H136.188V36.5469H142.961V45H141.289V37.7266H137.859ZM145.812 48.3203C145.38 48.3203 145.01 48.2891 144.703 48.2266V47.0078C144.932 47.0391 145.161 47.0547 145.391 47.0547C145.854 47.0547 146.253 46.901 146.586 46.5938C146.919 46.2865 147.221 45.737 147.492 44.9453L144.148 36.5469H145.922L147.547 40.9844C147.672 41.3021 147.805 41.6745 147.945 42.1016C148.086 42.5234 148.211 42.9401 148.32 43.3516C148.451 42.9453 148.578 42.5547 148.703 42.1797C148.828 41.7995 148.953 41.4167 149.078 41.0312L150.57 36.5469H152.328L149.047 45.1484C148.885 45.5651 148.724 45.9323 148.562 46.25C148.406 46.5677 148.253 46.8333 148.102 47.0469C147.794 47.4896 147.456 47.8125 147.086 48.0156C146.716 48.2188 146.292 48.3203 145.812 48.3203ZM157.727 36.9766C158.935 36.9766 159.823 37.3177 160.391 38C160.958 38.6771 161.242 39.6979 161.242 41.0625C161.242 42.4427 160.904 43.4714 160.227 44.1484C159.549 44.8203 158.565 45.1562 157.273 45.1562C155.935 45.1562 154.948 44.737 154.312 43.8984C153.682 43.0599 153.367 41.7708 153.367 40.0312C153.367 39.1458 153.43 38.3698 153.555 37.7031C153.68 37.0312 153.875 36.4531 154.141 35.9688C154.411 35.4844 154.758 35.0807 155.18 34.7578C155.602 34.4349 156.133 34.1745 156.773 33.9766C157.091 33.8776 157.589 33.7682 158.266 33.6484C158.943 33.5286 159.797 33.401 160.828 33.2656V34.7188C160.099 34.8021 159.427 34.8906 158.812 34.9844C158.203 35.0781 157.674 35.1771 157.227 35.2812C156.779 35.3802 156.432 35.4896 156.188 35.6094C155.604 35.8698 155.193 36.2708 154.953 36.8125C154.714 37.349 154.583 38.1354 154.562 39.1719C154.802 38.4688 155.19 37.9271 155.727 37.5469C156.268 37.1667 156.935 36.9766 157.727 36.9766ZM159.492 41.0781C159.492 40.0781 159.328 39.3438 159 38.875C158.677 38.401 158.146 38.1641 157.406 38.1641C156.625 38.1641 156.049 38.4036 155.68 38.8828C155.31 39.3568 155.125 40.0885 155.125 41.0781C155.125 42.0417 155.297 42.763 155.641 43.2422C155.99 43.7214 156.529 43.9609 157.258 43.9609C158.06 43.9609 158.633 43.7292 158.977 43.2656C159.32 42.8021 159.492 42.0729 159.492 41.0781ZM164.133 43.9922C163.94 44.3932 163.701 44.6875 163.414 44.875C163.133 45.0625 162.76 45.1562 162.297 45.1562C162.151 45.1562 161.995 45.1458 161.828 45.125C161.667 45.1094 161.526 45.0859 161.406 45.0547V43.8828C161.542 43.9297 161.719 43.9531 161.938 43.9531C162.036 43.9531 162.151 43.9219 162.281 43.8594C162.411 43.7917 162.547 43.6224 162.688 43.3516C162.833 43.0807 162.971 42.6354 163.102 42.0156C163.143 41.8177 163.185 41.5833 163.227 41.3125C163.273 41.0417 163.326 40.7005 163.383 40.2891C163.445 39.8776 163.518 39.3698 163.602 38.7656C163.685 38.1562 163.786 37.4167 163.906 36.5469H169.797V45H168.117V37.7266H165.359C165.214 38.8203 165.081 39.7422 164.961 40.4922C164.846 41.237 164.747 41.8047 164.664 42.1953C164.503 42.9818 164.326 43.5807 164.133 43.9922ZM177.562 38.4375L173.797 45H172.016V36.5469H173.602V40.8984C173.602 41.0964 173.594 41.3281 173.578 41.5938C173.568 41.8542 173.555 42.1172 173.539 42.3828C173.529 42.6484 173.516 42.8828 173.5 43.0859L177.266 36.5469H179.031V45H177.461V40.1328C177.461 39.987 177.466 39.8021 177.477 39.5781C177.487 39.3542 177.5 39.1354 177.516 38.9219C177.536 38.7031 177.552 38.5417 177.562 38.4375ZM182.898 41.3516V45H181.227V36.5469H182.898V40.2266C183.076 40.2214 183.224 40.1927 183.344 40.1406C183.464 40.0885 183.589 39.9922 183.719 39.8516C183.781 39.7786 183.849 39.6953 183.922 39.6016C184 39.5026 184.078 39.3906 184.156 39.2656C184.24 39.1458 184.414 38.8594 184.68 38.4062C184.951 37.9479 185.312 37.3281 185.766 36.5469H187.461L185.797 39.2344C185.401 39.849 185.091 40.2474 184.867 40.4297L187.531 45H185.742L183.688 41.2188C183.594 41.2552 183.471 41.2865 183.32 41.3125C183.174 41.3385 183.034 41.3516 182.898 41.3516ZM190.898 45.1562C190.06 45.1562 189.422 44.9323 188.984 44.4844C188.547 44.0365 188.328 43.4193 188.328 42.6328C188.328 41.7578 188.615 41.0885 189.188 40.625C189.76 40.1615 190.656 39.9141 191.875 39.8828L193.742 39.8516V39.4062C193.742 38.7604 193.612 38.2943 193.352 38.0078C193.096 37.7214 192.688 37.5781 192.125 37.5781C191.568 37.5781 191.161 37.6797 190.906 37.8828C190.656 38.0859 190.503 38.4167 190.445 38.875L188.703 38.75C188.958 37.1771 190.117 36.3906 192.18 36.3906C193.242 36.3906 194.047 36.6406 194.594 37.1406C195.146 37.6406 195.422 38.3594 195.422 39.2969V42.75C195.422 43.1875 195.477 43.5078 195.586 43.7109C195.695 43.9089 195.893 44.0078 196.18 44.0078C196.336 44.0078 196.492 43.9896 196.648 43.9531V44.9297C196.44 44.9818 196.242 45.0208 196.055 45.0469C195.872 45.0729 195.674 45.0859 195.461 45.0859C194.93 45.0859 194.539 44.9505 194.289 44.6797C194.044 44.4036 193.904 43.9844 193.867 43.4219H193.82C193.477 44.0365 193.068 44.4792 192.594 44.75C192.125 45.0208 191.56 45.1562 190.898 45.1562ZM193.742 40.9141L192.344 40.9375C191.734 40.9531 191.281 41.0182 190.984 41.1328C190.682 41.2474 190.451 41.4219 190.289 41.6562C190.133 41.8906 190.055 42.2005 190.055 42.5859C190.055 43.0286 190.167 43.3672 190.391 43.6016C190.62 43.8307 190.938 43.9453 191.344 43.9453C191.807 43.9453 192.219 43.8359 192.578 43.6172C192.938 43.3984 193.221 43.099 193.43 42.7188C193.638 42.3333 193.742 41.9349 193.742 41.5234V40.9141Z" fill="#343436"/>
<path d="M208.398 38.3516V40.2969H206.633V38.3516H208.398Z" fill="#9999A0"/>
<path d="M221.992 40.0625V45H220.234V33.9922H221.992V38.7734C222.299 38.7734 222.555 38.724 222.758 38.625C222.966 38.526 223.18 38.3542 223.398 38.1094C223.685 37.7969 224.091 37.2344 224.617 36.4219L226.219 33.9922H228.039L225.875 37.1797C225.203 38.1693 224.745 38.7526 224.5 38.9297L228.414 45H226.422L223.227 39.7734C223.102 39.8411 222.911 39.9062 222.656 39.9688C222.401 40.0312 222.18 40.0625 221.992 40.0625ZM233.148 40.0625C234.268 40.0625 235.115 40.2578 235.688 40.6484C236.266 41.0391 236.555 41.651 236.555 42.4844C236.555 43.2969 236.258 43.9193 235.664 44.3516C235.076 44.7839 234.24 45 233.156 45H229.578V36.5469H231.25V40.0625H233.148ZM239.578 36.5469V45H237.906V36.5469H239.578ZM231.25 43.8828H232.859C233.536 43.8828 234.031 43.7708 234.344 43.5469C234.656 43.3229 234.812 42.9688 234.812 42.4844C234.812 42.026 234.661 41.6927 234.359 41.4844C234.057 41.2708 233.56 41.1641 232.867 41.1641H231.25V43.8828ZM249.211 40.7344C249.211 42.1875 248.943 43.2891 248.406 44.0391C247.875 44.7839 247.091 45.1562 246.055 45.1562C244.779 45.1562 243.911 44.6641 243.453 43.6797H243.414C243.435 43.7526 243.445 44.2057 243.445 45.0391V48.3203H241.781V38.3438C241.781 37.9219 241.776 37.5625 241.766 37.2656C241.755 36.9635 241.742 36.724 241.727 36.5469H243.344C243.354 36.5833 243.365 36.6875 243.375 36.8594C243.391 37.026 243.404 37.2109 243.414 37.4141C243.424 37.6172 243.43 37.7839 243.43 37.9141H243.461C243.706 37.3932 244.042 37.0104 244.469 36.7656C244.896 36.5156 245.44 36.3906 246.102 36.3906C247.128 36.3906 247.901 36.75 248.422 37.4688C248.948 38.1823 249.211 39.2708 249.211 40.7344ZM247.461 40.7578C247.461 39.6536 247.307 38.8542 247 38.3594C246.693 37.8646 246.211 37.6172 245.555 37.6172C244.846 37.6172 244.315 37.8802 243.961 38.4062C243.612 38.9323 243.438 39.7474 243.438 40.8516C243.438 41.8932 243.607 42.6719 243.945 43.1875C244.284 43.7031 244.815 43.9609 245.539 43.9609C246.201 43.9609 246.685 43.7109 246.992 43.2109C247.305 42.7057 247.461 41.888 247.461 40.7578ZM252.656 37.7266V45H250.984V36.5469H255.531V37.7266H252.656ZM260.664 40.0625C261.784 40.0625 262.63 40.2578 263.203 40.6484C263.781 41.0391 264.07 41.651 264.07 42.4844C264.07 43.2969 263.773 43.9193 263.18 44.3516C262.591 44.7839 261.755 45 260.672 45H257.094V36.5469H258.766V40.0625H260.664ZM267.094 36.5469V45H265.422V36.5469H267.094ZM258.766 43.8828H260.375C261.052 43.8828 261.547 43.7708 261.859 43.5469C262.172 43.3229 262.328 42.9688 262.328 42.4844C262.328 42.026 262.177 41.6927 261.875 41.4844C261.573 41.2708 261.076 41.1641 260.383 41.1641H258.766V43.8828ZM271.875 45.1562C270.984 45.1562 270.271 44.9792 269.734 44.625C269.203 44.2656 268.823 43.7344 268.594 43.0312L270.055 42.6875C270.174 43.099 270.391 43.4167 270.703 43.6406C271.021 43.8594 271.417 43.9688 271.891 43.9688C272.359 43.9688 272.729 43.8542 273 43.625C273.276 43.3906 273.414 43.0599 273.414 42.6328C273.414 42.138 273.214 41.7708 272.812 41.5312C272.411 41.2917 271.781 41.1719 270.922 41.1719V40C271.745 40 272.344 39.8958 272.719 39.6875C273.099 39.4792 273.289 39.1562 273.289 38.7188C273.289 38.3594 273.169 38.0755 272.93 37.8672C272.69 37.6589 272.346 37.5547 271.898 37.5547C271.451 37.5547 271.086 37.6536 270.805 37.8516C270.529 38.0443 270.362 38.3203 270.305 38.6797L268.844 38.5156C268.969 37.8125 269.294 37.2839 269.82 36.9297C270.346 36.5703 271.057 36.3906 271.953 36.3906C272.849 36.3906 273.57 36.5964 274.117 37.0078C274.669 37.4193 274.945 37.9531 274.945 38.6094C274.945 39.1302 274.763 39.5651 274.398 39.9141C274.039 40.263 273.576 40.474 273.008 40.5469V40.5625C273.648 40.6354 274.167 40.8594 274.562 41.2344C274.964 41.6042 275.164 42.0677 275.164 42.625C275.164 43.4167 274.872 44.0365 274.289 44.4844C273.706 44.9323 272.901 45.1562 271.875 45.1562ZM279.93 45.1562C278.711 45.1562 277.779 44.7812 277.133 44.0312C276.487 43.276 276.164 42.1927 276.164 40.7812C276.164 39.3698 276.49 38.2865 277.141 37.5312C277.792 36.7708 278.721 36.3906 279.93 36.3906C280.836 36.3906 281.586 36.625 282.18 37.0938C282.779 37.5573 283.156 38.1979 283.312 39.0156L281.609 39.125C281.542 38.6667 281.367 38.3021 281.086 38.0312C280.805 37.7604 280.404 37.625 279.883 37.625C279.201 37.625 278.701 37.8698 278.383 38.3594C278.065 38.8438 277.906 39.6354 277.906 40.7344C277.906 41.8073 278.073 42.6068 278.406 43.1328C278.74 43.6536 279.24 43.9141 279.906 43.9141C280.38 43.9141 280.776 43.7812 281.094 43.5156C281.411 43.2448 281.607 42.8359 281.68 42.2891L283.359 42.3828C283.286 42.9453 283.096 43.4349 282.789 43.8516C282.482 44.263 282.083 44.5833 281.594 44.8125C281.109 45.0417 280.555 45.1562 279.93 45.1562ZM288.383 37.7266V45H286.711V37.7266H284.133V36.5469H290.961V37.7266H288.383ZM294.352 45.1562C293.513 45.1562 292.875 44.9323 292.438 44.4844C292 44.0365 291.781 43.4193 291.781 42.6328C291.781 41.7578 292.068 41.0885 292.641 40.625C293.214 40.1615 294.109 39.9141 295.328 39.8828L297.195 39.8516V39.4062C297.195 38.7604 297.065 38.2943 296.805 38.0078C296.549 37.7214 296.141 37.5781 295.578 37.5781C295.021 37.5781 294.615 37.6797 294.359 37.8828C294.109 38.0859 293.956 38.4167 293.898 38.875L292.156 38.75C292.411 37.1771 293.57 36.3906 295.633 36.3906C296.695 36.3906 297.5 36.6406 298.047 37.1406C298.599 37.6406 298.875 38.3594 298.875 39.2969V42.75C298.875 43.1875 298.93 43.5078 299.039 43.7109C299.148 43.9089 299.346 44.0078 299.633 44.0078C299.789 44.0078 299.945 43.9896 300.102 43.9531V44.9297C299.893 44.9818 299.695 45.0208 299.508 45.0469C299.326 45.0729 299.128 45.0859 298.914 45.0859C298.383 45.0859 297.992 44.9505 297.742 44.6797C297.497 44.4036 297.357 43.9844 297.32 43.4219H297.273C296.93 44.0365 296.521 44.4792 296.047 44.75C295.578 45.0208 295.013 45.1562 294.352 45.1562ZM297.195 40.9141L295.797 40.9375C295.188 40.9531 294.734 41.0182 294.438 41.1328C294.135 41.2474 293.904 41.4219 293.742 41.6562C293.586 41.8906 293.508 42.2005 293.508 42.5859C293.508 43.0286 293.62 43.3672 293.844 43.6016C294.073 43.8307 294.391 43.9453 294.797 43.9453C295.26 43.9453 295.672 43.8359 296.031 43.6172C296.391 43.3984 296.674 43.099 296.883 42.7188C297.091 42.3333 297.195 41.9349 297.195 41.5234V40.9141ZM302.859 41.2266V45H301.188V36.5469H302.859V40.0469H306.406V36.5469H308.078V45H306.406V41.2266H302.859Z" fill="#343436"/>
<path d="M321.398 38.3516V40.2969H319.633V38.3516H321.398Z" fill="#9999A0"/>
<path d="M334.617 45.1562C334.279 45.1562 333.93 45.1068 333.57 45.0078C333.216 44.9141 332.924 44.7891 332.695 44.6328L333.328 43.2422C333.812 43.5234 334.24 43.6641 334.609 43.6641C334.87 43.6641 335.089 43.6146 335.266 43.5156C335.443 43.4167 335.617 43.2474 335.789 43.0078C335.966 42.7682 336.276 42.2292 336.719 41.3906L332.289 33.9922H334.227L337.57 39.8438L340.352 33.9922H342.195L337.82 42.5156C337.409 43.3125 337.06 43.8776 336.773 44.2109C336.492 44.5391 336.18 44.7786 335.836 44.9297C335.497 45.0807 335.091 45.1562 334.617 45.1562ZM344.164 41.3516V45H342.492V36.5469H344.164V40.2266C344.341 40.2214 344.49 40.1927 344.609 40.1406C344.729 40.0885 344.854 39.9922 344.984 39.8516C345.047 39.7786 345.115 39.6953 345.188 39.6016C345.266 39.5026 345.344 39.3906 345.422 39.2656C345.505 39.1458 345.68 38.8594 345.945 38.4062C346.216 37.9479 346.578 37.3281 347.031 36.5469H348.727L347.062 39.2344C346.667 39.849 346.357 40.2474 346.133 40.4297L348.797 45H347.008L344.953 41.2188C344.859 41.2552 344.737 41.2865 344.586 41.3125C344.44 41.3385 344.299 41.3516 344.164 41.3516ZM357.273 40.7344C357.273 42.1875 357.005 43.2891 356.469 44.0391C355.938 44.7839 355.154 45.1562 354.117 45.1562C352.841 45.1562 351.974 44.6641 351.516 43.6797H351.477C351.497 43.7526 351.508 44.2057 351.508 45.0391V48.3203H349.844V38.3438C349.844 37.9219 349.839 37.5625 349.828 37.2656C349.818 36.9635 349.805 36.724 349.789 36.5469H351.406C351.417 36.5833 351.427 36.6875 351.438 36.8594C351.453 37.026 351.466 37.2109 351.477 37.4141C351.487 37.6172 351.492 37.7839 351.492 37.9141H351.523C351.768 37.3932 352.104 37.0104 352.531 36.7656C352.958 36.5156 353.503 36.3906 354.164 36.3906C355.19 36.3906 355.964 36.75 356.484 37.4688C357.01 38.1823 357.273 39.2708 357.273 40.7344ZM355.523 40.7578C355.523 39.6536 355.37 38.8542 355.062 38.3594C354.755 37.8646 354.273 37.6172 353.617 37.6172C352.909 37.6172 352.378 37.8802 352.023 38.4062C351.674 38.9323 351.5 39.7474 351.5 40.8516C351.5 41.8932 351.669 42.6719 352.008 43.1875C352.346 43.7031 352.878 43.9609 353.602 43.9609C354.263 43.9609 354.747 43.7109 355.055 43.2109C355.367 42.7057 355.523 41.888 355.523 40.7578ZM361.117 45.1562C360.279 45.1562 359.641 44.9323 359.203 44.4844C358.766 44.0365 358.547 43.4193 358.547 42.6328C358.547 41.7578 358.833 41.0885 359.406 40.625C359.979 40.1615 360.875 39.9141 362.094 39.8828L363.961 39.8516V39.4062C363.961 38.7604 363.831 38.2943 363.57 38.0078C363.315 37.7214 362.906 37.5781 362.344 37.5781C361.786 37.5781 361.38 37.6797 361.125 37.8828C360.875 38.0859 360.721 38.4167 360.664 38.875L358.922 38.75C359.177 37.1771 360.336 36.3906 362.398 36.3906C363.461 36.3906 364.266 36.6406 364.812 37.1406C365.365 37.6406 365.641 38.3594 365.641 39.2969V42.75C365.641 43.1875 365.695 43.5078 365.805 43.7109C365.914 43.9089 366.112 44.0078 366.398 44.0078C366.555 44.0078 366.711 43.9896 366.867 43.9531V44.9297C366.659 44.9818 366.461 45.0208 366.273 45.0469C366.091 45.0729 365.893 45.0859 365.68 45.0859C365.148 45.0859 364.758 44.9505 364.508 44.6797C364.263 44.4036 364.122 43.9844 364.086 43.4219H364.039C363.695 44.0365 363.286 44.4792 362.812 44.75C362.344 45.0208 361.779 45.1562 361.117 45.1562ZM363.961 40.9141L362.562 40.9375C361.953 40.9531 361.5 41.0182 361.203 41.1328C360.901 41.2474 360.669 41.4219 360.508 41.6562C360.352 41.8906 360.273 42.2005 360.273 42.5859C360.273 43.0286 360.385 43.3672 360.609 43.6016C360.839 43.8307 361.156 43.9453 361.562 43.9453C362.026 43.9453 362.438 43.8359 362.797 43.6172C363.156 43.3984 363.44 43.099 363.648 42.7188C363.857 42.3333 363.961 41.9349 363.961 41.5234V40.9141ZM373.5 38.4375L369.734 45H367.953V36.5469H369.539V40.8984C369.539 41.0964 369.531 41.3281 369.516 41.5938C369.505 41.8542 369.492 42.1172 369.477 42.3828C369.466 42.6484 369.453 42.8828 369.438 43.0859L373.203 36.5469H374.969V45H373.398V40.1328C373.398 39.987 373.404 39.8021 373.414 39.5781C373.424 39.3542 373.438 39.1354 373.453 38.9219C373.474 38.7031 373.49 38.5417 373.5 38.4375ZM378.859 41.2266V45H377.188V36.5469H378.859V40.0469H382.406V36.5469H384.078V45H382.406V41.2266H378.859ZM388.367 45.1562C387.529 45.1562 386.891 44.9323 386.453 44.4844C386.016 44.0365 385.797 43.4193 385.797 42.6328C385.797 41.7578 386.083 41.0885 386.656 40.625C387.229 40.1615 388.125 39.9141 389.344 39.8828L391.211 39.8516V39.4062C391.211 38.7604 391.081 38.2943 390.82 38.0078C390.565 37.7214 390.156 37.5781 389.594 37.5781C389.036 37.5781 388.63 37.6797 388.375 37.8828C388.125 38.0859 387.971 38.4167 387.914 38.875L386.172 38.75C386.427 37.1771 387.586 36.3906 389.648 36.3906C390.711 36.3906 391.516 36.6406 392.062 37.1406C392.615 37.6406 392.891 38.3594 392.891 39.2969V42.75C392.891 43.1875 392.945 43.5078 393.055 43.7109C393.164 43.9089 393.362 44.0078 393.648 44.0078C393.805 44.0078 393.961 43.9896 394.117 43.9531V44.9297C393.909 44.9818 393.711 45.0208 393.523 45.0469C393.341 45.0729 393.143 45.0859 392.93 45.0859C392.398 45.0859 392.008 44.9505 391.758 44.6797C391.513 44.4036 391.372 43.9844 391.336 43.4219H391.289C390.945 44.0365 390.536 44.4792 390.062 44.75C389.594 45.0208 389.029 45.1562 388.367 45.1562ZM391.211 40.9141L389.812 40.9375C389.203 40.9531 388.75 41.0182 388.453 41.1328C388.151 41.2474 387.919 41.4219 387.758 41.6562C387.602 41.8906 387.523 42.2005 387.523 42.5859C387.523 43.0286 387.635 43.3672 387.859 43.6016C388.089 43.8307 388.406 43.9453 388.812 43.9453C389.276 43.9453 389.688 43.8359 390.047 43.6172C390.406 43.3984 390.69 43.099 390.898 42.7188C391.107 42.3333 391.211 41.9349 391.211 41.5234V40.9141Z" fill="#343436"/>
</svg>
