<svg width="198" height="135" viewBox="0 0 198 135" fill="none" xmlns="http://www.w3.org/2000/svg">
<path d="M102.697 132.74C106.764 129.145 114 121.801 114 115.062C114 111.333 112.525 107.757 109.899 105.12C107.274 102.483 103.713 101.002 100 101.002C96.287 101.002 92.726 102.483 90.1005 105.12C87.475 107.757 86 111.333 86 115.062C86 121.801 93.2333 129.145 97.3027 132.74C98.0449 133.405 99.9297 135.002 99.9297 135.002C99.9297 135.002 101.955 133.405 102.697 132.74Z" fill="#9999A0"/>
<circle cx="100" cy="116.002" r="6" fill="#080809"/>
<path d="M124.697 124.74C128.764 121.145 136 113.801 136 107.062C136 103.333 134.525 99.7568 131.899 97.12C129.274 94.4833 125.713 93.002 122 93.002C118.287 93.002 114.726 94.4833 112.101 97.12C109.475 99.7568 108 103.333 108 107.062C108 113.801 115.233 121.145 119.303 124.74C120.045 125.405 121.93 127.002 121.93 127.002C121.93 127.002 123.955 125.405 124.697 124.74Z" fill="#B8F229"/>
<circle cx="122" cy="108.002" r="6" fill="#080809"/>
<path d="M65.6973 98.7399C69.7643 95.1453 77 87.8013 77 81.0619C77 77.333 75.525 73.7568 72.8995 71.12C70.274 68.4833 66.713 67.002 63 67.002C59.287 67.002 55.726 68.4833 53.1005 71.12C50.475 73.7568 49 77.333 49 81.0619C49 87.8013 56.2333 95.1453 60.3027 98.7399C61.0449 99.4053 62.9297 101.002 62.9297 101.002C62.9297 101.002 64.9551 99.4053 65.6973 98.7399Z" fill="#9999A0"/>
<circle cx="63" cy="82.002" r="6" fill="#080809"/>
<path d="M74.6973 112.738C78.7643 109.143 86 101.799 86 95.0599C86 91.331 84.525 87.7548 81.8995 85.1181C79.274 82.4813 75.713 81 72 81C68.287 81 64.726 82.4813 62.1005 85.1181C59.475 87.7548 58 91.331 58 95.0599C58 101.799 65.2333 109.143 69.3027 112.738C70.0449 113.403 71.9297 115 71.9297 115C71.9297 115 73.9551 113.403 74.6973 112.738Z" fill="#9999A0"/>
<circle cx="72" cy="96" r="6" fill="#080809"/>
<path d="M43.6973 110.74C47.7643 107.145 55 99.8013 55 93.0619C55 89.333 53.525 85.7568 50.8995 83.12C48.274 80.4833 44.713 79.002 41 79.002C37.287 79.002 33.726 80.4833 31.1005 83.12C28.475 85.7568 27 89.333 27 93.0619C27 99.8013 34.2333 107.145 38.3027 110.74C39.0449 111.405 40.9297 113.002 40.9297 113.002C40.9297 113.002 42.9551 111.405 43.6973 110.74Z" fill="#9999A0"/>
<circle cx="41" cy="94.002" r="6" fill="#080809"/>
<path d="M19.6973 108.74C23.7643 105.145 31 97.8013 31 91.0619C31 87.333 29.525 83.7568 26.8995 81.12C24.274 78.4833 20.713 77.002 17 77.002C13.287 77.002 9.72601 78.4833 7.1005 81.12C4.475 83.7568 3 87.333 3 91.0619C3 97.8013 10.2333 105.145 14.3027 108.74C15.0449 109.405 16.9297 111.002 16.9297 111.002C16.9297 111.002 18.9551 109.405 19.6973 108.74Z" fill="#9999A0"/>
<circle cx="17" cy="92.002" r="6" fill="#080809"/>
<path d="M16.6973 79.7399C20.7643 76.1453 28 68.8013 28 62.0619C28 58.333 26.525 54.7568 23.8995 52.12C21.274 49.4833 17.713 48.002 14 48.002C10.287 48.002 6.72601 49.4833 4.1005 52.12C1.475 54.7568 5.53285e-08 58.333 0 62.0619C0 68.8013 7.23333 76.1453 11.3027 79.7399C12.0449 80.4053 13.9297 82.002 13.9297 82.002C13.9297 82.002 15.9551 80.4053 16.6973 79.7399Z" fill="#9999A0"/>
<circle cx="14" cy="63.002" r="6" fill="#080809"/>
<rect x="47" width="151" height="90" rx="12" fill="#B8F229"/>
<g clip-path="url(#clip0_2693_29164)">
<path d="M59 9H83V33H59V9Z" fill="#00ABC2"/>
<path d="M71.9701 22.3085C73.7542 22.3085 75.2005 20.8622 75.2005 19.0781C75.2005 17.294 73.7542 15.8477 71.9701 15.8477C70.186 15.8477 68.7397 17.294 68.7397 19.0781C68.7397 20.8622 70.186 22.3085 71.9701 22.3085Z" fill="#FFEC2D"/>
<path d="M71.9701 15.4089C72.1621 15.4065 72.2341 15.2865 72.2341 15.1425C72.2341 14.9505 71.9701 14.0361 71.9701 14.0361C71.9701 14.0361 71.7061 14.9505 71.7061 15.1425C71.7061 15.2865 71.7781 15.4089 71.9701 15.4089Z" fill="#FFEC2D"/>
<path d="M75.6397 19.0785C75.6421 19.2705 75.7621 19.3425 75.9061 19.3425C76.0981 19.3425 77.0125 19.0785 77.0125 19.0785C77.0125 19.0785 76.0981 18.8145 75.9061 18.8145C75.7621 18.8145 75.6397 18.8865 75.6397 19.0785Z" fill="#FFEC2D"/>
<path d="M71.9701 22.7483C71.7781 22.7507 71.7061 22.8707 71.7061 23.0147C71.7061 23.2067 71.9701 24.1211 71.9701 24.1211C71.9701 24.1211 72.2341 23.2067 72.2341 23.0147C72.2341 22.8707 72.1621 22.7483 71.9701 22.7483Z" fill="#FFEC2D"/>
<path d="M68.3005 19.0788C68.2981 18.8868 68.1781 18.8148 68.0341 18.8148C67.8421 18.8148 66.9277 19.0788 66.9277 19.0788C66.9277 19.0788 67.8421 19.3428 68.0341 19.3428C68.1781 19.3428 68.3005 19.2708 68.3005 19.0788Z" fill="#FFEC2D"/>
<path d="M73.3743 15.6877C73.5526 15.7589 73.6651 15.6756 73.7202 15.5426C73.7936 15.3652 73.8997 14.4194 73.8997 14.4194C73.8997 14.4194 73.3058 15.1632 73.2324 15.3405C73.1773 15.4736 73.1969 15.6142 73.3743 15.6877Z" fill="#FFEC2D"/>
<path d="M75.3604 20.4822C75.2891 20.6605 75.3725 20.773 75.5055 20.8281C75.6829 20.9016 76.6287 21.0076 76.6287 21.0076C76.6287 21.0076 75.8849 20.4137 75.7076 20.3403C75.5745 20.2852 75.4339 20.3048 75.3604 20.4822Z" fill="#FFEC2D"/>
<path d="M70.5659 22.4686C70.3876 22.3973 70.2751 22.4806 70.22 22.6137C70.1465 22.791 70.0405 23.7369 70.0405 23.7369C70.0405 23.7369 70.6343 22.9931 70.7078 22.8157C70.7629 22.6827 70.7433 22.542 70.5659 22.4686Z" fill="#FFEC2D"/>
<path d="M68.5798 17.674C68.651 17.4957 68.5677 17.3833 68.4347 17.3282C68.2573 17.2547 67.3115 17.1487 67.3115 17.1487C67.3115 17.1487 68.0552 17.7425 68.2326 17.816C68.3657 17.8711 68.5063 17.8514 68.5798 17.674Z" fill="#FFEC2D"/>
<path d="M74.5646 16.4836C74.7021 16.6176 74.8378 16.5837 74.9396 16.4819C75.0754 16.3461 75.5353 15.5128 75.5353 15.5128C75.5353 15.5128 74.7021 15.9728 74.5663 16.1085C74.4645 16.2103 74.4288 16.3478 74.5646 16.4836Z" fill="#FFEC2D"/>
<path d="M74.5648 21.673C74.4307 21.8105 74.4646 21.9462 74.5665 22.048C74.7022 22.1838 75.5355 22.6437 75.5355 22.6437C75.5355 22.6437 75.0756 21.8105 74.9398 21.6747C74.838 21.5729 74.7005 21.5372 74.5648 21.673Z" fill="#FFEC2D"/>
<path d="M69.3751 21.6737C69.2376 21.5396 69.1019 21.5735 69.0001 21.6754C68.8643 21.8111 68.4044 22.6444 68.4044 22.6444C68.4044 22.6444 69.2376 22.1845 69.3734 22.0487C69.4752 21.9469 69.5109 21.8094 69.3751 21.6737Z" fill="#FFEC2D"/>
<path d="M69.3752 16.4833C69.5092 16.3458 69.4753 16.21 69.3735 16.1082C69.2377 15.9724 68.4044 15.5125 68.4044 15.5125C68.4044 15.5125 68.8644 16.3458 69.0001 16.4816C69.1019 16.5834 69.2394 16.619 69.3752 16.4833Z" fill="#FFEC2D"/>
<path d="M75.3603 17.6745C75.436 17.851 75.5744 17.8716 75.7075 17.8165C75.8848 17.743 76.6286 17.1492 76.6286 17.1492C76.6286 17.1492 75.6828 17.2552 75.5054 17.3287C75.3724 17.3838 75.2868 17.4971 75.3603 17.6745Z" fill="#FFEC2D"/>
<path d="M73.3743 22.4694C73.1978 22.5451 73.1772 22.6836 73.2323 22.8166C73.3058 22.994 73.8997 23.7377 73.8997 23.7377C73.8997 23.7377 73.7936 22.7919 73.7202 22.6145C73.665 22.4815 73.5517 22.396 73.3743 22.4694Z" fill="#FFEC2D"/>
<path d="M68.5799 20.4827C68.5042 20.3062 68.3658 20.2856 68.2327 20.3407C68.0553 20.4142 67.3116 21.008 67.3116 21.008C67.3116 21.008 68.2574 20.902 68.4348 20.8286C68.5678 20.7734 68.6533 20.6601 68.5799 20.4827Z" fill="#FFEC2D"/>
<path d="M70.5659 15.6888C70.7423 15.6131 70.7629 15.4746 70.7078 15.3416C70.6344 15.1642 70.0405 14.4205 70.0405 14.4205C70.0405 14.4205 70.1466 15.3663 70.22 15.5437C70.2751 15.6767 70.3885 15.7622 70.5659 15.6888Z" fill="#FFEC2D"/>
<path d="M72.6891 15.4799C72.8779 15.5152 72.972 15.4117 73.0002 15.2704C73.0378 15.0822 72.9581 14.1338 72.9581 14.1338C72.9581 14.1338 72.52 14.9787 72.4824 15.167C72.4542 15.3082 72.5008 15.4423 72.6891 15.4799Z" fill="#FFEC2D"/>
<path d="M75.5686 19.7975C75.5334 19.9863 75.6369 20.0804 75.7781 20.1086C75.9664 20.1462 76.9148 20.0665 76.9148 20.0665C76.9148 20.0665 76.0699 19.6284 75.8816 19.5908C75.7404 19.5626 75.6063 19.6092 75.5686 19.7975Z" fill="#FFEC2D"/>
<path d="M71.2511 22.6763C71.0623 22.641 70.9682 22.7446 70.94 22.8858C70.9024 23.0741 70.9821 24.0225 70.9821 24.0225C70.9821 24.0225 71.4201 23.1775 71.4578 22.9893C71.486 22.8481 71.4394 22.7139 71.2511 22.6763Z" fill="#FFEC2D"/>
<path d="M68.3716 18.3587C68.4068 18.17 68.3033 18.0759 68.162 18.0477C67.9738 18.01 67.0254 18.0898 67.0254 18.0898C67.0254 18.0898 67.8703 18.5278 68.0586 18.5654C68.1998 18.5936 68.3339 18.547 68.3716 18.3587Z" fill="#FFEC2D"/>
<path d="M74.0116 16.0288C74.1725 16.1337 74.2991 16.074 74.3792 15.9543C74.486 15.7948 74.7753 14.8881 74.7753 14.8881C74.7753 14.8881 74.0472 15.5011 73.9404 15.6606C73.8603 15.7803 73.8521 15.922 74.0116 16.0288Z" fill="#FFEC2D"/>
<path d="M75.0195 21.1198C74.9147 21.2806 74.9743 21.4072 75.094 21.4873C75.2536 21.5941 76.1603 21.8834 76.1603 21.8834C76.1603 21.8834 75.5473 21.1554 75.3877 21.0486C75.2681 20.9685 75.1263 20.9602 75.0195 21.1198Z" fill="#FFEC2D"/>
<path d="M69.9288 22.1274C69.7679 22.0226 69.6414 22.0823 69.5612 22.2019C69.4544 22.3615 69.1651 23.2682 69.1651 23.2682C69.1651 23.2682 69.8932 22.6552 70 22.4956C70.0801 22.376 70.0884 22.2342 69.9288 22.1274Z" fill="#FFEC2D"/>
<path d="M68.9207 17.0365C69.0255 16.8756 68.9658 16.749 68.8462 16.6689C68.6866 16.5621 67.7799 16.2728 67.7799 16.2728C67.7799 16.2728 68.3929 17.0009 68.5525 17.1077C68.6721 17.1878 68.8139 17.196 68.9207 17.0365Z" fill="#FFEC2D"/>
<path d="M75.0232 17.0428C75.1317 17.2013 75.2715 17.1946 75.3913 17.1147C75.551 17.0081 76.1653 16.2812 76.1653 16.2812C76.1653 16.2812 75.2581 16.5689 75.0983 16.6754C74.9785 16.7553 74.9166 16.8831 75.0232 17.0428Z" fill="#FFEC2D"/>
<path d="M74.0062 22.1313C73.8478 22.2399 73.8545 22.3796 73.9344 22.4994C74.0409 22.6592 74.7679 23.2734 74.7679 23.2734C74.7679 23.2734 74.4802 22.3662 74.3737 22.2065C74.2938 22.0867 74.166 22.0248 74.0062 22.1313Z" fill="#FFEC2D"/>
<path d="M68.9173 21.1144C68.8087 20.956 68.6689 20.9627 68.5491 21.0426C68.3894 21.1491 67.7752 21.8761 67.7752 21.8761C67.7752 21.8761 68.6824 21.5884 68.8421 21.4818C68.9619 21.4019 69.0238 21.2741 68.9173 21.1144Z" fill="#FFEC2D"/>
<path d="M69.9342 16.0259C70.0926 15.9174 70.0859 15.7776 70.006 15.6578C69.8995 15.4981 69.1725 14.8838 69.1725 14.8838C69.1725 14.8838 69.4602 15.791 69.5668 15.9507C69.6467 16.0705 69.7745 16.1324 69.9342 16.0259Z" fill="#FFEC2D"/>
<path d="M75.5699 18.3664C75.6095 18.5543 75.7412 18.6016 75.8825 18.5737C76.0708 18.5364 76.9165 18.0998 76.9165 18.0998C76.9165 18.0998 75.9682 18.0184 75.7799 18.0557C75.6386 18.0837 75.5326 18.1781 75.5699 18.3664Z" fill="#FFEC2D"/>
<path d="M72.6829 22.6783C72.495 22.7179 72.4477 22.8496 72.4757 22.9909C72.5129 23.1792 72.9495 24.0249 72.9495 24.0249C72.9495 24.0249 73.0309 23.0766 72.9936 22.8883C72.9656 22.747 72.8712 22.641 72.6829 22.6783Z" fill="#FFEC2D"/>
<path d="M68.3703 19.7918C68.3307 19.6039 68.199 19.5566 68.0577 19.5845C67.8694 19.6218 67.0237 20.0584 67.0237 20.0584C67.0237 20.0584 67.9719 20.1398 68.1603 20.1025C68.3015 20.0745 68.4076 19.9801 68.3703 19.7918Z" fill="#FFEC2D"/>
<path d="M71.2573 15.479C71.4452 15.4393 71.4925 15.3076 71.4645 15.1664C71.4272 14.978 70.9907 14.1323 70.9907 14.1323C70.9907 14.1323 70.9093 15.0806 70.9466 15.2689C70.9746 15.4102 71.069 15.5163 71.2573 15.479Z" fill="#FFEC2D"/>
<path d="M71.8581 24.7206C71.7741 24.8718 71.7237 25.047 71.6181 25.1838C71.2917 24.8886 70.8213 24.8958 70.4085 24.879C70.0677 24.8598 69.6981 24.8286 69.4341 24.5862C69.1581 24.3582 68.9301 24.0654 68.6229 23.8806C68.3342 23.8184 68.0629 23.693 67.8285 23.5134C67.3437 23.1174 67.0653 22.5294 66.5901 22.1214C66.5013 22.035 66.3933 21.9654 66.2925 21.891C66.1965 21.915 66.2397 22.1214 66.1221 22.0158C66.0573 21.9678 65.8965 21.9654 65.8821 22.0302C66.0261 22.2222 66.1725 22.4382 66.1941 22.683C66.0933 22.6926 65.9181 22.6614 65.8701 22.6974C66.002 22.8952 66.1677 23.0682 66.3597 23.2086C66.2685 23.223 66.0885 23.2158 66.0525 23.2518C66.2322 23.4238 66.454 23.5455 66.6957 23.6046C66.7437 23.6718 66.6213 23.8014 66.7269 23.859C66.7869 23.883 66.9885 23.9262 66.8493 23.9958C66.7533 24.0582 66.7893 24.2094 66.9117 24.2046C66.9885 24.2454 67.1613 24.2526 67.1757 24.3246C67.1061 24.3918 66.8949 24.4734 67.0749 24.5406C67.2446 24.6367 67.4345 24.6918 67.6293 24.7014C67.5333 24.783 67.4133 24.8286 67.3149 24.9054C67.7589 25.167 68.2509 25.3374 68.7405 25.5054C68.9325 25.5678 69.1317 25.6278 69.3333 25.6662C68.7477 25.6326 68.1813 25.4598 67.6485 25.2222C67.3725 25.1022 67.0965 24.9846 66.8133 24.8814C66.9357 24.8166 67.0797 24.7998 67.2093 24.7446C66.9405 24.6918 66.6501 24.6726 66.4173 24.5286C66.4509 24.4614 66.5853 24.459 66.6621 24.4254C66.8061 24.3918 66.8925 24.3534 66.6933 24.339C66.4917 24.2838 66.2613 24.3078 66.0813 24.1878C66.0933 24.1158 66.2805 24.1398 66.3549 24.1086C66.4509 24.0918 66.5565 24.0774 66.6333 24.0126C66.3213 23.8854 65.9133 23.9766 65.6685 23.7006C65.6133 23.595 65.8437 23.679 65.9085 23.6622C66.0765 23.6622 66.2565 23.715 66.4173 23.6478C65.9613 23.4486 65.4741 23.2638 65.1285 22.8942C65.0901 22.8342 64.9749 22.671 65.0685 22.6518C65.3373 22.6878 65.5317 22.9806 65.8221 22.935C65.8605 22.8846 65.6541 22.8006 65.6013 22.7262C65.1672 22.3773 64.7884 21.9646 64.4781 21.5022C64.4589 21.3414 64.7061 21.3174 64.7709 21.4398C65.0925 21.7518 65.3829 22.1118 65.7837 22.323C65.9277 22.3926 65.7021 22.2414 65.6733 22.1862C65.2921 21.7636 64.9626 21.2971 64.6917 20.7966C64.6437 20.7054 64.5693 20.5398 64.7085 20.4918C64.8453 20.4222 64.9845 20.5158 65.0541 20.6358C65.3253 20.979 65.5269 21.387 65.8653 21.6726C65.5773 21.1134 65.2677 20.5206 65.2605 19.8774C65.2677 19.7526 65.2749 19.5654 65.4453 19.5678C65.5893 19.5462 65.5653 19.7286 65.6133 19.815C65.7525 20.2902 65.8125 20.8038 66.0933 21.2214C66.0333 20.871 65.9397 20.5086 66.0021 20.151C66.0165 20.031 66.1461 19.9974 66.2349 20.0694C66.3045 20.2374 66.3189 20.451 66.3813 20.6334C66.7554 21.8757 67.5429 22.9529 68.6133 23.6862C69.4898 24.2859 70.5125 24.6367 71.5725 24.7014C71.6685 24.711 71.7645 24.7134 71.8581 24.7182M75.1317 26.9046C74.9589 27.0102 74.8245 26.823 74.6805 26.7678C74.5749 26.8254 74.5653 27.0126 74.4693 27.1038C74.3541 27.2358 74.2101 27.0654 74.2221 26.9358C74.0829 27.0534 74.0133 27.3198 73.7901 27.2814C73.6821 27.195 73.6029 27.0126 73.5213 27.2214C73.4565 27.3222 73.2813 27.4662 73.1877 27.3126C73.1589 27.1782 73.0917 27.0198 73.0197 27.2334C72.9669 27.387 72.8037 27.4974 72.6501 27.4302C72.5637 27.3606 72.7173 27.1014 72.6093 27.1182C72.4461 27.2286 72.3501 27.495 72.1221 27.4734C72.0333 27.3774 72.1773 27.207 72.0789 27.0966C71.9661 27.243 71.8389 27.459 71.6397 27.4734C71.5437 27.3966 71.6445 27.1734 71.5821 27.1422C71.3805 27.2622 71.1645 27.4806 70.9101 27.4134C71.0085 27.0294 71.4261 26.8974 71.7741 26.8686C72.3765 26.7942 73.0101 26.931 73.5909 26.7126C73.6845 26.655 73.9101 26.5758 73.8309 26.4438C73.7589 26.3382 74.0157 26.379 74.0397 26.2566C74.0253 26.103 74.1597 26.1246 74.2893 26.1126C74.8749 26.0862 75.4533 26.2086 76.0365 26.2302C76.0797 26.5134 75.7653 26.7126 75.5085 26.6262C75.3885 26.6454 75.2085 26.3478 75.2445 26.5638C75.2205 26.679 75.2349 26.8278 75.1317 26.9046ZM70.1541 26.3238C70.2885 26.4462 70.3845 26.2998 70.5117 26.2446C70.9271 26.0819 71.3174 25.8613 71.6709 25.5894C71.8917 25.407 72.0837 25.1694 72.3813 25.1094C72.9621 24.9342 73.5789 24.9558 74.1597 24.7926C74.6037 24.1878 75.3549 23.9694 75.9861 23.6214C76.1277 23.5782 76.1829 23.4606 76.2261 23.3334C76.4661 22.9518 76.7949 22.6158 77.1837 22.3854C77.3672 22.277 77.5834 22.2378 77.7933 22.275C77.7644 22.5198 77.6475 22.7458 77.4645 22.911C77.6061 22.9086 77.7285 22.8198 77.8677 22.8246C77.9157 23.079 77.6421 23.211 77.4957 23.3694C77.5773 23.3886 77.8893 23.4126 77.7189 23.4942C77.5029 23.643 77.2557 23.7462 77.0565 23.9214C77.2413 23.955 77.2629 23.9934 77.0757 24.0606C76.9725 24.1278 76.7781 24.1518 76.7589 24.2862C76.8981 24.3726 76.6965 24.4542 76.6173 24.483C76.4685 24.519 76.3101 24.5838 76.5093 24.699C76.4349 24.8118 76.2717 24.8358 76.1397 24.8238C76.1805 24.9534 76.2381 25.0974 76.0725 25.155C75.701 25.4486 75.2561 25.6346 74.7861 25.6926C75.3741 25.7358 75.9813 25.6278 76.4829 25.3086C76.5501 25.2294 76.8981 25.143 76.7037 25.0782C76.6125 25.0398 76.4157 24.9966 76.4013 24.927C76.6749 24.759 77.0181 24.819 77.3109 24.7206C77.3181 24.6246 77.0877 24.651 77.0013 24.6294C76.7973 24.6126 76.8093 24.5598 77.0061 24.5406C77.2557 24.4734 77.5389 24.4614 77.7501 24.3006C77.5797 24.219 77.3637 24.2886 77.1813 24.2238C77.4909 24.0894 77.8557 24.075 78.1341 23.871C78.2613 23.7294 77.9709 23.775 77.8869 23.7774C77.7165 23.8086 77.6373 23.7246 77.8317 23.655C78.1653 23.4078 78.5853 23.2494 78.8205 22.8942C78.8757 22.815 78.9501 22.575 78.7725 22.659C78.5421 22.7382 78.3381 22.9974 78.0717 22.9182C78.5949 22.5126 79.0893 22.0542 79.4469 21.495C79.4661 21.3318 79.2117 21.315 79.1469 21.4422C78.8109 21.7638 78.5085 22.1454 78.0789 22.3494C78.4838 21.9445 78.8355 21.4896 79.1253 20.9958C79.1901 20.8518 79.3605 20.6766 79.2693 20.5158C79.1181 20.391 78.9309 20.5062 78.8541 20.6526C78.5925 20.9934 78.3957 21.3894 78.0621 21.6678C78.3525 21.1086 78.6573 20.511 78.6621 19.8678C78.6621 19.7334 78.6381 19.5366 78.4557 19.563C78.3117 19.587 78.3477 19.803 78.2877 19.911C78.1581 20.3526 78.0957 20.8302 77.8317 21.2142C77.8917 20.8566 77.9949 20.4822 77.9157 20.1222C77.8773 19.959 77.6157 20.0286 77.6517 20.1894C77.3397 21.771 76.2765 23.1534 74.8917 23.9526C74.2557 24.3126 73.5477 24.543 72.8229 24.6486C72.6309 24.6894 72.4197 24.6654 72.2349 24.7326C71.7837 25.0758 71.5125 25.6542 70.9437 25.8342C70.6869 25.9614 70.3557 25.9878 70.1733 26.223C70.1585 26.2544 70.1519 26.2891 70.1541 26.3238ZM71.3949 26.0766C71.3085 26.0814 71.2245 26.091 71.1405 26.1174C71.0277 26.1342 70.9197 26.1726 70.8093 26.1894L70.7637 26.199L70.6893 26.2062C70.699 26.2464 70.699 26.2883 70.6893 26.3286C70.6815 26.3467 70.6701 26.363 70.6557 26.3766C70.6413 26.3958 70.6245 26.4102 70.6029 26.4198C70.5834 26.4293 70.5622 26.435 70.5405 26.4366C70.5189 26.4366 70.4973 26.4366 70.4757 26.4269C70.4541 26.4198 70.4349 26.4078 70.4157 26.391L70.3485 26.403H70.2861L70.2189 26.379C70.1972 26.3705 70.1763 26.36 70.1565 26.3478C70.0749 26.3958 69.9837 26.4414 69.9333 26.5254C69.9099 26.5638 69.8967 26.6076 69.8949 26.6526C69.8901 26.7102 69.9045 26.7678 69.9285 26.8206C69.9381 26.835 69.9453 26.7654 69.9717 26.7558C70.0173 26.7174 70.0749 26.691 70.1325 26.6766C70.1805 26.6526 70.1733 26.6766 70.1541 26.715C70.1493 26.7366 70.1229 26.811 70.1589 26.7726C70.3249 26.7106 70.5002 26.6773 70.6773 26.6742C70.9317 26.6478 71.1861 26.6406 71.4405 26.6382L72.1605 26.6526C72.2757 26.6574 72.3909 26.6814 72.5037 26.6622C72.5301 26.655 72.5733 26.655 72.5901 26.6382C72.5373 26.6094 72.4773 26.607 72.4221 26.5998H71.9637C71.8365 26.5878 71.7045 26.5854 71.5845 26.5374C71.5509 26.5254 71.5221 26.4942 71.4909 26.5278C71.4452 26.5441 71.3976 26.5546 71.3493 26.559C71.2653 26.5638 71.1813 26.547 71.1045 26.5158C71.1597 26.439 71.2269 26.3718 71.2893 26.2998L71.1405 26.2686C71.2293 26.2086 71.3085 26.139 71.3949 26.0766Z" fill="#FFEC2D"/>
<path d="M70.519 26.3593C70.5508 26.3593 70.5766 26.3336 70.5766 26.3017C70.5766 26.2699 70.5508 26.2441 70.519 26.2441C70.4872 26.2441 70.4614 26.2699 70.4614 26.3017C70.4614 26.3336 70.4872 26.3593 70.519 26.3593Z" fill="#FFEC2D"/>
<path d="M70.5142 26.3166C70.5275 26.3166 70.5382 26.3058 70.5382 26.2926C70.5382 26.2793 70.5275 26.2686 70.5142 26.2686C70.501 26.2686 70.4902 26.2793 70.4902 26.2926C70.4902 26.3058 70.501 26.3166 70.5142 26.3166Z" fill="#FFEC2D" stroke="#FFEC2D" stroke-width="0.0256"/>
<path d="M61.8801 10.7523C61.8801 10.7523 61.6497 10.5555 61.5705 10.6539C61.4457 10.8099 61.9593 11.5899 61.9593 11.8635C61.9593 12.3147 61.6569 12.4371 61.2873 12.4995C61.0377 12.5427 60.6321 12.4827 60.6321 12.4827C60.7089 12.3795 60.7593 12.3483 60.8865 12.3411C60.7425 12.2691 60.5985 12.1059 60.5985 11.8539C60.5985 11.4675 60.7569 11.3067 60.7569 10.8699C60.7569 10.6323 60.5601 10.3203 60.5601 10.3203C60.9105 10.3563 61.0833 10.6803 60.9849 10.9395C61.0119 10.9449 61.0398 10.9435 61.0662 10.9356C61.0925 10.9276 61.1165 10.9133 61.1361 10.8939C61.1601 10.9659 61.1217 11.0499 61.0665 11.1219C61.1097 11.1459 61.1433 11.1315 61.2105 11.1171C61.2057 11.1891 61.1625 11.2707 61.0521 11.3451C61.3689 11.2635 61.5609 11.4819 61.5609 11.7123C61.5609 11.8875 61.4409 12.0123 61.3209 12.0123C61.2825 12.0123 61.2249 11.9955 61.1937 11.9715C61.1697 12.0195 61.1841 12.0843 61.2057 12.1323C61.1193 12.1083 61.0617 12.0555 61.1025 11.9475C61.0353 11.9427 60.9825 11.9187 60.9465 11.8755C60.9825 11.8275 61.0377 11.8035 61.1025 11.8035C61.0545 11.7027 61.1097 11.6475 61.1889 11.6019C61.1889 11.6019 61.1385 11.8035 61.2657 11.8035C61.3233 11.8035 61.3761 11.7867 61.3761 11.7003C61.3761 11.6259 61.3113 11.5227 61.1601 11.5299C61.0113 11.5371 60.8889 11.6331 60.8889 11.8731C60.8889 12.0939 61.0689 12.2043 61.3041 12.2091C61.5153 12.2187 61.6761 12.1035 61.6761 11.8851C61.6761 11.5923 61.2561 10.9299 61.2561 10.6707C61.2561 10.4763 61.4289 10.3659 61.6017 10.3659C61.8225 10.3659 62.0097 10.5867 62.0097 10.5867L61.8801 10.7499V10.7523Z" fill="#FFEC2D"/>
<path d="M61.9279 16.0106C61.9279 16.4978 61.4911 16.7474 61.1479 16.7474C60.6871 16.7474 60.4399 16.4714 60.4399 16.109C60.4399 15.905 60.4783 15.7754 60.5719 15.581L61.6327 13.3802C61.6712 13.2877 61.6876 13.1874 61.6807 13.0874C61.6807 12.8906 61.4887 12.7298 61.2895 12.7274C61.1071 12.7202 60.9055 12.8954 60.9055 13.0946C60.9055 13.337 61.0327 13.445 61.1623 13.445C61.3207 13.445 61.3831 13.3802 61.3831 13.2674C61.3831 13.1906 61.3471 13.157 61.2919 13.157C61.1551 13.157 61.1959 13.3394 61.1959 13.3394C61.1779 13.3361 61.1608 13.3288 61.1459 13.3181C61.1309 13.3074 61.1186 13.2935 61.1096 13.2775C61.1007 13.2614 61.0954 13.2436 61.0941 13.2253C61.0929 13.2069 61.0957 13.1886 61.1023 13.1714C61.051 13.1599 61.0047 13.1322 60.9703 13.0922C61.0063 13.0562 61.0495 13.0298 61.1023 13.0202C61.0711 12.9146 61.1143 12.8642 61.2055 12.8402C61.1891 12.8763 61.1849 12.9168 61.1935 12.9554C61.3375 12.9122 61.5607 12.9794 61.5607 13.229C61.5607 13.4786 61.3879 13.6874 61.0639 13.637C61.1407 13.673 61.1791 13.7474 61.1887 13.8314C61.1287 13.8074 61.0639 13.8074 61.0639 13.8074C61.1023 13.8722 61.1551 13.9274 61.1527 14.0618C61.0927 14.033 61.0351 13.9826 60.9607 14.0138C61.0807 14.2538 60.9319 14.5802 60.5527 14.657C60.6919 14.4938 60.7591 14.321 60.7591 14.1458C60.7591 13.5818 60.6031 13.4882 60.6031 13.0946C60.6056 13.0034 60.6297 12.914 60.6736 12.8339C60.7174 12.7537 60.7796 12.6852 60.8551 12.6338V12.641C60.8087 12.6315 60.7648 12.6122 60.7263 12.5845C60.6879 12.5568 60.6557 12.5213 60.6319 12.4802C60.8993 12.4066 61.1819 12.4091 61.4479 12.4874C61.5369 12.5 61.6219 12.5325 61.6967 12.5823C61.7715 12.6321 61.8341 12.6982 61.8799 12.7754C61.9279 12.8848 61.9526 13.0029 61.9526 13.1222C61.9526 13.2416 61.9279 13.3597 61.8799 13.469C61.7287 13.781 61.0231 15.2834 60.8023 15.7538C60.7543 15.8546 60.7279 15.9602 60.7279 16.0754C60.7279 16.3634 60.9919 16.4642 61.1407 16.4642C61.3207 16.4642 61.5055 16.3274 61.5055 16.157C61.5055 16.049 61.4455 15.9818 61.3615 15.9818C61.1575 15.9818 61.1695 16.1546 61.2103 16.265C61.0831 16.2074 61.0111 16.1066 61.0303 16.001C60.9516 15.9878 60.8801 15.947 60.8287 15.8858C60.8767 15.8234 60.9391 15.7754 61.0303 15.773C60.9895 15.6074 61.1023 15.5378 61.2103 15.4994C61.1767 15.6194 61.1527 15.761 61.3615 15.761C61.5127 15.761 61.6303 15.785 61.6999 15.8858L61.7167 15.2378C61.7263 15.0434 61.4575 15.0458 61.2847 15.1058C61.3495 14.8826 61.4815 14.7602 61.7887 14.7914C61.7417 14.7733 61.7015 14.7409 61.6739 14.6987C61.6464 14.6564 61.6328 14.6066 61.6351 14.5562C61.6351 14.3738 61.7839 14.1722 61.8799 14.1122L61.9279 16.0082V16.0106Z" fill="#FFEC2D"/>
<path d="M61.9279 17.4698C61.9279 16.9826 61.4911 16.733 61.1479 16.733C60.6871 16.733 60.4399 17.009 60.4399 17.3714C60.4399 17.5754 60.4783 17.705 60.5719 17.8994L61.6327 20.1002C61.6712 20.1928 61.6876 20.293 61.6807 20.393C61.6807 20.5898 61.4887 20.7506 61.2895 20.753C61.1071 20.7602 60.9055 20.585 60.9055 20.3858C60.9055 20.1434 61.0327 20.0354 61.1623 20.0354C61.3207 20.0354 61.3831 20.1002 61.3831 20.213C61.3831 20.2898 61.3471 20.3234 61.2919 20.3234C61.1551 20.3234 61.1959 20.141 61.1959 20.141C61.1779 20.1444 61.1608 20.1517 61.1459 20.1624C61.1309 20.1731 61.1186 20.187 61.1096 20.203C61.1007 20.219 61.0954 20.2369 61.0941 20.2552C61.0929 20.2735 61.0957 20.2919 61.1023 20.309C61.051 20.3205 61.0047 20.3483 60.9703 20.3882C61.0063 20.4242 61.0495 20.4506 61.1023 20.4602C61.0711 20.5658 61.1143 20.6162 61.2055 20.6402C61.1891 20.6041 61.1849 20.5637 61.1935 20.525C61.3375 20.5682 61.5607 20.501 61.5607 20.2514C61.5607 20.0018 61.3879 19.793 61.0639 19.8434C61.1407 19.8074 61.1791 19.733 61.1887 19.649C61.1287 19.673 61.0639 19.673 61.0639 19.673C61.1023 19.6082 61.1551 19.553 61.1527 19.4186C61.0927 19.4474 61.0351 19.4978 60.9607 19.4666C61.0807 19.2266 60.9319 18.9002 60.5527 18.8234C60.6919 18.9866 60.7591 19.1594 60.7591 19.3346C60.7591 19.8986 60.6031 19.9922 60.6031 20.3858C60.6056 20.4771 60.6297 20.5665 60.6736 20.6466C60.7174 20.7267 60.7796 20.7953 60.8551 20.8466V20.8394C60.8087 20.849 60.7648 20.8682 60.7263 20.8959C60.6879 20.9236 60.6557 20.9592 60.6319 21.0002C60.8993 21.0739 61.1819 21.0714 61.4479 20.993C61.5369 20.9804 61.6219 20.948 61.6967 20.8982C61.7715 20.8483 61.8341 20.7823 61.8799 20.705C61.9279 20.5957 61.9526 20.4776 61.9526 20.3582C61.9526 20.2388 61.9279 20.1208 61.8799 20.0114C61.7287 19.6994 61.0231 18.197 60.8023 17.7266C60.7543 17.6258 60.7279 17.5202 60.7279 17.405C60.7279 17.117 60.9919 17.0162 61.1407 17.0162C61.3207 17.0162 61.5055 17.153 61.5055 17.3234C61.5055 17.4314 61.4455 17.4986 61.3615 17.4986C61.1575 17.4986 61.1695 17.3258 61.2103 17.2154C61.0831 17.273 61.0111 17.3738 61.0303 17.4794C60.9516 17.4926 60.8801 17.5335 60.8287 17.5946C60.8767 17.657 60.9391 17.705 61.0303 17.7074C60.9895 17.873 61.1023 17.9426 61.2103 17.981C61.1767 17.861 61.1527 17.7194 61.3615 17.7194C61.5127 17.7194 61.6303 17.6954 61.6999 17.5946L61.7167 18.2426C61.7263 18.437 61.4575 18.4346 61.2847 18.3746C61.3495 18.5978 61.4815 18.7202 61.7887 18.689C61.7417 18.7071 61.7015 18.7396 61.6739 18.7818C61.6464 18.824 61.6328 18.8739 61.6351 18.9242C61.6351 19.1066 61.7839 19.3082 61.8799 19.3682L61.9279 17.4722V17.4698Z" fill="#FFEC2D"/>
<path d="M61.8797 10.7523C61.8797 10.7523 62.1101 10.5555 62.1893 10.6539C62.3141 10.8099 61.8005 11.5899 61.8005 11.8635C61.8005 12.3147 62.1029 12.4371 62.4725 12.4995C62.7221 12.5427 63.1277 12.4827 63.1277 12.4827C63.0509 12.3795 63.0005 12.3483 62.8733 12.3411C63.0173 12.2691 63.1613 12.1059 63.1613 11.8539C63.1613 11.4675 63.0029 11.3067 63.0029 10.8699C63.0029 10.6323 63.1997 10.3203 63.1997 10.3203C62.8493 10.3563 62.6765 10.6803 62.7749 10.9395C62.7479 10.9449 62.72 10.9435 62.6936 10.9356C62.6672 10.9276 62.6432 10.9133 62.6237 10.8939C62.5997 10.9659 62.6381 11.0499 62.6933 11.1219C62.6501 11.1459 62.6165 11.1315 62.5493 11.1171C62.5541 11.1891 62.5973 11.2707 62.7077 11.3451C62.3909 11.2635 62.1989 11.4819 62.1989 11.7123C62.1989 11.8875 62.3189 12.0123 62.4389 12.0123C62.4773 12.0123 62.5349 11.9955 62.5661 11.9715C62.5901 12.0195 62.5757 12.0843 62.5541 12.1323C62.6405 12.1083 62.6981 12.0555 62.6573 11.9475C62.7245 11.9427 62.7773 11.9187 62.8133 11.8755C62.7773 11.8275 62.7221 11.8035 62.6573 11.8035C62.7053 11.7027 62.6501 11.6475 62.5709 11.6019C62.5709 11.6019 62.6213 11.8035 62.4941 11.8035C62.4365 11.8035 62.3837 11.7867 62.3837 11.7003C62.3837 11.6259 62.4485 11.5227 62.5997 11.5299C62.7485 11.5371 62.8709 11.6331 62.8709 11.8731C62.8709 12.0939 62.6909 12.2043 62.4557 12.2091C62.2445 12.2187 62.0837 12.1035 62.0837 11.8851C62.0837 11.5923 62.5037 10.9299 62.5037 10.6707C62.5037 10.4763 62.3309 10.3659 62.1581 10.3659C61.9373 10.3659 61.7501 10.5867 61.7501 10.5867L61.8797 10.7499V10.7523Z" fill="#FFEC2D"/>
<path d="M61.8318 16.0106C61.8318 16.4978 62.2686 16.7474 62.6118 16.7474C63.0726 16.7474 63.3198 16.4714 63.3198 16.109C63.3198 15.905 63.2814 15.7754 63.1878 15.581L62.127 13.3802C62.0886 13.2877 62.0722 13.1874 62.079 13.0874C62.079 12.8906 62.271 12.7298 62.4702 12.7274C62.6526 12.7202 62.8542 12.8954 62.8542 13.0946C62.8542 13.337 62.727 13.445 62.5974 13.445C62.439 13.445 62.3766 13.3802 62.3766 13.2674C62.3766 13.1906 62.4126 13.157 62.4678 13.157C62.6046 13.157 62.5638 13.3394 62.5638 13.3394C62.5819 13.3361 62.599 13.3288 62.6139 13.3181C62.6288 13.3074 62.6412 13.2935 62.6501 13.2775C62.6591 13.2614 62.6644 13.2436 62.6656 13.2253C62.6669 13.2069 62.6641 13.1886 62.6574 13.1714C62.7088 13.1599 62.7551 13.1322 62.7894 13.0922C62.7534 13.0562 62.7102 13.0298 62.6574 13.0202C62.6886 12.9146 62.6454 12.8642 62.5542 12.8402C62.5706 12.8763 62.5748 12.9168 62.5662 12.9554C62.4222 12.9122 62.199 12.9794 62.199 13.229C62.199 13.4786 62.3718 13.6874 62.6958 13.637C62.619 13.673 62.5806 13.7474 62.571 13.8314C62.631 13.8074 62.6958 13.8074 62.6958 13.8074C62.6574 13.8722 62.6046 13.9274 62.607 14.0618C62.667 14.033 62.7246 13.9826 62.799 14.0138C62.679 14.2538 62.8278 14.5802 63.207 14.657C63.0678 14.4938 63.0006 14.321 63.0006 14.1458C63.0006 13.5818 63.1566 13.4882 63.1566 13.0946C63.1542 13.0034 63.13 12.914 63.0862 12.8339C63.0424 12.7537 62.9801 12.6852 62.9046 12.6338V12.641C62.9511 12.6315 62.995 12.6122 63.0334 12.5845C63.0719 12.5568 63.1041 12.5213 63.1278 12.4802C62.8605 12.4066 62.5778 12.4091 62.3118 12.4874C62.2228 12.5 62.1378 12.5325 62.0631 12.5823C61.9883 12.6321 61.9257 12.6982 61.8798 12.7754C61.8319 12.8848 61.8072 13.0029 61.8072 13.1222C61.8072 13.2416 61.8319 13.3597 61.8798 13.469C62.031 13.781 62.7366 15.2834 62.9574 15.7538C63.0054 15.8546 63.0318 15.9602 63.0318 16.0754C63.0318 16.3634 62.7678 16.4642 62.619 16.4642C62.439 16.4642 62.2542 16.3274 62.2542 16.157C62.2542 16.049 62.3142 15.9818 62.3982 15.9818C62.6022 15.9818 62.5902 16.1546 62.5494 16.265C62.6766 16.2074 62.7486 16.1066 62.7294 16.001C62.8082 15.9878 62.8796 15.947 62.931 15.8858C62.883 15.8234 62.8206 15.7754 62.7294 15.773C62.7702 15.6074 62.6574 15.5378 62.5494 15.4994C62.583 15.6194 62.607 15.761 62.3982 15.761C62.247 15.761 62.1294 15.785 62.0598 15.8858L62.043 15.2378C62.0334 15.0434 62.3022 15.0458 62.475 15.1058C62.4102 14.8826 62.2782 14.7602 61.971 14.7914C62.0181 14.7733 62.0583 14.7409 62.0858 14.6987C62.1134 14.6564 62.127 14.6066 62.1246 14.5562C62.1246 14.3738 61.9758 14.1722 61.8798 14.1122L61.8318 16.0082V16.0106Z" fill="#FFEC2D"/>
<path d="M61.8318 17.4698C61.8318 16.9826 62.2686 16.733 62.6118 16.733C63.0726 16.733 63.3198 17.009 63.3198 17.3714C63.3198 17.5754 63.2814 17.705 63.1878 17.8994L62.127 20.1002C62.0886 20.1928 62.0722 20.293 62.079 20.393C62.079 20.5898 62.271 20.7506 62.4702 20.753C62.6526 20.7602 62.8542 20.585 62.8542 20.3858C62.8542 20.1434 62.727 20.0354 62.5974 20.0354C62.439 20.0354 62.3766 20.1002 62.3766 20.213C62.3766 20.2898 62.4126 20.3234 62.4678 20.3234C62.6046 20.3234 62.5638 20.141 62.5638 20.141C62.5819 20.1444 62.599 20.1517 62.6139 20.1624C62.6288 20.1731 62.6412 20.187 62.6501 20.203C62.6591 20.219 62.6644 20.2369 62.6656 20.2552C62.6669 20.2735 62.6641 20.2919 62.6574 20.309C62.7088 20.3205 62.7551 20.3483 62.7894 20.3882C62.7534 20.4242 62.7102 20.4506 62.6574 20.4602C62.6886 20.5658 62.6454 20.6162 62.5542 20.6402C62.5706 20.6041 62.5748 20.5637 62.5662 20.525C62.4222 20.5682 62.199 20.501 62.199 20.2514C62.199 20.0018 62.3718 19.793 62.6958 19.8434C62.619 19.8074 62.5806 19.733 62.571 19.649C62.631 19.673 62.6958 19.673 62.6958 19.673C62.6574 19.6082 62.6046 19.553 62.607 19.4186C62.667 19.4474 62.7246 19.4978 62.799 19.4666C62.679 19.2266 62.8278 18.9002 63.207 18.8234C63.0678 18.9866 63.0006 19.1594 63.0006 19.3346C63.0006 19.8986 63.1566 19.9922 63.1566 20.3858C63.1542 20.4771 63.13 20.5665 63.0862 20.6466C63.0424 20.7267 62.9801 20.7953 62.9046 20.8466V20.8394C62.9511 20.849 62.995 20.8682 63.0334 20.8959C63.0719 20.9236 63.1041 20.9592 63.1278 21.0002C62.8605 21.0739 62.5778 21.0714 62.3118 20.993C62.2228 20.9804 62.1378 20.948 62.0631 20.8982C61.9883 20.8483 61.9257 20.7823 61.8798 20.705C61.8319 20.5957 61.8072 20.4776 61.8072 20.3582C61.8072 20.2388 61.8319 20.1208 61.8798 20.0114C62.031 19.6994 62.7366 18.197 62.9574 17.7266C63.0054 17.6258 63.0318 17.5202 63.0318 17.405C63.0318 17.117 62.7678 17.0162 62.619 17.0162C62.439 17.0162 62.2542 17.153 62.2542 17.3234C62.2542 17.4314 62.3142 17.4986 62.3982 17.4986C62.6022 17.4986 62.5902 17.3258 62.5494 17.2154C62.6766 17.273 62.7486 17.3738 62.7294 17.4794C62.8082 17.4926 62.8796 17.5335 62.931 17.5946C62.883 17.657 62.8206 17.705 62.7294 17.7074C62.7702 17.873 62.6574 17.9426 62.5494 17.981C62.583 17.861 62.607 17.7194 62.3982 17.7194C62.247 17.7194 62.1294 17.6954 62.0598 17.5946L62.043 18.2426C62.0334 18.437 62.3022 18.4346 62.475 18.3746C62.4102 18.5978 62.2782 18.7202 61.971 18.689C62.0181 18.7071 62.0583 18.7396 62.0858 18.7818C62.1134 18.824 62.127 18.8739 62.1246 18.9242C62.1246 19.1066 61.9758 19.3082 61.8798 19.3682L61.8318 17.4722V17.4698Z" fill="#FFEC2D"/>
<path d="M61.8801 31.2487C61.8801 31.2487 61.6497 31.4455 61.5705 31.3471C61.4457 31.1911 61.9593 30.4111 61.9593 30.1375C61.9593 29.6863 61.6569 29.5639 61.2873 29.5015C61.0377 29.4583 60.6321 29.5183 60.6321 29.5183C60.7089 29.6215 60.7593 29.6527 60.8865 29.6599C60.7425 29.7319 60.5985 29.8951 60.5985 30.1471C60.5985 30.5335 60.7569 30.6943 60.7569 31.1311C60.7569 31.3687 60.5601 31.6807 60.5601 31.6807C60.9105 31.6447 61.0833 31.3207 60.9849 31.0615C61.0119 31.0561 61.0398 31.0574 61.0662 31.0654C61.0925 31.0733 61.1165 31.0877 61.1361 31.1071C61.1601 31.0351 61.1217 30.9511 61.0665 30.8791C61.1097 30.8551 61.1433 30.8695 61.2105 30.8839C61.2057 30.8119 61.1625 30.7303 61.0521 30.6559C61.3689 30.7375 61.5609 30.5191 61.5609 30.2887C61.5609 30.1135 61.4409 29.9887 61.3209 29.9887C61.2825 29.9887 61.2249 30.0055 61.1937 30.0295C61.1697 29.9815 61.1841 29.9167 61.2057 29.8687C61.1193 29.8927 61.0617 29.9455 61.1025 30.0535C61.0353 30.0583 60.9825 30.0823 60.9465 30.1255C60.9825 30.1735 61.0377 30.1975 61.1025 30.1975C61.0545 30.2983 61.1097 30.3535 61.1889 30.3991C61.1889 30.3991 61.1385 30.1975 61.2657 30.1975C61.3233 30.1975 61.3761 30.2143 61.3761 30.3007C61.3761 30.3751 61.3113 30.4783 61.1601 30.4711C61.0113 30.4639 60.8889 30.3679 60.8889 30.1279C60.8889 29.9071 61.0689 29.7967 61.3041 29.7919C61.5153 29.7823 61.6761 29.8975 61.6761 30.1159C61.6761 30.4087 61.2561 31.0711 61.2561 31.3303C61.2561 31.5247 61.4289 31.6351 61.6017 31.6351C61.8225 31.6351 62.0097 31.4143 62.0097 31.4143L61.8801 31.2511V31.2487Z" fill="#FFEC2D"/>
<path d="M61.9279 25.9903C61.9279 25.5031 61.4911 25.2535 61.1479 25.2535C60.6871 25.2535 60.4399 25.5295 60.4399 25.8919C60.4399 26.0959 60.4783 26.2255 60.5719 26.4199L61.6327 28.6207C61.6712 28.7133 61.6876 28.8135 61.6807 28.9135C61.6807 29.1103 61.4887 29.2711 61.2895 29.2735C61.1071 29.2807 60.9055 29.1055 60.9055 28.9063C60.9055 28.6639 61.0327 28.5559 61.1623 28.5559C61.3207 28.5559 61.3831 28.6207 61.3831 28.7335C61.3831 28.8103 61.3471 28.8439 61.2919 28.8439C61.1551 28.8439 61.1959 28.6615 61.1959 28.6615C61.1779 28.6649 61.1608 28.6722 61.1459 28.6829C61.1309 28.6936 61.1186 28.7075 61.1096 28.7235C61.1007 28.7396 61.0954 28.7574 61.0941 28.7757C61.0929 28.794 61.0957 28.8124 61.1023 28.8295C61.051 28.841 61.0047 28.8688 60.9703 28.9087C61.0063 28.9447 61.0495 28.9711 61.1023 28.9807C61.0711 29.0863 61.1143 29.1367 61.2055 29.1607C61.1891 29.1247 61.1849 29.0842 61.1935 29.0455C61.3375 29.0887 61.5607 29.0215 61.5607 28.7719C61.5607 28.5223 61.3879 28.3135 61.0639 28.3639C61.1407 28.3279 61.1791 28.2535 61.1887 28.1695C61.1287 28.1935 61.0639 28.1935 61.0639 28.1935C61.1023 28.1287 61.1551 28.0735 61.1527 27.9391C61.0927 27.9679 61.0351 28.0183 60.9607 27.9871C61.0807 27.7471 60.9319 27.4207 60.5527 27.3439C60.6919 27.5071 60.7591 27.6799 60.7591 27.8551C60.7591 28.4191 60.6031 28.5127 60.6031 28.9063C60.6056 28.9976 60.6297 29.087 60.6736 29.1671C60.7174 29.2472 60.7796 29.3158 60.8551 29.3671V29.3599C60.8087 29.3695 60.7648 29.3887 60.7263 29.4164C60.6879 29.4442 60.6557 29.4797 60.6319 29.5207C60.8993 29.5944 61.1819 29.5919 61.4479 29.5135C61.5369 29.5009 61.6219 29.4685 61.6967 29.4187C61.7715 29.3688 61.8341 29.3028 61.8799 29.2255C61.9279 29.1162 61.9526 28.9981 61.9526 28.8787C61.9526 28.7594 61.9279 28.6413 61.8799 28.5319C61.7287 28.2199 61.0231 26.7175 60.8023 26.2471C60.7543 26.1463 60.7279 26.0407 60.7279 25.9255C60.7279 25.6375 60.9919 25.5367 61.1407 25.5367C61.3207 25.5367 61.5055 25.6735 61.5055 25.8439C61.5055 25.9519 61.4455 26.0191 61.3615 26.0191C61.1575 26.0191 61.1695 25.8463 61.2103 25.7359C61.0831 25.7935 61.0111 25.8943 61.0303 25.9999C60.9516 26.0132 60.8801 26.054 60.8287 26.1151C60.8767 26.1775 60.9391 26.2255 61.0303 26.2279C60.9895 26.3935 61.1023 26.4631 61.2103 26.5015C61.1767 26.3815 61.1527 26.2399 61.3615 26.2399C61.5127 26.2399 61.6303 26.2159 61.6999 26.1151L61.7167 26.7631C61.7263 26.9575 61.4575 26.9551 61.2847 26.8951C61.3495 27.1183 61.4815 27.2407 61.7887 27.2095C61.7417 27.2276 61.7015 27.2601 61.6739 27.3023C61.6464 27.3445 61.6328 27.3944 61.6351 27.4447C61.6351 27.6271 61.7839 27.8287 61.8799 27.8887L61.9279 25.9927V25.9903Z" fill="#FFEC2D"/>
<path d="M61.9279 24.5312C61.9279 25.0184 61.4911 25.268 61.1479 25.268C60.6871 25.268 60.4399 24.992 60.4399 24.6296C60.4399 24.4256 60.4783 24.296 60.5719 24.1016L61.6327 21.9008C61.6712 21.8082 61.6876 21.708 61.6807 21.608C61.6807 21.4112 61.4887 21.2504 61.2895 21.248C61.1071 21.2408 60.9055 21.416 60.9055 21.6152C60.9055 21.8576 61.0327 21.9656 61.1623 21.9656C61.3207 21.9656 61.3831 21.9008 61.3831 21.788C61.3831 21.7112 61.3471 21.6776 61.2919 21.6776C61.1551 21.6776 61.1959 21.86 61.1959 21.86C61.1779 21.8566 61.1608 21.8493 61.1459 21.8386C61.1309 21.8279 61.1186 21.814 61.1096 21.798C61.1007 21.7819 61.0954 21.7641 61.0941 21.7458C61.0929 21.7275 61.0957 21.7091 61.1023 21.692C61.051 21.6804 61.0047 21.6527 60.9703 21.6128C61.0063 21.5768 61.0495 21.5504 61.1023 21.5408C61.0711 21.4352 61.1143 21.3848 61.2055 21.3608C61.1891 21.3968 61.1849 21.4373 61.1935 21.476C61.3375 21.4328 61.5607 21.5 61.5607 21.7496C61.5607 21.9992 61.3879 22.208 61.0639 22.1576C61.1407 22.1936 61.1791 22.268 61.1887 22.352C61.1287 22.328 61.0639 22.328 61.0639 22.328C61.1023 22.3928 61.1551 22.448 61.1527 22.5824C61.0927 22.5536 61.0351 22.5032 60.9607 22.5344C61.0807 22.7744 60.9319 23.1008 60.5527 23.1776C60.6919 23.0144 60.7591 22.8416 60.7591 22.6664C60.7591 22.1024 60.6031 22.0088 60.6031 21.6152C60.6056 21.5239 60.6297 21.4345 60.6736 21.3544C60.7174 21.2742 60.7796 21.2057 60.8551 21.1544V21.1616C60.8087 21.152 60.7648 21.1328 60.7263 21.105C60.6879 21.0773 60.6557 21.0418 60.6319 21.0008C60.8993 20.9271 61.1819 20.9296 61.4479 21.008C61.5369 21.0205 61.6219 21.053 61.6967 21.1028C61.7715 21.1527 61.8341 21.2187 61.8799 21.296C61.9279 21.4053 61.9526 21.5234 61.9526 21.6428C61.9526 21.7621 61.9279 21.8802 61.8799 21.9896C61.7287 22.3016 61.0231 23.804 60.8023 24.2744C60.7543 24.3752 60.7279 24.4808 60.7279 24.596C60.7279 24.884 60.9919 24.9848 61.1407 24.9848C61.3207 24.9848 61.5055 24.848 61.5055 24.6776C61.5055 24.5696 61.4455 24.5024 61.3615 24.5024C61.1575 24.5024 61.1695 24.6752 61.2103 24.7856C61.0831 24.728 61.0111 24.6272 61.0303 24.5216C60.9516 24.5083 60.8801 24.4675 60.8287 24.4064C60.8767 24.344 60.9391 24.296 61.0303 24.2936C60.9895 24.128 61.1023 24.0584 61.2103 24.02C61.1767 24.14 61.1527 24.2816 61.3615 24.2816C61.5127 24.2816 61.6303 24.3056 61.6999 24.4064L61.7167 23.7584C61.7263 23.564 61.4575 23.5664 61.2847 23.6264C61.3495 23.4032 61.4815 23.2808 61.7887 23.312C61.7417 23.2939 61.7015 23.2614 61.6739 23.2192C61.6464 23.177 61.6328 23.1271 61.6351 23.0768C61.6351 22.8944 61.7839 22.6928 61.8799 22.6328L61.9279 24.5288V24.5312Z" fill="#FFEC2D"/>
<path d="M61.8797 31.2487C61.8797 31.2487 62.1101 31.4455 62.1893 31.3471C62.3141 31.1911 61.8005 30.4111 61.8005 30.1375C61.8005 29.6863 62.1029 29.5639 62.4725 29.5015C62.7221 29.4583 63.1277 29.5183 63.1277 29.5183C63.0509 29.6215 63.0005 29.6527 62.8733 29.6599C63.0173 29.7319 63.1613 29.8951 63.1613 30.1471C63.1613 30.5335 63.0029 30.6943 63.0029 31.1311C63.0029 31.3687 63.1997 31.6807 63.1997 31.6807C62.8493 31.6447 62.6765 31.3207 62.7749 31.0615C62.7479 31.0561 62.72 31.0574 62.6936 31.0654C62.6672 31.0733 62.6432 31.0877 62.6237 31.1071C62.5997 31.0351 62.6381 30.9511 62.6933 30.8791C62.6501 30.8551 62.6165 30.8695 62.5493 30.8839C62.5541 30.8119 62.5973 30.7303 62.7077 30.6559C62.3909 30.7375 62.1989 30.5191 62.1989 30.2887C62.1989 30.1135 62.3189 29.9887 62.4389 29.9887C62.4773 29.9887 62.5349 30.0055 62.5661 30.0295C62.5901 29.9815 62.5757 29.9167 62.5541 29.8687C62.6405 29.8927 62.6981 29.9455 62.6573 30.0535C62.7245 30.0583 62.7773 30.0823 62.8133 30.1255C62.7773 30.1735 62.7221 30.1975 62.6573 30.1975C62.7053 30.2983 62.6501 30.3535 62.5709 30.3991C62.5709 30.3991 62.6213 30.1975 62.4941 30.1975C62.4365 30.1975 62.3837 30.2143 62.3837 30.3007C62.3837 30.3751 62.4485 30.4783 62.5997 30.4711C62.7485 30.4639 62.8709 30.3679 62.8709 30.1279C62.8709 29.9071 62.6909 29.7967 62.4557 29.7919C62.2445 29.7823 62.0837 29.8975 62.0837 30.1159C62.0837 30.4087 62.5037 31.0711 62.5037 31.3303C62.5037 31.5247 62.3309 31.6351 62.1581 31.6351C61.9373 31.6351 61.7501 31.4143 61.7501 31.4143L61.8797 31.2511V31.2487Z" fill="#FFEC2D"/>
<path d="M61.8318 25.9903C61.8318 25.5031 62.2686 25.2535 62.6118 25.2535C63.0726 25.2535 63.3198 25.5295 63.3198 25.8919C63.3198 26.0959 63.2814 26.2255 63.1878 26.4199L62.127 28.6207C62.0886 28.7133 62.0722 28.8135 62.079 28.9135C62.079 29.1103 62.271 29.2711 62.4702 29.2735C62.6526 29.2807 62.8542 29.1055 62.8542 28.9063C62.8542 28.6639 62.727 28.5559 62.5974 28.5559C62.439 28.5559 62.3766 28.6207 62.3766 28.7335C62.3766 28.8103 62.4126 28.8439 62.4678 28.8439C62.6046 28.8439 62.5638 28.6615 62.5638 28.6615C62.5819 28.6649 62.599 28.6722 62.6139 28.6829C62.6288 28.6936 62.6412 28.7075 62.6501 28.7235C62.6591 28.7396 62.6644 28.7574 62.6656 28.7757C62.6669 28.794 62.6641 28.8124 62.6574 28.8295C62.7088 28.841 62.7551 28.8688 62.7894 28.9087C62.7534 28.9447 62.7102 28.9711 62.6574 28.9807C62.6886 29.0863 62.6454 29.1367 62.5542 29.1607C62.5706 29.1247 62.5748 29.0842 62.5662 29.0455C62.4222 29.0887 62.199 29.0215 62.199 28.7719C62.199 28.5223 62.3718 28.3135 62.6958 28.3639C62.619 28.3279 62.5806 28.2535 62.571 28.1695C62.631 28.1935 62.6958 28.1935 62.6958 28.1935C62.6574 28.1287 62.6046 28.0735 62.607 27.9391C62.667 27.9679 62.7246 28.0183 62.799 27.9871C62.679 27.7471 62.8278 27.4207 63.207 27.3439C63.0678 27.5071 63.0006 27.6799 63.0006 27.8551C63.0006 28.4191 63.1566 28.5127 63.1566 28.9063C63.1542 28.9976 63.13 29.087 63.0862 29.1671C63.0424 29.2472 62.9801 29.3158 62.9046 29.3671V29.3599C62.9511 29.3695 62.995 29.3887 63.0334 29.4164C63.0719 29.4442 63.1041 29.4797 63.1278 29.5207C62.8605 29.5944 62.5778 29.5919 62.3118 29.5135C62.2228 29.5009 62.1378 29.4685 62.0631 29.4187C61.9883 29.3688 61.9257 29.3028 61.8798 29.2255C61.8319 29.1162 61.8072 28.9981 61.8072 28.8787C61.8072 28.7594 61.8319 28.6413 61.8798 28.5319C62.031 28.2199 62.7366 26.7175 62.9574 26.2471C63.0054 26.1463 63.0318 26.0407 63.0318 25.9255C63.0318 25.6375 62.7678 25.5367 62.619 25.5367C62.439 25.5367 62.2542 25.6735 62.2542 25.8439C62.2542 25.9519 62.3142 26.0191 62.3982 26.0191C62.6022 26.0191 62.5902 25.8463 62.5494 25.7359C62.6766 25.7935 62.7486 25.8943 62.7294 25.9999C62.8082 26.0132 62.8796 26.054 62.931 26.1151C62.883 26.1775 62.8206 26.2255 62.7294 26.2279C62.7702 26.3935 62.6574 26.4631 62.5494 26.5015C62.583 26.3815 62.607 26.2399 62.3982 26.2399C62.247 26.2399 62.1294 26.2159 62.0598 26.1151L62.043 26.7631C62.0334 26.9575 62.3022 26.9551 62.475 26.8951C62.4102 27.1183 62.2782 27.2407 61.971 27.2095C62.0181 27.2276 62.0583 27.2601 62.0858 27.3023C62.1134 27.3445 62.127 27.3944 62.1246 27.4447C62.1246 27.6271 61.9758 27.8287 61.8798 27.8887L61.8318 25.9927V25.9903Z" fill="#FFEC2D"/>
<path d="M61.8318 24.5312C61.8318 25.0184 62.2686 25.268 62.6118 25.268C63.0726 25.268 63.3198 24.992 63.3198 24.6296C63.3198 24.4256 63.2814 24.296 63.1878 24.1016L62.127 21.9008C62.0886 21.8082 62.0722 21.708 62.079 21.608C62.079 21.4112 62.271 21.2504 62.4702 21.248C62.6526 21.2408 62.8542 21.416 62.8542 21.6152C62.8542 21.8576 62.727 21.9656 62.5974 21.9656C62.439 21.9656 62.3766 21.9008 62.3766 21.788C62.3766 21.7112 62.4126 21.6776 62.4678 21.6776C62.6046 21.6776 62.5638 21.86 62.5638 21.86C62.5819 21.8566 62.599 21.8493 62.6139 21.8386C62.6288 21.8279 62.6412 21.814 62.6501 21.798C62.6591 21.7819 62.6644 21.7641 62.6656 21.7458C62.6669 21.7275 62.6641 21.7091 62.6574 21.692C62.7088 21.6804 62.7551 21.6527 62.7894 21.6128C62.7534 21.5768 62.7102 21.5504 62.6574 21.5408C62.6886 21.4352 62.6454 21.3848 62.5542 21.3608C62.5706 21.3968 62.5748 21.4373 62.5662 21.476C62.4222 21.4328 62.199 21.5 62.199 21.7496C62.199 21.9992 62.3718 22.208 62.6958 22.1576C62.619 22.1936 62.5806 22.268 62.571 22.352C62.631 22.328 62.6958 22.328 62.6958 22.328C62.6574 22.3928 62.6046 22.448 62.607 22.5824C62.667 22.5536 62.7246 22.5032 62.799 22.5344C62.679 22.7744 62.8278 23.1008 63.207 23.1776C63.0678 23.0144 63.0006 22.8416 63.0006 22.6664C63.0006 22.1024 63.1566 22.0088 63.1566 21.6152C63.1542 21.5239 63.13 21.4345 63.0862 21.3544C63.0424 21.2742 62.9801 21.2057 62.9046 21.1544V21.1616C62.9511 21.152 62.995 21.1328 63.0334 21.105C63.0719 21.0773 63.1041 21.0418 63.1278 21.0008C62.8605 20.9271 62.5778 20.9296 62.3118 21.008C62.2228 21.0205 62.1378 21.053 62.0631 21.1028C61.9883 21.1527 61.9257 21.2187 61.8798 21.296C61.8319 21.4053 61.8072 21.5234 61.8072 21.6428C61.8072 21.7621 61.8319 21.8802 61.8798 21.9896C62.031 22.3016 62.7366 23.804 62.9574 24.2744C63.0054 24.3752 63.0318 24.4808 63.0318 24.596C63.0318 24.884 62.7678 24.9848 62.619 24.9848C62.439 24.9848 62.2542 24.848 62.2542 24.6776C62.2542 24.5696 62.3142 24.5024 62.3982 24.5024C62.6022 24.5024 62.5902 24.6752 62.5494 24.7856C62.6766 24.728 62.7486 24.6272 62.7294 24.5216C62.8082 24.5083 62.8796 24.4675 62.931 24.4064C62.883 24.344 62.8206 24.296 62.7294 24.2936C62.7702 24.128 62.6574 24.0584 62.5494 24.02C62.583 24.14 62.607 24.2816 62.3982 24.2816C62.247 24.2816 62.1294 24.3056 62.0598 24.4064L62.043 23.7584C62.0334 23.564 62.3022 23.5664 62.475 23.6264C62.4102 23.4032 62.2782 23.2808 61.971 23.312C62.0181 23.2939 62.0583 23.2614 62.0858 23.2192C62.1134 23.177 62.127 23.1271 62.1246 23.0768C62.1246 22.8944 61.9758 22.6928 61.8798 22.6328L61.8318 24.5288V24.5312Z" fill="#FFEC2D"/>
</g>
<path d="M94.9746 21.9648V28H92.4355V14.2402H94.9844V20.1582C95.2578 20.1582 95.502 20.1029 95.7168 19.9922C95.9382 19.875 96.1693 19.6895 96.4102 19.4355C96.7812 19.0319 97.2826 18.3353 97.9141 17.3457L99.9258 14.2402H102.533L99.8867 18.2148C99.0599 19.4453 98.4935 20.1745 98.1875 20.4023L103.002 28H100.189L96.3613 21.6133C96.2246 21.6914 96.0098 21.7695 95.7168 21.8477C95.4303 21.9258 95.1829 21.9648 94.9746 21.9648ZM106.713 28.1953C105.678 28.1953 104.881 27.9186 104.321 27.3652C103.761 26.8053 103.481 26.0241 103.481 25.0215C103.481 23.9277 103.839 23.0944 104.555 22.5215C105.271 21.9486 106.345 21.6491 107.778 21.623L110.092 21.584V21.0273C110.092 20.2852 109.949 19.7415 109.663 19.3965C109.383 19.0449 108.93 18.8691 108.305 18.8691C107.706 18.8691 107.267 18.9928 106.987 19.2402C106.707 19.4811 106.538 19.875 106.479 20.4219L103.959 20.2754C104.298 18.2507 105.776 17.2383 108.393 17.2383C109.728 17.2383 110.746 17.5605 111.45 18.2051C112.159 18.8431 112.514 19.7578 112.514 20.9492V25.0312C112.514 25.5977 112.579 26.0013 112.709 26.2422C112.846 26.4766 113.084 26.5938 113.422 26.5938C113.618 26.5938 113.816 26.5742 114.018 26.5352V27.8926C113.718 27.9642 113.448 28.0163 113.207 28.0488C112.973 28.0879 112.7 28.1074 112.387 28.1074C111.71 28.1074 111.212 27.9382 110.893 27.5996C110.58 27.2611 110.395 26.75 110.336 26.0664H110.278C109.874 26.7956 109.379 27.3327 108.793 27.6777C108.207 28.0228 107.514 28.1953 106.713 28.1953ZM110.092 23L108.51 23.0293C107.807 23.0488 107.296 23.1204 106.977 23.2441C106.658 23.3743 106.414 23.5729 106.245 23.8398C106.075 24.1068 105.991 24.4583 105.991 24.8945C105.991 25.4154 106.118 25.8092 106.371 26.0762C106.632 26.3431 106.987 26.4766 107.436 26.4766C107.937 26.4766 108.39 26.3496 108.793 26.0957C109.197 25.8418 109.513 25.4935 109.741 25.0508C109.975 24.6016 110.092 24.1328 110.092 23.6445V23ZM118.335 28.1953C117.195 28.1953 116.281 27.9544 115.591 27.4727C114.901 26.9909 114.419 26.2878 114.145 25.3633L116.225 24.9336C116.356 25.4349 116.606 25.8288 116.977 26.1152C117.348 26.3952 117.801 26.5352 118.335 26.5352C118.895 26.5352 119.331 26.3984 119.643 26.125C119.962 25.8516 120.122 25.4772 120.122 25.002C120.122 24.4225 119.884 23.9961 119.409 23.7227C118.94 23.4492 118.179 23.3125 117.124 23.3125V21.7109C118.12 21.7109 118.846 21.5905 119.302 21.3496C119.757 21.1022 119.985 20.7148 119.985 20.1875C119.985 19.7643 119.845 19.4355 119.565 19.2012C119.292 18.9603 118.898 18.8398 118.384 18.8398C117.83 18.8398 117.388 18.9668 117.055 19.2207C116.73 19.4681 116.541 19.8099 116.489 20.2461L114.419 20.041C114.575 19.123 115.005 18.4264 115.708 17.9512C116.417 17.4759 117.345 17.2383 118.491 17.2383C119.637 17.2383 120.561 17.4922 121.264 18C121.968 18.5078 122.319 19.1719 122.319 19.9922C122.319 20.6367 122.104 21.1738 121.675 21.6035C121.251 22.0332 120.659 22.3164 119.897 22.4531V22.4727C120.718 22.5573 121.375 22.834 121.87 23.3027C122.371 23.765 122.622 24.3411 122.622 25.0312C122.622 26.0143 122.244 26.7891 121.489 27.3555C120.734 27.9154 119.682 28.1953 118.335 28.1953ZM126.655 28.1953C125.62 28.1953 124.823 27.9186 124.263 27.3652C123.703 26.8053 123.423 26.0241 123.423 25.0215C123.423 23.9277 123.781 23.0944 124.497 22.5215C125.213 21.9486 126.288 21.6491 127.72 21.623L130.034 21.584V21.0273C130.034 20.2852 129.891 19.7415 129.605 19.3965C129.325 19.0449 128.872 18.8691 128.247 18.8691C127.648 18.8691 127.209 18.9928 126.929 19.2402C126.649 19.4811 126.48 19.875 126.421 20.4219L123.902 20.2754C124.24 18.2507 125.718 17.2383 128.335 17.2383C129.67 17.2383 130.689 17.5605 131.392 18.2051C132.101 18.8431 132.456 19.7578 132.456 20.9492V25.0312C132.456 25.5977 132.521 26.0013 132.652 26.2422C132.788 26.4766 133.026 26.5938 133.364 26.5938C133.56 26.5938 133.758 26.5742 133.96 26.5352V27.8926C133.661 27.9642 133.39 28.0163 133.15 28.0488C132.915 28.0879 132.642 28.1074 132.329 28.1074C131.652 28.1074 131.154 27.9382 130.835 27.5996C130.523 27.2611 130.337 26.75 130.279 26.0664H130.22C129.816 26.7956 129.321 27.3327 128.736 27.6777C128.15 28.0228 127.456 28.1953 126.655 28.1953ZM130.034 23L128.452 23.0293C127.749 23.0488 127.238 23.1204 126.919 23.2441C126.6 23.3743 126.356 23.5729 126.187 23.8398C126.017 24.1068 125.933 24.4583 125.933 24.8945C125.933 25.4154 126.06 25.8092 126.314 26.0762C126.574 26.3431 126.929 26.4766 127.378 26.4766C127.879 26.4766 128.332 26.3496 128.736 26.0957C129.139 25.8418 129.455 25.4935 129.683 25.0508C129.917 24.6016 130.034 24.1328 130.034 23.6445V23ZM138.834 24.0059L136.226 28H133.648L137.476 22.5508L133.834 17.4336H136.451L138.834 21.1055L141.207 17.4336H143.843L140.191 22.5215L144.058 28H141.421L138.834 24.0059ZM149.098 28.1953C147.542 28.1953 146.34 27.7233 145.494 26.7793C144.654 25.8288 144.234 24.4876 144.234 22.7559C144.234 20.998 144.658 19.6406 145.504 18.6836C146.35 17.7201 147.555 17.2383 149.117 17.2383C150.309 17.2383 151.295 17.541 152.076 18.1465C152.857 18.7454 153.346 19.5755 153.541 20.6367L151.1 20.7734C151.015 20.2201 150.807 19.7806 150.475 19.4551C150.143 19.123 149.674 18.957 149.068 18.957C148.281 18.957 147.701 19.2565 147.33 19.8555C146.959 20.4544 146.773 21.3919 146.773 22.668C146.773 23.9505 146.965 24.9076 147.35 25.5391C147.74 26.1706 148.323 26.4863 149.098 26.4863C149.651 26.4863 150.113 26.3203 150.484 25.9883C150.862 25.6562 151.096 25.1549 151.188 24.4844L153.619 24.6113C153.521 25.3275 153.271 25.9557 152.867 26.4961C152.464 27.0365 151.939 27.4564 151.295 27.7559C150.65 28.0488 149.918 28.1953 149.098 28.1953ZM159.801 19.0938V28H157.379V19.0938H154.284V17.4336H162.897V19.0938H159.801ZM166.813 28.1953C165.778 28.1953 164.981 27.9186 164.421 27.3652C163.861 26.8053 163.581 26.0241 163.581 25.0215C163.581 23.9277 163.939 23.0944 164.655 22.5215C165.371 21.9486 166.445 21.6491 167.878 21.623L170.192 21.584V21.0273C170.192 20.2852 170.049 19.7415 169.762 19.3965C169.483 19.0449 169.03 18.8691 168.405 18.8691C167.806 18.8691 167.367 18.9928 167.087 19.2402C166.807 19.4811 166.637 19.875 166.579 20.4219L164.059 20.2754C164.398 18.2507 165.876 17.2383 168.493 17.2383C169.828 17.2383 170.846 17.5605 171.55 18.2051C172.259 18.8431 172.614 19.7578 172.614 20.9492V25.0312C172.614 25.5977 172.679 26.0013 172.809 26.2422C172.946 26.4766 173.184 26.5938 173.522 26.5938C173.718 26.5938 173.916 26.5742 174.118 26.5352V27.8926C173.818 27.9642 173.548 28.0163 173.307 28.0488C173.073 28.0879 172.8 28.1074 172.487 28.1074C171.81 28.1074 171.312 27.9382 170.993 27.5996C170.68 27.2611 170.495 26.75 170.436 26.0664H170.378C169.974 26.7956 169.479 27.3327 168.893 27.6777C168.307 28.0228 167.614 28.1953 166.813 28.1953ZM170.192 23L168.61 23.0293C167.907 23.0488 167.396 23.1204 167.077 23.2441C166.758 23.3743 166.514 23.5729 166.345 23.8398C166.175 24.1068 166.091 24.4583 166.091 24.8945C166.091 25.4154 166.218 25.8092 166.471 26.0762C166.732 26.3431 167.087 26.4766 167.536 26.4766C168.037 26.4766 168.49 26.3496 168.893 26.0957C169.297 25.8418 169.613 25.4935 169.841 25.0508C170.075 24.6016 170.192 24.1328 170.192 23.6445V23ZM177.458 23.3809V28H175.036V17.4336H177.458V21.7109H181.56V17.4336H183.982V28H181.56V23.3809H177.458Z" fill="black"/>
<path opacity="0.5" d="M60.4971 59V61.7891H59.1094V57.7148H60.1211C60.4674 57.2227 60.766 56.5641 61.0166 55.7393C61.2673 54.9098 61.4701 53.8981 61.625 52.7041L62.0693 49.3682H67.1689V57.7148H68.3857V61.7891H66.998V59H60.4971ZM61.8027 57.7148H65.6719V50.6533H63.3682L63.0742 52.8613C62.9694 53.6224 62.8532 54.3105 62.7256 54.9258C62.598 55.5365 62.4567 56.0742 62.3018 56.5391C62.1514 57.0039 61.985 57.3958 61.8027 57.7148ZM71.4346 59.1367C70.7008 59.1367 70.1426 58.9408 69.7598 58.5488C69.377 58.1569 69.1855 57.6169 69.1855 56.9287C69.1855 56.1631 69.4362 55.5775 69.9375 55.1719C70.4388 54.7663 71.2227 54.5498 72.2891 54.5225L73.9229 54.4951V54.1055C73.9229 53.5404 73.8089 53.1325 73.5811 52.8818C73.3577 52.6312 73 52.5059 72.5078 52.5059C72.0202 52.5059 71.6647 52.5947 71.4414 52.7725C71.2227 52.9502 71.0882 53.2396 71.0381 53.6406L69.5137 53.5312C69.737 52.1549 70.751 51.4668 72.5557 51.4668C73.4854 51.4668 74.1895 51.6855 74.668 52.123C75.151 52.5605 75.3926 53.1895 75.3926 54.0098V57.0312C75.3926 57.4141 75.4404 57.6943 75.5361 57.8721C75.6318 58.0452 75.805 58.1318 76.0557 58.1318C76.1924 58.1318 76.3291 58.1159 76.4658 58.084V58.9385C76.2835 58.984 76.1104 59.0182 75.9463 59.041C75.7868 59.0638 75.6136 59.0752 75.4268 59.0752C74.9619 59.0752 74.6201 58.9567 74.4014 58.7197C74.1872 58.4782 74.0641 58.1113 74.0322 57.6191H73.9912C73.6904 58.1569 73.3327 58.5443 72.918 58.7812C72.5078 59.0182 72.0133 59.1367 71.4346 59.1367ZM73.9229 55.4248L72.6992 55.4453C72.166 55.459 71.7695 55.516 71.5098 55.6162C71.2454 55.7165 71.0426 55.8691 70.9014 56.0742C70.7646 56.2793 70.6963 56.5505 70.6963 56.8877C70.6963 57.2751 70.7943 57.5713 70.9902 57.7764C71.1908 57.9769 71.4688 58.0771 71.8242 58.0771C72.2298 58.0771 72.5898 57.9814 72.9043 57.79C73.2188 57.5986 73.4671 57.3366 73.6494 57.0039C73.8317 56.6667 73.9229 56.318 73.9229 55.958V55.4248ZM80.2529 52.6357V59H78.79V52.6357H76.5342V51.6035H82.5088V52.6357H80.2529ZM85.4756 59.1367C84.7419 59.1367 84.1836 58.9408 83.8008 58.5488C83.418 58.1569 83.2266 57.6169 83.2266 56.9287C83.2266 56.1631 83.4772 55.5775 83.9785 55.1719C84.4798 54.7663 85.2637 54.5498 86.3301 54.5225L87.9639 54.4951V54.1055C87.9639 53.5404 87.8499 53.1325 87.6221 52.8818C87.3988 52.6312 87.041 52.5059 86.5488 52.5059C86.0612 52.5059 85.7057 52.5947 85.4824 52.7725C85.2637 52.9502 85.1292 53.2396 85.0791 53.6406L83.5547 53.5312C83.778 52.1549 84.792 51.4668 86.5967 51.4668C87.5264 51.4668 88.2305 51.6855 88.709 52.123C89.1921 52.5605 89.4336 53.1895 89.4336 54.0098V57.0312C89.4336 57.4141 89.4814 57.6943 89.5771 57.8721C89.6729 58.0452 89.846 58.1318 90.0967 58.1318C90.2334 58.1318 90.3701 58.1159 90.5068 58.084V58.9385C90.3245 58.984 90.1514 59.0182 89.9873 59.041C89.8278 59.0638 89.6546 59.0752 89.4678 59.0752C89.0029 59.0752 88.6611 58.9567 88.4424 58.7197C88.2282 58.4782 88.1051 58.1113 88.0732 57.6191H88.0322C87.7314 58.1569 87.3737 58.5443 86.959 58.7812C86.5488 59.0182 86.0544 59.1367 85.4756 59.1367ZM87.9639 55.4248L86.7402 55.4453C86.207 55.459 85.8105 55.516 85.5508 55.6162C85.2865 55.7165 85.0837 55.8691 84.9424 56.0742C84.8057 56.2793 84.7373 56.5505 84.7373 56.8877C84.7373 57.2751 84.8353 57.5713 85.0312 57.7764C85.2318 57.9769 85.5098 58.0771 85.8652 58.0771C86.2708 58.0771 86.6309 57.9814 86.9453 57.79C87.2598 57.5986 87.5081 57.3366 87.6904 57.0039C87.8727 56.6667 87.9639 56.318 87.9639 55.958V55.4248ZM97.5957 59.1367C96.8164 59.1367 96.1921 58.9818 95.7227 58.6719C95.2578 58.3574 94.9251 57.8926 94.7246 57.2773L96.0029 56.9766C96.1077 57.3366 96.2969 57.6146 96.5703 57.8105C96.8483 58.002 97.1947 58.0977 97.6094 58.0977C98.0195 58.0977 98.3431 57.9974 98.5801 57.7969C98.8216 57.5918 98.9424 57.3024 98.9424 56.9287C98.9424 56.4958 98.7669 56.1745 98.416 55.9648C98.0651 55.7552 97.5137 55.6504 96.7617 55.6504V54.625C97.4818 54.625 98.0059 54.5339 98.334 54.3516C98.6667 54.1693 98.833 53.8867 98.833 53.5039C98.833 53.1895 98.7282 52.9411 98.5186 52.7588C98.3089 52.5765 98.0081 52.4854 97.6162 52.4854C97.2243 52.4854 96.9053 52.5719 96.6592 52.7451C96.4176 52.9137 96.2718 53.1553 96.2217 53.4697L94.9434 53.3262C95.0527 52.7109 95.3376 52.2484 95.7979 51.9385C96.2581 51.624 96.8802 51.4668 97.6641 51.4668C98.4479 51.4668 99.0791 51.6468 99.5576 52.0068C100.041 52.3669 100.282 52.834 100.282 53.4082C100.282 53.8639 100.123 54.2445 99.8037 54.5498C99.4893 54.8551 99.0837 55.0397 98.5869 55.1035V55.1172C99.1475 55.181 99.6009 55.377 99.9473 55.7051C100.298 56.0286 100.474 56.4342 100.474 56.9219C100.474 57.6146 100.218 58.1569 99.708 58.5488C99.1976 58.9408 98.4935 59.1367 97.5957 59.1367ZM103.7 59.1367C102.966 59.1367 102.408 58.9408 102.025 58.5488C101.643 58.1569 101.451 57.6169 101.451 56.9287C101.451 56.1631 101.702 55.5775 102.203 55.1719C102.704 54.7663 103.488 54.5498 104.555 54.5225L106.188 54.4951V54.1055C106.188 53.5404 106.075 53.1325 105.847 52.8818C105.623 52.6312 105.266 52.5059 104.773 52.5059C104.286 52.5059 103.93 52.5947 103.707 52.7725C103.488 52.9502 103.354 53.2396 103.304 53.6406L101.779 53.5312C102.003 52.1549 103.017 51.4668 104.821 51.4668C105.751 51.4668 106.455 51.6855 106.934 52.123C107.417 52.5605 107.658 53.1895 107.658 54.0098V57.0312C107.658 57.4141 107.706 57.6943 107.802 57.8721C107.897 58.0452 108.071 58.1318 108.321 58.1318C108.458 58.1318 108.595 58.1159 108.731 58.084V58.9385C108.549 58.984 108.376 59.0182 108.212 59.041C108.052 59.0638 107.879 59.0752 107.692 59.0752C107.228 59.0752 106.886 58.9567 106.667 58.7197C106.453 58.4782 106.33 58.1113 106.298 57.6191H106.257C105.956 58.1569 105.598 58.5443 105.184 58.7812C104.773 59.0182 104.279 59.1367 103.7 59.1367ZM106.188 55.4248L104.965 55.4453C104.432 55.459 104.035 55.516 103.775 55.6162C103.511 55.7165 103.308 55.8691 103.167 56.0742C103.03 56.2793 102.962 56.5505 102.962 56.8877C102.962 57.2751 103.06 57.5713 103.256 57.7764C103.456 57.9769 103.734 58.0771 104.09 58.0771C104.495 58.0771 104.855 57.9814 105.17 57.79C105.484 57.5986 105.733 57.3366 105.915 57.0039C106.097 56.6667 106.188 56.318 106.188 55.958V55.4248ZM111.145 52.6357V59H109.682V51.6035H115.608V59H114.146V52.6357H111.145ZM118.104 61.9053C117.725 61.9053 117.402 61.8779 117.133 61.8232V60.7568C117.333 60.7842 117.534 60.7979 117.734 60.7979C118.14 60.7979 118.489 60.6634 118.78 60.3945C119.072 60.1257 119.336 59.6449 119.573 58.9521L116.647 51.6035H118.199L119.621 55.4863C119.73 55.7643 119.847 56.0902 119.97 56.4639C120.093 56.833 120.202 57.1976 120.298 57.5576C120.412 57.2021 120.523 56.8604 120.633 56.5322C120.742 56.1995 120.852 55.8646 120.961 55.5273L122.267 51.6035H123.805L120.934 59.1299C120.792 59.4945 120.651 59.8158 120.51 60.0938C120.373 60.3717 120.239 60.6042 120.106 60.791C119.838 61.1784 119.541 61.4609 119.218 61.6387C118.894 61.8164 118.523 61.9053 118.104 61.9053ZM127.503 59.1367C126.437 59.1367 125.621 58.8086 125.056 58.1523C124.491 57.4915 124.208 56.5436 124.208 55.3086C124.208 54.0736 124.493 53.1257 125.062 52.4648C125.632 51.7995 126.446 51.4668 127.503 51.4668C128.296 51.4668 128.952 51.6719 129.472 52.082C129.996 52.4876 130.326 53.0482 130.463 53.7637L128.973 53.8594C128.913 53.4583 128.761 53.1393 128.515 52.9023C128.269 52.6654 127.918 52.5469 127.462 52.5469C126.865 52.5469 126.427 52.7611 126.149 53.1895C125.871 53.6133 125.732 54.306 125.732 55.2676C125.732 56.2064 125.878 56.9059 126.17 57.3662C126.462 57.8219 126.899 58.0498 127.482 58.0498C127.897 58.0498 128.243 57.9336 128.521 57.7012C128.799 57.4642 128.97 57.1064 129.034 56.6279L130.504 56.71C130.44 57.2021 130.274 57.6305 130.005 57.9951C129.736 58.3551 129.387 58.6354 128.959 58.8359C128.535 59.0365 128.05 59.1367 127.503 59.1367ZM133.3 55.8076V59H131.837V51.6035H133.3V54.8232C133.455 54.8187 133.585 54.7936 133.689 54.748C133.794 54.7025 133.904 54.6182 134.018 54.4951C134.072 54.4313 134.132 54.3584 134.195 54.2764C134.264 54.1898 134.332 54.0918 134.4 53.9824C134.473 53.8776 134.626 53.627 134.858 53.2305C135.095 52.8294 135.412 52.2871 135.809 51.6035H137.292L135.836 53.9551C135.49 54.4928 135.218 54.8415 135.022 55.001L137.354 59H135.788L133.99 55.6914C133.908 55.7233 133.801 55.7507 133.669 55.7734C133.541 55.7962 133.418 55.8076 133.3 55.8076ZM140.3 59.1367C139.566 59.1367 139.008 58.9408 138.625 58.5488C138.242 58.1569 138.051 57.6169 138.051 56.9287C138.051 56.1631 138.301 55.5775 138.803 55.1719C139.304 54.7663 140.088 54.5498 141.154 54.5225L142.788 54.4951V54.1055C142.788 53.5404 142.674 53.1325 142.446 52.8818C142.223 52.6312 141.865 52.5059 141.373 52.5059C140.885 52.5059 140.53 52.5947 140.307 52.7725C140.088 52.9502 139.953 53.2396 139.903 53.6406L138.379 53.5312C138.602 52.1549 139.616 51.4668 141.421 51.4668C142.351 51.4668 143.055 51.6855 143.533 52.123C144.016 52.5605 144.258 53.1895 144.258 54.0098V57.0312C144.258 57.4141 144.306 57.6943 144.401 57.8721C144.497 58.0452 144.67 58.1318 144.921 58.1318C145.058 58.1318 145.194 58.1159 145.331 58.084V58.9385C145.149 58.984 144.976 59.0182 144.812 59.041C144.652 59.0638 144.479 59.0752 144.292 59.0752C143.827 59.0752 143.485 58.9567 143.267 58.7197C143.052 58.4782 142.929 58.1113 142.897 57.6191H142.856C142.556 58.1569 142.198 58.5443 141.783 58.7812C141.373 59.0182 140.879 59.1367 140.3 59.1367ZM142.788 55.4248L141.564 55.4453C141.031 55.459 140.635 55.516 140.375 55.6162C140.111 55.7165 139.908 55.8691 139.767 56.0742C139.63 56.2793 139.562 56.5505 139.562 56.8877C139.562 57.2751 139.66 57.5713 139.855 57.7764C140.056 57.9769 140.334 58.0771 140.689 58.0771C141.095 58.0771 141.455 57.9814 141.77 57.79C142.084 57.5986 142.332 57.3366 142.515 57.0039C142.697 56.6667 142.788 56.318 142.788 55.958V55.4248Z" fill="black"/>
<path d="M69.377 71.9756C69.377 72.682 69.2288 73.3086 68.9326 73.8555C68.6318 74.4023 68.1989 74.8285 67.6338 75.1338C67.0732 75.4346 66.4124 75.585 65.6514 75.585H65.2891V77.0752H63.7852V75.585H63.4229C62.6663 75.585 62.0055 75.4323 61.4404 75.127C60.8753 74.8262 60.4424 74.4023 60.1416 73.8555C59.8454 73.304 59.6973 72.6774 59.6973 71.9756C59.6973 70.8682 60.0277 70.0114 60.6885 69.4053C61.3493 68.7946 62.2881 68.4893 63.5049 68.4893H63.7852V67.2998H65.2891V68.4893H65.5693C66.7907 68.4893 67.7295 68.7946 68.3857 69.4053C69.0465 70.016 69.377 70.8727 69.377 71.9756ZM67.8252 72.0029C67.8252 71.21 67.6247 70.6107 67.2236 70.2051C66.8271 69.7995 66.2233 69.5967 65.4121 69.5967H65.2891V74.4844H65.4668C66.2279 74.4844 66.8112 74.2747 67.2168 73.8555C67.6224 73.4316 67.8252 72.8141 67.8252 72.0029ZM61.249 72.0029C61.249 72.8141 61.4518 73.4316 61.8574 73.8555C62.2676 74.2747 62.8532 74.4844 63.6143 74.4844H63.7852V69.5967H63.6484C62.8418 69.5967 62.2402 69.7972 61.8438 70.1982C61.4473 70.5993 61.249 71.2008 61.249 72.0029ZM72.2002 73.5957C72.2002 74.4023 72.362 75.0199 72.6855 75.4482C73.0091 75.8766 73.4762 76.0908 74.0869 76.0908C74.5563 76.0908 74.9346 75.9951 75.2217 75.8037C75.5088 75.6123 75.7048 75.3594 75.8096 75.0449L77.1289 75.2979C76.6595 76.5238 75.6364 77.1367 74.0596 77.1367C72.9567 77.1367 72.1159 76.8109 71.5371 76.1592C70.9583 75.5029 70.6689 74.5368 70.6689 73.2607C70.6689 72.0394 70.9606 71.1029 71.5439 70.4512C72.1273 69.7949 72.9567 69.4668 74.0322 69.4668C75.1123 69.4668 75.9258 69.804 76.4727 70.4785C77.0241 71.1484 77.2998 72.1465 77.2998 73.4727V73.5957H72.2002ZM75.8301 72.5703C75.7754 71.8503 75.5954 71.3216 75.29 70.9844C74.9893 70.6471 74.5632 70.4785 74.0117 70.4785C73.4648 70.4785 73.0342 70.6631 72.7197 71.0322C72.4053 71.4014 72.2367 71.9141 72.2139 72.5703H75.8301ZM81.9961 69.6035C82.9622 69.6035 83.6868 69.7607 84.1699 70.0752C84.653 70.3896 84.8945 70.8499 84.8945 71.4561C84.8945 71.8799 84.7578 72.2331 84.4844 72.5156C84.2155 72.7982 83.8281 72.9873 83.3223 73.083V73.1309C84.5208 73.2812 85.1201 73.86 85.1201 74.8672C85.1201 75.5508 84.8626 76.0771 84.3477 76.4463C83.8327 76.8154 83.1172 77 82.2012 77H78.8516V69.6035H81.9961ZM80.3145 72.6797H81.7773C82.3516 72.6797 82.7594 72.6022 83.001 72.4473C83.2425 72.2923 83.3633 72.0234 83.3633 71.6406C83.3633 71.2897 83.2493 71.0345 83.0215 70.875C82.7936 70.7109 82.4085 70.6289 81.8662 70.6289H80.3145V72.6797ZM80.3145 75.9951H81.9072C82.527 75.9951 82.9622 75.9062 83.2129 75.7285C83.4681 75.5462 83.5957 75.2523 83.5957 74.8467C83.5957 74.4137 83.4613 74.1084 83.1924 73.9307C82.9281 73.7529 82.4746 73.6641 81.832 73.6641H80.3145V75.9951ZM93.1729 73.2676C93.1729 74.5391 92.9382 75.5029 92.4688 76.1592C92.0039 76.8109 91.318 77.1367 90.4111 77.1367C89.2946 77.1367 88.5358 76.7061 88.1348 75.8447H88.1006C88.1188 75.9085 88.1279 76.305 88.1279 77.0342V79.9053H86.6719V71.1758C86.6719 70.8066 86.6673 70.4922 86.6582 70.2324C86.6491 69.9681 86.6377 69.7585 86.624 69.6035H88.0391C88.0482 69.6354 88.0573 69.7266 88.0664 69.877C88.0801 70.0228 88.0915 70.1846 88.1006 70.3623C88.1097 70.54 88.1143 70.6859 88.1143 70.7998H88.1416C88.3558 70.3441 88.6497 70.0091 89.0234 69.7949C89.3971 69.5762 89.8734 69.4668 90.4521 69.4668C91.3499 69.4668 92.0267 69.7812 92.4824 70.4102C92.9427 71.0345 93.1729 71.987 93.1729 73.2676ZM91.6416 73.2881C91.6416 72.3219 91.5072 71.6224 91.2383 71.1895C90.9694 70.7565 90.5479 70.54 89.9736 70.54C89.3538 70.54 88.889 70.7702 88.5791 71.2305C88.2738 71.6908 88.1211 72.404 88.1211 73.3701C88.1211 74.2816 88.2692 74.9629 88.5654 75.4141C88.8617 75.8652 89.3265 76.0908 89.96 76.0908C90.5387 76.0908 90.9626 75.8721 91.2314 75.4346C91.5049 74.9925 91.6416 74.277 91.6416 73.2881ZM96.5361 77.1367C95.8024 77.1367 95.2441 76.9408 94.8613 76.5488C94.4785 76.1569 94.2871 75.6169 94.2871 74.9287C94.2871 74.1631 94.5378 73.5775 95.0391 73.1719C95.5404 72.7663 96.3242 72.5498 97.3906 72.5225L99.0244 72.4951V72.1055C99.0244 71.5404 98.9105 71.1325 98.6826 70.8818C98.4593 70.6312 98.1016 70.5059 97.6094 70.5059C97.1217 70.5059 96.7663 70.5947 96.543 70.7725C96.3242 70.9502 96.1898 71.2396 96.1396 71.6406L94.6152 71.5312C94.8385 70.1549 95.8525 69.4668 97.6572 69.4668C98.5869 69.4668 99.291 69.6855 99.7695 70.123C100.253 70.5605 100.494 71.1895 100.494 72.0098V75.0312C100.494 75.4141 100.542 75.6943 100.638 75.8721C100.733 76.0452 100.907 76.1318 101.157 76.1318C101.294 76.1318 101.431 76.1159 101.567 76.084V76.9385C101.385 76.984 101.212 77.0182 101.048 77.041C100.888 77.0638 100.715 77.0752 100.528 77.0752C100.063 77.0752 99.7217 76.9567 99.5029 76.7197C99.2887 76.4782 99.1657 76.1113 99.1338 75.6191H99.0928C98.792 76.1569 98.4342 76.5443 98.0195 76.7812C97.6094 77.0182 97.1149 77.1367 96.5361 77.1367ZM99.0244 73.4248L97.8008 73.4453C97.2676 73.459 96.8711 73.516 96.6113 73.6162C96.347 73.7165 96.1442 73.8691 96.0029 74.0742C95.8662 74.2793 95.7979 74.5505 95.7979 74.8877C95.7979 75.2751 95.8958 75.5713 96.0918 75.7764C96.2923 75.9769 96.5703 76.0771 96.9258 76.0771C97.3314 76.0771 97.6914 75.9814 98.0059 75.79C98.3203 75.5986 98.5687 75.3366 98.751 75.0039C98.9333 74.6667 99.0244 74.318 99.0244 73.958V73.4248ZM104.028 76.1182C103.86 76.4691 103.65 76.7266 103.399 76.8906C103.153 77.0547 102.827 77.1367 102.422 77.1367C102.294 77.1367 102.158 77.1276 102.012 77.1094C101.87 77.0957 101.747 77.0752 101.643 77.0479V76.0225C101.761 76.0635 101.916 76.084 102.107 76.084C102.194 76.084 102.294 76.0566 102.408 76.002C102.522 75.9427 102.641 75.7946 102.764 75.5576C102.891 75.3206 103.012 74.931 103.126 74.3887C103.162 74.2155 103.199 74.0104 103.235 73.7734C103.276 73.5365 103.322 73.238 103.372 72.8779C103.427 72.5179 103.491 72.0736 103.563 71.5449C103.636 71.0117 103.725 70.3646 103.83 69.6035H108.984V77H107.515V70.6357H105.102C104.974 71.5928 104.858 72.3994 104.753 73.0557C104.653 73.7074 104.566 74.2041 104.493 74.5459C104.352 75.234 104.197 75.7581 104.028 76.1182ZM114.132 72.6797C115.112 72.6797 115.852 72.8506 116.354 73.1924C116.859 73.5342 117.112 74.0697 117.112 74.7988C117.112 75.5098 116.853 76.0544 116.333 76.4326C115.818 76.8109 115.087 77 114.139 77H110.926V69.6035H112.389V72.6797H114.132ZM112.389 76.0225H113.879C114.471 76.0225 114.904 75.9245 115.178 75.7285C115.451 75.5326 115.588 75.2227 115.588 74.7988C115.588 74.3978 115.456 74.1061 115.191 73.9238C114.927 73.737 114.492 73.6436 113.886 73.6436H112.389V76.0225ZM128.72 75.7764V77H122.219V75.9746C122.433 75.4961 122.693 75.0632 122.998 74.6758C123.303 74.2839 123.641 73.9193 124.01 73.582C124.383 73.2402 124.769 72.9121 125.165 72.5977C125.397 72.4154 125.607 72.2399 125.794 72.0713C125.981 71.8981 126.145 71.7363 126.286 71.5859C126.528 71.3353 126.719 71.0778 126.86 70.8135C127.006 70.5492 127.079 70.2575 127.079 69.9385C127.079 69.4463 126.94 69.068 126.662 68.8037C126.384 68.5394 125.992 68.4072 125.486 68.4072C124.999 68.4072 124.604 68.5394 124.304 68.8037C124.007 69.068 123.83 69.4463 123.771 69.9385L122.287 69.8223C122.383 69.0111 122.711 68.3753 123.271 67.915C123.832 67.4548 124.568 67.2246 125.479 67.2246C126.473 67.2246 127.236 67.457 127.77 67.9219C128.303 68.3822 128.569 69.0361 128.569 69.8838C128.569 70.2939 128.478 70.6859 128.296 71.0596C128.118 71.4333 127.865 71.7979 127.537 72.1533C127.337 72.3675 127.075 72.6136 126.751 72.8916C126.432 73.165 126.063 73.4704 125.644 73.8076C125.188 74.1768 124.812 74.5208 124.516 74.8398C124.224 75.1543 124.012 75.4665 123.88 75.7764H128.72ZM136.615 72.1807C136.615 73.7939 136.333 75.0244 135.768 75.8721C135.202 76.7152 134.364 77.1367 133.252 77.1367C132.149 77.1367 131.32 76.7174 130.764 75.8789C130.208 75.0404 129.93 73.8076 129.93 72.1807C129.93 70.5127 130.196 69.2708 130.729 68.4551C131.267 67.6348 132.124 67.2246 133.3 67.2246C134.435 67.2246 135.271 67.6416 135.809 68.4756C136.346 69.305 136.615 70.54 136.615 72.1807ZM135.139 72.1807C135.139 71.2738 135.079 70.5423 134.961 69.9863C134.842 69.4303 134.646 69.027 134.373 68.7764C134.104 68.5212 133.744 68.3936 133.293 68.3936C132.833 68.3936 132.461 68.5189 132.179 68.7695C131.901 69.0202 131.7 69.4235 131.577 69.9795C131.459 70.5355 131.399 71.2692 131.399 72.1807C131.399 73.0739 131.461 73.8008 131.584 74.3613C131.712 74.9173 131.912 75.3229 132.186 75.5781C132.464 75.8333 132.824 75.9609 133.266 75.9609C133.931 75.9609 134.41 75.6579 134.701 75.0518C134.993 74.4456 135.139 73.4886 135.139 72.1807ZM144.306 75.7764V77H137.805V75.9746C138.019 75.4961 138.279 75.0632 138.584 74.6758C138.889 74.2839 139.227 73.9193 139.596 73.582C139.969 73.2402 140.354 72.9121 140.751 72.5977C140.983 72.4154 141.193 72.2399 141.38 72.0713C141.567 71.8981 141.731 71.7363 141.872 71.5859C142.114 71.3353 142.305 71.0778 142.446 70.8135C142.592 70.5492 142.665 70.2575 142.665 69.9385C142.665 69.4463 142.526 69.068 142.248 68.8037C141.97 68.5394 141.578 68.4072 141.072 68.4072C140.585 68.4072 140.19 68.5394 139.89 68.8037C139.593 69.068 139.416 69.4463 139.356 69.9385L137.873 69.8223C137.969 69.0111 138.297 68.3753 138.857 67.915C139.418 67.4548 140.154 67.2246 141.065 67.2246C142.059 67.2246 142.822 67.457 143.355 67.9219C143.889 68.3822 144.155 69.0361 144.155 69.8838C144.155 70.2939 144.064 70.6859 143.882 71.0596C143.704 71.4333 143.451 71.7979 143.123 72.1533C142.923 72.3675 142.66 72.6136 142.337 72.8916C142.018 73.165 141.649 73.4704 141.229 73.8076C140.774 74.1768 140.398 74.5208 140.102 74.8398C139.81 75.1543 139.598 75.4665 139.466 75.7764H144.306ZM152.174 73.8486C152.174 74.8695 151.894 75.6738 151.333 76.2617C150.777 76.8451 150.007 77.1367 149.022 77.1367C147.92 77.1367 147.074 76.7357 146.486 75.9336C145.903 75.1315 145.611 73.9557 145.611 72.4062C145.611 70.7201 145.912 69.4349 146.514 68.5508C147.12 67.6667 147.983 67.2246 149.104 67.2246C149.861 67.2246 150.469 67.3955 150.93 67.7373C151.395 68.0745 151.723 68.585 151.914 69.2686L150.526 69.4941C150.312 68.7604 149.829 68.3936 149.077 68.3936C148.439 68.3936 147.942 68.6989 147.587 69.3096C147.231 69.9157 147.054 70.8066 147.054 71.9824C147.272 71.5905 147.578 71.292 147.97 71.0869C148.362 70.8818 148.808 70.7793 149.31 70.7793C150.189 70.7793 150.886 71.0573 151.401 71.6133C151.916 72.1647 152.174 72.9098 152.174 73.8486ZM150.697 73.9033C150.697 73.2562 150.54 72.7594 150.226 72.4131C149.916 72.0622 149.485 71.8867 148.934 71.8867C148.41 71.8867 147.986 72.0439 147.662 72.3584C147.343 72.6729 147.184 73.099 147.184 73.6367C147.184 74.0924 147.259 74.4958 147.409 74.8467C147.564 75.1976 147.776 75.4733 148.045 75.6738C148.314 75.8743 148.624 75.9746 148.975 75.9746C149.512 75.9746 149.934 75.7923 150.239 75.4277C150.545 75.0586 150.697 74.5505 150.697 73.9033Z" fill="black"/>
<defs>
<clipPath id="clip0_2693_29164">
<rect x="59" y="9" width="24" height="24" rx="12" fill="white"/>
</clipPath>
</defs>
</svg>
