<svg xmlns="http://www.w3.org/2000/svg" width="40" height="34" viewBox="0 0 40 34" fill="none">
  <path d="M17.2952 0.0702037L10.2804 0.110051L18.8435 14.5069H21.0191L29.6541 0L22.7215 0.0393797L21.5164 2.0641H18.482L17.2952 0.0702037Z" fill="url(#paint0_linear_4326_5543)"/>
  <path d="M0 16.6396L3.49377 10.7743H5.96265L7.47983 8.22541L6.24641 6.15324L9.66125 0.420491L18.322 14.776L17.2128 16.6396H0Z" fill="url(#paint1_linear_4326_5543)"/>
  <path d="M0 17.3604L17.1463 17.3604L18.2959 19.2918L9.78512 33.5795L6.24767 27.7161L7.47985 25.646L5.96267 23.0971H3.46101L0 17.3604Z" fill="url(#paint2_linear_4326_5543)"/>
  <path d="M18.9213 19.6047L10.3528 34L17.1997 33.9611L18.4817 31.8073H21.5161L22.7792 33.9294L29.7265 33.8899L21.2297 19.6047H18.9213Z" fill="url(#paint3_linear_4326_5543)"/>
  <path d="M30.3457 33.5795L21.714 19.2722L22.8519 17.3604L40.007 17.3604L36.5898 23.0971H34.0356L32.5184 25.646L33.7945 27.7898L30.3457 33.5795Z" fill="url(#paint4_linear_4326_5543)"/>
  <path d="M21.6741 14.7714L30.2225 0.420491L33.717 6.21275L32.519 8.22538L34.0362 10.7743H36.469L40.0076 16.6396H22.7861L21.6741 14.7714Z" fill="url(#paint5_linear_4326_5543)"/>
  <defs>
    <linearGradient id="paint0_linear_4326_5543" x1="20.0038" y1="0" x2="20.0038" y2="34" gradientUnits="userSpaceOnUse">
      <stop stop-color="#13485d"/>
      <stop offset="1" stop-color="#13485d" stop-opacity="0.25"/>
    </linearGradient>
    <linearGradient id="paint1_linear_4326_5543" x1="20.0038" y1="0" x2="20.0038" y2="34" gradientUnits="userSpaceOnUse">
      <stop stop-color="#13485d"/>
      <stop offset="1" stop-color="#13485d" stop-opacity="0.25"/>
    </linearGradient>
    <linearGradient id="paint2_linear_4326_5543" x1="20.0038" y1="0" x2="20.0038" y2="34" gradientUnits="userSpaceOnUse">
      <stop stop-color="#13485d"/>
      <stop offset="1" stop-color="#13485d" stop-opacity="0.25"/>
    </linearGradient>
    <linearGradient id="paint3_linear_4326_5543" x1="20.0038" y1="0" x2="20.0038" y2="34" gradientUnits="userSpaceOnUse">
      <stop stop-color="#13485d"/>
      <stop offset="1" stop-color="#13485d" stop-opacity="0.25"/>
    </linearGradient>
    <linearGradient id="paint4_linear_4326_5543" x1="20.0038" y1="0" x2="20.0038" y2="34" gradientUnits="userSpaceOnUse">
      <stop stop-color="#13485d"/>
      <stop offset="1" stop-color="#13485d" stop-opacity="0.25"/>
    </linearGradient>
    <linearGradient id="paint5_linear_4326_5543" x1="20.0038" y1="0" x2="20.0038" y2="34" gradientUnits="userSpaceOnUse">
      <stop stop-color="#13485d"/>
      <stop offset="1" stop-color="#13485d" stop-opacity="0.25"/>
    </linearGradient>
  </defs>
</svg>