<svg width="1416" height="583" viewBox="0 0 1416 583" fill="none" xmlns="http://www.w3.org/2000/svg">
<g opacity="0.6">
<path d="M-112 874L708 819.695L-112 765.333V874Z" fill="#25795B"/>
<path d="M1528 271.239L708 819.695L1528 416.337V271.239Z" fill="#25795B"/>
<path d="M1528 0H1426.01L708 819.695L1528 101.95V0Z" fill="#25795B"/>
<path d="M1111.51 0L708 819.695L1256.66 0H1111.51Z" fill="#25795B"/>
<path d="M1528 765.333L708 819.695L1528 874V765.333Z" fill="#25795B"/>
<path d="M870.463 0L708 819.695L987.028 0H870.463Z" fill="#25795B"/>
<path d="M1528 540.771L708 819.695L1528 657.293V540.771Z" fill="#25795B"/>
<path d="M-112 0V101.95L708 819.695L-10.0125 0H-112Z" fill="#25795B"/>
<path d="M-112 657.293L708 819.695L-112 540.771V657.293Z" fill="#25795B"/>
<path d="M653.618 0L708 819.695L762.325 0H653.618Z" fill="#25795B"/>
<path d="M-112 416.337L708 819.695L-112 271.239V416.337Z" fill="#25795B"/>
<path d="M428.972 0L708 819.695L545.538 0H428.972Z" fill="#25795B"/>
<path d="M159.34 0L708 819.695L304.492 0H159.34Z" fill="#25795B"/>
</g>
</svg>
