<svg width="32" height="32" viewBox="0 0 32 32" fill="none" xmlns="http://www.w3.org/2000/svg">
  <path d="M12 13C13.6569 13 15 11.6569 15 10C15 8.34315 13.6569 7 12 7C10.3431 7 9 8.34315 9 10C9 11.6569 10.3431 13 12 13Z" fill="#2FAE8B"/>
  <path d="M20 13C21.6569 13 23 11.6569 23 10C23 8.34315 21.6569 7 20 7C18.3431 7 17 8.34315 17 10C17 11.6569 18.3431 13 20 13Z" fill="#2FAE8B"/>
  <path d="M8.5 22C8.8 18.9 10.7 17 13.4 17C14.8 17 16 17.5 16.9 18.5" stroke="#0F3B53" stroke-width="1.8" stroke-linecap="round"/>
  <path d="M23.5 22C23.2 18.9 21.3 17 18.6 17C17.2 17 16 17.5 15.1 18.5" stroke="#0F3B53" stroke-width="1.8" stroke-linecap="round"/>
  <path d="M13.7 21L15.2 22.5C15.7 23 16.5 23 17 22.5L20 19.5" stroke="#2FAE8B" stroke-width="1.8" stroke-linecap="round" stroke-linejoin="round"/>
</svg>
