<svg width="211" height="159" viewBox="0 0 211 159" fill="none" xmlns="http://www.w3.org/2000/svg">
<g clip-path="url(#clip0_1856_902)">
<rect width="252" height="158.076" rx="16.3459" fill="url(#paint0_linear_1856_902)"/>
<g clip-path="url(#clip1_1856_902)">
<mask id="mask0_1856_902" style="mask-type:alpha" maskUnits="userSpaceOnUse" x="27" y="-20" width="198" height="198">
<path d="M220.302 69.8579L135.167 -15.277C132.638 -17.8058 129.305 -19.0702 126.01 -19.0702C122.715 -19.0702 119.381 -17.8058 116.852 -15.277L31.7175 69.8579C26.6599 74.9154 26.6599 83.0764 31.7175 88.1339L116.852 173.269C119.381 175.798 122.676 177.062 126.01 177.062C129.343 177.062 132.638 175.798 135.167 173.269L220.302 88.1339C225.359 83.1147 225.359 74.9154 220.302 69.8579ZM119.879 158.978L51.3728 90.4711L119.879 119.82V158.978ZM119.879 106.487L44.6678 74.2641L119.879 -0.947407V106.487ZM132.14 158.978V119.82L200.646 90.4711L132.14 158.978ZM132.14 106.487V-0.947407L207.351 74.2641L132.14 106.487Z" fill="black"/>
</mask>
<g mask="url(#mask0_1856_902)">
<rect y="-2.72424" width="252" height="162.778" fill="url(#paint1_linear_1856_902)"/>
</g>
</g>
<path d="M27.4322 51.3459V23.4269H27.2885L18.477 29.413V22.9959L27.4083 16.7944H34.5915V51.3459H27.4322Z" fill="white"/>
<path d="M49.3543 48.3459L46.2495 39.6223H48.3726L50.3839 46.4065H50.5275L52.5309 39.6223H54.622L51.5252 48.3459H49.3543ZM58.9463 48.5215C58.2067 48.5215 57.5682 48.4178 57.0308 48.2103C56.4987 47.9974 56.0783 47.7048 55.7697 47.3323C55.4611 46.9545 55.2775 46.5182 55.219 46.0234V46.0074H57.1904L57.1984 46.0234C57.3048 46.3266 57.5044 46.5741 57.797 46.7656C58.0897 46.9572 58.4834 47.053 58.9783 47.053C59.3082 47.053 59.5982 47.0077 59.8482 46.9173C60.0983 46.8215 60.2952 46.6911 60.4389 46.5262C60.5825 46.3612 60.6544 46.1697 60.6544 45.9515V45.9356C60.6544 45.6802 60.5506 45.4673 60.3431 45.297C60.1356 45.1215 59.7924 44.9804 59.3135 44.874L57.9008 44.5548C57.3474 44.4324 56.8898 44.2621 56.528 44.044C56.1661 43.8258 55.8948 43.5571 55.7139 43.2378C55.5383 42.9186 55.4505 42.5461 55.4505 42.1204V42.1125C55.4505 41.5857 55.5968 41.1228 55.8895 40.7237C56.1874 40.3246 56.5998 40.0133 57.1266 39.7899C57.6533 39.5664 58.2599 39.4546 58.9463 39.4546C59.654 39.4546 60.2633 39.5611 60.7741 39.7739C61.2849 39.9867 61.684 40.2794 61.9713 40.6519C62.2586 41.0243 62.4236 41.4473 62.4661 41.9209V41.9369H60.5985L60.5905 41.9129C60.516 41.6362 60.3378 41.4021 60.0558 41.2106C59.7791 41.0137 59.4066 40.9152 58.9384 40.9152C58.6457 40.9152 58.3823 40.9605 58.1482 41.0509C57.9194 41.1414 57.7385 41.2691 57.6055 41.434C57.4778 41.5937 57.4139 41.7826 57.4139 42.0007V42.0087C57.4139 42.179 57.4565 42.328 57.5416 42.4557C57.6321 42.5834 57.7731 42.6951 57.9646 42.7909C58.1562 42.8867 58.4089 42.9718 58.7229 43.0463L60.1356 43.3576C60.9922 43.5491 61.6254 43.8338 62.0351 44.2116C62.4449 44.5894 62.6497 45.0975 62.6497 45.736V45.752C62.6497 46.3054 62.4901 46.7896 62.1708 47.2046C61.8516 47.6196 61.4126 47.9442 60.8539 48.1783C60.2952 48.4071 59.6593 48.5215 58.9463 48.5215Z" fill="white"/>
<path d="M80.3294 51.3459V23.4269H80.1858L71.3743 29.413V22.9959L80.3055 16.7944H87.4888V51.3459H80.3294Z" fill="white"/>
<rect x="10.8973" y="73.1405" width="77.6919" height="21.7946" rx="10.8973" fill="#278060"/>
<g clip-path="url(#clip2_1856_902)">
<path d="M25.7108 79.6108C23.7367 79.6108 22.1351 80.2776 22.1351 81.1007V82.0803C20.7477 82.2851 19.7513 82.8364 19.7513 83.4845V87.6561C19.7513 88.4793 21.3529 89.146 23.327 89.146C25.3011 89.146 26.9027 88.4793 26.9027 87.6561V86.6747C28.2901 86.4698 29.2865 85.9204 29.2865 85.2723V81.1007C29.2865 80.2776 27.6849 79.6108 25.7108 79.6108ZM26.0088 87.5872C25.8225 87.8051 24.8839 88.2521 23.327 88.2521C21.7701 88.2521 20.8315 87.8051 20.6453 87.5872V86.8516C21.3008 87.1607 22.258 87.3581 23.327 87.3581C24.396 87.3581 25.3532 87.1607 26.0088 86.8516V87.5872ZM26.0088 85.7994C25.8225 86.0173 24.8839 86.4642 23.327 86.4642C21.7701 86.4642 20.8315 86.0173 20.6453 85.7994V84.9632C21.3008 85.3356 22.258 85.5703 23.327 85.5703C24.396 85.5703 25.3532 85.3338 26.0088 84.9632V85.7994ZM23.327 84.6764C21.8465 84.6764 20.6453 84.276 20.6453 83.7825C20.6453 83.2889 21.8465 82.8885 23.327 82.8885C24.8076 82.8885 26.0088 83.2889 26.0088 83.7825C26.0088 84.276 24.8076 84.6764 23.327 84.6764ZM28.3926 85.2034C28.2603 85.358 27.7426 85.6243 26.9027 85.7696V84.8812C27.48 84.7956 27.9959 84.6559 28.3926 84.4678V85.2034ZM28.3926 83.4156C28.2603 83.5702 27.7426 83.8365 26.9027 83.9817V83.4845C26.9027 83.3504 26.8561 83.22 26.7761 83.0953C27.4055 82.9966 27.9679 82.8196 28.3926 82.5775V83.4156ZM25.7108 82.2926C25.6177 82.2926 25.5283 82.287 25.437 82.2833C24.9528 82.1362 24.3792 82.0375 23.7535 82.0058C23.3084 81.8456 23.029 81.6333 23.029 81.3987C23.029 80.9052 24.2302 80.5048 25.7108 80.5048C27.1914 80.5048 28.3926 80.9052 28.3926 81.3987C28.3926 81.8922 27.1914 82.2926 25.7108 82.2926Z" fill="white"/>
</g>
<path d="M38.3726 87.6961C37.9567 87.6961 37.5858 87.6139 37.2599 87.4494C36.934 87.2849 36.6717 87.0614 36.4731 86.7789C36.2775 86.4934 36.1627 86.1721 36.1285 85.8152L36.1239 85.764H36.9293L36.934 85.8012C36.9619 86.0154 37.0395 86.2109 37.1668 86.3879C37.2972 86.5617 37.4663 86.6998 37.6743 86.8022C37.8853 86.9046 38.1212 86.9559 38.382 86.9559C38.6799 86.9559 38.9422 86.8907 39.1688 86.7603C39.3954 86.6269 39.5723 86.4437 39.6996 86.2109C39.8268 85.9781 39.8904 85.7112 39.8904 85.4101V85.4008C39.8904 85.1028 39.8253 84.839 39.6949 84.6093C39.5676 84.3765 39.3923 84.195 39.1688 84.0646C38.9453 83.9342 38.6877 83.869 38.3959 83.869C38.1724 83.869 37.966 83.9032 37.7767 83.9715C37.5905 84.0398 37.4244 84.1422 37.2785 84.2788C37.2196 84.3346 37.1637 84.3952 37.1109 84.4603C37.0613 84.5255 37.0147 84.5985 36.9712 84.6792H36.2449L36.5988 80.8195H40.3374V81.5691H37.2599L37.0318 83.8411H37.1063C37.2056 83.689 37.3282 83.5618 37.4741 83.4593C37.62 83.3569 37.7829 83.2793 37.9629 83.2265C38.1461 83.1707 38.3385 83.1427 38.5403 83.1427C38.9624 83.1427 39.3364 83.2405 39.6623 83.4361C39.9882 83.6285 40.2443 83.8939 40.4305 84.2322C40.6168 84.5674 40.7099 84.9523 40.7099 85.3868V85.3962C40.7099 85.8462 40.609 86.2451 40.4072 86.5927C40.2086 86.9372 39.9339 87.2073 39.5832 87.4028C39.2324 87.5984 38.8289 87.6961 38.3726 87.6961ZM44.3088 87.6961C43.8122 87.6961 43.387 87.5534 43.0331 87.2678C42.6824 86.9822 42.4124 86.5772 42.223 86.0526C42.0337 85.525 41.939 84.9011 41.939 84.181V84.1717C41.939 83.4516 42.0337 82.8292 42.223 82.3047C42.4124 81.7801 42.6824 81.3751 43.0331 81.0895C43.387 80.804 43.8122 80.6612 44.3088 80.6612C44.8055 80.6612 45.2307 80.804 45.5845 81.0895C45.9384 81.3751 46.21 81.7801 46.3993 82.3047C46.5917 82.8292 46.688 83.4516 46.688 84.1717V84.181C46.688 84.9011 46.5917 85.525 46.3993 86.0526C46.21 86.5772 45.9384 86.9822 45.5845 87.2678C45.2307 87.5534 44.8055 87.6961 44.3088 87.6961ZM44.3088 86.9652C44.6316 86.9652 44.9063 86.8519 45.1329 86.6253C45.3626 86.3987 45.538 86.0775 45.659 85.6615C45.7832 85.2456 45.8453 84.7521 45.8453 84.181V84.1717C45.8453 83.6006 45.7832 83.1086 45.659 82.6958C45.538 82.2799 45.3626 81.9602 45.1329 81.7367C44.9063 81.5101 44.6316 81.3968 44.3088 81.3968C43.9891 81.3968 43.7144 81.5101 43.4847 81.7367C43.2582 81.9602 43.0843 82.2799 42.9633 82.6958C42.8422 83.1086 42.7817 83.6006 42.7817 84.1717V84.181C42.7817 84.7521 42.8422 85.2456 42.9633 85.6615C43.0843 86.0775 43.2582 86.3987 43.4847 86.6253C43.7144 86.8519 43.9891 86.9652 44.3088 86.9652ZM50.9015 87.5378V80.8195H51.8745L54.1745 86.4251H54.249L56.549 80.8195H57.5221V87.5378H56.7399V82.4071H56.3302L57.2707 81.0057L54.5656 87.5378H53.8579L51.1576 81.0057L52.0934 82.4071H51.6837V87.5378H50.9015ZM61.2886 87.6263C60.8137 87.6263 60.4025 87.5223 60.0548 87.3144C59.7103 87.1033 59.4434 86.8038 59.254 86.4158C59.0678 86.0278 58.9747 85.5669 58.9747 85.033V85.0237C58.9747 84.4867 59.0678 84.0242 59.254 83.6363C59.4434 83.2483 59.7103 82.9503 60.0548 82.7423C60.4025 82.5344 60.8137 82.4304 61.2886 82.4304C61.7666 82.4304 62.1779 82.5344 62.5224 82.7423C62.867 82.9503 63.1323 83.2483 63.3186 83.6363C63.5079 84.0242 63.6026 84.4867 63.6026 85.0237V85.033C63.6026 85.5669 63.5079 86.0278 63.3186 86.4158C63.1323 86.8038 62.867 87.1033 62.5224 87.3144C62.1779 87.5223 61.7666 87.6263 61.2886 87.6263ZM61.2886 86.9093C61.6052 86.9093 61.8737 86.8348 62.0941 86.6858C62.3145 86.5368 62.4821 86.3227 62.5969 86.0433C62.7149 85.764 62.7738 85.4272 62.7738 85.033V85.0237C62.7738 84.6264 62.7149 84.2881 62.5969 84.0087C62.4821 83.7294 62.3145 83.5168 62.0941 83.3709C61.8737 83.2219 61.6052 83.1474 61.2886 83.1474C60.972 83.1474 60.7036 83.2219 60.4832 83.3709C60.2628 83.5168 60.0936 83.7294 59.9757 84.0087C59.8608 84.2881 59.8034 84.6264 59.8034 85.0237V85.033C59.8034 85.4272 59.8608 85.764 59.9757 86.0433C60.0936 86.3227 60.2628 86.5368 60.4832 86.6858C60.7036 86.8348 60.972 86.9093 61.2886 86.9093ZM68.2444 87.5378V85.2658H65.7582V87.5378H64.9481V82.5189H65.7582V84.5954H68.2444V82.5189H69.0546V87.5378H68.2444ZM72.7001 87.6263C72.2221 87.6263 71.8108 87.5208 71.4663 87.3097C71.1248 87.0986 70.861 86.8007 70.6748 86.4158C70.4917 86.0278 70.4001 85.5715 70.4001 85.047V85.0423C70.4001 84.524 70.4917 84.0693 70.6748 83.6782C70.861 83.2871 71.1233 82.9813 71.4616 82.761C71.7999 82.5406 72.1957 82.4304 72.6489 82.4304C73.1051 82.4304 73.4962 82.5359 73.8221 82.747C74.1511 82.9581 74.4025 83.2529 74.5764 83.6316C74.7533 84.0072 74.8417 84.4448 74.8417 84.9445V85.2611H70.8191V84.614H74.4274L74.027 85.2053V84.884C74.027 84.4898 73.968 84.1655 73.8501 83.911C73.7321 83.6564 73.5692 83.4671 73.3612 83.3429C73.1532 83.2157 72.9142 83.1521 72.6442 83.1521C72.3742 83.1521 72.1321 83.2188 71.9179 83.3523C71.7068 83.4826 71.5392 83.6766 71.4151 83.9342C71.2909 84.1919 71.2288 84.5084 71.2288 84.884V85.2053C71.2288 85.5622 71.2894 85.868 71.4104 86.1225C71.5315 86.3739 71.7037 86.5679 71.9272 86.7044C72.1507 86.8379 72.4145 86.9046 72.7187 86.9046C72.9453 86.9046 73.1424 86.8736 73.31 86.8115C73.4776 86.7495 73.6157 86.6703 73.7243 86.5741C73.833 86.4779 73.909 86.3801 73.9525 86.2808L73.9711 86.2389H74.7812L74.7719 86.2761C74.7285 86.4468 74.6509 86.6129 74.5391 86.7743C74.4305 86.9326 74.2893 87.0769 74.1154 87.2073C73.9416 87.3345 73.7352 87.437 73.4962 87.5146C73.2603 87.5891 72.9949 87.6263 72.7001 87.6263ZM79.451 82.5189V83.1893H77.8261V87.5378H77.016V83.1893H75.3911V82.5189H79.451Z" fill="white"/>
<rect x="91.3135" y="73.1405" width="73.6919" height="21.7946" rx="10.8973" fill="#278060"/>
<g clip-path="url(#clip3_1856_902)">
<path d="M108.343 82.5344C108.326 82.5125 108.318 82.4853 108.32 82.4577C108.322 82.4301 108.333 82.4041 108.353 82.3845L109.102 81.6349C109.146 81.593 109.18 81.5429 109.204 81.4875C109.228 81.4321 109.241 81.3725 109.241 81.3123C109.242 81.252 109.23 81.1922 109.207 81.1364C109.184 81.0806 109.151 81.0299 109.108 80.9872C109.065 80.9446 109.015 80.9109 108.959 80.8881C108.903 80.8652 108.843 80.8537 108.783 80.8543C108.723 80.8548 108.663 80.8673 108.608 80.8911C108.552 80.9149 108.502 80.9495 108.46 80.9929L107.709 81.7448C107.689 81.7642 107.663 81.7759 107.636 81.7777C107.608 81.7794 107.581 81.7711 107.559 81.7543C106.957 81.2896 106.242 80.9933 105.488 80.8957C105.461 80.8922 105.436 80.8788 105.417 80.8581C105.399 80.8373 105.389 80.8107 105.389 80.7831V79.6112C105.389 79.5962 105.392 79.5814 105.398 79.5676C105.403 79.5538 105.412 79.5412 105.422 79.5306C105.433 79.52 105.445 79.5116 105.459 79.5059C105.473 79.5002 105.488 79.4972 105.503 79.4972H106.297C106.418 79.4972 106.533 79.4494 106.618 79.3642C106.704 79.2791 106.751 79.1636 106.751 79.0432C106.751 78.9227 106.704 78.8073 106.618 78.7221C106.533 78.6369 106.418 78.5891 106.297 78.5891H103.573C103.453 78.5891 103.337 78.6369 103.252 78.7221C103.167 78.8073 103.119 78.9227 103.119 79.0432C103.119 79.1636 103.167 79.2791 103.252 79.3642C103.337 79.4494 103.453 79.4972 103.573 79.4972H104.368C104.398 79.4972 104.427 79.5092 104.448 79.5305C104.469 79.5518 104.481 79.5806 104.481 79.6107V80.7831C104.481 80.8107 104.471 80.8374 104.453 80.8582C104.435 80.8789 104.41 80.8923 104.382 80.8957C103.437 81.0163 102.559 81.4459 101.884 82.1174C101.208 82.789 100.774 83.665 100.648 84.6091C100.522 85.5532 100.711 86.5125 101.187 87.3377C101.663 88.1628 102.398 88.8076 103.278 89.1717C104.158 89.5358 105.134 89.5988 106.054 89.3509C106.973 89.1029 107.785 88.558 108.363 87.8008C108.941 87.0436 109.252 86.1167 109.249 85.1643C109.245 84.2118 108.927 83.2872 108.343 82.5344ZM104.935 88.5783C104.262 88.5783 103.603 88.3786 103.043 88.0044C102.483 87.6302 102.047 87.0983 101.789 86.4761C101.531 85.8538 101.464 85.1691 101.595 84.5085C101.727 83.8479 102.051 83.2412 102.527 82.7649C103.003 82.2887 103.61 81.9643 104.271 81.8329C104.931 81.7015 105.616 81.769 106.238 82.0267C106.861 82.2845 107.392 82.7209 107.767 83.281C108.141 83.841 108.341 84.4994 108.341 85.1729C108.34 86.0758 107.981 86.9414 107.342 87.5798C106.704 88.2182 105.838 88.5773 104.935 88.5783Z" fill="white"/>
<path d="M104.935 82.4486C104.995 82.4486 105.053 82.4725 105.096 82.5151C105.138 82.5577 105.162 82.6154 105.162 82.6756V87.6702C105.162 87.7304 105.138 87.7882 105.096 87.8308C105.053 87.8733 104.995 87.8973 104.935 87.8973C104.213 87.8973 103.52 87.6102 103.009 87.0993C102.498 86.5884 102.211 85.8955 102.211 85.1729C102.211 84.4504 102.498 83.7575 103.009 83.2465C103.52 82.7356 104.213 82.4486 104.935 82.4486Z" fill="white"/>
</g>
<path d="M116.745 88.8648H115.991V86.8674H116.41C116.593 86.7464 116.733 86.543 116.829 86.2575C116.925 85.9688 116.984 85.6553 117.006 85.317L117.201 82.5189H120.623V86.8674H121.424V88.8648H120.67V87.5378H116.745V88.8648ZM119.813 86.8674V83.1893H117.918L117.76 85.3356C117.738 85.6398 117.693 85.9207 117.625 86.1783C117.557 86.4329 117.463 86.6377 117.346 86.7929V86.8674H119.813ZM124.543 87.6263C124.069 87.6263 123.657 87.5223 123.31 87.3144C122.965 87.1033 122.698 86.8038 122.509 86.4158C122.323 86.0278 122.23 85.5669 122.23 85.033V85.0237C122.23 84.4867 122.323 84.0242 122.509 83.6363C122.698 83.2483 122.965 82.9503 123.31 82.7423C123.657 82.5344 124.069 82.4304 124.543 82.4304C125.021 82.4304 125.433 82.5344 125.777 82.7423C126.122 82.9503 126.387 83.2483 126.573 83.6363C126.763 84.0242 126.857 84.4867 126.857 85.0237V85.033C126.857 85.5669 126.763 86.0278 126.573 86.4158C126.387 86.8038 126.122 87.1033 125.777 87.3144C125.433 87.5223 125.021 87.6263 124.543 87.6263ZM124.543 86.9093C124.86 86.9093 125.129 86.8348 125.349 86.6858C125.569 86.5368 125.737 86.3227 125.852 86.0433C125.97 85.764 126.029 85.4272 126.029 85.033V85.0237C126.029 84.6264 125.97 84.2881 125.852 84.0087C125.737 83.7294 125.569 83.5168 125.349 83.3709C125.129 83.2219 124.86 83.1474 124.543 83.1474C124.227 83.1474 123.958 83.2219 123.738 83.3709C123.518 83.5168 123.348 83.7294 123.231 84.0087C123.116 84.2881 123.058 84.6264 123.058 85.0237V85.033C123.058 85.4272 123.116 85.764 123.231 86.0433C123.348 86.3227 123.518 86.5368 123.738 86.6858C123.958 86.8348 124.227 86.9093 124.543 86.9093ZM132.482 87.5378V81.7506H132.407L130.698 82.9891V82.1045L132.486 80.8195H133.32V87.5378H132.482ZM137.468 87.6961C137.052 87.6961 136.681 87.6139 136.355 87.4494C136.029 87.2849 135.767 87.0614 135.568 86.7789C135.373 86.4934 135.258 86.1721 135.224 85.8152L135.219 85.764H136.025L136.029 85.8012C136.057 86.0154 136.135 86.2109 136.262 86.3879C136.393 86.5617 136.562 86.6998 136.77 86.8022C136.981 86.9046 137.217 86.9559 137.477 86.9559C137.775 86.9559 138.038 86.8907 138.264 86.7603C138.491 86.6269 138.668 86.4437 138.795 86.2109C138.922 85.9781 138.986 85.7112 138.986 85.4101V85.4008C138.986 85.1028 138.921 84.839 138.79 84.6093C138.663 84.3765 138.488 84.195 138.264 84.0646C138.041 83.9342 137.783 83.869 137.491 83.869C137.268 83.869 137.061 83.9032 136.872 83.9715C136.686 84.0398 136.52 84.1422 136.374 84.2788C136.315 84.3346 136.259 84.3952 136.206 84.4603C136.157 84.5255 136.11 84.5985 136.067 84.6792H135.34L135.694 80.8195H139.433V81.5691H136.355L136.127 83.8411H136.202C136.301 83.689 136.424 83.5618 136.569 83.4593C136.715 83.3569 136.878 83.2793 137.058 83.2265C137.241 83.1707 137.434 83.1427 137.636 83.1427C138.058 83.1427 138.432 83.2405 138.758 83.4361C139.084 83.6285 139.34 83.8939 139.526 84.2322C139.712 84.5674 139.805 84.9523 139.805 85.3868V85.3962C139.805 85.8462 139.704 86.2451 139.503 86.5927C139.304 86.9372 139.029 87.2073 138.679 87.4028C138.328 87.5984 137.924 87.6961 137.468 87.6961ZM143.488 87.5378L145.206 85.0284L143.469 82.5189H144.424L145.616 84.3858H145.69L146.868 82.5189H147.776L146.072 84.9958L147.799 87.5378H146.85L145.662 85.6429H145.588L144.396 87.5378H143.488ZM148.977 87.5378V82.5189H151.105C151.58 82.5189 151.949 82.6384 152.213 82.8774C152.477 83.1133 152.609 83.4283 152.609 83.8225V83.8318C152.609 84.0801 152.531 84.3082 152.376 84.5162C152.221 84.7211 152.025 84.8483 151.789 84.898V84.9725C152.004 85.0004 152.188 85.0671 152.343 85.1727C152.499 85.2751 152.618 85.4055 152.702 85.5638C152.789 85.719 152.832 85.8943 152.832 86.0899V86.0992C152.832 86.3879 152.764 86.6408 152.627 86.8581C152.491 87.0723 152.294 87.2399 152.036 87.3609C151.782 87.4789 151.474 87.5378 151.114 87.5378H148.977ZM149.787 86.8674H151.082C151.389 86.8674 151.62 86.8007 151.775 86.6672C151.931 86.5306 152.008 86.3366 152.008 86.0852V86.0759C152.008 85.809 151.918 85.615 151.738 85.4939C151.558 85.3729 151.288 85.3124 150.928 85.3124H149.787V86.8674ZM149.787 84.6419H150.858C151.184 84.6419 151.423 84.5798 151.575 84.4557C151.727 84.3315 151.803 84.1515 151.803 83.9156V83.9063C151.803 83.6921 151.738 83.5199 151.608 83.3895C151.477 83.256 151.271 83.1893 150.989 83.1893H149.787V84.6419ZM154.634 87.5844C154.47 87.5844 154.327 87.5254 154.206 87.4075C154.088 87.2864 154.029 87.1436 154.029 86.9791C154.029 86.8115 154.088 86.6688 154.206 86.5508C154.327 86.4329 154.47 86.3739 154.634 86.3739C154.802 86.3739 154.944 86.4329 155.062 86.5508C155.18 86.6688 155.239 86.8115 155.239 86.9791C155.239 87.1436 155.18 87.2864 155.062 87.4075C154.944 87.5254 154.802 87.5844 154.634 87.5844Z" fill="white"/>
<rect x="167.73" y="73.1405" width="58.6919" height="21.7946" rx="10.8973" fill="#278060"/>
<g clip-path="url(#clip4_1856_902)">
<path d="M183.622 88.1242V87.2161C183.622 86.7344 183.43 86.2725 183.09 85.9319C182.749 85.5913 182.287 85.3999 181.805 85.3999H178.173C177.691 85.3999 177.229 85.5913 176.889 85.9319C176.548 86.2725 176.357 86.7344 176.357 87.2161V88.1242" stroke="white" stroke-width="1.02162" stroke-linecap="round" stroke-linejoin="round"/>
<path d="M179.989 83.5837C180.992 83.5837 181.805 82.7706 181.805 81.7675C181.805 80.7644 180.992 79.9513 179.989 79.9513C178.986 79.9513 178.173 80.7644 178.173 81.7675C178.173 82.7706 178.986 83.5837 179.989 83.5837Z" stroke="white" stroke-width="1.02162" stroke-linecap="round" stroke-linejoin="round"/>
<path d="M186.346 88.1243V87.2162C186.346 86.8138 186.212 86.4228 185.965 86.1048C185.719 85.7867 185.373 85.5596 184.984 85.459" stroke="white" stroke-width="1.02162" stroke-linecap="round" stroke-linejoin="round"/>
<path d="M183.168 80.0103C183.558 80.1103 183.905 80.3375 184.152 80.6561C184.399 80.9746 184.533 81.3664 184.533 81.7697C184.533 82.173 184.399 82.5648 184.152 82.8834C183.905 83.2019 183.558 83.4291 183.168 83.5292" stroke="white" stroke-width="1.02162" stroke-linecap="round" stroke-linejoin="round"/>
</g>
<path d="M194.642 87.5378V81.7506H194.567L192.859 82.9891V82.1045L194.646 80.8195H195.48V87.5378H194.642ZM202.31 87.6961C201.894 87.6961 201.523 87.6139 201.197 87.4494C200.871 87.2849 200.609 87.0614 200.41 86.7789C200.215 86.4934 200.1 86.1721 200.066 85.8152L200.061 85.764H200.867L200.871 85.8012C200.899 86.0154 200.977 86.2109 201.104 86.3879C201.234 86.5617 201.404 86.6998 201.612 86.8022C201.823 86.9046 202.058 86.9559 202.319 86.9559C202.617 86.9559 202.879 86.8907 203.106 86.7603C203.333 86.6269 203.51 86.4437 203.637 86.2109C203.764 85.9781 203.828 85.7112 203.828 85.4101V85.4008C203.828 85.1028 203.763 84.839 203.632 84.6093C203.505 84.3765 203.33 84.195 203.106 84.0646C202.883 83.9342 202.625 83.869 202.333 83.869C202.11 83.869 201.903 83.9032 201.714 83.9715C201.528 84.0398 201.362 84.1422 201.216 84.2788C201.157 84.3346 201.101 84.3952 201.048 84.4603C200.999 84.5255 200.952 84.5985 200.908 84.6792H200.182L200.536 80.8195H204.275V81.5691H201.197L200.969 83.8411H201.044C201.143 83.689 201.265 83.5618 201.411 83.4593C201.557 83.3569 201.72 83.2793 201.9 83.2265C202.083 83.1707 202.276 83.1427 202.478 83.1427C202.9 83.1427 203.274 83.2405 203.6 83.4361C203.925 83.6285 204.182 83.8939 204.368 84.2322C204.554 84.5674 204.647 84.9523 204.647 85.3868V85.3962C204.647 85.8462 204.546 86.2451 204.344 86.5927C204.146 86.9372 203.871 87.2073 203.52 87.4028C203.17 87.5984 202.766 87.6961 202.31 87.6961ZM208.372 87.6961C208.065 87.6961 207.76 87.6372 207.459 87.5192C207.161 87.4013 206.89 87.2104 206.644 86.9466C206.402 86.6827 206.208 86.3351 206.062 85.9036C205.917 85.4691 205.844 84.9352 205.844 84.302V84.2927C205.844 83.5292 205.946 82.8774 206.151 82.3373C206.356 81.7941 206.651 81.3797 207.036 81.0942C207.42 80.8055 207.884 80.6612 208.428 80.6612C208.803 80.6612 209.142 80.731 209.443 80.8707C209.747 81.0073 210 81.1997 210.202 81.448C210.406 81.6932 210.546 81.9819 210.621 82.314L210.635 82.3745H209.792L209.773 82.3233C209.705 82.134 209.607 81.9726 209.48 81.8391C209.356 81.7025 209.204 81.597 209.024 81.5225C208.847 81.448 208.645 81.4108 208.418 81.4108C208.012 81.4108 207.681 81.5303 207.427 81.7693C207.172 82.0052 206.983 82.3202 206.859 82.7144C206.738 83.1055 206.668 83.5354 206.649 84.0041C206.646 84.0444 206.644 84.0863 206.644 84.1298C206.644 84.1701 206.644 84.212 206.644 84.2555L206.845 85.3729C206.845 85.6678 206.911 85.9347 207.045 86.1737C207.181 86.4127 207.365 86.6036 207.594 86.7464C207.824 86.886 208.08 86.9559 208.362 86.9559C208.645 86.9559 208.901 86.8876 209.131 86.751C209.36 86.6113 209.542 86.4235 209.675 86.1877C209.812 85.9518 209.88 85.6895 209.88 85.4008V85.3915C209.88 85.0935 209.815 84.8297 209.685 84.6C209.557 84.3672 209.381 84.1856 209.154 84.0553C208.927 83.9218 208.668 83.8551 208.376 83.8551C208.088 83.8551 207.827 83.9203 207.594 84.0506C207.365 84.181 207.181 84.361 207.045 84.5907C206.911 84.8173 206.845 85.0765 206.845 85.3682V85.3729H206.57V84.1624H206.733C206.817 83.9792 206.941 83.8085 207.105 83.6502C207.27 83.4919 207.472 83.3647 207.711 83.2684C207.95 83.1722 208.22 83.1241 208.521 83.1241C208.943 83.1241 209.32 83.2219 209.652 83.4174C209.984 83.613 210.245 83.8799 210.434 84.2182C210.627 84.5566 210.723 84.9414 210.723 85.3729V85.3822C210.723 85.8292 210.621 86.2265 210.416 86.5741C210.214 86.9217 209.936 87.1964 209.582 87.3982C209.228 87.5968 208.825 87.6961 208.372 87.6961ZM214.355 87.6496C213.892 87.6496 213.489 87.5704 213.144 87.4121C212.799 87.2538 212.526 87.0366 212.325 86.7603C212.126 86.4841 212.011 86.169 211.98 85.8152L211.975 85.7593H212.781L212.786 85.8059C212.807 86.0262 212.885 86.2202 213.018 86.3879C213.155 86.5555 213.336 86.6874 213.563 86.7836C213.793 86.8767 214.057 86.9233 214.355 86.9233C214.649 86.9233 214.907 86.8721 215.127 86.7696C215.351 86.6672 215.525 86.526 215.649 86.3459C215.773 86.1628 215.835 85.9533 215.835 85.7174V85.7081C215.835 85.2953 215.697 84.9787 215.421 84.7583C215.148 84.5348 214.775 84.4231 214.303 84.4231H213.461V83.7154H214.266C214.533 83.7154 214.769 83.6657 214.974 83.5664C215.179 83.464 215.338 83.3259 215.453 83.1521C215.568 82.9751 215.626 82.7749 215.626 82.5515V82.5421C215.626 82.3062 215.576 82.106 215.477 81.9415C215.377 81.777 215.231 81.6513 215.039 81.5644C214.85 81.4775 214.618 81.4341 214.345 81.4341C214.081 81.4341 213.845 81.4791 213.638 81.5691C213.433 81.656 213.268 81.7817 213.144 81.9462C213.02 82.1107 212.945 82.3062 212.921 82.5328L212.916 82.5794H212.11L212.115 82.5328C212.152 82.1666 212.267 81.8469 212.46 81.5737C212.655 81.3006 212.913 81.088 213.232 80.9359C213.555 80.7838 213.926 80.7077 214.345 80.7077C214.774 80.7077 215.146 80.7822 215.463 80.9312C215.782 81.0771 216.029 81.2804 216.203 81.5411C216.38 81.7988 216.468 82.0983 216.468 82.4397V82.449C216.468 82.7253 216.408 82.9705 216.287 83.1846C216.166 83.3988 215.998 83.5773 215.784 83.7201C215.57 83.8628 215.323 83.9637 215.044 84.0227V84.0413C215.534 84.0817 215.93 84.2477 216.231 84.5395C216.535 84.8282 216.687 85.2115 216.687 85.6895V85.6988C216.687 86.0713 216.586 86.4049 216.384 86.6998C216.183 86.9947 215.906 87.2275 215.556 87.3982C215.205 87.5658 214.805 87.6496 214.355 87.6496Z" fill="white"/>
<path d="M17.3098 119.608H16.5322V117.527H17.0304C17.1949 117.44 17.3268 117.317 17.4262 117.159C17.5255 116.998 17.6 116.802 17.6496 116.572C17.7024 116.343 17.7365 116.082 17.7521 115.79L18.0081 111.563H22.2589V117.527H23.097V119.608H22.3194V118.281H17.3098V119.608ZM18.5389 115.809C18.5234 116.06 18.5001 116.287 18.4691 116.489C18.438 116.69 18.3915 116.872 18.3294 117.033C18.2673 117.192 18.1804 117.338 18.0687 117.471V117.527H21.4209V112.317H18.7577L18.5389 115.809ZM24.8382 120.041C24.7855 120.041 24.7265 120.038 24.6613 120.032C24.5961 120.029 24.5356 120.022 24.4797 120.013V119.347C24.5294 119.357 24.5837 119.363 24.6427 119.366C24.7017 119.369 24.7591 119.371 24.815 119.371C25.0446 119.371 25.2324 119.312 25.3783 119.194C25.5273 119.076 25.6468 118.872 25.7368 118.584L25.8299 118.286L23.9723 113.262H24.8382L26.384 117.899L26.0627 117.392H26.4445L26.1232 117.899L27.6643 113.262H28.5163L26.5562 118.588C26.4197 118.964 26.2753 119.257 26.1232 119.468C25.9712 119.679 25.7927 119.827 25.5878 119.911C25.3861 119.998 25.1362 120.041 24.8382 120.041ZM31.5659 118.374C31.0972 118.374 30.6875 118.267 30.3368 118.053C29.9891 117.839 29.7191 117.536 29.5267 117.145C29.3342 116.751 29.238 116.288 29.238 115.758V115.748C29.238 115.227 29.3342 114.774 29.5267 114.389C29.7191 114.001 29.9891 113.701 30.3368 113.49C30.6844 113.276 31.0926 113.169 31.5613 113.169C31.9586 113.169 32.3046 113.239 32.5995 113.379C32.8944 113.515 33.1318 113.701 33.3118 113.937C33.495 114.173 33.6129 114.435 33.6657 114.724L33.6797 114.799H32.8695L32.8509 114.738C32.8044 114.58 32.7237 114.437 32.6088 114.31C32.4971 114.179 32.3527 114.077 32.1758 114.002C32.002 113.925 31.7971 113.886 31.5613 113.886C31.285 113.886 31.0382 113.951 30.821 114.082C30.6037 114.212 30.4299 114.398 30.2995 114.64C30.1692 114.879 30.0962 115.163 30.0807 115.492L30.0667 115.86C30.0729 116.217 30.1381 116.531 30.2623 116.801C30.3895 117.071 30.5634 117.282 30.7837 117.434C31.0072 117.583 31.2664 117.657 31.5613 117.657C31.8965 117.657 32.1774 117.583 32.404 117.434C32.6305 117.285 32.7826 117.072 32.8602 116.796L32.8695 116.763H33.6797L33.675 116.791C33.6253 117.092 33.5089 117.362 33.3258 117.601C33.1458 117.84 32.9068 118.03 32.6088 118.169C32.3139 118.306 31.9663 118.374 31.5659 118.374ZM29.671 116.023V115.353H32.4086V116.023H29.671ZM36.096 116.316C36.0619 116.776 35.9889 117.154 35.8772 117.452C35.7686 117.75 35.618 117.971 35.4256 118.114C35.2363 118.256 35.0019 118.328 34.7226 118.328C34.6357 118.328 34.5612 118.321 34.4991 118.309C34.437 118.3 34.3889 118.289 34.3548 118.276V117.546C34.3765 117.552 34.4153 117.559 34.4711 117.569C34.527 117.575 34.5844 117.578 34.6434 117.578C34.7986 117.578 34.9243 117.519 35.0205 117.401C35.1168 117.283 35.1897 117.125 35.2394 116.926C35.2921 116.725 35.3263 116.499 35.3418 116.251L35.556 113.262H38.8383V118.281H38.0282V113.933H36.2823L36.096 116.316ZM40.4306 118.281V113.262H41.2407V114.873H42.2231C42.7973 114.873 43.2551 115.027 43.5966 115.334C43.938 115.641 44.1087 116.054 44.1087 116.572V116.582C44.1087 117.1 43.938 117.513 43.5966 117.82C43.2551 118.127 42.7973 118.281 42.2231 118.281H40.4306ZM42.2231 115.544H41.2407V117.611H42.2231C42.5552 117.611 42.8175 117.518 43.0099 117.331C43.2024 117.142 43.2986 116.892 43.2986 116.582V116.572C43.2986 116.259 43.2008 116.009 43.0053 115.823C42.8128 115.637 42.5521 115.544 42.2231 115.544Z" fill="#BED9CF"/>
<path d="M18.0872 130.73H17.2492V124.011H21.2346V124.766H18.0872V130.73ZM22.0354 132.406V125.711H22.8455V126.512H22.92C23.0224 126.325 23.1512 126.167 23.3064 126.037C23.4616 125.903 23.6385 125.801 23.8372 125.729C24.0358 125.658 24.2515 125.622 24.4843 125.622C24.9096 125.622 25.2789 125.731 25.5924 125.948C25.909 126.162 26.1542 126.463 26.328 126.851C26.5019 127.239 26.5888 127.694 26.5888 128.216V128.225C26.5888 128.749 26.5019 129.206 26.328 129.594C26.1542 129.982 25.909 130.283 25.5924 130.497C25.2789 130.711 24.9096 130.818 24.4843 130.818C24.2546 130.818 24.0374 130.783 23.8325 130.711C23.6308 130.637 23.4507 130.534 23.2924 130.404C23.1372 130.273 23.0131 130.118 22.92 129.938H22.8455V132.406H22.0354ZM24.2981 130.101C24.6054 130.101 24.8677 130.027 25.0849 129.878C25.3022 129.726 25.4683 129.51 25.5831 129.231C25.7011 128.948 25.76 128.613 25.76 128.225V128.216C25.76 127.824 25.7011 127.489 25.5831 127.21C25.4683 126.931 25.3022 126.716 25.0849 126.567C24.8677 126.415 24.6054 126.339 24.2981 126.339C23.9939 126.339 23.7316 126.415 23.5113 126.567C23.2909 126.72 23.1217 126.935 23.0038 127.215C22.8858 127.494 22.8269 127.828 22.8269 128.216V128.225C22.8269 128.61 22.8858 128.943 23.0038 129.226C23.1217 129.505 23.2909 129.721 23.5113 129.873C23.7316 130.025 23.9939 130.101 24.2981 130.101ZM29.3264 130.818C29.0098 130.818 28.7242 130.758 28.4697 130.637C28.2183 130.516 28.0181 130.343 27.8691 130.12C27.7232 129.896 27.6503 129.633 27.6503 129.328V129.319C27.6503 129.021 27.7217 128.767 27.8645 128.555C28.0072 128.341 28.2152 128.174 28.4883 128.053C28.7615 127.932 29.0921 127.86 29.48 127.838L31.3237 127.727V128.374L29.5778 128.486C29.196 128.507 28.9167 128.587 28.7398 128.723C28.5659 128.86 28.479 129.052 28.479 129.3V129.31C28.479 129.564 28.5753 129.763 28.7677 129.906C28.9601 130.045 29.2022 130.115 29.494 130.115C29.7703 130.115 30.0155 130.061 30.2296 129.952C30.4438 129.84 30.6114 129.69 30.7325 129.501C30.8566 129.311 30.9187 129.097 30.9187 128.858V127.294C30.9187 126.983 30.824 126.747 30.6347 126.586C30.4484 126.422 30.1675 126.339 29.792 126.339C29.4909 126.339 29.2441 126.394 29.0517 126.502C28.8593 126.608 28.7304 126.758 28.6653 126.954L28.6606 126.968H27.8505L27.8552 126.94C27.8986 126.676 28.0072 126.446 28.1811 126.251C28.358 126.052 28.5861 125.899 28.8655 125.79C29.1448 125.678 29.463 125.622 29.8199 125.622C30.2296 125.622 30.5757 125.689 30.8582 125.822C31.1437 125.956 31.3594 126.148 31.5053 126.4C31.6543 126.648 31.7288 126.946 31.7288 127.294V130.73H30.9187V129.989H30.8442C30.7387 130.166 30.6099 130.317 30.4578 130.441C30.3088 130.565 30.1396 130.66 29.9503 130.725C29.7609 130.787 29.553 130.818 29.3264 130.818ZM39.2759 130.73V128.458H36.7897V130.73H35.9796V125.711H36.7897V127.787H39.2759V125.711H40.086V130.73H39.2759ZM43.0611 130.818C42.7445 130.818 42.4589 130.758 42.2044 130.637C41.953 130.516 41.7528 130.343 41.6038 130.12C41.4579 129.896 41.385 129.633 41.385 129.328V129.319C41.385 129.021 41.4564 128.767 41.5992 128.555C41.7419 128.341 41.9499 128.174 42.223 128.053C42.4962 127.932 42.8267 127.86 43.2147 127.838L45.0584 127.727V128.374L43.3125 128.486C42.9307 128.507 42.6514 128.587 42.4745 128.723C42.3006 128.86 42.2137 129.052 42.2137 129.3V129.31C42.2137 129.564 42.3099 129.763 42.5024 129.906C42.6948 130.045 42.9369 130.115 43.2287 130.115C43.5049 130.115 43.7502 130.061 43.9643 129.952C44.1785 129.84 44.3461 129.69 44.4671 129.501C44.5913 129.311 44.6534 129.097 44.6534 128.858V127.294C44.6534 126.983 44.5587 126.747 44.3694 126.586C44.1831 126.422 43.9022 126.339 43.5267 126.339C43.2256 126.339 42.9788 126.394 42.7864 126.502C42.594 126.608 42.4651 126.758 42.4 126.954L42.3953 126.968H41.5852L41.5898 126.94C41.6333 126.676 41.7419 126.446 41.9158 126.251C42.0927 126.052 42.3208 125.899 42.6002 125.79C42.8795 125.678 43.1977 125.622 43.5546 125.622C43.9643 125.622 44.3104 125.689 44.5929 125.822C44.8784 125.956 45.0941 126.148 45.24 126.4C45.389 126.648 45.4635 126.946 45.4635 127.294V130.73H44.6534V129.989H44.5789C44.4734 130.166 44.3445 130.317 44.1925 130.441C44.0435 130.565 43.8743 130.66 43.685 130.725C43.4956 130.787 43.2877 130.818 43.0611 130.818ZM51.7721 130.818C51.3035 130.818 50.8968 130.711 50.5523 130.497C50.2078 130.283 49.9408 129.98 49.7515 129.589C49.5622 129.198 49.4675 128.737 49.4675 128.206V128.197C49.4675 127.676 49.5606 127.222 49.7469 126.837C49.9362 126.453 50.2031 126.155 50.5477 125.944C50.8922 125.729 51.2988 125.622 51.7675 125.622C52.1741 125.622 52.5248 125.694 52.8197 125.836C53.1146 125.979 53.3505 126.172 53.5274 126.414C53.7043 126.653 53.8176 126.921 53.8673 127.219L53.8719 127.247H53.0665L53.0618 127.233C52.9997 126.985 52.8585 126.774 52.6381 126.6C52.4177 126.426 52.1275 126.339 51.7675 126.339C51.4664 126.339 51.2057 126.415 50.9853 126.567C50.7649 126.72 50.5942 126.935 50.4732 127.215C50.3552 127.491 50.2962 127.818 50.2962 128.197V128.206C50.2962 128.591 50.3568 128.926 50.4778 129.212C50.5989 129.494 50.7696 129.713 50.99 129.868C51.2103 130.024 51.4695 130.101 51.7675 130.101C52.1058 130.101 52.3821 130.028 52.5962 129.882C52.8104 129.736 52.964 129.524 53.0571 129.245L53.0665 129.217L53.8673 129.212L53.858 129.263C53.7897 129.564 53.6686 129.833 53.4948 130.069C53.321 130.301 53.0913 130.485 52.8057 130.618C52.5202 130.751 52.1756 130.818 51.7721 130.818ZM58.5464 125.711V126.381H56.9215V130.73H56.1114V126.381H54.4865V125.711H58.5464ZM61.0326 130.818C60.716 130.818 60.4304 130.758 60.1759 130.637C59.9245 130.516 59.7243 130.343 59.5753 130.12C59.4294 129.896 59.3565 129.633 59.3565 129.328V129.319C59.3565 129.021 59.4279 128.767 59.5707 128.555C59.7134 128.341 59.9214 128.174 60.1945 128.053C60.4677 127.932 60.7982 127.86 61.1862 127.838L63.0299 127.727V128.374L61.284 128.486C60.9022 128.507 60.6229 128.587 60.4459 128.723C60.2721 128.86 60.1852 129.052 60.1852 129.3V129.31C60.1852 129.564 60.2814 129.763 60.4739 129.906C60.6663 130.045 60.9084 130.115 61.2002 130.115C61.4764 130.115 61.7216 130.061 61.9358 129.952C62.15 129.84 62.3176 129.69 62.4386 129.501C62.5628 129.311 62.6249 129.097 62.6249 128.858V127.294C62.6249 126.983 62.5302 126.747 62.3409 126.586C62.1546 126.422 61.8737 126.339 61.4982 126.339C61.1971 126.339 60.9503 126.394 60.7579 126.502C60.5654 126.608 60.4366 126.758 60.3715 126.954L60.3668 126.968H59.5567L59.5613 126.94C59.6048 126.676 59.7134 126.446 59.8872 126.251C60.0642 126.052 60.2923 125.899 60.5717 125.79C60.851 125.678 61.1692 125.622 61.5261 125.622C61.9358 125.622 62.2819 125.689 62.5643 125.822C62.8499 125.956 63.0656 126.148 63.2115 126.4C63.3605 126.648 63.435 126.946 63.435 127.294V130.73H62.6249V129.989H62.5504C62.4448 130.166 62.316 130.317 62.1639 130.441C62.015 130.565 61.8458 130.66 61.6565 130.725C61.4671 130.787 61.2592 130.818 61.0326 130.818ZM65.004 130.73V125.711H67.1317C67.6066 125.711 67.976 125.83 68.2398 126.069C68.5036 126.305 68.6355 126.62 68.6355 127.014V127.024C68.6355 127.272 68.558 127.5 68.4028 127.708C68.2476 127.913 68.052 128.04 67.8161 128.09V128.164C68.0303 128.192 68.215 128.259 68.3702 128.365C68.5254 128.467 68.6449 128.597 68.7287 128.756C68.8156 128.911 68.859 129.086 68.859 129.282V129.291C68.859 129.58 68.7907 129.833 68.6542 130.05C68.5176 130.264 68.3205 130.432 68.0629 130.553C67.8084 130.671 67.5011 130.73 67.141 130.73H65.004ZM65.8141 130.059H67.1084C67.4157 130.059 67.647 129.993 67.8022 129.859C67.9573 129.723 68.0349 129.529 68.0349 129.277V129.268C68.0349 129.001 67.9449 128.807 67.7649 128.686C67.5849 128.565 67.3148 128.504 66.9548 128.504H65.8141V130.059ZM65.8141 127.834H66.885C67.2109 127.834 67.4499 127.772 67.602 127.648C67.754 127.523 67.8301 127.343 67.8301 127.108V127.098C67.8301 126.884 67.7649 126.712 67.6345 126.581C67.5042 126.448 67.2978 126.381 67.0153 126.381H65.8141V127.834ZM71.294 128.444H71.038V130.73H70.2278V125.711H71.038V127.811H71.294L73.2355 125.711H74.2086L71.8853 128.146V128.001L74.297 130.73H73.2588L71.294 128.444ZM75.6612 132.49C75.6084 132.49 75.5495 132.487 75.4843 132.48C75.4191 132.477 75.3586 132.471 75.3027 132.462V131.796C75.3524 131.805 75.4067 131.811 75.4656 131.815C75.5246 131.818 75.582 131.819 75.6379 131.819C75.8676 131.819 76.0554 131.76 76.2013 131.642C76.3503 131.524 76.4698 131.321 76.5598 131.032L76.6529 130.734L74.7952 125.711H75.6612L77.2069 130.348L76.8857 129.84H77.2675L76.9462 130.348L78.4873 125.711H79.3393L77.3792 131.037C77.2426 131.413 77.0983 131.706 76.9462 131.917C76.7941 132.128 76.6156 132.275 76.4108 132.359C76.209 132.446 75.9592 132.49 75.6612 132.49ZM79.7863 132.438L80.1913 129.789H81.1178L80.3869 132.438H79.7863ZM85.5502 132.406V125.711H86.3603V126.512H86.4348C86.5372 126.325 86.666 126.167 86.8212 126.037C86.9764 125.903 87.1533 125.801 87.352 125.729C87.5506 125.658 87.7663 125.622 87.9991 125.622C88.4244 125.622 88.7937 125.731 89.1072 125.948C89.4238 126.162 89.669 126.463 89.8428 126.851C90.0167 127.239 90.1036 127.694 90.1036 128.216V128.225C90.1036 128.749 90.0167 129.206 89.8428 129.594C89.669 129.982 89.4238 130.283 89.1072 130.497C88.7937 130.711 88.4244 130.818 87.9991 130.818C87.7694 130.818 87.5522 130.783 87.3473 130.711C87.1456 130.637 86.9655 130.534 86.8072 130.404C86.652 130.273 86.5279 130.118 86.4348 129.938H86.3603V132.406H85.5502ZM87.8129 130.101C88.1202 130.101 88.3825 130.027 88.5997 129.878C88.817 129.726 88.9831 129.51 89.0979 129.231C89.2159 128.948 89.2748 128.613 89.2748 128.225V128.216C89.2748 127.824 89.2159 127.489 89.0979 127.21C88.9831 126.931 88.817 126.716 88.5997 126.567C88.3825 126.415 88.1202 126.339 87.8129 126.339C87.5087 126.339 87.2464 126.415 87.0261 126.567C86.8057 126.72 86.6365 126.935 86.5186 127.215C86.4006 127.494 86.3417 127.828 86.3417 128.216V128.225C86.3417 128.61 86.4006 128.943 86.5186 129.226C86.6365 129.505 86.8057 129.721 87.0261 129.873C87.2464 130.025 87.5087 130.101 87.8129 130.101ZM93.5116 130.818C93.0336 130.818 92.6224 130.713 92.2778 130.502C91.9364 130.291 91.6726 129.993 91.4864 129.608C91.3032 129.22 91.2117 128.763 91.2117 128.239V128.234C91.2117 127.716 91.3032 127.261 91.4864 126.87C91.6726 126.479 91.9349 126.173 92.2732 125.953C92.6115 125.732 93.0073 125.622 93.4604 125.622C93.9167 125.622 94.3078 125.728 94.6337 125.939C94.9627 126.15 95.2141 126.445 95.3879 126.823C95.5649 127.199 95.6533 127.637 95.6533 128.136V128.453H91.6307V127.806H95.2389L94.8385 128.397V128.076C94.8385 127.682 94.7796 127.357 94.6616 127.103C94.5437 126.848 94.3807 126.659 94.1728 126.535C93.9648 126.408 93.7258 126.344 93.4558 126.344C93.1857 126.344 92.9436 126.411 92.7295 126.544C92.5184 126.675 92.3508 126.869 92.2266 127.126C92.1025 127.384 92.0404 127.7 92.0404 128.076V128.397C92.0404 128.754 92.1009 129.06 92.222 129.314C92.343 129.566 92.5153 129.76 92.7388 129.896C92.9622 130.03 93.2261 130.097 93.5303 130.097C93.7568 130.097 93.9539 130.066 94.1215 130.003C94.2892 129.941 94.4273 129.862 94.5359 129.766C94.6446 129.67 94.7206 129.572 94.7641 129.473L94.7827 129.431H95.5928L95.5835 129.468C95.54 129.639 95.4624 129.805 95.3507 129.966C95.2421 130.124 95.1008 130.269 94.927 130.399C94.7532 130.526 94.5468 130.629 94.3078 130.706C94.0719 130.781 93.8065 130.818 93.5116 130.818ZM98.3816 130.818C98.065 130.818 97.7795 130.758 97.525 130.637C97.2735 130.516 97.0733 130.343 96.9244 130.12C96.7785 129.896 96.7055 129.633 96.7055 129.328V129.319C96.7055 129.021 96.7769 128.767 96.9197 128.555C97.0625 128.341 97.2704 128.174 97.5436 128.053C97.8167 127.932 98.1473 127.86 98.5353 127.838L100.379 127.727V128.374L98.633 128.486C98.2513 128.507 97.9719 128.587 97.795 128.723C97.6212 128.86 97.5343 129.052 97.5343 129.3V129.31C97.5343 129.564 97.6305 129.763 97.8229 129.906C98.0154 130.045 98.2575 130.115 98.5492 130.115C98.8255 130.115 99.0707 130.061 99.2849 129.952C99.499 129.84 99.6666 129.69 99.7877 129.501C99.9118 129.311 99.9739 129.097 99.9739 128.858V127.294C99.9739 126.983 99.8793 126.747 99.6899 126.586C99.5037 126.422 99.2228 126.339 98.8472 126.339C98.5461 126.339 98.2994 126.394 98.1069 126.502C97.9145 126.608 97.7857 126.758 97.7205 126.954L97.7158 126.968H96.9057L96.9104 126.94C96.9538 126.676 97.0625 126.446 97.2363 126.251C97.4132 126.052 97.6414 125.899 97.9207 125.79C98.2001 125.678 98.5182 125.622 98.8752 125.622C99.2849 125.622 99.6309 125.689 99.9134 125.822C100.199 125.956 100.415 126.148 100.561 126.4C100.71 126.648 100.784 126.946 100.784 127.294V130.73H99.9739V129.989H99.8994C99.7939 130.166 99.6651 130.317 99.513 130.441C99.364 130.565 99.1949 130.66 99.0055 130.725C98.8162 130.787 98.6082 130.818 98.3816 130.818ZM103.531 128.765C103.497 129.224 103.424 129.603 103.312 129.901C103.204 130.199 103.053 130.419 102.861 130.562C102.671 130.705 102.437 130.776 102.158 130.776C102.071 130.776 101.996 130.77 101.934 130.758C101.872 130.748 101.824 130.737 101.79 130.725V129.994C101.811 130 101.85 130.008 101.906 130.017C101.962 130.024 102.019 130.027 102.078 130.027C102.234 130.027 102.359 129.968 102.455 129.85C102.552 129.732 102.625 129.574 102.674 129.375C102.727 129.173 102.761 128.948 102.777 128.7L102.991 125.711H106.273V130.73H105.463V126.381H103.717L103.531 128.765ZM107.866 130.73V125.711H108.676V127.322H109.658C110.232 127.322 110.69 127.475 111.032 127.783C111.373 128.09 111.544 128.503 111.544 129.021V129.03C111.544 129.549 111.373 129.962 111.032 130.269C110.69 130.576 110.232 130.73 109.658 130.73H107.866ZM109.658 127.992H108.676V130.059H109.658C109.99 130.059 110.252 129.966 110.445 129.78C110.637 129.591 110.734 129.341 110.734 129.03V129.021C110.734 128.708 110.636 128.458 110.44 128.271C110.248 128.085 109.987 127.992 109.658 127.992ZM116.088 130.73V128.458H113.602V130.73H112.791V125.711H113.602V127.787H116.088V125.711H116.898V130.73H116.088ZM118.513 130.73V125.711H119.324V130.73H118.513ZM118.923 124.742C118.771 124.742 118.639 124.688 118.527 124.579C118.419 124.468 118.364 124.336 118.364 124.184C118.364 124.028 118.419 123.897 118.527 123.788C118.639 123.679 118.771 123.625 118.923 123.625C119.078 123.625 119.21 123.679 119.319 123.788C119.428 123.897 119.482 124.028 119.482 124.184C119.482 124.336 119.428 124.468 119.319 124.579C119.21 124.688 119.078 124.742 118.923 124.742ZM125.679 130.818C125.21 130.818 124.803 130.711 124.459 130.497C124.114 130.283 123.847 129.98 123.658 129.589C123.469 129.198 123.374 128.737 123.374 128.206V128.197C123.374 127.676 123.467 127.222 123.653 126.837C123.843 126.453 124.11 126.155 124.454 125.944C124.799 125.729 125.205 125.622 125.674 125.622C126.081 125.622 126.431 125.694 126.726 125.836C127.021 125.979 127.257 126.172 127.434 126.414C127.611 126.653 127.724 126.921 127.774 127.219L127.779 127.247H126.973L126.968 127.233C126.906 126.985 126.765 126.774 126.545 126.6C126.324 126.426 126.034 126.339 125.674 126.339C125.373 126.339 125.112 126.415 124.892 126.567C124.672 126.72 124.501 126.935 124.38 127.215C124.262 127.491 124.203 127.818 124.203 128.197V128.206C124.203 128.591 124.263 128.926 124.384 129.212C124.505 129.494 124.676 129.713 124.897 129.868C125.117 130.024 125.376 130.101 125.674 130.101C126.012 130.101 126.289 130.028 126.503 129.882C126.717 129.736 126.871 129.524 126.964 129.245L126.973 129.217L127.774 129.212L127.765 129.263C127.696 129.564 127.575 129.833 127.401 130.069C127.228 130.301 126.998 130.485 126.712 130.618C126.427 130.751 126.082 130.818 125.679 130.818ZM129.343 132.49C129.29 132.49 129.231 132.487 129.166 132.48C129.101 132.477 129.04 132.471 128.984 132.462V131.796C129.034 131.805 129.088 131.811 129.147 131.815C129.206 131.818 129.264 131.819 129.32 131.819C129.549 131.819 129.737 131.76 129.883 131.642C130.032 131.524 130.151 131.321 130.241 131.032L130.335 130.734L128.477 125.711H129.343L130.889 130.348L130.567 129.84H130.949L130.628 130.348L132.169 125.711H133.021L131.061 131.037C130.924 131.413 130.78 131.706 130.628 131.917C130.476 132.128 130.297 132.275 130.092 132.359C129.891 132.446 129.641 132.49 129.343 132.49ZM134.18 130.73V125.711H138.24V130.73H137.43V126.381H134.99V130.73H134.18ZM141.886 130.818C141.408 130.818 140.996 130.713 140.652 130.502C140.31 130.291 140.047 129.993 139.86 129.608C139.677 129.22 139.586 128.763 139.586 128.239V128.234C139.586 127.716 139.677 127.261 139.86 126.87C140.047 126.479 140.309 126.173 140.647 125.953C140.986 125.732 141.381 125.622 141.834 125.622C142.291 125.622 142.682 125.728 143.008 125.939C143.337 126.15 143.588 126.445 143.762 126.823C143.939 127.199 144.027 127.637 144.027 128.136V128.453H140.005V127.806H143.613L143.213 128.397V128.076C143.213 127.682 143.154 127.357 143.036 127.103C142.918 126.848 142.755 126.659 142.547 126.535C142.339 126.408 142.1 126.344 141.83 126.344C141.56 126.344 141.318 126.411 141.104 126.544C140.892 126.675 140.725 126.869 140.601 127.126C140.477 127.384 140.414 127.7 140.414 128.076V128.397C140.414 128.754 140.475 129.06 140.596 129.314C140.717 129.566 140.889 129.76 141.113 129.896C141.336 130.03 141.6 130.097 141.904 130.097C142.131 130.097 142.328 130.066 142.496 130.003C142.663 129.941 142.801 129.862 142.91 129.766C143.019 129.67 143.095 129.572 143.138 129.473L143.157 129.431H143.967L143.958 129.468C143.914 129.639 143.836 129.805 143.725 129.966C143.616 130.124 143.475 130.269 143.301 130.399C143.127 130.526 142.921 130.629 142.682 130.706C142.446 130.781 142.181 130.818 141.886 130.818ZM145.378 132.406V125.711H146.188V126.512H146.262C146.365 126.325 146.493 126.167 146.649 126.037C146.804 125.903 146.981 125.801 147.179 125.729C147.378 125.658 147.594 125.622 147.827 125.622C148.252 125.622 148.621 125.731 148.935 125.948C149.251 126.162 149.496 126.463 149.67 126.851C149.844 127.239 149.931 127.694 149.931 128.216V128.225C149.931 128.749 149.844 129.206 149.67 129.594C149.496 129.982 149.251 130.283 148.935 130.497C148.621 130.711 148.252 130.818 147.827 130.818C147.597 130.818 147.38 130.783 147.175 130.711C146.973 130.637 146.793 130.534 146.635 130.404C146.479 130.273 146.355 130.118 146.262 129.938H146.188V132.406H145.378ZM147.64 130.101C147.948 130.101 148.21 130.027 148.427 129.878C148.644 129.726 148.81 129.51 148.925 129.231C149.043 128.948 149.102 128.613 149.102 128.225V128.216C149.102 127.824 149.043 127.489 148.925 127.21C148.81 126.931 148.644 126.716 148.427 126.567C148.21 126.415 147.948 126.339 147.64 126.339C147.336 126.339 147.074 126.415 146.853 126.567C146.633 126.72 146.464 126.935 146.346 127.215C146.228 127.494 146.169 127.828 146.169 128.216V128.225C146.169 128.61 146.228 128.943 146.346 129.226C146.464 129.505 146.633 129.721 146.853 129.873C147.074 130.025 147.336 130.101 147.64 130.101ZM154.582 130.73V128.458H152.096V130.73H151.286V125.711H152.096V127.787H154.582V125.711H155.392V130.73H154.582ZM156.985 130.73V125.711H157.795V129.454H158.223L157.674 129.752L160.351 125.711H161.161V130.73H160.351V126.986H159.922L160.472 126.688L157.795 130.73H156.985ZM163.824 128.444H163.568V130.73H162.758V125.711H163.568V127.811H163.824L165.765 125.711H166.738L164.415 128.146V128.001L166.827 130.73H165.789L163.824 128.444ZM167.944 130.73V125.711H168.754V129.454H169.183L168.633 129.752L171.311 125.711H172.121V130.73H171.311V126.986H170.882L171.432 126.688L168.754 130.73H167.944ZM173.471 132.438L173.876 129.789H174.802L174.071 132.438H173.471ZM182.866 125.711V126.381H181.241V130.73H180.431V126.381H178.806V125.711H182.866ZM184.058 130.73V125.711H184.868V130.73H184.058ZM184.468 124.742C184.316 124.742 184.184 124.688 184.072 124.579C183.964 124.468 183.909 124.336 183.909 124.184C183.909 124.028 183.964 123.897 184.072 123.788C184.184 123.679 184.316 123.625 184.468 123.625C184.623 123.625 184.755 123.679 184.864 123.788C184.972 123.897 185.027 124.028 185.027 124.184C185.027 124.336 184.972 124.468 184.864 124.579C184.755 124.688 184.623 124.742 184.468 124.742ZM187.662 128.765C187.628 129.224 187.555 129.603 187.443 129.901C187.334 130.199 187.184 130.419 186.991 130.562C186.802 130.705 186.568 130.776 186.288 130.776C186.201 130.776 186.127 130.77 186.065 130.758C186.003 130.748 185.955 130.737 185.921 130.725V129.994C185.942 130 185.981 130.008 186.037 130.017C186.093 130.024 186.15 130.027 186.209 130.027C186.364 130.027 186.49 129.968 186.586 129.85C186.683 129.732 186.755 129.574 186.805 129.375C186.858 129.173 186.892 128.948 186.908 128.7L187.122 125.711H190.404V130.73H189.594V126.381H187.848L187.662 128.765ZM191.996 130.73V125.711H192.806V127.322H193.789C194.363 127.322 194.821 127.475 195.162 127.783C195.504 128.09 195.674 128.503 195.674 129.021V129.03C195.674 129.549 195.504 129.962 195.162 130.269C194.821 130.576 194.363 130.73 193.789 130.73H191.996ZM193.789 127.992H192.806V130.059H193.789C194.121 130.059 194.383 129.966 194.576 129.78C194.768 129.591 194.864 129.341 194.864 129.03V129.021C194.864 128.708 194.767 128.458 194.571 128.271C194.379 128.085 194.118 127.992 193.789 127.992ZM197.988 128.444H197.732V130.73H196.922V125.711H197.732V127.811H197.988L199.93 125.711H200.903L198.58 128.146V128.001L200.991 130.73H199.953L197.988 128.444ZM202.109 130.73V125.711H202.919V129.454H203.347L202.798 129.752L205.475 125.711H206.285V130.73H205.475V126.986H205.047L205.596 126.688L202.919 130.73H202.109ZM212.631 130.818C212.156 130.818 211.745 130.714 211.397 130.506C211.053 130.295 210.786 129.996 210.596 129.608C210.41 129.22 210.317 128.759 210.317 128.225V128.216C210.317 127.679 210.41 127.216 210.596 126.828C210.786 126.44 211.053 126.142 211.397 125.934C211.745 125.726 212.156 125.622 212.631 125.622C213.109 125.622 213.52 125.726 213.865 125.934C214.209 126.142 214.475 126.44 214.661 126.828C214.85 127.216 214.945 127.679 214.945 128.216V128.225C214.945 128.759 214.85 129.22 214.661 129.608C214.475 129.996 214.209 130.295 213.865 130.506C213.52 130.714 213.109 130.818 212.631 130.818ZM212.631 130.101C212.948 130.101 213.216 130.027 213.436 129.878C213.657 129.729 213.824 129.515 213.939 129.235C214.057 128.956 214.116 128.619 214.116 128.225V128.216C214.116 127.818 214.057 127.48 213.939 127.201C213.824 126.921 213.657 126.709 213.436 126.563C213.216 126.414 212.948 126.339 212.631 126.339C212.314 126.339 212.046 126.414 211.826 126.563C211.605 126.709 211.436 126.921 211.318 127.201C211.203 127.48 211.146 127.818 211.146 128.216V128.225C211.146 128.619 211.203 128.956 211.318 129.235C211.436 129.515 211.605 129.729 211.826 129.878C212.046 130.027 212.314 130.101 212.631 130.101ZM216.36 132.057H215.606V130.059H216.025C216.208 129.938 216.348 129.735 216.444 129.449C216.54 129.161 216.599 128.847 216.621 128.509L216.817 125.711H220.239V130.059H221.039V132.057H220.285V130.73H216.36V132.057ZM219.429 130.059V126.381H217.534L217.375 128.528C217.354 128.832 217.309 129.113 217.24 129.37C217.172 129.625 217.079 129.83 216.961 129.985V130.059H219.429ZM222.092 130.73V125.711H222.902V129.454H223.33L222.781 129.752L225.458 125.711H226.268V130.73H225.458V126.986H225.029L225.579 126.688L222.902 130.73H222.092ZM231.161 130.73V128.458H228.675V130.73H227.865V125.711H228.675V127.787H231.161V125.711H231.971V130.73H231.161ZM17.1421 141.73V136.711H21.202V141.73H20.3919V137.381H17.9522V141.73H17.1421ZM24.8475 141.818C24.3695 141.818 23.9582 141.713 23.6137 141.502C23.2723 141.291 23.0084 140.993 22.8222 140.608C22.6391 140.22 22.5475 139.763 22.5475 139.239V139.234C22.5475 138.716 22.6391 138.261 22.8222 137.87C23.0084 137.479 23.2707 137.173 23.609 136.953C23.9474 136.732 24.3431 136.622 24.7963 136.622C25.2525 136.622 25.6436 136.728 25.9695 136.939C26.2986 137.15 26.55 137.445 26.7238 137.823C26.9007 138.199 26.9892 138.637 26.9892 139.136V139.453H22.9665V138.806H26.5748L26.1744 139.397V139.076C26.1744 138.682 26.1154 138.357 25.9975 138.103C25.8795 137.848 25.7166 137.659 25.5086 137.535C25.3007 137.408 25.0617 137.344 24.7916 137.344C24.5216 137.344 24.2795 137.411 24.0653 137.544C23.8542 137.675 23.6866 137.869 23.5625 138.126C23.4383 138.384 23.3762 138.7 23.3762 139.076V139.397C23.3762 139.754 23.4368 140.06 23.5578 140.314C23.6789 140.566 23.8511 140.76 24.0746 140.896C24.2981 141.03 24.5619 141.097 24.8661 141.097C25.0927 141.097 25.2898 141.066 25.4574 141.003C25.625 140.941 25.7631 140.862 25.8718 140.766C25.9804 140.67 26.0565 140.572 26.0999 140.473L26.1185 140.431H26.9286L26.9193 140.468C26.8759 140.639 26.7983 140.805 26.6865 140.966C26.5779 141.124 26.4367 141.269 26.2629 141.399C26.089 141.526 25.8826 141.629 25.6436 141.706C25.4077 141.781 25.1424 141.818 24.8475 141.818ZM28.3394 143.406V136.711H29.1495V137.512H29.224C29.3264 137.325 29.4552 137.167 29.6104 137.037C29.7656 136.903 29.9425 136.801 30.1412 136.729C30.3398 136.658 30.5555 136.622 30.7883 136.622C31.2136 136.622 31.5829 136.731 31.8964 136.948C32.213 137.162 32.4582 137.463 32.632 137.851C32.8059 138.239 32.8928 138.694 32.8928 139.216V139.225C32.8928 139.749 32.8059 140.206 32.632 140.594C32.4582 140.982 32.213 141.283 31.8964 141.497C31.5829 141.711 31.2136 141.818 30.7883 141.818C30.5586 141.818 30.3414 141.783 30.1365 141.711C29.9348 141.637 29.7547 141.534 29.5964 141.404C29.4412 141.273 29.3171 141.118 29.224 140.938H29.1495V143.406H28.3394ZM30.6021 141.101C30.9094 141.101 31.1717 141.027 31.3889 140.878C31.6062 140.726 31.7723 140.51 31.8871 140.231C32.005 139.948 32.064 139.613 32.064 139.225V139.216C32.064 138.824 32.005 138.489 31.8871 138.21C31.7723 137.931 31.6062 137.716 31.3889 137.567C31.1717 137.415 30.9094 137.339 30.6021 137.339C30.2979 137.339 30.0356 137.415 29.8153 137.567C29.5949 137.72 29.4257 137.935 29.3078 138.215C29.1898 138.494 29.1309 138.828 29.1309 139.216V139.225C29.1309 139.61 29.1898 139.943 29.3078 140.226C29.4257 140.505 29.5949 140.721 29.8153 140.873C30.0356 141.025 30.2979 141.101 30.6021 141.101ZM36.3008 141.818C35.8228 141.818 35.4116 141.713 35.067 141.502C34.7256 141.291 34.4618 140.993 34.2755 140.608C34.0924 140.22 34.0008 139.763 34.0008 139.239V139.234C34.0008 138.716 34.0924 138.261 34.2755 137.87C34.4618 137.479 34.7241 137.173 35.0624 136.953C35.4007 136.732 35.7964 136.622 36.2496 136.622C36.7059 136.622 37.097 136.728 37.4229 136.939C37.7519 137.15 38.0033 137.445 38.1771 137.823C38.354 138.199 38.4425 138.637 38.4425 139.136V139.453H34.4199V138.806H38.0281L37.6277 139.397V139.076C37.6277 138.682 37.5688 138.357 37.4508 138.103C37.3329 137.848 37.1699 137.659 36.962 137.535C36.754 137.408 36.515 137.344 36.245 137.344C35.9749 137.344 35.7328 137.411 35.5186 137.544C35.3076 137.675 35.14 137.869 35.0158 138.126C34.8917 138.384 34.8296 138.7 34.8296 139.076V139.397C34.8296 139.754 34.8901 140.06 35.0112 140.314C35.1322 140.566 35.3045 140.76 35.528 140.896C35.7514 141.03 36.0153 141.097 36.3194 141.097C36.546 141.097 36.7431 141.066 36.9107 141.003C37.0783 140.941 37.2165 140.862 37.3251 140.766C37.4337 140.67 37.5098 140.572 37.5532 140.473L37.5719 140.431H38.382L38.3727 140.468C38.3292 140.639 38.2516 140.805 38.1399 140.966C38.0312 141.124 37.89 141.269 37.7162 141.399C37.5424 141.526 37.336 141.629 37.097 141.706C36.8611 141.781 36.5957 141.818 36.3008 141.818ZM40.5982 141.73H39.788V136.711H40.7704L42.5583 140.603H42.6328L44.4299 136.711H45.3704V141.73H44.5603V138.159H44.4718L42.8888 141.59H42.2649L40.6866 138.159H40.5982V141.73ZM49.0345 141.818C48.5596 141.818 48.1484 141.714 47.8007 141.506C47.4562 141.295 47.1893 140.996 46.9999 140.608C46.8137 140.22 46.7206 139.759 46.7206 139.225V139.216C46.7206 138.679 46.8137 138.216 46.9999 137.828C47.1893 137.44 47.4562 137.142 47.8007 136.934C48.1484 136.726 48.5596 136.622 49.0345 136.622C49.5125 136.622 49.9238 136.726 50.2683 136.934C50.6128 137.142 50.8782 137.44 51.0645 137.828C51.2538 138.216 51.3485 138.679 51.3485 139.216V139.225C51.3485 139.759 51.2538 140.22 51.0645 140.608C50.8782 140.996 50.6128 141.295 50.2683 141.506C49.9238 141.714 49.5125 141.818 49.0345 141.818ZM49.0345 141.101C49.3511 141.101 49.6196 141.027 49.84 140.878C50.0603 140.729 50.228 140.515 50.3428 140.235C50.4608 139.956 50.5197 139.619 50.5197 139.225V139.216C50.5197 138.818 50.4608 138.48 50.3428 138.201C50.228 137.921 50.0603 137.709 49.84 137.563C49.6196 137.414 49.3511 137.339 49.0345 137.339C48.7179 137.339 48.4494 137.414 48.2291 137.563C48.0087 137.709 47.8395 137.921 47.7216 138.201C47.6067 138.48 47.5493 138.818 47.5493 139.216V139.225C47.5493 139.619 47.6067 139.956 47.7216 140.235C47.8395 140.515 48.0087 140.729 48.2291 140.878C48.4494 141.027 48.7179 141.101 49.0345 141.101ZM52.9082 141.73H51.9072L54.0721 139.085L51.9817 136.711H52.9547L54.71 138.824H55.0079V136.711H55.7901V138.824H56.0881L57.8433 136.711H58.8024L56.7259 139.067L58.9049 141.73H57.8899L56.0881 139.43H55.7901V141.73H55.0079V139.43H54.71L52.9082 141.73ZM61.8613 141.818C61.3833 141.818 60.9721 141.713 60.6275 141.502C60.2861 141.291 60.0223 140.993 59.836 140.608C59.6529 140.22 59.5613 139.763 59.5613 139.239V139.234C59.5613 138.716 59.6529 138.261 59.836 137.87C60.0223 137.479 60.2845 137.173 60.6229 136.953C60.9612 136.732 61.3569 136.622 61.8101 136.622C62.2664 136.622 62.6575 136.728 62.9834 136.939C63.3124 137.15 63.5638 137.445 63.7376 137.823C63.9145 138.199 64.003 138.637 64.003 139.136V139.453H59.9804V138.806H63.5886L63.1882 139.397V139.076C63.1882 138.682 63.1293 138.357 63.0113 138.103C62.8934 137.848 62.7304 137.659 62.5224 137.535C62.3145 137.408 62.0755 137.344 61.8054 137.344C61.5354 137.344 61.2933 137.411 61.0791 137.544C60.8681 137.675 60.7005 137.869 60.5763 138.126C60.4522 138.384 60.3901 138.7 60.3901 139.076V139.397C60.3901 139.754 60.4506 140.06 60.5717 140.314C60.6927 140.566 60.865 140.76 61.0885 140.896C61.3119 141.03 61.5758 141.097 61.8799 141.097C62.1065 141.097 62.3036 141.066 62.4712 141.003C62.6388 140.941 62.777 140.862 62.8856 140.766C62.9942 140.67 63.0703 140.572 63.1137 140.473L63.1324 140.431H63.9425L63.9332 140.468C63.8897 140.639 63.8121 140.805 63.7004 140.966C63.5917 141.124 63.4505 141.269 63.2767 141.399C63.1029 141.526 62.8965 141.629 62.6575 141.706C62.4216 141.781 62.1562 141.818 61.8613 141.818ZM69.4084 136.711V141.73H65.3485V136.711H66.1586V141.059H68.5983V136.711H69.4084ZM69.4364 143.057V141.73H68.6076V141.059H70.2092V143.057H69.4364ZM71.2614 141.73V136.711H72.0716V138.322H73.0539C73.6281 138.322 74.086 138.475 74.4274 138.783C74.7688 139.09 74.9395 139.503 74.9395 140.021V140.03C74.9395 140.549 74.7688 140.962 74.4274 141.269C74.086 141.576 73.6281 141.73 73.0539 141.73H71.2614ZM73.0539 138.992H72.0716V141.059H73.0539C73.386 141.059 73.6483 140.966 73.8408 140.78C74.0332 140.591 74.1294 140.341 74.1294 140.03V140.021C74.1294 139.708 74.0317 139.458 73.8361 139.271C73.6437 139.085 73.3829 138.992 73.0539 138.992ZM76.8065 141.776C76.642 141.776 76.4992 141.717 76.3782 141.599C76.2602 141.478 76.2013 141.336 76.2013 141.171C76.2013 141.003 76.2602 140.861 76.3782 140.743C76.4992 140.625 76.642 140.566 76.8065 140.566C76.9741 140.566 77.1169 140.625 77.2349 140.743C77.3528 140.861 77.4118 141.003 77.4118 141.171C77.4118 141.336 77.3528 141.478 77.2349 141.599C77.1169 141.717 76.9741 141.776 76.8065 141.776Z" fill="white"/>
</g>
<defs>
<linearGradient id="paint0_linear_1856_902" x1="126" y1="0" x2="126" y2="158.076" gradientUnits="userSpaceOnUse">
<stop stop-color="#2D956F"/>
<stop offset="1" stop-color="#278060"/>
</linearGradient>
<linearGradient id="paint1_linear_1856_902" x1="126" y1="-2.72424" x2="126" y2="160.054" gradientUnits="userSpaceOnUse">
<stop stop-color="#2B8D6A"/>
<stop offset="1" stop-color="#25795B"/>
</linearGradient>
<clipPath id="clip0_1856_902">
<rect width="252" height="158.076" rx="16.3459" fill="white"/>
</clipPath>
<clipPath id="clip1_1856_902">
<rect width="252" height="162.778" fill="white" transform="translate(0 -2.72424)"/>
</clipPath>
<clipPath id="clip2_1856_902">
<rect width="10.8973" height="10.8973" fill="white" transform="translate(19.0703 78.5892)"/>
</clipPath>
<clipPath id="clip3_1856_902">
<rect width="10.8973" height="10.8973" fill="white" transform="translate(99.4865 78.5891)"/>
</clipPath>
<clipPath id="clip4_1856_902">
<rect width="10.8973" height="10.8973" fill="white" transform="translate(175.903 78.5891)"/>
</clipPath>
</defs>
</svg>
