<svg width="32" height="32" viewBox="0 0 32 32" fill="none" xmlns="http://www.w3.org/2000/svg">
  <path d="M16 23.5C15.7 23.5 15.4 23.4 15.2 23.2L10.7 19.1C8.8 17.4 8 16.1 8 14.4C8 11.8 9.9 10 12.4 10C13.8 10 15.1 10.7 16 11.7C16.9 10.7 18.2 10 19.6 10C22.1 10 24 11.8 24 14.4C24 16.1 23.2 17.4 21.3 19.1L16.8 23.2C16.6 23.4 16.3 23.5 16 23.5Z" fill="#2FAE8B"/>
  <path d="M16 12.6V18.6" stroke="#0F3B53" stroke-width="1.8" stroke-linecap="round"/>
  <path d="M13 15.6H19" stroke="#0F3B53" stroke-width="1.8" stroke-linecap="round"/>
</svg>
