<svg width="69" height="53" viewBox="0 0 69 53" fill="none" xmlns="http://www.w3.org/2000/svg">
<path d="M28.0125 1.77075C29.9791 0.606331 32.2663 -0.0348008 34.5552 0.00145864C37.8606 -0.0277961 41.1351 1.35377 43.4713 3.68302C45.6667 5.84046 47.0416 8.82279 47.225 11.8974C47.2151 12.2695 47.2868 12.6395 47.2497 13.0112C47.2225 13.2308 47.2304 13.4525 47.2225 13.6729C47.0289 16.366 45.9485 18.9886 44.1846 21.0336C43.7371 21.5721 43.2373 22.0674 42.6922 22.5066C42.6332 22.5531 42.5854 22.4835 42.5525 22.444C42.1598 21.9479 41.7391 21.4691 41.2467 21.0694C40.7271 20.6137 40.1631 20.2041 39.557 19.8712C39.5582 19.8518 39.5598 19.8131 39.5607 19.7937C39.9253 19.5469 40.2661 19.2626 40.5735 18.947C40.8277 18.6928 41.0889 18.4427 41.3003 18.1497C41.7449 17.5922 42.131 16.984 42.4144 16.3285C42.8224 15.469 43.0432 14.5308 43.1466 13.588C43.2529 12.5979 43.1648 11.5921 42.9278 10.6263C42.5504 9.06795 41.714 7.62417 40.5541 6.51785C39.0967 5.065 37.0893 4.18365 35.0361 4.07611C34.6788 4.03985 34.3154 4.03944 33.9582 4.07817C32.5008 4.15439 31.0686 4.62453 29.8415 5.41317C29.2346 5.80667 28.6581 6.25868 28.1777 6.80174C27.2572 7.75932 26.5802 8.94475 26.1933 10.2138C26.0001 10.8265 25.9024 11.4652 25.8439 12.103C25.8287 12.5019 25.8324 12.9011 25.8402 13.2996C25.8983 14.0528 26.0252 14.8052 26.2745 15.5201C26.9288 17.481 28.317 19.1823 30.1003 20.2264C30.6779 20.5679 31.2915 20.8551 31.9392 21.0364C32.809 21.3191 33.7266 21.4184 34.6376 21.4299C35.5371 21.425 36.4242 21.6454 37.2574 21.9722C38.7819 22.5931 40.0827 23.7415 40.8924 25.1741C41.6967 26.5759 42.0115 28.2467 41.7894 29.8454C41.5879 31.4013 40.8508 32.8722 39.7659 34.0004C38.3831 35.4162 36.4189 36.2769 34.4316 36.2365C33.4238 36.2592 32.4225 36.0264 31.4975 35.6358C30.1299 35.0383 28.9461 34.0268 28.1604 32.7561C27.668 31.948 27.3005 31.0556 27.1435 30.1194C27.08 29.6934 27.0232 29.2644 27.0359 28.833C27.0207 28.283 27.1146 27.7378 27.2222 27.2005C27.3079 26.8495 27.3961 26.4951 27.5427 26.1634C28.5444 26.6624 29.5869 27.0868 30.6734 27.3616C30.898 27.4292 31.1316 27.4638 31.352 27.545C31.2441 27.8268 31.1609 28.1198 31.1217 28.4198C31.0974 28.8343 31.0887 29.2582 31.2037 29.662C31.3941 30.463 31.9194 31.1586 32.5927 31.6205C33.1559 32.0028 33.8395 32.1804 34.5157 32.1874C34.9747 32.1479 35.4448 32.0799 35.8606 31.8689C36.4003 31.6254 36.8528 31.2163 37.2022 30.7432C37.5063 30.2933 37.7073 29.7712 37.7811 29.2335C37.8099 28.7811 37.8128 28.3134 37.6562 27.8816C37.36 26.8491 36.5289 25.9896 35.5091 25.6542C35.1218 25.5305 34.7143 25.4708 34.308 25.4794C33.3022 25.4873 32.3018 25.3299 31.3269 25.0897C29.0446 24.5021 26.9321 23.2664 25.3062 21.5601C23.3931 19.5745 22.152 16.9519 21.8426 14.2114C21.829 14.0619 21.8438 13.9123 21.8467 13.7631C21.8315 13.8435 21.8265 13.9255 21.8142 14.0066C21.8031 13.6057 21.7515 13.2069 21.7631 12.8051C21.7281 9.9151 22.7413 7.03042 24.5526 4.78028C25.513 3.58042 26.6907 2.55569 28.0125 1.77075Z" fill="#278060"/>
<path d="M30.2049 10.0762C30.4711 10.0346 30.7599 10.0387 31.001 10.1747C31.2869 10.2999 31.4686 10.562 31.6701 10.7874C32.6875 11.9415 33.6801 13.1171 34.6957 14.2724C34.7246 14.326 34.7983 14.3293 34.8288 14.2745C35.8639 13.0837 36.8981 11.8921 37.9298 10.6984C38.1597 10.403 38.4614 10.129 38.8429 10.0647C39.051 10.0494 39.2714 10.04 39.4667 10.1273C39.7861 10.2645 40.0378 10.5517 40.1318 10.8863C40.1647 11.1545 40.1721 11.4458 40.0296 11.6865C39.8442 12.0219 39.557 12.2852 39.3159 12.5798C38.1478 13.9387 36.9677 15.2869 35.7963 16.6429C35.5952 16.9132 35.3163 17.1324 34.9903 17.2276C34.7699 17.2552 34.5305 17.265 34.3311 17.1513C33.9771 16.9869 33.7522 16.6561 33.4979 16.375C32.3133 15.0314 31.1621 13.6589 29.9775 12.3148C29.6767 11.9992 29.3516 11.6218 29.3751 11.157C29.3417 10.6555 29.7451 10.2155 30.2049 10.0762Z" fill="#278060"/>
<path d="M1.02683 41.5358C1.7376 40.8955 2.68611 40.5844 3.62309 40.4793C3.98939 40.4649 4.35693 40.4113 4.72364 40.4587C5.25723 40.4818 5.7867 40.5765 6.29763 40.7311C6.8271 40.8893 7.3475 41.0982 7.80693 41.4084C7.65282 41.804 7.46699 42.1872 7.30094 42.5782C7.15467 42.8942 7.03436 43.2222 6.87325 43.5313C5.98572 43.235 5.05946 42.9416 4.11177 43.0405C3.81386 43.0867 3.51555 43.2268 3.34826 43.4868C3.24443 43.6363 3.23 43.832 3.27162 44.0055C3.38163 44.2577 3.64369 44.3871 3.86454 44.5263C4.55677 44.9165 5.26012 45.2882 5.93174 45.7138C6.51848 46.0871 7.11141 46.4695 7.58937 46.9817C7.8914 47.308 8.1757 47.662 8.35123 48.0744C8.64913 48.7802 8.63389 49.5969 8.35865 50.3072C8.15634 50.8392 7.76449 51.2743 7.32731 51.6278C6.6252 52.1602 5.76445 52.4494 4.89505 52.552C4.49661 52.599 4.09529 52.6377 3.69314 52.6221C2.64038 52.5487 1.58721 52.3472 0.60738 51.9455C0.421963 51.8701 0.245198 51.7762 0.0688456 51.6822C0.0960401 51.5302 0.179684 51.3987 0.235721 51.2574C0.374166 50.9059 0.539393 50.5664 0.686903 50.2191C0.822464 49.9174 0.940719 49.6076 1.09441 49.3146C1.49203 49.5322 1.92302 49.6719 2.35195 49.8116C2.85587 49.9467 3.37422 50.0575 3.89916 50.0382C4.28565 50.0435 4.68491 49.9451 4.99353 49.7044C5.15216 49.5746 5.30503 49.402 5.32192 49.189C5.34211 48.9858 5.19131 48.8185 5.03762 48.7085C4.35652 48.233 3.6165 47.8523 2.9115 47.4156C2.63626 47.2355 2.3503 47.0736 2.07794 46.8898C1.75285 46.671 1.41003 46.4674 1.14179 46.1774C0.733052 45.7719 0.35274 45.315 0.159082 44.7649C-0.00820552 44.3417 -0.0168585 43.8786 0.0140444 43.4311C0.102633 42.7027 0.477588 42.0191 1.02683 41.5358Z" fill="#278060"/>
<path d="M60.0147 40.7265C60.3624 40.6396 60.7007 40.5184 61.0505 40.4401C61.1428 40.5131 61.1754 40.633 61.2322 40.7323C61.6134 41.4525 61.9784 42.1814 62.3452 42.9091C62.6839 43.5494 63.0024 44.2 63.3328 44.8444C63.386 44.8593 63.4049 44.8061 63.4292 44.7703C64.189 43.4316 64.9641 42.1011 65.7288 40.7657C65.7564 40.7298 65.7799 40.668 65.8364 40.6767C66.8908 40.6742 67.9456 40.6763 69 40.6758C68.3057 41.9441 67.5723 43.1913 66.8599 44.4501C66.358 45.3348 65.8504 46.2157 65.3493 47.1008C65.2191 47.3447 65.0625 47.5762 64.9509 47.8284C64.9389 49.3484 64.9468 50.8693 64.9472 52.3897C63.8998 52.3897 62.8524 52.3901 61.805 52.3897C61.8095 51.2401 61.8058 50.0905 61.807 48.9409C61.8004 48.5569 61.8194 48.1721 61.7988 47.7889C61.674 47.5219 61.51 47.275 61.3686 47.0167C60.2804 45.0978 59.1733 43.1897 58.0925 41.2667C58.2989 41.1715 58.5247 41.1328 58.7427 41.073C59.1667 40.9577 59.589 40.8357 60.0147 40.7265Z" fill="#278060"/>
<path d="M36.3085 40.6713C36.711 40.6285 37.1177 40.6622 37.5219 40.6515C38.7312 40.6507 39.9406 40.6528 41.1495 40.6503C41.6534 40.6816 42.1619 40.6866 42.6576 40.7978C43.4874 40.9577 44.2946 41.2984 44.9398 41.8518C45.5311 42.3635 45.8999 43.1023 46.0132 43.8708C46.124 44.6087 46.0911 45.3809 45.8344 46.0863C45.6671 46.5272 45.4063 46.9306 45.0845 47.2742C44.9077 47.4646 44.6976 47.6183 44.4973 47.7827C45.2518 49.1519 46.026 50.51 46.7837 51.8775C46.8772 52.0444 46.9852 52.2055 47.0482 52.388C45.8908 52.3926 44.7334 52.3876 43.576 52.3905C43.5274 52.3905 43.4792 52.3872 43.4318 52.3818C43.3366 52.2615 43.2917 52.1103 43.2187 51.9772C42.6563 50.8919 42.1001 49.8017 41.5397 48.7164C40.8483 48.6986 40.1557 48.7159 39.4638 48.7081C39.4272 49.114 39.456 49.5227 39.4469 49.9298C39.4469 50.7498 39.4474 51.5697 39.4469 52.3897C38.4 52.3884 37.3534 52.3926 36.3064 52.3876C36.3134 48.4823 36.3097 44.5766 36.3085 40.6713ZM39.4741 43.1493C39.4667 44.1782 39.4638 45.2078 39.4758 46.2371C40.0469 46.2412 40.618 46.2388 41.1895 46.2388C41.6143 46.2268 42.0638 46.1069 42.3679 45.7934C42.606 45.5832 42.747 45.2833 42.8084 44.9755C42.8281 44.7633 42.8257 44.5486 42.8096 44.3364C42.7527 43.9664 42.557 43.6046 42.2307 43.4072C41.9414 43.2383 41.6069 43.1419 41.271 43.1485C40.6719 43.1464 40.0728 43.1452 39.4741 43.1493Z" fill="#278060"/>
<path d="M10.2977 40.6742C11.0159 40.6779 11.7345 40.6734 12.4531 40.6767C13.6125 42.1402 14.7712 43.605 15.9303 45.0694C15.957 45.1147 16.0193 45.0925 16.0362 45.05C17.0934 43.5947 18.1516 42.1394 19.2076 40.6837C19.9073 40.6643 20.609 40.6812 21.3094 40.6754C21.3049 44.5795 21.3045 48.4836 21.3094 52.3876C20.2678 52.395 19.2253 52.3839 18.1837 52.393C18.1602 50.5128 18.1812 48.6315 18.173 46.7509C17.9703 46.9586 17.8195 47.2104 17.641 47.4382C17.2859 47.9059 16.9468 48.3867 16.5899 48.8523C16.3852 48.9133 16.1631 48.9113 15.9525 48.9512C15.7341 48.9726 15.5108 49.041 15.2924 49.0003C14.8132 48.4226 14.3452 47.8346 13.8627 47.2594C13.7254 47.1045 13.6191 46.9178 13.4448 46.8C13.4222 47.87 13.4416 48.9413 13.435 50.0122C13.4374 50.8037 13.4304 51.5957 13.4387 52.3872C12.3917 52.3934 11.3447 52.3876 10.2973 52.3905C10.2969 48.4852 10.2965 44.5795 10.2977 40.6742Z" fill="#278060"/>
<path d="M27.2387 40.6771C28.2873 40.6725 29.3363 40.6783 30.385 40.6742C30.9845 42.2218 31.5605 43.7789 32.1502 45.3302C32.8482 47.1737 33.5449 49.0176 34.2408 50.8623C34.4114 51.327 34.603 51.7844 34.7584 52.2549C34.2112 52.3262 33.6603 52.3625 33.1114 52.4218C32.6302 52.4573 32.1518 52.5417 31.6693 52.5483C31.3735 51.7292 31.1312 50.8915 30.8267 50.0757C29.481 50.079 28.1348 50.0781 26.7891 50.0761C26.6358 50.5153 26.4817 50.9541 26.3326 51.3946C26.204 51.7242 26.1093 52.0679 25.9585 52.3889C24.9279 52.3835 23.8974 52.3967 22.8669 52.3823C23.1249 51.6324 23.4191 50.8952 23.6931 50.1515C24.3705 48.3426 25.0495 46.5346 25.7277 44.7266C26.2275 43.3751 26.7492 42.0319 27.2387 40.6771ZM28.757 44.4448C28.6857 44.7105 28.5749 44.9627 28.49 45.2239C28.3269 45.7142 28.1472 46.1992 27.9774 46.6875C27.8835 46.9973 27.7479 47.2936 27.6705 47.6084C28.4171 47.6142 29.1633 47.6072 29.9099 47.6121C29.8555 47.3484 29.7496 47.1003 29.6511 46.8515C29.46 46.3566 29.2993 45.8506 29.1085 45.3558C28.9836 45.055 28.9012 44.7369 28.757 44.4448Z" fill="#278060"/>
<path d="M47.4191 40.6857C48.4459 40.6643 49.4739 40.6828 50.5011 40.6767C52.8135 40.6791 55.1258 40.6717 57.4378 40.68C57.5284 41.2197 57.5672 41.7661 57.6405 42.3083C57.6681 42.5865 57.7151 42.8629 57.7312 43.1423C56.4823 43.1514 55.2338 43.1398 53.9849 43.1485C53.9931 46.2272 53.9907 49.306 53.9861 52.3851C52.9437 52.3876 51.9004 52.3954 50.8584 52.381C50.8538 49.3031 50.8592 46.2252 50.8555 43.1472C49.7112 43.1378 48.5666 43.158 47.4228 43.1369C47.4187 42.3199 47.4261 41.5028 47.4191 40.6857Z" fill="#278060"/>
</svg>
