<svg width="371" height="385" viewBox="0 0 371 385" fill="none" xmlns="http://www.w3.org/2000/svg">
<g opacity="0.05">
<path d="M204.934 12.9545C219.322 4.43582 236.055 -0.254596 252.8 0.0106711C276.982 -0.203352 300.937 9.90394 318.029 26.9444C334.09 42.7278 344.149 64.546 345.49 87.0395C345.418 89.7615 345.942 92.4685 345.671 95.1875C345.472 96.7941 345.529 98.4159 345.472 100.029C344.055 119.731 336.151 138.917 323.247 153.878C319.973 157.818 316.317 161.441 312.329 164.654C311.898 164.995 311.548 164.486 311.307 164.196C308.434 160.567 305.356 157.064 301.754 154.14C297.953 150.806 293.826 147.81 289.392 145.374C289.401 145.233 289.413 144.949 289.419 144.808C292.087 143.002 294.58 140.922 296.829 138.613C298.689 136.753 300.6 134.923 302.146 132.78C305.398 128.702 308.223 124.252 310.297 119.456C313.281 113.168 314.897 106.305 315.654 99.4076C316.431 92.164 315.786 84.8058 314.053 77.7401C311.292 66.3396 305.172 55.7771 296.687 47.6835C286.025 37.0547 271.339 30.6069 256.318 29.8201C253.705 29.5548 251.046 29.5518 248.432 29.8352C237.77 30.3928 227.292 33.8323 218.315 39.6019C213.875 42.4806 209.658 45.7874 206.143 49.7604C199.409 56.7659 194.456 65.4383 191.626 74.7227C190.212 79.2051 189.498 83.8774 189.07 88.5437C188.958 91.4616 188.985 94.3826 189.043 97.2975C189.468 102.808 190.396 108.312 192.22 113.542C197.007 127.888 207.162 140.334 220.208 147.973C224.435 150.472 228.923 152.573 233.662 153.899C240.025 155.967 246.738 156.693 253.403 156.778C259.984 156.742 266.474 158.354 272.569 160.745C283.722 165.287 293.238 173.689 299.162 184.17C305.046 194.425 307.349 206.648 305.724 218.344C304.25 229.726 298.857 240.488 290.92 248.741C280.804 259.099 266.434 265.396 251.896 265.1C244.523 265.266 237.198 263.563 230.43 260.705C220.425 256.335 211.765 248.934 206.017 239.638C202.414 233.726 199.726 227.197 198.577 220.349C198.113 217.232 197.697 214.094 197.79 210.938C197.679 206.913 198.366 202.925 199.153 198.994C199.78 196.426 200.425 193.834 201.498 191.407C208.826 195.058 216.452 198.163 224.401 200.173C226.044 200.667 227.754 200.921 229.366 201.515C228.576 203.576 227.968 205.72 227.681 207.914C227.503 210.947 227.44 214.048 228.281 217.003C229.674 222.863 233.517 227.951 238.443 231.33C242.563 234.127 247.564 235.427 252.511 235.478C255.869 235.188 259.308 234.691 262.35 233.148C266.299 231.366 269.609 228.373 272.165 224.912C274.389 221.621 275.86 217.801 276.4 213.868C276.611 210.558 276.632 207.136 275.487 203.977C273.319 196.423 267.239 190.135 259.779 187.681C256.945 186.777 253.964 186.34 250.992 186.403C243.633 186.461 236.314 185.309 229.182 183.552C212.486 179.253 197.031 170.213 185.136 157.73C171.14 143.204 162.061 124.017 159.797 103.968C159.697 102.874 159.806 101.78 159.827 100.689C159.715 101.277 159.679 101.876 159.589 102.47C159.507 99.5372 159.131 96.6193 159.215 93.6803C158.959 72.5372 166.371 51.4334 179.623 34.9717C186.649 26.1938 195.264 18.697 204.934 12.9545Z" fill="#278060"/>
<path d="M220.974 73.7159C222.921 73.4114 225.035 73.4415 226.798 74.4363C228.89 75.3527 230.219 77.2698 231.693 78.9187C239.136 87.3621 246.398 95.9622 253.828 104.415C254.039 104.806 254.579 104.831 254.802 104.43C262.374 95.718 269.94 87.0003 277.488 78.2676C279.17 76.1063 281.377 74.1017 284.168 73.6315C285.69 73.5199 287.303 73.4506 288.732 74.0896C291.068 75.0934 292.91 77.1945 293.597 79.6422C293.838 81.6046 293.893 83.7357 292.85 85.4962C291.493 87.9499 289.392 89.8761 287.629 92.0314C279.083 101.973 270.449 111.836 261.88 121.756C260.409 123.734 258.368 125.338 255.983 126.034C254.371 126.236 252.619 126.308 251.16 125.476C248.571 124.273 246.925 121.853 245.065 119.797C236.399 109.967 227.977 99.9261 219.31 90.0931C217.11 87.7841 214.731 85.0229 214.903 81.6226C214.659 77.9541 217.61 74.7347 220.974 73.7159Z" fill="#278060"/>
<path d="M7.51215 303.869C12.712 299.184 19.6512 296.908 26.5059 296.14C29.1857 296.034 31.8746 295.642 34.5574 295.989C38.461 296.158 42.3345 296.851 46.0724 297.981C49.9459 299.139 53.7531 300.667 57.1142 302.937C55.9868 305.831 54.6273 308.634 53.4125 311.495C52.3424 313.807 51.4622 316.207 50.2835 318.467C43.7905 316.3 37.0141 314.154 30.081 314.877C27.9016 315.215 25.7191 316.24 24.4953 318.142C23.7357 319.236 23.6302 320.668 23.9346 321.937C24.7395 323.782 26.6566 324.728 28.2723 325.747C33.3365 328.602 38.4821 331.321 43.3956 334.435C47.6881 337.166 52.0258 339.963 55.5226 343.71C57.7321 346.097 59.812 348.687 61.0962 351.704C63.2756 356.868 63.1641 362.842 61.1504 368.039C59.6704 371.931 56.8037 375.114 53.6054 377.7C48.4688 381.595 42.1718 383.711 35.8114 384.462C32.8964 384.805 29.9604 385.089 27.0184 384.974C19.3166 384.438 11.6117 382.964 4.44349 380.024C3.08701 379.473 1.79383 378.786 0.503663 378.098C0.702613 376.986 1.31454 376.024 1.7245 374.99C2.73734 372.419 3.94611 369.935 5.02527 367.394C6.01701 365.188 6.88214 362.921 8.00651 360.778C10.9154 362.369 14.0685 363.391 17.2065 364.413C20.8931 365.402 24.6852 366.212 28.5256 366.071C31.3531 366.11 34.274 365.39 36.5318 363.629C37.6924 362.68 38.8107 361.417 38.9343 359.858C39.082 358.372 37.9787 357.148 36.8544 356.343C31.8715 352.865 26.4577 350.079 21.3 346.884C19.2864 345.567 17.1944 344.382 15.2019 343.038C12.8235 341.437 10.3155 339.948 8.35317 337.826C5.36288 334.86 2.58059 331.517 1.16382 327.492C-0.0600302 324.397 -0.123334 321.008 0.102746 317.735C0.750843 312.405 3.49395 307.405 7.51215 303.869Z" fill="#278060"/>
<path d="M439.057 297.948C441.601 297.312 444.076 296.426 446.635 295.853C447.311 296.387 447.549 297.264 447.965 297.991C450.753 303.26 453.424 308.592 456.107 313.916C458.584 318.6 460.915 323.36 463.332 328.074C463.721 328.183 463.86 327.794 464.038 327.532C469.596 317.738 475.266 308.004 480.861 298.235C481.063 297.972 481.235 297.52 481.648 297.584C489.362 297.566 497.078 297.581 504.792 297.578C499.713 306.856 494.347 315.98 489.135 325.189C485.464 331.661 481.75 338.106 478.085 344.581C477.132 346.366 475.987 348.06 475.17 349.905C475.082 361.025 475.14 372.151 475.143 383.274C467.48 383.274 459.817 383.277 452.155 383.274C452.188 374.864 452.161 366.454 452.17 358.043C452.122 355.234 452.26 352.419 452.11 349.615C451.196 347.662 449.996 345.856 448.962 343.966C441.001 329.928 432.902 315.968 424.995 301.9C426.505 301.204 428.157 300.921 429.752 300.483C432.854 299.639 435.943 298.747 439.057 297.948Z" fill="#278060"/>
<path d="M265.627 297.544C268.572 297.231 271.547 297.478 274.504 297.4C283.351 297.394 292.198 297.409 301.043 297.391C304.729 297.62 308.449 297.656 312.075 298.47C318.146 299.639 324.052 302.132 328.772 306.181C333.098 309.925 335.796 315.329 336.625 320.951C337.436 326.35 337.194 331.999 335.316 337.16C334.093 340.385 332.185 343.336 329.83 345.85C328.537 347.243 327 348.367 325.535 349.57C331.054 359.587 336.718 369.522 342.262 379.527C342.946 380.748 343.736 381.927 344.197 383.262C335.729 383.295 327.262 383.259 318.795 383.28C318.439 383.28 318.086 383.256 317.74 383.217C317.043 382.337 316.715 381.23 316.181 380.257C312.066 372.317 307.997 364.341 303.897 356.401C298.839 356.271 293.772 356.398 288.711 356.34C288.443 359.31 288.654 362.3 288.587 365.278C288.587 371.277 288.59 377.275 288.587 383.274C280.928 383.265 273.271 383.295 265.611 383.259C265.663 354.688 265.636 326.115 265.627 297.544ZM288.786 315.673C288.732 323.2 288.711 330.733 288.798 338.263C292.976 338.293 297.154 338.275 301.335 338.275C304.443 338.188 307.732 337.31 309.956 335.016C311.699 333.479 312.73 331.285 313.179 329.033C313.323 327.48 313.305 325.91 313.188 324.358C312.772 321.651 311.34 319.004 308.952 317.56C306.836 316.324 304.389 315.619 301.932 315.667C297.549 315.652 293.166 315.643 288.786 315.673Z" fill="#278060"/>
<path d="M75.3362 297.566C80.5903 297.593 85.8474 297.559 91.1046 297.584C99.5871 308.291 108.064 319.007 116.543 329.72C116.739 330.052 117.194 329.889 117.318 329.578C125.053 318.932 132.794 308.285 140.52 297.635C145.638 297.493 150.772 297.617 155.896 297.575C155.863 326.136 155.86 354.698 155.896 383.259C148.276 383.313 140.649 383.232 133.029 383.298C132.857 369.543 133.011 355.78 132.951 342.022C131.467 343.541 130.364 345.383 129.059 347.05C126.46 350.471 123.98 353.989 121.369 357.395C119.871 357.842 118.246 357.826 116.706 358.119C115.108 358.276 113.474 358.776 111.877 358.478C108.371 354.251 104.947 349.95 101.417 345.742C100.413 344.608 99.6353 343.243 98.3602 342.381C98.1944 350.209 98.3361 358.046 98.2879 365.881C98.306 371.672 98.2547 377.465 98.315 383.256C90.6554 383.301 82.9958 383.259 75.3332 383.28C75.3302 354.71 75.3272 326.136 75.3362 297.566Z" fill="#278060"/>
<path d="M199.273 297.587C206.945 297.553 214.62 297.596 222.291 297.565C226.677 308.888 230.892 320.279 235.205 331.628C240.312 345.115 245.409 358.604 250.5 372.1C251.748 375.5 253.15 378.846 254.286 382.288C250.283 382.81 246.253 383.075 242.238 383.509C238.717 383.768 235.217 384.386 231.687 384.435C229.523 378.442 227.75 372.314 225.523 366.345C215.678 366.369 205.83 366.363 195.985 366.348C194.863 369.562 193.736 372.772 192.645 375.994C191.704 378.406 191.011 380.92 189.908 383.268C182.369 383.229 174.83 383.325 167.291 383.22C169.178 377.734 171.33 372.341 173.334 366.9C178.29 353.667 183.258 340.439 188.22 327.212C191.876 317.325 195.692 307.498 199.273 297.587ZM210.382 325.15C209.86 327.095 209.049 328.939 208.428 330.851C207.234 334.438 205.92 337.986 204.678 341.558C203.991 343.825 202.999 345.992 202.433 348.295C207.895 348.337 213.354 348.286 218.816 348.322C218.418 346.393 217.643 344.578 216.923 342.757C215.524 339.137 214.348 335.435 212.953 331.815C212.039 329.615 211.437 327.288 210.382 325.15Z" fill="#278060"/>
<path d="M346.91 297.65C354.422 297.493 361.943 297.629 369.458 297.584C386.374 297.602 403.291 297.547 420.205 297.608C420.868 301.557 421.152 305.554 421.688 309.521C421.89 311.555 422.234 313.578 422.351 315.622C413.215 315.688 404.081 315.604 394.944 315.667C395.005 338.191 394.987 360.714 394.953 383.241C387.327 383.259 379.695 383.316 372.071 383.211C372.038 360.693 372.077 338.176 372.05 315.658C363.679 315.589 355.305 315.736 346.937 315.583C346.907 309.605 346.961 303.627 346.91 297.65Z" fill="#278060"/>
</g>
</svg>
