<svg width="28" height="28" viewBox="0 0 28 28" fill="none" xmlns="http://www.w3.org/2000/svg">
<path d="M16.5867 4.08292C14.9289 3.30569 13.071 3.30569 11.4132 4.08292L3.60687 7.74269C2.35153 8.33122 2.02424 9.99077 2.62499 11.1378L2.62499 16.9167C2.62499 17.3999 3.01675 17.7917 3.5 17.7917C3.98324 17.7917 4.375 17.3999 4.375 16.9167V12.4507L11.4133 15.7504C13.0711 16.5276 14.929 16.5276 16.5868 15.7504L24.3931 12.0906C26.0912 11.2946 26.0912 8.53883 24.3931 7.74274L16.5867 4.08292Z" fill="#278060"/>
<path d="M5.83333 15.0672V19.3963C5.83333 20.5724 6.42075 21.6734 7.44955 22.2432C9.16265 23.1919 11.9047 24.5 14 24.5C16.0953 24.5 18.8373 23.1919 20.5504 22.2432C21.5792 21.6734 22.1667 20.5724 22.1667 19.3963V15.0672L17.3297 17.3349C15.2012 18.3328 12.7989 18.3328 10.6704 17.3349L5.83333 15.0672Z" fill="#278060"/>
</svg>
